<?xml version="1.0" encoding="utf-8" ?>
<svg baseProfile="full" height="480" version="1.1" viewBox="0 0 72 72" width="480" xmlns="http://www.w3.org/2000/svg" xmlns:ev="http://www.w3.org/2001/xml-events" xmlns:xlink="http://www.w3.org/1999/xlink">
  <defs/>
  <path d="M 29.94248390197754,31.501819610595703 C 30.67879295349121,31.85122299194336 31.699365615844727,32.05793380737305 31.23993492126465,31.962432861328125 C 31.610132217407227,32.05436706542969 32.60023498535156,32.208473205566406 32.397010803222656,32.130802154541016 C 32.46632385253906,32.170963287353516 33.13026428222656,32.21087646484375 33.498050689697266,32.17612838745117 C 33.35038757324219,32.16187286376953 34.077083587646484,32.205997467041016 34.740386962890625,32.03486633300781" fill="none" fill-opacity="1.0" filling="0" stroke="black" stroke-linecap="round" stroke-linejoin="round" stroke-width="0.7"/>
  <path d="M 25.98980712890625,28.232404708862305 C 26.409893035888672,28.923620223999023 27.17508888244629,29.64197540283203 26.803590774536133,29.252857208251953 C 27.090530395507812,29.56012725830078 27.83171844482422,30.219200134277344 27.7251033782959,30.06018829345703 C 27.812026977539062,30.172901153564453 28.24327850341797,30.471303939819336 28.596454620361328,30.75438690185547 C 28.638248443603516,30.781871795654297 29.141366958618164,31.081226348876953 29.700729370117188,31.377765655517578" fill="none" fill-opacity="1.0" filling="0" stroke="black" stroke-linecap="round" stroke-linejoin="round" stroke-width="0.7"/>
  <path d="M 24.332992553710938,23.885086059570312 C 24.32903289794922,24.4013671875 24.393810272216797,25.001800537109375 24.408306121826172,24.880430221557617 C 24.394752502441406,25.003297805786133 24.5528564453125,25.817453384399414 24.623863220214844,25.981958389282227 C 24.518396377563477,25.64983558654785 24.70492172241211,26.371068954467773 25.118921279907227,27.263391494750977 C 25.045368194580078,27.14362907409668 25.42642593383789,27.90911293029785 25.74382972717285,28.421079635620117" fill="none" fill-opacity="1.0" filling="0" stroke="black" stroke-linecap="round" stroke-linejoin="round" stroke-width="0.7"/>
  <path d="M 25.547870635986328,19.10951042175293 C 25.230182647705078,19.737533569335938 25.02718734741211,20.437759399414062 25.117799758911133,20.223712921142578 C 24.924989700317383,20.5733699798584 24.795305252075195,21.170984268188477 24.743738174438477,21.215421676635742 C 24.850753784179688,20.88521957397461 24.564977645874023,21.75415802001953 24.507694244384766,22.488309860229492 C 24.49209213256836,22.44354248046875 24.4035587310791,23.224613189697266 24.517358779907227,23.659793853759766" fill="none" fill-opacity="1.0" filling="0" stroke="black" stroke-linecap="round" stroke-linejoin="round" stroke-width="0.7"/>
  <path d="M 25.530561447143555,19.064655303955078 C 25.615053176879883,18.873504638671875 26.058095932006836,18.1828556060791 26.082590103149414,18.224414825439453 C 26.110050201416016,18.134742736816406 26.472057342529297,17.709230422973633 26.956096649169922,17.27084732055664 C 26.59781837463379,17.551300048828125 27.368310928344727,16.878984451293945 27.963788986206055,16.444580078125 C 27.79912567138672,16.56151580810547 28.402475357055664,16.129154205322266 29.04703140258789,15.8125" fill="none" fill-opacity="1.0" filling="0" stroke="black" stroke-linecap="round" stroke-linejoin="round" stroke-width="0.7"/>
  <path d="M 29.249496459960938,15.485124588012695 C 29.446043014526367,15.464461326599121 30.1953125,15.21160888671875 30.138988494873047,15.246877670288086 C 30.26318359375,15.150402069091797 31.133119583129883,14.944572448730469 31.38701820373535,14.859560012817383 C 31.195913314819336,14.949429512023926 31.876850128173828,14.762117385864258 32.47793197631836,14.757892608642578 C 32.35477066040039,14.780138969421387 33.048561096191406,14.727424621582031 33.761634826660156,14.880212783813477" fill="none" fill-opacity="1.0" filling="0" stroke="black" stroke-linecap="round" stroke-linejoin="round" stroke-width="0.7"/>
  <path d="M 33.85301208496094,15.088054656982422 C 34.679317474365234,15.175210952758789 35.696075439453125,15.51551628112793 35.20178985595703,15.350746154785156 C 35.55284881591797,15.45114517211914 36.34101104736328,15.734561920166016 36.32048797607422,15.709206581115723 C 36.348289489746094,15.756781578063965 37.067481994628906,16.09237289428711 37.352935791015625,16.31480598449707 C 37.47370529174805,16.37641143798828 37.936309814453125,16.716651916503906 38.16740798950195,16.96818733215332" fill="none" fill-opacity="1.0" filling="0" stroke="black" stroke-linecap="round" stroke-linejoin="round" stroke-width="0.7"/>
  <path d="M 38.05036163330078,16.804841995239258 C 38.332801818847656,16.981122970581055 38.97578430175781,17.840740203857422 38.822845458984375,17.622915267944336 C 38.794742584228516,17.524267196655273 39.497352600097656,18.379806518554688 39.58517837524414,18.590763092041016 C 39.51502990722656,18.472219467163086 39.87472915649414,19.009931564331055 40.193702697753906,19.68157386779785 C 40.24750900268555,19.73318862915039 40.530765533447266,20.51267433166504 40.6984748840332,20.883068084716797" fill="none" fill-opacity="1.0" filling="0" stroke="black" stroke-linecap="round" stroke-linejoin="round" stroke-width="0.7"/>
  <path d="M 40.61640167236328,20.769729614257812 C 40.84280014038086,21.171131134033203 41.03680419921875,21.96031951904297 41.01127624511719,21.784461975097656 C 41.03203582763672,21.87488555908203 41.187808990478516,22.56620979309082 41.22822952270508,22.82207489013672 C 41.141395568847656,22.563182830810547 41.30809783935547,23.20566749572754 41.243934631347656,24.094013214111328 C 41.1954345703125,24.08599853515625 41.14042282104492,25.053394317626953 40.9381103515625,25.34476089477539" fill="none" fill-opacity="1.0" filling="0" stroke="black" stroke-linecap="round" stroke-linejoin="round" stroke-width="0.7"/>
  <path d="M 38.520015716552734,29.526342391967773 C 39.034549713134766,29.08443260192871 39.35787582397461,28.66865348815918 39.29423904418945,28.728744506835938 C 39.310665130615234,28.766321182250977 39.672943115234375,28.299396514892578 39.9881706237793,27.816347122192383 C 39.85124969482422,28.043729782104492 40.193206787109375,27.506607055664062 40.49834060668945,26.815547943115234 C 40.33534240722656,27.14937973022461 40.683204650878906,26.606521606445312 40.84275817871094,25.60919761657715" fill="none" fill-opacity="1.0" filling="0" stroke="black" stroke-linecap="round" stroke-linejoin="round" stroke-width="0.7"/>
  <path d="M 34.38816452026367,31.66823959350586 C 35.0650749206543,31.559362411499023 35.812435150146484,31.39531707763672 35.6124267578125,31.413528442382812 C 35.6628303527832,31.40882110595703 36.3909797668457,31.151418685913086 36.68804168701172,31.008703231811523 C 36.396358489990234,31.130863189697266 37.00285720825195,30.83295440673828 37.63017272949219,30.48861312866211 C 37.29868698120117,30.606626510620117 38.15625,30.166854858398438 38.73657989501953,29.637956619262695" fill="none" fill-opacity="1.0" filling="0" stroke="black" stroke-linecap="round" stroke-linejoin="round" stroke-width="0.7"/>
  <path d="M 29.176036834716797,32.355224609375 C 29.829233169555664,32.59827423095703 30.865570068359375,32.82504653930664 30.42985725402832,32.72846221923828 C 30.794353485107422,32.836299896240234 31.73991584777832,32.97151184082031 31.59284782409668,32.91752243041992 C 31.64662742614746,32.93105697631836 32.37508010864258,33.00651168823242 32.77177810668945,32.98431396484375 C 32.675350189208984,32.978206634521484 33.36466979980469,33.042724609375 33.83485794067383,32.876434326171875" fill="none" fill-opacity="1.0" filling="0" stroke="black" stroke-linecap="round" stroke-linejoin="round" stroke-width="0.7"/>
  <path d="M 25.42730712890625,29.357404708862305 C 25.847393035888672,30.048620223999023 26.61258888244629,30.76697540283203 26.241090774536133,30.377857208251953 C 26.528030395507812,30.68512725830078 27.26921844482422,31.344200134277344 27.1626033782959,31.18518829345703 C 27.249526977539062,31.297901153564453 27.68077850341797,31.596303939819336 28.033954620361328,31.87938690185547 C 28.075748443603516,31.906871795654297 28.578866958618164,32.20622634887695 29.138229370117188,32.50276565551758" fill="none" fill-opacity="1.0" filling="0" stroke="black" stroke-linecap="round" stroke-linejoin="round" stroke-width="0.7"/>
  <path d="M 23.595151901245117,25.056211471557617 C 23.659887313842773,25.440780639648438 23.84239959716797,26.124114990234375 23.808244705200195,26.042959213256836 C 23.81717872619629,26.06344223022461 24.073076248168945,26.9872989654541 24.177967071533203,27.189105987548828 C 24.016477584838867,26.80951690673828 24.29631996154785,27.605812072753906 24.663414001464844,28.397886276245117 C 24.62013816833496,28.340089797973633 25.020488739013672,29.07217788696289 25.345230102539062,29.50002098083496" fill="none" fill-opacity="1.0" filling="0" stroke="black" stroke-linecap="round" stroke-linejoin="round" stroke-width="0.7"/>
  <path d="M 24.24463653564453,20.388275146484375 C 24.029312133789062,20.8330078125 23.85297203063965,21.63530921936035 23.876739501953125,21.470746994018555 C 23.79119110107422,21.7574405670166 23.637954711914062,22.5498046875 23.641908645629883,22.695920944213867 C 23.68496322631836,22.31224822998047 23.56553077697754,23.367290496826172 23.566429138183594,24.061826705932617 C 23.540874481201172,23.996074676513672 23.558683395385742,24.807743072509766 23.567768096923828,25.177236557006836" fill="none" fill-opacity="1.0" filling="0" stroke="black" stroke-linecap="round" stroke-linejoin="round" stroke-width="0.7"/>
  <path d="M 24.15065574645996,20.4829044342041 C 24.251943588256836,20.045063018798828 24.595745086669922,19.488943099975586 24.59515953063965,19.491043090820312 C 24.53707504272461,19.512468338012695 24.824857711791992,19.112764358520508 25.275901794433594,18.47651481628418 C 25.053340911865234,18.779083251953125 25.521039962768555,18.11908721923828 26.090505599975586,17.537431716918945 C 25.863908767700195,17.782939910888672 26.353130340576172,17.204906463623047 27.085987091064453,16.65249252319336" fill="none" fill-opacity="1.0" filling="0" stroke="black" stroke-linecap="round" stroke-linejoin="round" stroke-width="0.7"/>
  <path d="M 27.13494300842285,16.924076080322266 C 27.28728485107422,16.81338882446289 27.983531951904297,16.314184188842773 27.953502655029297,16.376558303833008 C 27.986726760864258,16.333032608032227 28.7570743560791,15.931982040405273 29.017724990844727,15.80833911895752 C 28.76069450378418,15.917040824890137 29.584501266479492,15.557693481445312 30.15494155883789,15.3861665725708 C 29.997997283935547,15.458962440490723 30.767009735107422,15.189325332641602 31.38247299194336,15.123390197753906" fill="none" fill-opacity="1.0" filling="0" stroke="black" stroke-linecap="round" stroke-linejoin="round" stroke-width="0.7"/>
  <path d="M 31.350299835205078,14.899473190307617 C 31.863658905029297,14.859823226928711 32.893096923828125,14.84535026550293 32.5906982421875,14.855663299560547 C 33.018184661865234,14.866279602050781 33.79524612426758,14.921758651733398 33.844566345214844,14.892313957214355 C 33.829463958740234,14.916990280151367 34.58721923828125,15.01183032989502 35.05975341796875,15.110214233398438 C 35.05915069580078,15.115543365478516 35.77985763549805,15.288607597351074 36.13934326171875,15.462728500366211" fill="none" fill-opacity="1.0" filling="0" stroke="black" stroke-linecap="round" stroke-linejoin="round" stroke-width="0.7"/>
  <path d="M 36.2070198059082,15.677714347839355 C 36.92215347290039,15.97909927368164 37.78872299194336,16.564722061157227 37.398887634277344,16.254730224609375 C 37.50436782836914,16.346858978271484 38.383888244628906,16.88226890563965 38.324249267578125,16.928796768188477 C 38.43930435180664,16.94810676574707 38.84532928466797,17.35605239868164 39.153404235839844,17.76251792907715 C 39.23649215698242,17.888111114501953 39.55467224121094,18.449703216552734 39.714141845703125,18.653533935546875" fill="none" fill-opacity="1.0" filling="0" stroke="black" stroke-linecap="round" stroke-linejoin="round" stroke-width="0.7"/>
  <path d="M 39.8577766418457,18.31621551513672 C 40.022247314453125,18.478435516357422 40.50373077392578,19.321666717529297 40.39559555053711,19.1650333404541 C 40.38294219970703,19.02729034423828 40.84840393066406,19.914936065673828 40.98699951171875,20.24574851989746 C 40.880836486816406,19.98153305053711 41.176429748535156,20.63393783569336 41.421287536621094,21.48288917541504 C 41.44037628173828,21.43117904663086 41.64738845825195,22.43889045715332 41.72269821166992,22.75695037841797" fill="none" fill-opacity="1.0" filling="0" stroke="black" stroke-linecap="round" stroke-linejoin="round" stroke-width="0.7"/>
  <path d="M 41.65636444091797,22.92112159729004 C 41.72978973388672,23.395071029663086 41.66181945800781,24.23674964904785 41.66801834106445,24.070396423339844 C 41.713809967041016,24.35883140563965 41.61912536621094,25.05704116821289 41.59310531616211,25.261890411376953 C 41.6295166015625,24.95222282409668 41.580230712890625,25.825475692749023 41.403602600097656,26.54196548461914 C 41.36192321777344,26.55526351928711 41.18414306640625,27.455665588378906 40.992435455322266,27.70435333251953" fill="none" fill-opacity="1.0" filling="0" stroke="black" stroke-linecap="round" stroke-linejoin="round" stroke-width="0.7"/>
  <path d="M 38.30233383178711,31.385784149169922 C 38.7464714050293,31.01510238647461 39.14707565307617,30.62883949279785 39.091793060302734,30.660818099975586 C 39.07973098754883,30.727588653564453 39.570465087890625,30.175586700439453 39.88310623168945,29.741561889648438 C 39.70440673828125,30.01449966430664 40.12228012084961,29.44445037841797 40.54722595214844,28.7449893951416 C 40.31409454345703,29.103546142578125 40.75517272949219,28.544677734375 41.0450325012207,27.685461044311523" fill="none" fill-opacity="1.0" filling="0" stroke="black" stroke-linecap="round" stroke-linejoin="round" stroke-width="0.7"/>
  <path d="M 33.83195495605469,33.2988395690918 C 34.41048812866211,33.18733215332031 35.080448150634766,33.02880096435547 34.94369125366211,33.02967071533203 C 34.98263931274414,33.042030334472656 35.70017623901367,32.80232620239258 35.98363494873047,32.66755676269531 C 35.70914840698242,32.80153274536133 36.26527786254883,32.52296447753906 36.957454681396484,32.202613830566406 C 36.585166931152344,32.33815002441406 37.46376037597656,31.919208526611328 38.17448425292969,31.369239807128906" fill="none" fill-opacity="1.0" filling="0" stroke="black" stroke-linecap="round" stroke-linejoin="round" stroke-width="0.7"/>
  <path d="M 37.808441162109375,52.37458419799805 C 38.35402297973633,52.38621139526367 39.31758499145508,52.373390197753906 39.0289192199707,52.37202453613281 C 39.33236312866211,52.4013786315918 40.32956314086914,52.36418151855469 40.256126403808594,52.3863525390625 C 40.344844818115234,52.37140655517578 41.024044036865234,52.39218521118164 41.494140625,52.37425231933594 C 41.4378662109375,52.36693572998047 42.26814270019531,52.441165924072266 42.63499450683594,52.253318786621094" fill="none" fill-opacity="1.0" filling="0" stroke="black" stroke-linecap="round" stroke-linejoin="round" stroke-width="0.7"/>
  <path d="M 32.99367904663086,52.31437683105469 C 33.4561882019043,52.325706481933594 34.443973541259766,52.300350189208984 34.2100715637207,52.32212829589844 C 34.5382080078125,52.30902862548828 35.471641540527344,52.32130432128906 35.44833755493164,52.31629943847656 C 35.47378921508789,52.32114028930664 36.24495315551758,52.31328201293945 36.71005630493164,52.31231689453125 C 36.70133590698242,52.30625915527344 37.52630615234375,52.318092346191406 37.88410186767578,52.299049377441406" fill="none" fill-opacity="1.0" filling="0" stroke="black" stroke-linecap="round" stroke-linejoin="round" stroke-width="0.7"/>
  <path d="M 28.212427139282227,52.31437683105469 C 28.674936294555664,52.325706481933594 29.6627254486084,52.300350189208984 29.428821563720703,52.32212829589844 C 29.756961822509766,52.30902862548828 30.690391540527344,52.32130432128906 30.66708755493164,52.31629943847656 C 30.69253921508789,52.32114028930664 31.46370506286621,52.31328201293945 31.928804397583008,52.31231689453125 C 31.920085906982422,52.30625915527344 32.74505615234375,52.318092346191406 33.10285186767578,52.299049377441406" fill="none" fill-opacity="1.0" filling="0" stroke="black" stroke-linecap="round" stroke-linejoin="round" stroke-width="0.7"/>
  <path d="M 23.431177139282227,52.31437683105469 C 23.893686294555664,52.325706481933594 24.8814754486084,52.300350189208984 24.647571563720703,52.32212829589844 C 24.975711822509766,52.30902862548828 25.909141540527344,52.32130432128906 25.88583755493164,52.31629943847656 C 25.91128921508789,52.32114028930664 26.68245506286621,52.31328201293945 27.147554397583008,52.31231689453125 C 27.138835906982422,52.30625915527344 27.96380615234375,52.318092346191406 28.321603775024414,52.299049377441406" fill="none" fill-opacity="1.0" filling="0" stroke="black" stroke-linecap="round" stroke-linejoin="round" stroke-width="0.7"/>
  <path d="M 18.368677139282227,52.31437683105469 C 18.831186294555664,52.325706481933594 19.8189754486084,52.300350189208984 19.585071563720703,52.32212829589844 C 19.913211822509766,52.30902862548828 20.846641540527344,52.32130432128906 20.82333755493164,52.31629943847656 C 20.84878921508789,52.32114028930664 21.61995506286621,52.31328201293945 22.085054397583008,52.31231689453125 C 22.076335906982422,52.30625915527344 22.90130615234375,52.318092346191406 23.259103775024414,52.299049377441406" fill="none" fill-opacity="1.0" filling="0" stroke="black" stroke-linecap="round" stroke-linejoin="round" stroke-width="0.7"/>
  <path d="M 14.547863006591797,51.565738677978516 C 14.408601760864258,52.70368576049805 15.13121509552002,52.53486251831055 14.91740608215332,52.39850997924805 C 14.987512588500977,52.604637145996094 16.193817138671875,52.390472412109375 16.02800750732422,52.390472412109375 C 16.060026168823242,52.54119110107422 16.445323944091797,52.37193298339844 17.271930694580078,52.48994064331055 C 16.902076721191406,52.4674072265625 17.561382293701172,52.4505500793457 18.624910354614258,52.49101257324219" fill="none" fill-opacity="1.0" filling="0" stroke="black" stroke-linecap="round" stroke-linejoin="round" stroke-width="0.7"/>
  <path d="M 15.242253303527832,46.78229904174805 C 15.216251373291016,47.23523712158203 15.091859817504883,48.11893844604492 15.117342948913574,47.933719635009766 C 15.108118057250977,48.169803619384766 14.972167015075684,48.948020935058594 14.934313774108887,49.11463928222656 C 14.990697860717773,48.79404830932617 14.860612869262695,49.80028533935547 14.753134727478027,50.44565963745117 C 14.74434757232666,50.45729446411133 14.599528312683105,51.37636184692383 14.563457489013672,51.657615661621094" fill="none" fill-opacity="1.0" filling="0" stroke="black" stroke-linecap="round" stroke-linejoin="round" stroke-width="0.7"/>
  <path d="M 15.847700119018555,42.0347900390625 C 15.772821426391602,42.49826431274414 15.660720825195312,43.34527587890625 15.673431396484375,43.16414260864258 C 15.640734672546387,43.40003204345703 15.535429000854492,44.08885955810547 15.47321891784668,44.265079498291016 C 15.541655540466309,43.938026428222656 15.413558006286621,44.892425537109375 15.295356750488281,45.57685852050781 C 15.290451049804688,45.58926773071289 15.142759323120117,46.50267028808594 15.081567764282227,46.83963394165039" fill="none" fill-opacity="1.0" filling="0" stroke="black" stroke-linecap="round" stroke-linejoin="round" stroke-width="0.7"/>
  <path d="M 15.94771957397461,41.94951629638672 C 16.2415828704834,40.99610900878906 16.39841651916504,40.487945556640625 16.467966079711914,40.60197830200195 C 16.379976272583008,40.65449905395508 16.571578979492188,40.20744323730469 16.96997833251953,39.51041030883789 C 16.85333251953125,39.70105743408203 17.219135284423828,39.05155563354492 17.630571365356445,38.62446594238281 C 17.389780044555664,38.87192153930664 17.725772857666016,38.3858757019043 18.377195358276367,37.895748138427734" fill="none" fill-opacity="1.0" filling="0" stroke="black" stroke-linecap="round" stroke-linejoin="round" stroke-width="0.7"/>
  <path d="M 18.353111267089844,37.98188781738281 C 18.52260971069336,37.85095977783203 19.26045799255371,37.31422805786133 19.19930648803711,37.410804748535156 C 19.235721588134766,37.355133056640625 20.01584243774414,36.93412399291992 20.233808517456055,36.832786560058594 C 20.039487838745117,36.92653274536133 20.820505142211914,36.55136489868164 21.38568115234375,36.44706344604492 C 21.243101119995117,36.49949264526367 21.98382568359375,36.277374267578125 22.73480987548828,36.2414665222168" fill="none" fill-opacity="1.0" filling="0" stroke="black" stroke-linecap="round" stroke-linejoin="round" stroke-width="0.7"/>
  <path d="M 22.868677139282227,36.28312683105469 C 23.331186294555664,36.294456481933594 24.3189754486084,36.269100189208984 24.085071563720703,36.29087829589844 C 24.413211822509766,36.27777862548828 25.346641540527344,36.29005432128906 25.32333755493164,36.28504943847656 C 25.34878921508789,36.28989028930664 26.11995506286621,36.28203201293945 26.585054397583008,36.28106689453125 C 26.576335906982422,36.27500915527344 27.40130615234375,36.286842346191406 27.759103775024414,36.267799377441406" fill="none" fill-opacity="1.0" filling="0" stroke="black" stroke-linecap="round" stroke-linejoin="round" stroke-width="0.7"/>
  <path d="M 27.649927139282227,36.28312683105469 C 28.112436294555664,36.294456481933594 29.1002254486084,36.269100189208984 28.866321563720703,36.29087829589844 C 29.194461822509766,36.27777862548828 30.127891540527344,36.29005432128906 30.10458755493164,36.28504943847656 C 30.13003921508789,36.28989028930664 30.90120506286621,36.28203201293945 31.366304397583008,36.28106689453125 C 31.357585906982422,36.27500915527344 32.18255615234375,36.286842346191406 32.54035186767578,36.267799377441406" fill="none" fill-opacity="1.0" filling="0" stroke="black" stroke-linecap="round" stroke-linejoin="round" stroke-width="0.7"/>
  <path d="M 32.43117904663086,36.28312683105469 C 32.8936882019043,36.294456481933594 33.881473541259766,36.269100189208984 33.6475715637207,36.29087829589844 C 33.9757080078125,36.27777862548828 34.909141540527344,36.29005432128906 34.88583755493164,36.28504943847656 C 34.91128921508789,36.28989028930664 35.68245315551758,36.28203201293945 36.14755630493164,36.28106689453125 C 36.13883590698242,36.27500915527344 36.96380615234375,36.286842346191406 37.32160186767578,36.267799377441406" fill="none" fill-opacity="1.0" filling="0" stroke="black" stroke-linecap="round" stroke-linejoin="round" stroke-width="0.7"/>
  <path d="M 37.493682861328125,36.28312683105469 C 37.9561882019043,36.294456481933594 38.94397735595703,36.269100189208984 38.71007537841797,36.29087829589844 C 39.0382080078125,36.27777862548828 39.971641540527344,36.29005432128906 39.94833755493164,36.28504943847656 C 39.97378921508789,36.28989028930664 40.74495315551758,36.28203201293945 41.21005630493164,36.28106689453125 C 41.20133590698242,36.27500915527344 42.02630615234375,36.286842346191406 42.38410186767578,36.267799377441406" fill="none" fill-opacity="1.0" filling="0" stroke="black" stroke-linecap="round" stroke-linejoin="round" stroke-width="0.7"/>
  <path d="M 42.16149139404297,36.21363830566406 C 42.90599822998047,36.1589469909668 43.91692352294922,36.303260803222656 43.454933166503906,36.233917236328125 C 43.92214584350586,36.29695129394531 44.55815505981445,36.44711685180664 44.62786102294922,36.43092727661133 C 44.601356506347656,36.49748992919922 45.33734893798828,36.67741012573242 45.74831008911133,36.91741180419922 C 45.810333251953125,36.91928482055664 46.41631317138672,37.25074768066406 46.727108001708984,37.44234085083008" fill="none" fill-opacity="1.0" filling="0" stroke="black" stroke-linecap="round" stroke-linejoin="round" stroke-width="0.7"/>
  <path d="M 46.789730072021484,37.47951889038086 C 47.253875732421875,37.74718475341797 48.04927062988281,38.59500503540039 47.77782440185547,38.303504943847656 C 47.79960632324219,38.315303802490234 48.66555404663086,39.07294464111328 48.662269592285156,39.149749755859375 C 48.68071746826172,39.15949630737305 49.06169891357422,39.631446838378906 49.400535583496094,40.164737701416016 C 49.45695495605469,40.25370788574219 49.766197204589844,40.85464096069336 49.9483757019043,41.2668342590332" fill="none" fill-opacity="1.0" filling="0" stroke="black" stroke-linecap="round" stroke-linejoin="round" stroke-width="0.7"/>
  <path d="M 46.616844177246094,43.896751403808594 C 47.108402252197266,43.657012939453125 47.965919494628906,43.24496841430664 47.57121658325195,43.394073486328125 C 47.88888168334961,43.237308502197266 48.36445617675781,43.15009689331055 48.681358337402344,42.87428665161133 C 48.4388427734375,43.00469970703125 49.308963775634766,42.83710479736328 49.72939682006836,42.48693084716797 C 49.70973587036133,42.75201416015625 50.21778869628906,42.275516510009766 49.64838790893555,41.64731216430664" fill="none" fill-opacity="1.0" filling="0" stroke="black" stroke-linecap="round" stroke-linejoin="round" stroke-width="0.7"/>
  <path d="M 43.45875549316406,47.705448150634766 C 43.48563766479492,47.49659729003906 43.88130569458008,46.93804931640625 43.894187927246094,46.87398147583008 C 43.83519744873047,46.93872833251953 44.161170959472656,46.56709289550781 44.5912971496582,45.95564651489258 C 44.36918640136719,46.30611038208008 44.810752868652344,45.640769958496094 45.475257873535156,44.996437072753906 C 45.215301513671875,45.2492790222168 45.78799057006836,44.61980438232422 46.56623077392578,43.99082565307617" fill="none" fill-opacity="1.0" filling="0" stroke="black" stroke-linecap="round" stroke-linejoin="round" stroke-width="0.7"/>
  <path d="M 43.52591323852539,47.41169738769531 C 43.1958122253418,47.96194839477539 42.97941589355469,48.68422317504883 43.05815887451172,48.48208999633789 C 42.85929870605469,48.857261657714844 42.72434997558594,49.47416687011719 42.67447280883789,49.594486236572266 C 42.78654479980469,49.20184326171875 42.56068420410156,50.12382125854492 42.558319091796875,50.88458251953125 C 42.538330078125,50.822261810302734 42.481903076171875,51.62102508544922 42.52619171142578,52.154457092285156" fill="none" fill-opacity="1.0" filling="0" stroke="black" stroke-linecap="round" stroke-linejoin="round" stroke-width="0.7"/>
  <path d="M 49.66429901123047,52.31010818481445 C 49.7025146484375,53.524139404296875 49.769771575927734,54.054107666015625 49.75464630126953,53.64773941040039 C 49.75196838378906,54.18877029418945 49.916038513183594,54.90910720825195 49.802589416503906,54.73719024658203 C 49.905174255371094,54.63969039916992 49.79046630859375,55.20280075073242 50.2957763671875,55.57660675048828 C 50.09993362426758,55.3971061706543 50.41613006591797,55.79087829589844 51.62757873535156,55.667381286621094" fill="none" fill-opacity="1.0" filling="0" stroke="black" stroke-linecap="round" stroke-linejoin="round" stroke-width="0.7"/>
  <path d="M 46.51264953613281,51.09575653076172 C 46.77724075317383,51.08031463623047 47.75712585449219,51.04851531982422 47.4525146484375,51.04416275024414 C 47.74739456176758,51.00994110107422 48.513038635253906,51.0432014465332 48.712520599365234,51.03163146972656 C 48.65011215209961,51.060813903808594 49.26807403564453,50.90889358520508 49.60226821899414,51.269920349121094 C 49.53160095214844,51.31903839111328 49.83068084716797,51.66474151611328 49.70309829711914,52.382354736328125" fill="none" fill-opacity="1.0" filling="0" stroke="black" stroke-linecap="round" stroke-linejoin="round" stroke-width="0.7"/>
  <path d="M 47.403968811035156,48.35927200317383 C 45.56591033935547,48.786739349365234 45.68861389160156,49.12443161010742 45.63845443725586,49.026004791259766 C 45.30751419067383,49.618167877197266 45.56195068359375,49.87785720825195 45.57022476196289,49.94331359863281 C 45.546390533447266,49.59349060058594 45.446693420410156,50.137977600097656 45.788028717041016,50.61039733886719 C 45.757015228271484,50.38018035888672 45.868003845214844,50.97311782836914 46.43185043334961,51.196006774902344" fill="none" fill-opacity="1.0" filling="0" stroke="black" stroke-linecap="round" stroke-linejoin="round" stroke-width="0.7"/>
  <path d="M 47.52799987792969,48.74576187133789 C 48.26060485839844,48.728485107421875 48.659942626953125,48.6536750793457 48.35866165161133,48.69575881958008 C 48.54503631591797,48.67863845825195 48.87620544433594,48.825462341308594 49.335445404052734,48.64302062988281 C 49.204383850097656,48.62757110595703 49.49958038330078,48.79576110839844 49.95808410644531,48.275390625 C 49.78312683105469,48.29142379760742 50.18514633178711,47.94894790649414 49.88279342651367,46.38002395629883" fill="none" fill-opacity="1.0" filling="0" stroke="black" stroke-linecap="round" stroke-linejoin="round" stroke-width="0.7"/>
  <path d="M 49.93183135986328,46.363563537597656 C 50.01465606689453,45.221797943115234 50.20994567871094,44.723628997802734 50.11955642700195,44.84574890136719 C 50.26462173461914,44.50660705566406 50.218482971191406,44.26403045654297 50.68358612060547,43.95149230957031 C 50.79439926147461,43.999202728271484 51.334716796875,43.81852340698242 51.856178283691406,44.13896179199219 C 51.8525390625,44.20927429199219 52.20056915283203,44.29062271118164 52.48583221435547,44.734371185302734" fill="none" fill-opacity="1.0" filling="0" stroke="black" stroke-linecap="round" stroke-linejoin="round" stroke-width="0.7"/>
  <path d="M 52.64874267578125,44.861061096191406 C 52.66862487792969,45.605674743652344 52.687408447265625,46.239009857177734 52.67607116699219,45.920936584472656 C 52.66105651855469,46.36552810668945 52.6988639831543,47.19270706176758 52.64002227783203,47.139404296875 C 52.739402770996094,46.9513053894043 52.62541198730469,47.82935333251953 52.78131103515625,48.35637664794922 C 52.698097229003906,48.2585334777832 52.91505432128906,48.83788299560547 53.674766540527344,48.52946090698242" fill="none" fill-opacity="1.0" filling="0" stroke="black" stroke-linecap="round" stroke-linejoin="round" stroke-width="0.7"/>
  <path d="M 53.39397048950195,48.722900390625 C 53.810699462890625,48.678192138671875 54.78973388671875,48.69544982910156 54.44187927246094,48.70780563354492 C 54.7865104675293,48.62578582763672 55.512393951416016,48.7157096862793 55.64382553100586,48.744239807128906 C 55.63349533081055,48.75383758544922 56.17103576660156,48.760047912597656 56.49518585205078,49.203636169433594 C 56.428348541259766,49.23720932006836 56.762123107910156,49.64262390136719 56.855831146240234,50.2559700012207" fill="none" fill-opacity="1.0" filling="0" stroke="black" stroke-linecap="round" stroke-linejoin="round" stroke-width="0.7"/>
  <path d="M 52.83602523803711,51.81852340698242 C 53.49073791503906,51.671321868896484 54.14942932128906,51.68124008178711 53.971561431884766,51.65147018432617 C 54.14764404296875,51.63930892944336 54.67154312133789,51.6817626953125 54.992454528808594,51.61423873901367 C 54.81239318847656,51.615325927734375 55.31908416748047,51.77008056640625 55.93319320678711,51.497833251953125 C 55.76679992675781,51.55282211303711 56.50861740112305,51.42749786376953 56.87861251831055,50.55232620239258" fill="none" fill-opacity="1.0" filling="0" stroke="black" stroke-linecap="round" stroke-linejoin="round" stroke-width="0.7"/>
  <path d="M 52.4985237121582,51.9586067199707 C 52.32868194580078,52.42549514770508 52.295509338378906,53.138057708740234 52.391624450683594,52.94283676147461 C 52.255165100097656,53.2355842590332 52.30836868286133,53.749412536621094 52.32524490356445,54.02006149291992 C 52.31052017211914,53.63410949707031 52.3769645690918,54.344017028808594 52.32899475097656,55.04633712768555 C 52.268760681152344,55.0855598449707 52.16569519042969,55.79001998901367 51.57484817504883,56.042327880859375" fill="none" fill-opacity="1.0" filling="0" stroke="black" stroke-linecap="round" stroke-linejoin="round" stroke-width="0.7"/>
  <path d="M 49.431297302246094,59.475032806396484 C 50.04409408569336,59.72663879394531 50.992332458496094,59.87419128417969 50.623409271240234,59.81595230102539 C 50.938419342041016,59.8863410949707 51.90913391113281,59.99477005004883 51.79206085205078,59.92183303833008 C 51.82553482055664,59.95672607421875 52.52309799194336,59.97077178955078 52.94461441040039,59.92757034301758 C 52.8059196472168,59.91643524169922 53.5059700012207,59.97959899902344 54.08280944824219,59.74895095825195" fill="none" fill-opacity="1.0" filling="0" stroke="black" stroke-linecap="round" stroke-linejoin="round" stroke-width="0.7"/>
  <path d="M 45.63823318481445,56.88805389404297 C 46.164215087890625,57.54555130004883 46.94447708129883,58.229740142822266 46.51374053955078,57.829315185546875 C 46.8814697265625,58.158424377441406 47.58346939086914,58.72977828979492 47.50191879272461,58.577449798583984 C 47.57456588745117,58.69636535644531 48.02947235107422,58.98098373413086 48.412532806396484,59.216365814208984 C 48.426658630371094,59.21643829345703 48.95043182373047,59.4333610534668 49.42241668701172,59.54595947265625" fill="none" fill-opacity="1.0" filling="0" stroke="black" stroke-linecap="round" stroke-linejoin="round" stroke-width="0.7"/>
  <path d="M 43.89278030395508,52.33522415161133 C 43.9034423828125,52.86887741088867 44.02290344238281,53.489845275878906 44.01559066772461,53.363590240478516 C 44.00273895263672,53.478858947753906 44.23191833496094,54.32830810546875 44.31818771362305,54.47416687011719 C 44.16280746459961,54.11977767944336 44.43800354003906,54.83743667602539 44.852630615234375,55.66197967529297 C 44.805572509765625,55.56202697753906 45.20560836791992,56.257755279541016 45.54934310913086,56.78934860229492" fill="none" fill-opacity="1.0" filling="0" stroke="black" stroke-linecap="round" stroke-linejoin="round" stroke-width="0.7"/>
  <path d="M 44.492027282714844,47.95926284790039 C 44.25665283203125,48.511497497558594 44.05329132080078,49.291019439697266 44.099674224853516,49.08161544799805 C 43.94889450073242,49.458858489990234 43.785797119140625,50.19377517700195 43.77354049682617,50.33491516113281 C 43.87925720214844,49.930755615234375 43.676597595214844,50.910247802734375 43.75461959838867,51.60660171508789 C 43.68159484863281,51.50940704345703 43.759639739990234,52.29256057739258 43.821964263916016,52.7297477722168" fill="none" fill-opacity="1.0" filling="0" stroke="black" stroke-linecap="round" stroke-linejoin="round" stroke-width="0.7"/>
  <path d="M 44.443965911865234,47.83990478515625 C 44.51054763793945,47.64250946044922 44.92302322387695,46.9970817565918 44.95517349243164,47.00001907348633 C 44.955989837646484,46.95868682861328 45.29667663574219,46.55394744873047 45.771366119384766,46.05788040161133 C 45.44883728027344,46.365447998046875 46.11219787597656,45.68939971923828 46.745025634765625,45.16561508178711 C 46.5494384765625,45.34946823120117 47.13523483276367,44.8330078125 47.83259582519531,44.41682434082031" fill="none" fill-opacity="1.0" filling="0" stroke="black" stroke-linecap="round" stroke-linejoin="round" stroke-width="0.7"/>
  <path d="M 47.81117248535156,44.397804260253906 C 48.06930923461914,44.14133834838867 48.752864837646484,43.877685546875 48.78981018066406,43.88585662841797 C 48.92124938964844,43.805999755859375 49.61598205566406,43.60590744018555 49.97669219970703,43.51985549926758 C 49.708885192871094,43.5461540222168 50.37873077392578,43.439517974853516 50.98348617553711,43.36186981201172 C 50.88116455078125,43.3994140625 51.60869598388672,43.29583740234375 52.32758331298828,43.349761962890625" fill="none" fill-opacity="1.0" filling="0" stroke="black" stroke-linecap="round" stroke-linejoin="round" stroke-width="0.7"/>
  <path d="M 52.30146789550781,43.714935302734375 C 53.13311767578125,43.7922477722168 54.221309661865234,44.0371208190918 53.681884765625,43.92143249511719 C 54.19240951538086,44.028987884521484 54.84667205810547,44.21018981933594 54.83773422241211,44.2104606628418 C 54.856407165527344,44.22250747680664 55.61726760864258,44.48894119262695 55.9244499206543,44.67107009887695 C 56.06363296508789,44.737483978271484 56.65212631225586,45.000953674316406 56.83217239379883,45.127288818359375" fill="none" fill-opacity="1.0" filling="0" stroke="black" stroke-linecap="round" stroke-linejoin="round" stroke-width="0.7"/>
  <path d="M 56.62692642211914,44.843040466308594 C 57.11479949951172,44.98111343383789 57.83848190307617,45.79487228393555 57.61931610107422,45.58384323120117 C 57.63215255737305,45.54132080078125 58.38578796386719,46.308372497558594 58.44419860839844,46.49318313598633 C 58.47709274291992,46.41642761230469 58.78867721557617,46.948516845703125 59.16593551635742,47.474365234375 C 59.22317886352539,47.58586120605469 59.57462692260742,48.15437316894531 59.789146423339844,48.531002044677734" fill="none" fill-opacity="1.0" filling="0" stroke="black" stroke-linecap="round" stroke-linejoin="round" stroke-width="0.7"/>
  <path d="M 59.5982780456543,48.300537109375 C 59.74362564086914,48.66707229614258 59.951904296875,49.47557830810547 59.92898941040039,49.32302474975586 C 59.94873809814453,49.37430953979492 60.14268493652344,50.151222229003906 60.149044036865234,50.43239974975586 C 60.10578155517578,50.175132751464844 60.268550872802734,50.85295486450195 60.27985763549805,51.69725799560547 C 60.23955535888672,51.70416259765625 60.282386779785156,52.6907958984375 60.17715835571289,52.93952941894531" fill="none" fill-opacity="1.0" filling="0" stroke="black" stroke-linecap="round" stroke-linejoin="round" stroke-width="0.7"/>
  <path d="M 57.97743606567383,57.28020095825195 C 58.50141525268555,56.73129653930664 58.75054168701172,56.35154342651367 58.69615173339844,56.36301803588867 C 58.73243713378906,56.40631103515625 58.91569900512695,56.08448028564453 59.28174591064453,55.535789489746094 C 59.1264533996582,55.695648193359375 59.48839569091797,55.22322463989258 59.75856399536133,54.38591766357422 C 59.626060485839844,54.74168395996094 59.93587875366211,54.114078521728516 60.176513671875,52.98746871948242" fill="none" fill-opacity="1.0" filling="0" stroke="black" stroke-linecap="round" stroke-linejoin="round" stroke-width="0.7"/>
  <path d="M 54.15157699584961,59.606964111328125 C 54.730167388916016,59.436683654785156 55.506351470947266,59.21290969848633 55.317359924316406,59.232295989990234 C 55.37019348144531,59.216400146484375 56.07735061645508,58.959861755371094 56.41767501831055,58.770748138427734 C 56.06641387939453,58.906490325927734 56.80179977416992,58.58187484741211 57.38902282714844,58.17449951171875 C 57.097251892089844,58.34024429321289 57.92017364501953,57.84446334838867 58.3486328125,57.386714935302734" fill="none" fill-opacity="1.0" filling="0" stroke="black" stroke-linecap="round" stroke-linejoin="round" stroke-width="0.7"/>
  <path d="M 49.05855178833008,60.541412353515625 C 49.69286346435547,60.87063217163086 50.69837188720703,60.98939514160156 50.304473876953125,60.938114166259766 C 50.640472412109375,60.99471664428711 51.67500305175781,61.109256744384766 51.46551513671875,61.0324821472168 C 51.527923583984375,61.08889389038086 52.21138000488281,61.07218551635742 52.59711837768555,61.04356384277344 C 52.448638916015625,61.01203918457031 53.18937301635742,61.06294631958008 53.878116607666016,60.93711853027344" fill="none" fill-opacity="1.0" filling="0" stroke="black" stroke-linecap="round" stroke-linejoin="round" stroke-width="0.7"/>
  <path d="M 44.95274353027344,57.96040725708008 C 45.503334045410156,58.6424674987793 46.440467834472656,59.28273010253906 45.88399124145508,58.8819694519043 C 46.29225540161133,59.206809997558594 47.119171142578125,59.7125358581543 46.97166061401367,59.56306457519531 C 47.08686447143555,59.67286682128906 47.6016845703125,59.96097183227539 47.95343017578125,60.159698486328125 C 48.016937255859375,60.19188690185547 48.525997161865234,60.4163932800293 49.00507354736328,60.701881408691406" fill="none" fill-opacity="1.0" filling="0" stroke="black" stroke-linecap="round" stroke-linejoin="round" stroke-width="0.7"/>
  <path d="M 42.78502655029297,53.849090576171875 C 42.83263397216797,54.213932037353516 43.10670852661133,54.996124267578125 43.0694580078125,54.833457946777344 C 43.07834243774414,54.91782760620117 43.48700714111328,55.847415924072266 43.57197189331055,55.95838165283203 C 43.36946105957031,55.6633186340332 43.78749084472656,56.34193420410156 44.20504379272461,57.02345275878906 C 44.16682434082031,56.96443176269531 44.580562591552734,57.56074905395508 44.96836853027344,58.08674240112305" fill="none" fill-opacity="1.0" filling="0" stroke="black" stroke-linecap="round" stroke-linejoin="round" stroke-width="0.7"/>
  <path d="M 38.23241424560547,53.47429275512695 C 38.66914367675781,53.4947624206543 39.758872985839844,53.47321701049805 39.51691436767578,53.49357223510742 C 39.808345794677734,53.51077651977539 40.705955505371094,53.47707748413086 40.833160400390625,53.489654541015625 C 40.78812789916992,53.49913024902344 41.65837860107422,53.48855972290039 42.00697326660156,53.48601150512695 C 42.10294723510742,53.48658752441406 42.67278289794922,53.59364318847656 42.78172302246094,53.9373664855957" fill="none" fill-opacity="1.0" filling="0" stroke="black" stroke-linecap="round" stroke-linejoin="round" stroke-width="0.7"/>
  <path d="M 33.27492904663086,53.43937683105469 C 33.7374382019043,53.450706481933594 34.725223541259766,53.425350189208984 34.4913215637207,53.44712829589844 C 34.8194580078125,53.43402862548828 35.752891540527344,53.44630432128906 35.72958755493164,53.44129943847656 C 35.75503921508789,53.44614028930664 36.52620315551758,53.43828201293945 36.99130630493164,53.43731689453125 C 36.98258590698242,53.43125915527344 37.80755615234375,53.443092346191406 38.16535186767578,53.424049377441406" fill="none" fill-opacity="1.0" filling="0" stroke="black" stroke-linecap="round" stroke-linejoin="round" stroke-width="0.7"/>
  <path d="M 28.212427139282227,53.43937683105469 C 28.674936294555664,53.450706481933594 29.6627254486084,53.425350189208984 29.428821563720703,53.44712829589844 C 29.756961822509766,53.43402862548828 30.690391540527344,53.44630432128906 30.66708755493164,53.44129943847656 C 30.69253921508789,53.44614028930664 31.46370506286621,53.43828201293945 31.928804397583008,53.43731689453125 C 31.920085906982422,53.43125915527344 32.74505615234375,53.443092346191406 33.10285186767578,53.424049377441406" fill="none" fill-opacity="1.0" filling="0" stroke="black" stroke-linecap="round" stroke-linejoin="round" stroke-width="0.7"/>
  <path d="M 23.431177139282227,53.43937683105469 C 23.893686294555664,53.450706481933594 24.8814754486084,53.425350189208984 24.647571563720703,53.44712829589844 C 24.975711822509766,53.43402862548828 25.909141540527344,53.44630432128906 25.88583755493164,53.44129943847656 C 25.91128921508789,53.44614028930664 26.68245506286621,53.43828201293945 27.147554397583008,53.43731689453125 C 27.138835906982422,53.43125915527344 27.96380615234375,53.443092346191406 28.321603775024414,53.424049377441406" fill="none" fill-opacity="1.0" filling="0" stroke="black" stroke-linecap="round" stroke-linejoin="round" stroke-width="0.7"/>
  <path d="M 18.368677139282227,53.43937683105469 C 18.831186294555664,53.450706481933594 19.8189754486084,53.425350189208984 19.585071563720703,53.44712829589844 C 19.913211822509766,53.43402862548828 20.846641540527344,53.44630432128906 20.82333755493164,53.44129943847656 C 20.84878921508789,53.44614028930664 21.61995506286621,53.43828201293945 22.085054397583008,53.43731689453125 C 22.076335906982422,53.43125915527344 22.90130615234375,53.443092346191406 23.259103775024414,53.424049377441406" fill="none" fill-opacity="1.0" filling="0" stroke="black" stroke-linecap="round" stroke-linejoin="round" stroke-width="0.7"/>
  <path d="M 13.567358016967773,53.337833404541016 C 14.096240997314453,53.446449279785156 15.187931060791016,53.48604965209961 14.836492538452148,53.46413040161133 C 15.187682151794434,53.50616455078125 16.230642318725586,53.5346565246582 16.036956787109375,53.505916595458984 C 16.12607765197754,53.521888732910156 16.87978172302246,53.52764129638672 17.2685604095459,53.51792907714844 C 17.226398468017578,53.512794494628906 18.04840660095215,53.55463790893555 18.4869384765625,53.51425552368164" fill="none" fill-opacity="1.0" filling="0" stroke="black" stroke-linecap="round" stroke-linejoin="round" stroke-width="0.7"/>
  <path d="M 13.18942928314209,49.31946563720703 C 12.999029159545898,50.24663162231445 12.897703170776367,50.97608947753906 12.94554328918457,50.58925247192383 C 12.822969436645508,51.14888381958008 12.777711868286133,51.80620574951172 12.734541893005371,51.839012145996094 C 12.861883163452148,51.55012893676758 12.575906753540039,52.29572296142578 12.871033668518066,53.018531799316406 C 12.753210067749023,52.81671142578125 12.965251922607422,53.49201965332031 13.814336776733398,53.60285186767578" fill="none" fill-opacity="1.0" filling="0" stroke="black" stroke-linecap="round" stroke-linejoin="round" stroke-width="0.7"/>
  <path d="M 13.878950119018555,44.5660400390625 C 13.804071426391602,45.02951431274414 13.691970825195312,45.87652587890625 13.704681396484375,45.69539260864258 C 13.671984672546387,45.93128204345703 13.566679000854492,46.62010955810547 13.50446891784668,46.796329498291016 C 13.572905540466309,46.469276428222656 13.444808006286621,47.423675537109375 13.326606750488281,48.10810852050781 C 13.321701049804688,48.12051773071289 13.174009323120117,49.03392028808594 13.112817764282227,49.37088394165039" fill="none" fill-opacity="1.0" filling="0" stroke="black" stroke-linecap="round" stroke-linejoin="round" stroke-width="0.7"/>
  <path d="M 15.057363510131836,39.78825378417969 C 14.952764511108398,40.238372802734375 14.781251907348633,41.047943115234375 14.814043045043945,40.87281036376953 C 14.762063026428223,41.11649703979492 14.624717712402344,41.83708953857422 14.571805000305176,41.97533416748047 C 14.638822555541992,41.62323760986328 14.476133346557617,42.63507843017578 14.369363784790039,43.34046936035156 C 14.363934516906738,43.32510757446289 14.231958389282227,44.22270584106445 14.184561729431152,44.589447021484375" fill="none" fill-opacity="1.0" filling="0" stroke="black" stroke-linecap="round" stroke-linejoin="round" stroke-width="0.7"/>
  <path d="M 15.073287010192871,39.814910888671875 C 15.193832397460938,39.38638687133789 15.544651985168457,38.771888732910156 15.550652503967285,38.8168830871582 C 15.529481887817383,38.777469635009766 15.820708274841309,38.3785285949707 16.285860061645508,37.78702163696289 C 16.02138900756836,38.07115173339844 16.58800506591797,37.403194427490234 17.162925720214844,36.8837776184082 C 16.967527389526367,37.092533111572266 17.457162857055664,36.577880859375 18.165067672729492,36.14109420776367" fill="none" fill-opacity="1.0" filling="0" stroke="black" stroke-linecap="round" stroke-linejoin="round" stroke-width="0.7"/>
  <path d="M 17.970693588256836,36.35443115234375 C 18.243850708007812,36.184417724609375 18.951902389526367,35.80858612060547 18.929903030395508,35.84217834472656 C 18.99958038330078,35.7678337097168 19.777856826782227,35.45243453979492 20.17041015625,35.34305953979492 C 19.85128402709961,35.428955078125 20.596668243408203,35.17512130737305 21.209775924682617,35.113624572753906 C 21.066415786743164,35.160579681396484 21.77124786376953,35.03422164916992 22.548927307128906,35.07909393310547" fill="none" fill-opacity="1.0" filling="0" stroke="black" stroke-linecap="round" stroke-linejoin="round" stroke-width="0.7"/>
  <path d="M 22.587427139282227,35.15812683105469 C 23.049936294555664,35.169456481933594 24.0377254486084,35.144100189208984 23.803821563720703,35.16587829589844 C 24.131961822509766,35.15277862548828 25.065391540527344,35.16505432128906 25.04208755493164,35.1600456237793 C 25.06753921508789,35.16489028930664 25.83870506286621,35.15703201293945 26.303804397583008,35.15606689453125 C 26.295085906982422,35.15000915527344 27.12005615234375,35.161842346191406 27.477853775024414,35.142799377441406" fill="none" fill-opacity="1.0" filling="0" stroke="black" stroke-linecap="round" stroke-linejoin="round" stroke-width="0.7"/>
  <path d="M 27.368677139282227,35.15812683105469 C 27.831186294555664,35.169456481933594 28.8189754486084,35.144100189208984 28.585071563720703,35.16587829589844 C 28.913211822509766,35.15277862548828 29.846641540527344,35.16505432128906 29.82333755493164,35.1600456237793 C 29.84878921508789,35.16489028930664 30.61995506286621,35.15703201293945 31.085054397583008,35.15606689453125 C 31.076335906982422,35.15000915527344 31.90130615234375,35.161842346191406 32.25910186767578,35.142799377441406" fill="none" fill-opacity="1.0" filling="0" stroke="black" stroke-linecap="round" stroke-linejoin="round" stroke-width="0.7"/>
  <path d="M 32.43117904663086,35.15812683105469 C 32.8936882019043,35.169456481933594 33.881473541259766,35.144100189208984 33.6475715637207,35.16587829589844 C 33.9757080078125,35.15277862548828 34.909141540527344,35.16505432128906 34.88583755493164,35.1600456237793 C 34.91128921508789,35.16489028930664 35.68245315551758,35.15703201293945 36.14755630493164,35.15606689453125 C 36.13883590698242,35.15000915527344 36.96380615234375,35.161842346191406 37.32160186767578,35.142799377441406" fill="none" fill-opacity="1.0" filling="0" stroke="black" stroke-linecap="round" stroke-linejoin="round" stroke-width="0.7"/>
  <path d="M 37.212432861328125,35.15812683105469 C 37.6749382019043,35.169456481933594 38.66272735595703,35.144100189208984 38.42882537841797,35.16587829589844 C 38.7569580078125,35.15277862548828 39.690391540527344,35.16505432128906 39.66708755493164,35.1600456237793 C 39.69253921508789,35.16489028930664 40.46370315551758,35.15703201293945 40.92880630493164,35.15606689453125 C 40.92008590698242,35.15000915527344 41.74505615234375,35.161842346191406 42.10285186767578,35.142799377441406" fill="none" fill-opacity="1.0" filling="0" stroke="black" stroke-linecap="round" stroke-linejoin="round" stroke-width="0.7"/>
  <path d="M 42.151702880859375,35.05668258666992 C 42.89788055419922,35.08448791503906 43.951480865478516,35.24235916137695 43.503318786621094,35.167808532714844 C 43.95062255859375,35.24589538574219 44.65407943725586,35.3822135925293 44.700077056884766,35.375946044921875 C 44.688514709472656,35.413787841796875 45.43696594238281,35.62903594970703 45.80384063720703,35.81032943725586 C 45.878135681152344,35.84326934814453 46.48745346069336,36.15147399902344 46.738033294677734,36.36322784423828" fill="none" fill-opacity="1.0" filling="0" stroke="black" stroke-linecap="round" stroke-linejoin="round" stroke-width="0.7"/>
  <path d="M 46.508480072021484,36.35451889038086 C 46.972625732421875,36.62218475341797 47.76802062988281,37.47000503540039 47.49657440185547,37.178504943847656 C 47.51835632324219,37.190303802490234 48.38430404663086,37.94794464111328 48.381019592285156,38.024749755859375 C 48.39946746826172,38.03449630737305 48.78044891357422,38.506446838378906 49.119285583496094,39.039737701416016 C 49.17570495605469,39.12870788574219 49.484947204589844,39.72964096069336 49.6671257019043,40.1418342590332" fill="none" fill-opacity="1.0" filling="0" stroke="black" stroke-linecap="round" stroke-linejoin="round" stroke-width="0.7"/>
  <path d="M 49.6640625,40.21794891357422 C 49.59986114501953,41.709190368652344 49.968360900878906,41.814693450927734 49.78874969482422,41.4998664855957 C 49.737342834472656,42.02094268798828 50.422760009765625,42.02225875854492 50.531471252441406,41.934513092041016 C 50.45439910888672,41.90825271606445 50.534400939941406,41.92835235595703 51.38685607910156,41.69878005981445 C 51.00391387939453,41.713035583496094 51.58226013183594,41.729164123535156 52.710140228271484,41.349552154541016" fill="none" fill-opacity="1.0" filling="0" stroke="black" stroke-linecap="round" stroke-linejoin="round" stroke-width="0.7"/>
  <path d="M 52.74140167236328,41.469844818115234 C 53.33763122558594,41.463592529296875 54.39426040649414,41.533321380615234 54.024620056152344,41.51002502441406 C 54.49024200439453,41.551448822021484 55.21366882324219,41.648887634277344 55.26717758178711,41.6103630065918 C 55.24935531616211,41.653648376464844 55.99920654296875,41.78712463378906 56.452735900878906,41.916316986083984 C 56.46223068237305,41.9329719543457 57.16979217529297,42.14948654174805 57.508277893066406,42.32554244995117" fill="none" fill-opacity="1.0" filling="0" stroke="black" stroke-linecap="round" stroke-linejoin="round" stroke-width="0.7"/>
  <path d="M 57.60389709472656,42.45768737792969 C 58.23945236206055,42.775569915771484 59.121490478515625,43.532386779785156 58.73334503173828,43.2203483581543 C 58.848541259765625,43.326622009277344 59.72517776489258,43.974796295166016 59.69586944580078,44.092464447021484 C 59.79509735107422,44.08009338378906 60.15088653564453,44.567840576171875 60.49256896972656,44.963375091552734 C 60.56047058105469,45.07672119140625 60.936790466308594,45.60853576660156 61.080780029296875,45.85173797607422" fill="none" fill-opacity="1.0" filling="0" stroke="black" stroke-linecap="round" stroke-linejoin="round" stroke-width="0.7"/>
  <path d="M 61.175331115722656,46.33300018310547 C 61.35631561279297,46.60249710083008 61.77220916748047,47.414852142333984 61.631526947021484,47.2730598449707 C 61.660552978515625,47.178646087646484 61.999107360839844,48.081687927246094 62.06303405761719,48.38450241088867 C 62.00904846191406,48.12350845336914 62.24419403076172,48.781490325927734 62.38276290893555,49.673709869384766 C 62.41291809082031,49.62529754638672 62.53678894042969,50.68362808227539 62.58381271362305,50.975914001464844" fill="none" fill-opacity="1.0" filling="0" stroke="black" stroke-linecap="round" stroke-linejoin="round" stroke-width="0.7"/>
  <path d="M 62.60911560058594,50.783531188964844 C 62.70817184448242,51.29106140136719 62.615684509277344,52.11402893066406 62.64044189453125,51.90931701660156 C 62.67878723144531,52.22923278808594 62.51490020751953,53.02593231201172 62.48016357421875,53.1705207824707 C 62.55147933959961,52.79460144042969 62.457881927490234,53.73063659667969 62.19945526123047,54.39115905761719 C 62.176082611083984,54.416351318359375 61.938507080078125,55.22230529785156 61.676231384277344,55.54048538208008" fill="none" fill-opacity="1.0" filling="0" stroke="black" stroke-linecap="round" stroke-linejoin="round" stroke-width="0.7"/>
  <path d="M 58.63127517700195,59.51683807373047 C 59.01236343383789,59.209842681884766 59.463565826416016,58.861419677734375 59.38014602661133,58.87361145019531 C 59.37791442871094,58.93154525756836 59.914188385009766,58.413230895996094 60.28718948364258,57.981849670410156 C 59.98627853393555,58.25798034667969 60.56411361694336,57.697235107421875 61.102630615234375,56.90061950683594 C 60.80558395385742,57.25987243652344 61.35227966308594,56.623390197753906 61.74839401245117,55.80218505859375" fill="none" fill-opacity="1.0" filling="0" stroke="black" stroke-linecap="round" stroke-linejoin="round" stroke-width="0.7"/>
  <path d="M 54.08195495605469,61.4238395690918 C 54.66048812866211,61.31233215332031 55.330448150634766,61.153804779052734 55.19369125366211,61.15467071533203 C 55.23263931274414,61.167030334472656 55.95017623901367,60.92732620239258 56.23363494873047,60.79256057739258 C 55.95914840698242,60.92653274536133 56.51527786254883,60.64796447753906 57.207454681396484,60.327613830566406 C 56.835166931152344,60.46315002441406 57.71376037597656,60.04420852661133 58.42448425292969,59.49423599243164" fill="none" fill-opacity="1.0" filling="0" stroke="black" stroke-linecap="round" stroke-linejoin="round" stroke-width="0.7"/>
</svg>
