<?xml version="1.0" encoding="utf-8" ?>
<svg baseProfile="full" height="480" version="1.1" viewBox="0 0 72 72" width="480" xmlns="http://www.w3.org/2000/svg" xmlns:ev="http://www.w3.org/2001/xml-events" xmlns:xlink="http://www.w3.org/1999/xlink">
  <defs/>
  <path d="M 34.442481994628906,37.4080696105957 C 35.17879104614258,37.75747299194336 36.19936752319336,37.96418380737305 35.73993682861328,37.868682861328125 C 36.110130310058594,37.96061706542969 37.10023498535156,38.114723205566406 36.897010803222656,38.03705978393555 C 36.96632385253906,38.077213287353516 37.63026428222656,38.11712646484375 37.99805450439453,38.08237838745117 C 37.85038757324219,38.06812286376953 38.577083587646484,38.112247467041016 39.240386962890625,37.94111633300781" fill="none" fill-opacity="1.0" filling="0" stroke="black" stroke-linecap="round" stroke-linejoin="round" stroke-width="0.7"/>
  <path d="M 30.310007095336914,34.97909927368164 C 30.894142150878906,35.66434097290039 31.794771194458008,36.308345794677734 31.263591766357422,35.90224838256836 C 31.685911178588867,36.2465705871582 32.51405334472656,36.76735305786133 32.3334846496582,36.59242630004883 C 32.44609832763672,36.69297790527344 32.930233001708984,36.980133056640625 33.31901931762695,37.14668655395508 C 33.318599700927734,37.17097473144531 33.849483489990234,37.37915802001953 34.39555740356445,37.57024383544922" fill="none" fill-opacity="1.0" filling="0" stroke="black" stroke-linecap="round" stroke-linejoin="round" stroke-width="0.7"/>
  <path d="M 27.706287384033203,30.80088996887207 C 27.75574493408203,31.170448303222656 28.11737060546875,31.996097564697266 28.046743392944336,31.812562942504883 C 28.083030700683594,31.97018814086914 28.570911407470703,32.816688537597656 28.634159088134766,32.9002685546875 C 28.47162628173828,32.67720413208008 28.909025192260742,33.296592712402344 29.35312843322754,33.8995361328125 C 29.283369064331055,33.82072067260742 29.707870483398438,34.40464401245117 30.231800079345703,35.00712966918945" fill="none" fill-opacity="1.0" filling="0" stroke="black" stroke-linecap="round" stroke-linejoin="round" stroke-width="0.7"/>
  <path d="M 26.82196044921875,25.68643569946289 C 26.8561954498291,26.104351043701172 26.853015899658203,26.848159790039062 26.84538459777832,26.743085861206055 C 26.855361938476562,26.859207153320312 26.941753387451172,27.778791427612305 26.98444175720215,27.989187240600586 C 26.948076248168945,27.651168823242188 27.023160934448242,28.53642463684082 27.316160202026367,29.385915756225586 C 27.22787094116211,29.271900177001953 27.5339412689209,30.085790634155273 27.739858627319336,30.53438949584961" fill="none" fill-opacity="1.0" filling="0" stroke="black" stroke-linecap="round" stroke-linejoin="round" stroke-width="0.7"/>
  <path d="M 28.194297790527344,20.985797882080078 C 27.95010757446289,21.532930374145508 27.721494674682617,22.207538604736328 27.805103302001953,22.0275821685791 C 27.609468460083008,22.34004020690918 27.43562889099121,22.936189651489258 27.391796112060547,23.022071838378906 C 27.51738166809082,22.650901794433594 27.210220336914062,23.515682220458984 27.085147857666016,24.320262908935547 C 27.078554153442383,24.269634246826172 26.925506591796875,25.07046890258789 26.93378448486328,25.699569702148438" fill="none" fill-opacity="1.0" filling="0" stroke="black" stroke-linecap="round" stroke-linejoin="round" stroke-width="0.7"/>
  <path d="M 28.202655792236328,20.917879104614258 C 28.24903678894043,20.71242332458496 28.645233154296875,20.11417579650879 28.6721134185791,20.081809997558594 C 28.64356803894043,20.094228744506836 28.973344802856445,19.701562881469727 29.430496215820312,19.15018653869629 C 29.155969619750977,19.483875274658203 29.702653884887695,18.805267333984375 30.361209869384766,18.219823837280273 C 30.128488540649414,18.44552230834961 30.7089786529541,17.863292694091797 31.451988220214844,17.337360382080078" fill="none" fill-opacity="1.0" filling="0" stroke="black" stroke-linecap="round" stroke-linejoin="round" stroke-width="0.7"/>
  <path d="M 31.464706420898438,17.473119735717773 C 31.64480972290039,17.376834869384766 32.40834045410156,16.88612937927246 32.37364196777344,16.945236206054688 C 32.43505096435547,16.921573638916016 33.300514221191406,16.51504135131836 33.50588607788086,16.429702758789062 C 33.28351974487305,16.530344009399414 34.06283187866211,16.17807960510254 34.6687126159668,16.01285743713379 C 34.48823928833008,16.083892822265625 35.311946868896484,15.813169479370117 36.0516242980957,15.685140609741211" fill="none" fill-opacity="1.0" filling="0" stroke="black" stroke-linecap="round" stroke-linejoin="round" stroke-width="0.7"/>
  <path d="M 36.094451904296875,15.558235168457031 C 36.54262924194336,15.459188461303711 37.58665466308594,15.412616729736328 37.28120040893555,15.429251670837402 C 37.724090576171875,15.42165756225586 38.47050476074219,15.49057388305664 38.57746505737305,15.454636573791504 C 38.5059700012207,15.491063117980957 39.23237228393555,15.549715995788574 39.80512237548828,15.684113502502441 C 39.72005081176758,15.657553672790527 40.4769287109375,15.8145751953125 40.97199630737305,15.917342185974121" fill="none" fill-opacity="1.0" filling="0" stroke="black" stroke-linecap="round" stroke-linejoin="round" stroke-width="0.7"/>
  <path d="M 40.992095947265625,15.847200393676758 C 41.859214782714844,16.08284568786621 42.9078483581543,16.673233032226562 42.3199462890625,16.39063262939453 C 42.65180587768555,16.554079055786133 43.477272033691406,17.020252227783203 43.42082214355469,17.001686096191406 C 43.495277404785156,17.036001205444336 44.0988883972168,17.504436492919922 44.37422180175781,17.758214950561523 C 44.48366928100586,17.852088928222656 44.912132263183594,18.27841567993164 45.081748962402344,18.486095428466797" fill="none" fill-opacity="1.0" filling="0" stroke="black" stroke-linecap="round" stroke-linejoin="round" stroke-width="0.7"/>
  <path d="M 45.12301254272461,18.446910858154297 C 45.36753845214844,18.590576171875 45.93695831298828,19.441102981567383 45.82062530517578,19.251062393188477 C 45.79629135131836,19.1221981048584 46.41327667236328,19.99984359741211 46.53996276855469,20.219505310058594 C 46.466522216796875,20.06806755065918 46.823333740234375,20.652849197387695 47.16891098022461,21.362140655517578 C 47.19934844970703,21.41046905517578 47.50508499145508,22.17192840576172 47.675804138183594,22.603870391845703" fill="none" fill-opacity="1.0" filling="0" stroke="black" stroke-linecap="round" stroke-linejoin="round" stroke-width="0.7"/>
  <path d="M 47.69369888305664,22.62569808959961 C 47.954986572265625,23.040298461914062 48.187808990478516,23.88192367553711 48.11271286010742,23.725553512573242 C 48.1563835144043,23.753860473632812 48.353633880615234,24.60240936279297 48.348487854003906,24.88324546813965 C 48.31108856201172,24.648178100585938 48.470184326171875,25.358036041259766 48.471473693847656,26.17733383178711 C 48.45683670043945,26.14324951171875 48.49278259277344,27.202823638916016 48.46730041503906,27.424560546875" fill="none" fill-opacity="1.0" filling="0" stroke="black" stroke-linecap="round" stroke-linejoin="round" stroke-width="0.7"/>
  <path d="M 48.514827728271484,27.507266998291016 C 48.51970291137695,28.054351806640625 48.331817626953125,28.823545455932617 48.40000534057617,28.566781997680664 C 48.36781311035156,28.94275665283203 48.13085174560547,29.793312072753906 48.1223258972168,29.879728317260742 C 48.21428680419922,29.467634201049805 48.03697204589844,30.44487953186035 47.759456634521484,31.037418365478516 C 47.80473709106445,31.016826629638672 47.49445724487305,31.711566925048828 47.0869140625,32.12467956542969" fill="none" fill-opacity="1.0" filling="0" stroke="black" stroke-linecap="round" stroke-linejoin="round" stroke-width="0.7"/>
  <path d="M 43.59481430053711,35.734073638916016 C 43.97688674926758,35.490623474121094 44.52043533325195,35.14697265625 44.392494201660156,35.19475555419922 C 44.4350700378418,35.20230484008789 44.97746276855469,34.78363800048828 45.4132080078125,34.37036895751953 C 45.03571701049805,34.66001510620117 45.69701385498047,34.146759033203125 46.255210876464844,33.39809036254883 C 45.99414825439453,33.717140197753906 46.59257888793945,33.07705307006836 46.98381423950195,32.3226318359375" fill="none" fill-opacity="1.0" filling="0" stroke="black" stroke-linecap="round" stroke-linejoin="round" stroke-width="0.7"/>
  <path d="M 39.098941802978516,37.93727111816406 C 39.749393463134766,37.918209075927734 40.407840728759766,37.80852508544922 40.258644104003906,37.81923294067383 C 40.31327819824219,37.837379455566406 41.02433776855469,37.606788635253906 41.253173828125,37.52133560180664 C 41.05617141723633,37.638038635253906 41.47997283935547,37.41046142578125 42.19548797607422,37.136199951171875 C 41.77430725097656,37.234352111816406 42.73442077636719,36.8935661315918 43.59488296508789,36.300716400146484" fill="none" fill-opacity="1.0" filling="0" stroke="black" stroke-linecap="round" stroke-linejoin="round" stroke-width="0.7"/>
  <path d="M 50.68510818481445,62.2124137878418 C 51.24270248413086,62.23379898071289 52.24571228027344,62.21176528930664 51.947139739990234,62.231571197509766 C 52.264549255371094,62.24747085571289 53.30075454711914,62.207916259765625 53.15668487548828,62.231719970703125 C 53.2811164855957,62.21824264526367 53.93305969238281,62.2205924987793 54.381290435791016,62.20713424682617 C 54.32005310058594,62.18181610107422 55.196693420410156,62.25227737426758 55.63260269165039,62.098636627197266" fill="none" fill-opacity="1.0" filling="0" stroke="black" stroke-linecap="round" stroke-linejoin="round" stroke-width="0.7"/>
  <path d="M 45.89716339111328,62.160072326660156 C 46.35874938964844,62.1754035949707 47.368228912353516,62.13776397705078 47.1191291809082,62.172828674316406 C 47.469974517822266,62.158294677734375 48.435997009277344,62.16486358642578 48.360450744628906,62.155677795410156 C 48.423316955566406,62.16656494140625 49.140220642089844,62.15299987792969 49.5896110534668,62.155357360839844 C 49.58500671386719,62.14870071411133 50.450740814208984,62.15904235839844 50.856781005859375,62.1372184753418" fill="none" fill-opacity="1.0" filling="0" stroke="black" stroke-linecap="round" stroke-linejoin="round" stroke-width="0.7"/>
  <path d="M 40.83466339111328,62.160072326660156 C 41.29624938964844,62.1754035949707 42.305728912353516,62.13776397705078 42.0566291809082,62.172828674316406 C 42.407474517822266,62.158294677734375 43.373497009277344,62.16486358642578 43.297950744628906,62.155677795410156 C 43.360816955566406,62.16656494140625 44.077720642089844,62.15299987792969 44.5271110534668,62.155357360839844 C 44.52250671386719,62.14870071411133 45.388240814208984,62.15904235839844 45.794281005859375,62.1372184753418" fill="none" fill-opacity="1.0" filling="0" stroke="black" stroke-linecap="round" stroke-linejoin="round" stroke-width="0.7"/>
  <path d="M 35.77216339111328,62.160072326660156 C 36.23374938964844,62.1754035949707 37.243228912353516,62.13776397705078 36.9941291809082,62.172828674316406 C 37.344974517822266,62.158294677734375 38.310997009277344,62.16486358642578 38.235450744628906,62.155677795410156 C 38.298316955566406,62.16656494140625 39.015220642089844,62.15299987792969 39.4646110534668,62.155357360839844 C 39.46000671386719,62.14870071411133 40.325740814208984,62.15904235839844 40.731781005859375,62.1372184753418" fill="none" fill-opacity="1.0" filling="0" stroke="black" stroke-linecap="round" stroke-linejoin="round" stroke-width="0.7"/>
  <path d="M 30.990915298461914,62.160072326660156 C 31.452497482299805,62.1754035949707 32.461978912353516,62.13776397705078 32.2128791809082,62.172828674316406 C 32.563724517822266,62.158294677734375 33.52974319458008,62.16486358642578 33.454200744628906,62.155677795410156 C 33.517066955566406,62.16656494140625 34.23396682739258,62.15299987792969 34.6833610534668,62.155357360839844 C 34.67875671386719,62.14870071411133 35.544490814208984,62.15904235839844 35.950531005859375,62.1372184753418" fill="none" fill-opacity="1.0" filling="0" stroke="black" stroke-linecap="round" stroke-linejoin="round" stroke-width="0.7"/>
  <path d="M 25.928415298461914,62.160072326660156 C 26.389997482299805,62.1754035949707 27.399478912353516,62.13776397705078 27.150381088256836,62.172828674316406 C 27.501224517822266,62.158294677734375 28.46724510192871,62.16486358642578 28.391700744628906,62.155677795410156 C 28.454566955566406,62.16656494140625 29.17146873474121,62.15299987792969 29.620861053466797,62.155357360839844 C 29.616254806518555,62.14870071411133 30.481990814208984,62.15904235839844 30.888031005859375,62.1372184753418" fill="none" fill-opacity="1.0" filling="0" stroke="black" stroke-linecap="round" stroke-linejoin="round" stroke-width="0.7"/>
  <path d="M 21.147165298461914,62.160072326660156 C 21.608747482299805,62.1754035949707 22.618228912353516,62.13776397705078 22.369131088256836,62.172828674316406 C 22.719974517822266,62.158294677734375 23.68599510192871,62.16486358642578 23.610450744628906,62.155677795410156 C 23.673316955566406,62.16656494140625 24.39021873474121,62.15299987792969 24.839611053466797,62.155357360839844 C 24.835004806518555,62.14870071411133 25.700740814208984,62.15904235839844 26.106781005859375,62.1372184753418" fill="none" fill-opacity="1.0" filling="0" stroke="black" stroke-linecap="round" stroke-linejoin="round" stroke-width="0.7"/>
  <path d="M 18.8829345703125,59.26084899902344 C 18.85010528564453,60.7540397644043 18.95647621154785,61.140262603759766 18.88247299194336,60.780338287353516 C 18.853248596191406,61.42109298706055 19.011022567749023,62.029945373535156 18.850839614868164,61.85912322998047 C 19.004505157470703,61.68275451660156 18.757457733154297,62.21332550048828 19.40087890625,62.32585906982422 C 19.098552703857422,62.191017150878906 19.440082550048828,62.41740798950195 21.054454803466797,62.24406051635742" fill="none" fill-opacity="1.0" filling="0" stroke="black" stroke-linecap="round" stroke-linejoin="round" stroke-width="0.7"/>
  <path d="M 18.826602935791016,54.32102966308594 C 18.84263038635254,54.911476135253906 18.857728958129883,55.841529846191406 18.837915420532227,55.68840408325195 C 18.86457633972168,55.91224670410156 18.834514617919922,56.78742218017578 18.841737747192383,56.96424102783203 C 18.834108352661133,56.76056671142578 18.851572036743164,57.680213928222656 18.852962493896484,58.17951202392578 C 18.83055305480957,58.226844787597656 18.852031707763672,59.083595275878906 18.844635009765625,59.30415725708008" fill="none" fill-opacity="1.0" filling="0" stroke="black" stroke-linecap="round" stroke-linejoin="round" stroke-width="0.7"/>
  <path d="M 18.826602935791016,49.25852966308594 C 18.84263038635254,49.848976135253906 18.857728958129883,50.779029846191406 18.837915420532227,50.62590408325195 C 18.86457633972168,50.84974670410156 18.834514617919922,51.72492218017578 18.841737747192383,51.90174102783203 C 18.834108352661133,51.69806671142578 18.851572036743164,52.617713928222656 18.852962493896484,53.11701202392578 C 18.83055305480957,53.164344787597656 18.852031707763672,54.021095275878906 18.844635009765625,54.24165725708008" fill="none" fill-opacity="1.0" filling="0" stroke="black" stroke-linecap="round" stroke-linejoin="round" stroke-width="0.7"/>
  <path d="M 20.059724807739258,44.64612579345703 C 19.611255645751953,45.17314147949219 19.41960906982422,45.816490173339844 19.504425048828125,45.66157150268555 C 19.266427993774414,46.019187927246094 19.13397216796875,46.52943420410156 19.08917808532715,46.653839111328125 C 19.197616577148438,46.24878692626953 18.942485809326172,47.10020446777344 18.851388931274414,47.92005920410156 C 18.865737915039062,47.85593032836914 18.73495864868164,48.659088134765625 18.744850158691406,49.28765869140625" fill="none" fill-opacity="1.0" filling="0" stroke="black" stroke-linecap="round" stroke-linejoin="round" stroke-width="0.7"/>
  <path d="M 20.07288360595703,44.53955841064453 C 20.19275665283203,44.3719482421875 20.73995018005371,43.67461395263672 20.742809295654297,43.7301139831543 C 20.768800735473633,43.656986236572266 21.256635665893555,43.18402862548828 21.727869033813477,42.8136100769043 C 21.34257698059082,43.08804702758789 22.20925521850586,42.39357376098633 22.763776779174805,42.05536651611328 C 22.628860473632812,42.13705825805664 23.2694149017334,41.74701690673828 23.81104850769043,41.508819580078125" fill="none" fill-opacity="1.0" filling="0" stroke="black" stroke-linecap="round" stroke-linejoin="round" stroke-width="0.7"/>
  <path d="M 24.012046813964844,41.290157318115234 C 24.35537338256836,41.121376037597656 25.292396545410156,40.9781379699707 25.19363021850586,40.9888801574707 C 25.437009811401367,40.953369140625 26.334943771362305,40.88030242919922 26.478883743286133,40.864166259765625 C 26.35668182373047,40.874183654785156 27.077186584472656,40.8214225769043 27.629140853881836,40.80442428588867 C 27.572885513305664,40.85426330566406 28.360210418701172,40.80433654785156 28.864282608032227,40.82373809814453" fill="none" fill-opacity="1.0" filling="0" stroke="black" stroke-linecap="round" stroke-linejoin="round" stroke-width="0.7"/>
  <path d="M 28.740915298461914,40.785072326660156 C 29.202497482299805,40.8004035949707 30.211978912353516,40.76276397705078 29.962881088256836,40.797828674316406 C 30.313724517822266,40.783294677734375 31.27974510192871,40.78986358642578 31.204200744628906,40.780677795410156 C 31.267066955566406,40.79156494140625 31.98396873474121,40.77799987792969 32.4333610534668,40.780357360839844 C 32.42875671386719,40.77370071411133 33.294490814208984,40.78404235839844 33.700531005859375,40.7622184753418" fill="none" fill-opacity="1.0" filling="0" stroke="black" stroke-linecap="round" stroke-linejoin="round" stroke-width="0.7"/>
  <path d="M 33.80341339111328,40.785072326660156 C 34.26499938964844,40.8004035949707 35.274478912353516,40.76276397705078 35.0253791809082,40.797828674316406 C 35.376224517822266,40.783294677734375 36.342247009277344,40.78986358642578 36.266700744628906,40.780677795410156 C 36.329566955566406,40.79156494140625 37.046470642089844,40.77799987792969 37.4958610534668,40.780357360839844 C 37.49125671386719,40.77370071411133 38.356990814208984,40.78404235839844 38.763031005859375,40.7622184753418" fill="none" fill-opacity="1.0" filling="0" stroke="black" stroke-linecap="round" stroke-linejoin="round" stroke-width="0.7"/>
  <path d="M 38.86591339111328,40.785072326660156 C 39.32749938964844,40.8004035949707 40.336978912353516,40.76276397705078 40.0878791809082,40.797828674316406 C 40.438724517822266,40.783294677734375 41.404747009277344,40.78986358642578 41.329200744628906,40.780677795410156 C 41.392066955566406,40.79156494140625 42.108970642089844,40.77799987792969 42.5583610534668,40.780357360839844 C 42.55375671386719,40.77370071411133 43.419490814208984,40.78404235839844 43.825531005859375,40.7622184753418" fill="none" fill-opacity="1.0" filling="0" stroke="black" stroke-linecap="round" stroke-linejoin="round" stroke-width="0.7"/>
  <path d="M 43.92841339111328,40.785072326660156 C 44.38999938964844,40.8004035949707 45.399478912353516,40.76276397705078 45.1503791809082,40.797828674316406 C 45.501224517822266,40.783294677734375 46.467247009277344,40.78986358642578 46.391700744628906,40.780677795410156 C 46.454566955566406,40.79156494140625 47.171470642089844,40.77799987792969 47.6208610534668,40.780357360839844 C 47.61625671386719,40.77370071411133 48.481990814208984,40.78404235839844 48.888031005859375,40.7622184753418" fill="none" fill-opacity="1.0" filling="0" stroke="black" stroke-linecap="round" stroke-linejoin="round" stroke-width="0.7"/>
  <path d="M 48.93782043457031,40.811309814453125 C 49.768367767333984,40.82731246948242 50.8083610534668,41.03968048095703 50.33061981201172,40.962364196777344 C 50.78374099731445,41.04757308959961 51.4301643371582,41.246829986572266 51.520172119140625,41.22846603393555 C 51.46884536743164,41.27725601196289 52.171695709228516,41.526039123535156 52.55449676513672,41.78617858886719 C 52.59578323364258,41.79954147338867 53.181907653808594,42.196590423583984 53.463626861572266,42.427371978759766" fill="none" fill-opacity="1.0" filling="0" stroke="black" stroke-linecap="round" stroke-linejoin="round" stroke-width="0.7"/>
  <path d="M 53.45376205444336,42.4398193359375 C 53.84263229370117,42.66697311401367 54.52396774291992,43.48240280151367 54.31725311279297,43.23029708862305 C 54.31787109375,43.16105651855469 55.070743560791016,43.968536376953125 55.115760803222656,44.10039520263672 C 55.074302673339844,44.051902770996094 55.4351692199707,44.55588150024414 55.765010833740234,45.214134216308594 C 55.814125061035156,45.27510452270508 56.07433319091797,46.03095245361328 56.2222900390625,46.42337417602539" fill="none" fill-opacity="1.0" filling="0" stroke="black" stroke-linecap="round" stroke-linejoin="round" stroke-width="0.7"/>
  <path d="M 56.00514221191406,46.48625946044922 C 56.2182502746582,46.961326599121094 56.32920837402344,47.83190155029297 56.28765106201172,47.68303680419922 C 56.344749450683594,47.77095031738281 56.439144134521484,48.61845779418945 56.428653717041016,48.884830474853516 C 56.40620040893555,48.65309143066406 56.49626541137695,49.43499755859375 56.48105239868164,50.14130401611328 C 56.46175765991211,50.135093688964844 56.479515075683594,51.16075134277344 56.47166442871094,51.37709426879883" fill="none" fill-opacity="1.0" filling="0" stroke="black" stroke-linecap="round" stroke-linejoin="round" stroke-width="0.7"/>
  <path d="M 56.51410675048828,51.50852966308594 C 56.53013610839844,52.098976135253906 56.54522705078125,53.029029846191406 56.52541732788086,52.87590408325195 C 56.55207824707031,53.09974670410156 56.52201461791992,53.97492218017578 56.52923583984375,54.15174102783203 C 56.5216064453125,53.94806671142578 56.5390739440918,54.867713928222656 56.54045867919922,55.36701202392578 C 56.5180549621582,55.414344787597656 56.53953170776367,56.271095275878906 56.53213119506836,56.49165725708008" fill="none" fill-opacity="1.0" filling="0" stroke="black" stroke-linecap="round" stroke-linejoin="round" stroke-width="0.7"/>
  <path d="M 56.51410675048828,56.57102966308594 C 56.53013610839844,57.161476135253906 56.54522705078125,58.091529846191406 56.52541732788086,57.93840408325195 C 56.55207824707031,58.16224670410156 56.52201461791992,59.03742218017578 56.52923583984375,59.21424102783203 C 56.5216064453125,59.01056671142578 56.5390739440918,59.930213928222656 56.54045867919922,60.42951202392578 C 56.5180549621582,60.476844787597656 56.53953170776367,61.333595275878906 56.53213119506836,61.55415725708008" fill="none" fill-opacity="1.0" filling="0" stroke="black" stroke-linecap="round" stroke-linejoin="round" stroke-width="0.7"/>
  <path d="M 52.64716339111328,64.69132232666016 C 53.10874938964844,64.70665740966797 54.118228912353516,64.66900634765625 53.8691291809082,64.7040786743164 C 54.219974517822266,64.68954467773438 55.185997009277344,64.69611358642578 55.110450744628906,64.68692779541016 C 55.173316955566406,64.69781494140625 55.890220642089844,64.68424987792969 56.3396110534668,64.68660736083984 C 56.33500671386719,64.67994689941406 57.200740814208984,64.69029235839844 57.606781005859375,64.66847229003906" fill="none" fill-opacity="1.0" filling="0" stroke="black" stroke-linecap="round" stroke-linejoin="round" stroke-width="0.7"/>
  <path d="M 47.58466339111328,64.69132232666016 C 48.04624938964844,64.70665740966797 49.055728912353516,64.66900634765625 48.8066291809082,64.7040786743164 C 49.157474517822266,64.68954467773438 50.123497009277344,64.69611358642578 50.047950744628906,64.68692779541016 C 50.110816955566406,64.69781494140625 50.827720642089844,64.68424987792969 51.2771110534668,64.68660736083984 C 51.27250671386719,64.67994689941406 52.138240814208984,64.69029235839844 52.544281005859375,64.66847229003906" fill="none" fill-opacity="1.0" filling="0" stroke="black" stroke-linecap="round" stroke-linejoin="round" stroke-width="0.7"/>
  <path d="M 42.80341339111328,64.69132232666016 C 43.26499938964844,64.70665740966797 44.274478912353516,64.66900634765625 44.0253791809082,64.7040786743164 C 44.376224517822266,64.68954467773438 45.342247009277344,64.69611358642578 45.266700744628906,64.68692779541016 C 45.329566955566406,64.69781494140625 46.046470642089844,64.68424987792969 46.4958610534668,64.68660736083984 C 46.49125671386719,64.67994689941406 47.356990814208984,64.69029235839844 47.763031005859375,64.66847229003906" fill="none" fill-opacity="1.0" filling="0" stroke="black" stroke-linecap="round" stroke-linejoin="round" stroke-width="0.7"/>
  <path d="M 37.74091339111328,64.69132232666016 C 38.20249938964844,64.70665740966797 39.211978912353516,64.66900634765625 38.9628791809082,64.7040786743164 C 39.313724517822266,64.68954467773438 40.279747009277344,64.69611358642578 40.204200744628906,64.68692779541016 C 40.267066955566406,64.69781494140625 40.983970642089844,64.68424987792969 41.4333610534668,64.68660736083984 C 41.42875671386719,64.67994689941406 42.294490814208984,64.69029235839844 42.700531005859375,64.66847229003906" fill="none" fill-opacity="1.0" filling="0" stroke="black" stroke-linecap="round" stroke-linejoin="round" stroke-width="0.7"/>
  <path d="M 32.67841339111328,64.69132232666016 C 33.13999938964844,64.70665740966797 34.149478912353516,64.66900634765625 33.9003791809082,64.7040786743164 C 34.251224517822266,64.68954467773438 35.21724319458008,64.69611358642578 35.141700744628906,64.68692779541016 C 35.204566955566406,64.69781494140625 35.92146682739258,64.68424987792969 36.3708610534668,64.68660736083984 C 36.36625671386719,64.67994689941406 37.231990814208984,64.69029235839844 37.638031005859375,64.66847229003906" fill="none" fill-opacity="1.0" filling="0" stroke="black" stroke-linecap="round" stroke-linejoin="round" stroke-width="0.7"/>
  <path d="M 27.897165298461914,64.69132232666016 C 28.358747482299805,64.70665740966797 29.368228912353516,64.66900634765625 29.119131088256836,64.7040786743164 C 29.469974517822266,64.68954467773438 30.43599510192871,64.69611358642578 30.360450744628906,64.68692779541016 C 30.423316955566406,64.69781494140625 31.14021873474121,64.68424987792969 31.589611053466797,64.68660736083984 C 31.585004806518555,64.67994689941406 32.450740814208984,64.69029235839844 32.856781005859375,64.66847229003906" fill="none" fill-opacity="1.0" filling="0" stroke="black" stroke-linecap="round" stroke-linejoin="round" stroke-width="0.7"/>
  <path d="M 22.834665298461914,64.69132232666016 C 23.296247482299805,64.70665740966797 24.305728912353516,64.66900634765625 24.056631088256836,64.7040786743164 C 24.407474517822266,64.68954467773438 25.37349510192871,64.69611358642578 25.297950744628906,64.68692779541016 C 25.360816955566406,64.69781494140625 26.07771873474121,64.68424987792969 26.527111053466797,64.68660736083984 C 26.522504806518555,64.67994689941406 27.388240814208984,64.69029235839844 27.794281005859375,64.66847229003906" fill="none" fill-opacity="1.0" filling="0" stroke="black" stroke-linecap="round" stroke-linejoin="round" stroke-width="0.7"/>
  <path d="M 17.772165298461914,64.69132232666016 C 18.233747482299805,64.70665740966797 19.243228912353516,64.66900634765625 18.994131088256836,64.7040786743164 C 19.344974517822266,64.68954467773438 20.31099510192871,64.69611358642578 20.235450744628906,64.68692779541016 C 20.298316955566406,64.69781494140625 21.01521873474121,64.68424987792969 21.464611053466797,64.68660736083984 C 21.460004806518555,64.67994689941406 22.325740814208984,64.69029235839844 22.731781005859375,64.66847229003906" fill="none" fill-opacity="1.0" filling="0" stroke="black" stroke-linecap="round" stroke-linejoin="round" stroke-width="0.7"/>
  <path d="M 16.858509063720703,60.59748458862305 C 16.88800621032715,61.5120964050293 16.873807907104492,62.17922592163086 16.899141311645508,61.853885650634766 C 16.88886260986328,62.30223846435547 16.90064239501953,63.07112121582031 16.862091064453125,63.05402374267578 C 16.97781753540039,62.86277389526367 16.783031463623047,63.67002868652344 17.01827049255371,64.32783508300781 C 16.90975570678711,64.19217681884766 17.1506290435791,64.8606185913086 18.03647232055664,64.81716918945312" fill="none" fill-opacity="1.0" filling="0" stroke="black" stroke-linecap="round" stroke-linejoin="round" stroke-width="0.7"/>
  <path d="M 16.858840942382812,55.464088439941406 C 16.877670288085938,56.0417366027832 16.876182556152344,56.97276306152344 16.867141723632812,56.80844497680664 C 16.892597198486328,57.030479431152344 16.85988998413086,57.919029235839844 16.87516212463379,58.11344909667969 C 16.86372947692871,57.91791915893555 16.8796329498291,58.81011199951172 16.882915496826172,59.332191467285156 C 16.867504119873047,59.395992279052734 16.87798500061035,60.203250885009766 16.875059127807617,60.41373825073242" fill="none" fill-opacity="1.0" filling="0" stroke="black" stroke-linecap="round" stroke-linejoin="round" stroke-width="0.7"/>
  <path d="M 16.858840942382812,50.682838439941406 C 16.877670288085938,51.2604866027832 16.876182556152344,52.19151306152344 16.867141723632812,52.02719497680664 C 16.892597198486328,52.249229431152344 16.85988998413086,53.137779235839844 16.87516212463379,53.33219909667969 C 16.86372947692871,53.13666915893555 16.8796329498291,54.02886199951172 16.882915496826172,54.550941467285156 C 16.867504119873047,54.614742279052734 16.87798500061035,55.422000885009766 16.875059127807617,55.63248825073242" fill="none" fill-opacity="1.0" filling="0" stroke="black" stroke-linecap="round" stroke-linejoin="round" stroke-width="0.7"/>
  <path d="M 17.37143898010254,45.67777633666992 C 17.126054763793945,46.168907165527344 17.076290130615234,46.99321746826172 17.048059463500977,46.86747360229492 C 17.015907287597656,47.12578201293945 16.927669525146484,47.90248107910156 16.923341751098633,48.11179733276367 C 16.944087982177734,47.76734924316406 16.881179809570312,48.75886917114258 16.930147171020508,49.390846252441406 C 16.866451263427734,49.36479949951172 16.917743682861328,50.182193756103516 16.942508697509766,50.49579620361328" fill="none" fill-opacity="1.0" filling="0" stroke="black" stroke-linecap="round" stroke-linejoin="round" stroke-width="0.7"/>
  <path d="M 17.2573184967041,45.642799377441406 C 17.426658630371094,45.098167419433594 17.702350616455078,44.591514587402344 17.717084884643555,44.59260177612305 C 17.62186622619629,44.66864013671875 17.910167694091797,44.23489761352539 18.311426162719727,43.5423469543457 C 18.145633697509766,43.82594680786133 18.53030776977539,43.15998458862305 19.036882400512695,42.54364776611328 C 18.783084869384766,42.84213638305664 19.224300384521484,42.21437454223633 19.905052185058594,41.554595947265625" fill="none" fill-opacity="1.0" filling="0" stroke="black" stroke-linecap="round" stroke-linejoin="round" stroke-width="0.7"/>
  <path d="M 20.103878021240234,41.68080139160156 C 20.244773864746094,41.54180145263672 21.003381729125977,40.909481048583984 20.92937469482422,40.990997314453125 C 20.964946746826172,40.95874786376953 21.691572189331055,40.45344924926758 22.01766586303711,40.26853561401367 C 21.735366821289062,40.44186782836914 22.60848617553711,39.87859344482422 23.17888069152832,39.69291305541992 C 23.05473518371582,39.743568420410156 23.77199363708496,39.41817855834961 24.345409393310547,39.305816650390625" fill="none" fill-opacity="1.0" filling="0" stroke="black" stroke-linecap="round" stroke-linejoin="round" stroke-width="0.7"/>
  <path d="M 24.33184051513672,39.252437591552734 C 24.595115661621094,39.1154899597168 25.550662994384766,39.01592254638672 25.408164978027344,39.05127716064453 C 25.670528411865234,38.98706817626953 26.609830856323242,38.951637268066406 26.70713996887207,38.891380310058594 C 26.60055923461914,38.92929458618164 27.309162139892578,38.84139633178711 27.8459415435791,38.89289474487305 C 27.80072784423828,38.9000244140625 28.55832862854004,38.87218475341797 29.096454620361328,38.926517486572266" fill="none" fill-opacity="1.0" filling="0" stroke="black" stroke-linecap="round" stroke-linejoin="round" stroke-width="0.7"/>
  <path d="M 29.311948776245117,36.65776062011719 C 29.562705993652344,37.06727981567383 30.002952575683594,37.36293411254883 29.796829223632812,37.08451461791992 C 29.944374084472656,37.35910415649414 30.34973907470703,37.57870864868164 30.371856689453125,37.658477783203125 C 30.31348991394043,37.580631256103516 30.632246017456055,37.81328201293945 30.882478713989258,38.28498840332031 C 30.96178436279297,38.55731964111328 30.875173568725586,39.038692474365234 29.467958450317383,38.7867431640625" fill="none" fill-opacity="1.0" filling="0" stroke="black" stroke-linecap="round" stroke-linejoin="round" stroke-width="0.7"/>
  <path d="M 26.046384811401367,32.672061920166016 C 26.228775024414062,33.046592712402344 26.838077545166016,33.92735290527344 26.63770294189453,33.64914321899414 C 26.746244430541992,33.849300384521484 27.417945861816406,34.66134262084961 27.38869285583496,34.68264389038086 C 27.346315383911133,34.59550094604492 27.779129028320312,35.15559005737305 28.133514404296875,35.567832946777344 C 28.174781799316406,35.60428237915039 28.609764099121094,36.11760711669922 29.076175689697266,36.49880599975586" fill="none" fill-opacity="1.0" filling="0" stroke="black" stroke-linecap="round" stroke-linejoin="round" stroke-width="0.7"/>
  <path d="M 24.920101165771484,28.019773483276367 C 24.93617820739746,28.309724807739258 25.037322998046875,29.010950088500977 25.022708892822266,28.947341918945312 C 25.04005241394043,28.963619232177734 25.229066848754883,29.875808715820312 25.30579376220703,30.10544204711914 C 25.19099235534668,29.735994338989258 25.441150665283203,30.55495262145996 25.764875411987305,31.47454071044922 C 25.70182991027832,31.359832763671875 26.02391815185547,32.181663513183594 26.283592224121094,32.7189826965332" fill="none" fill-opacity="1.0" filling="0" stroke="black" stroke-linecap="round" stroke-linejoin="round" stroke-width="0.7"/>
  <path d="M 25.15964698791504,23.145782470703125 C 25.043838500976562,23.646251678466797 24.956890106201172,24.51837158203125 24.938018798828125,24.36870002746582 C 24.93461799621582,24.62384033203125 24.82016944885254,25.475610733032227 24.829627990722656,25.657442092895508 C 24.86025619506836,25.343856811523438 24.765235900878906,26.376474380493164 24.837696075439453,26.988094329833984 C 24.75865936279297,26.973068237304688 24.8360652923584,27.767423629760742 24.891725540161133,28.028249740600586" fill="none" fill-opacity="1.0" filling="0" stroke="black" stroke-linecap="round" stroke-linejoin="round" stroke-width="0.7"/>
  <path d="M 27.144756317138672,18.89077377319336 C 26.676902770996094,19.41819190979004 26.410348892211914,20.033794403076172 26.560718536376953,19.80109977722168 C 26.28947639465332,20.23139190673828 26.026779174804688,20.774505615234375 25.962966918945312,20.90578842163086 C 26.160062789916992,20.44829559326172 25.85437774658203,21.182231903076172 25.593387603759766,21.920978546142578 C 25.623794555664062,21.80071449279785 25.381296157836914,22.446613311767578 25.17351722717285,23.283748626708984" fill="none" fill-opacity="1.0" filling="0" stroke="black" stroke-linecap="round" stroke-linejoin="round" stroke-width="0.7"/>
  <path d="M 27.23284149169922,18.831754684448242 C 27.3400936126709,18.65884780883789 27.79176902770996,18.03131866455078 27.832420349121094,18.046619415283203 C 27.808475494384766,18.033390045166016 28.236164093017578,17.56652069091797 28.70851707458496,17.112232208251953 C 28.353923797607422,17.430767059326172 29.060771942138672,16.743257522583008 29.677001953125,16.214092254638672 C 29.471155166625977,16.407474517822266 30.07024383544922,15.893391609191895 30.73070526123047,15.470240592956543" fill="none" fill-opacity="1.0" filling="0" stroke="black" stroke-linecap="round" stroke-linejoin="round" stroke-width="0.7"/>
  <path d="M 30.620956420898438,15.504369735717773 C 30.80105972290039,15.408084869384766 31.564590454101562,14.917379379272461 31.529891967773438,14.976487159729004 C 31.5913028717041,14.952824592590332 32.456764221191406,14.54629135131836 32.66213607788086,14.460951805114746 C 32.43976974487305,14.561594009399414 33.21908187866211,14.209329605102539 33.8249626159668,14.044107437133789 C 33.64448928833008,14.115142822265625 34.468196868896484,13.844419479370117 35.20787048339844,13.716390609741211" fill="none" fill-opacity="1.0" filling="0" stroke="black" stroke-linecap="round" stroke-linejoin="round" stroke-width="0.7"/>
  <path d="M 35.25727081298828,13.492725372314453 C 35.66276168823242,13.374881744384766 36.73907470703125,13.291074752807617 36.512088775634766,13.316117286682129 C 36.81710433959961,13.281120300292969 37.72069549560547,13.290458679199219 37.87727737426758,13.245779991149902 C 37.800132751464844,13.281432151794434 38.526649475097656,13.256821632385254 38.99605178833008,13.316250801086426 C 38.972923278808594,13.293514251708984 39.67290115356445,13.397948265075684 40.12233352661133,13.477166175842285" fill="none" fill-opacity="1.0" filling="0" stroke="black" stroke-linecap="round" stroke-linejoin="round" stroke-width="0.7"/>
  <path d="M 39.96470642089844,13.746188163757324 C 40.735172271728516,13.8336181640625 41.7868537902832,14.175104141235352 41.283329010009766,14.019153594970703 C 41.688743591308594,14.110762596130371 42.420082092285156,14.408206939697266 42.42747116088867,14.348140716552734 C 42.45256805419922,14.393972396850586 43.179195404052734,14.71706485748291 43.513519287109375,14.88972282409668 C 43.58757400512695,14.953988075256348 44.14876174926758,15.267679214477539 44.43608474731445,15.500959396362305" fill="none" fill-opacity="1.0" filling="0" stroke="black" stroke-linecap="round" stroke-linejoin="round" stroke-width="0.7"/>
  <path d="M 44.66639709472656,15.738938331604004 C 45.30195236206055,16.056821823120117 46.18399429321289,16.813636779785156 45.79584503173828,16.501598358154297 C 45.911041259765625,16.607872009277344 46.78767776489258,17.256046295166016 46.75836944580078,17.37371253967285 C 46.85759735107422,17.36134147644043 47.21338653564453,17.849090576171875 47.55506896972656,18.244625091552734 C 47.62297058105469,18.357969284057617 47.999290466308594,18.889787673950195 48.143280029296875,19.132986068725586" fill="none" fill-opacity="1.0" filling="0" stroke="black" stroke-linecap="round" stroke-linejoin="round" stroke-width="0.7"/>
  <path d="M 47.98789978027344,19.15290641784668 C 48.161651611328125,19.287952423095703 48.56856918334961,20.112197875976562 48.492828369140625,19.970361709594727 C 48.48045349121094,19.810375213623047 48.89430618286133,20.709794998168945 49.06096649169922,21.029796600341797 C 48.9615592956543,20.743518829345703 49.228763580322266,21.439208984375 49.56522750854492,22.313587188720703 C 49.550628662109375,22.259775161743164 49.81233215332031,23.24036979675293 49.91215896606445,23.599943161010742" fill="none" fill-opacity="1.0" filling="0" stroke="black" stroke-linecap="round" stroke-linejoin="round" stroke-width="0.7"/>
  <path d="M 50.01370620727539,23.72650909423828 C 50.180335998535156,24.163097381591797 50.21949768066406,25.042064666748047 50.23632049560547,24.895601272583008 C 50.27315139770508,25.037078857421875 50.30561828613281,25.844884872436523 50.29226303100586,26.132829666137695 C 50.26834487915039,25.867048263549805 50.3317985534668,26.691085815429688 50.299591064453125,27.452442169189453 C 50.264652252197266,27.4387264251709 50.24630355834961,28.38779067993164 50.10030746459961,28.595787048339844" fill="none" fill-opacity="1.0" filling="0" stroke="black" stroke-linecap="round" stroke-linejoin="round" stroke-width="0.7"/>
  <path d="M 49.96694564819336,28.344120025634766 C 49.94481658935547,28.88653564453125 49.72568893432617,29.648143768310547 49.80712890625,29.355831146240234 C 49.74697494506836,29.741378784179688 49.47270965576172,30.624263763427734 49.46457290649414,30.665874481201172 C 49.57090759277344,30.260061264038086 49.332603454589844,31.27188491821289 49.04336929321289,31.84531021118164 C 49.10127639770508,31.798505783081055 48.782936096191406,32.48849105834961 48.45558166503906,32.973289489746094" fill="none" fill-opacity="1.0" filling="0" stroke="black" stroke-linecap="round" stroke-linejoin="round" stroke-width="0.7"/>
  <path d="M 45.41252517700195,36.73558807373047 C 45.79361343383789,36.428592681884766 46.244815826416016,36.080169677734375 46.16139602661133,36.09236145019531 C 46.15916442871094,36.15029525756836 46.695438385009766,35.63197708129883 47.06843948364258,35.200599670410156 C 46.76752853393555,35.47672653198242 47.34536361694336,34.915985107421875 47.883880615234375,34.11936950683594 C 47.58683395385742,34.47862243652344 48.13352966308594,33.842140197753906 48.52964401245117,33.02093505859375" fill="none" fill-opacity="1.0" filling="0" stroke="black" stroke-linecap="round" stroke-linejoin="round" stroke-width="0.7"/>
  <path d="M 45.653846740722656,37.03200149536133 C 44.115901947021484,38.051239013671875 44.20843505859375,38.19437026977539 44.28007507324219,37.92716979980469 C 43.8905143737793,38.5720100402832 44.220829010009766,38.68717575073242 44.16324234008789,38.67557144165039 C 44.20367431640625,38.482337951660156 43.99565887451172,38.81364440917969 44.461666107177734,39.054534912109375 C 44.38359069824219,38.917572021484375 44.493812561035156,39.19038772583008 45.3764762878418,38.979347229003906" fill="none" fill-opacity="1.0" filling="0" stroke="black" stroke-linecap="round" stroke-linejoin="round" stroke-width="0.7"/>
  <path d="M 45.33466339111328,38.816322326660156 C 45.79624938964844,38.8316535949707 46.805728912353516,38.79401397705078 46.5566291809082,38.829078674316406 C 46.907474517822266,38.814544677734375 47.873497009277344,38.82111358642578 47.797950744628906,38.811927795410156 C 47.860816955566406,38.82281494140625 48.577720642089844,38.80924987792969 49.0271110534668,38.811607360839844 C 49.02250671386719,38.80495071411133 49.888240814208984,38.81529235839844 50.294281005859375,38.7934684753418" fill="none" fill-opacity="1.0" filling="0" stroke="black" stroke-linecap="round" stroke-linejoin="round" stroke-width="0.7"/>
  <path d="M 50.33667755126953,38.881324768066406 C 51.17204666137695,38.93012237548828 52.225616455078125,39.167213439941406 51.724308013916016,39.07216262817383 C 52.198219299316406,39.169342041015625 52.851470947265625,39.35940170288086 52.90602493286133,39.35395050048828 C 52.87186813354492,39.376773834228516 53.61688232421875,39.64999771118164 53.959388732910156,39.86075973510742 C 54.056644439697266,39.902252197265625 54.64399337768555,40.22787857055664 54.87267303466797,40.415584564208984" fill="none" fill-opacity="1.0" filling="0" stroke="black" stroke-linecap="round" stroke-linejoin="round" stroke-width="0.7"/>
  <path d="M 54.922393798828125,40.32710266113281 C 55.394561767578125,40.63578796386719 56.25847244262695,41.51288604736328 55.948394775390625,41.17667770385742 C 55.97182846069336,41.23659896850586 56.894020080566406,41.97789764404297 56.88105392456055,42.04446029663086 C 56.92259979248047,42.05314636230469 57.285640716552734,42.51072692871094 57.61919403076172,43.014461517333984 C 57.66455841064453,43.094459533691406 57.98478698730469,43.67744064331055 58.131797790527344,44.04214096069336" fill="none" fill-opacity="1.0" filling="0" stroke="black" stroke-linecap="round" stroke-linejoin="round" stroke-width="0.7"/>
  <path d="M 57.97528839111328,44.314979553222656 C 58.21521759033203,44.69305419921875 58.54885482788086,45.51795196533203 58.42734146118164,45.360084533691406 C 58.46446228027344,45.339263916015625 58.744510650634766,46.219993591308594 58.74479675292969,46.500030517578125 C 58.70085144042969,46.26694107055664 58.91074752807617,46.94389724731445 58.94181442260742,47.782989501953125 C 58.949092864990234,47.74348449707031 59.01396560668945,48.80697250366211 59.00362014770508,49.052757263183594" fill="none" fill-opacity="1.0" filling="0" stroke="black" stroke-linecap="round" stroke-linejoin="round" stroke-width="0.7"/>
  <path d="M 59.04634094238281,48.995338439941406 C 59.06517028808594,49.5729866027832 59.063682556152344,50.50401306152344 59.05464172363281,50.33969497680664 C 59.080101013183594,50.561729431152344 59.04738998413086,51.450279235839844 59.062660217285156,51.64469909667969 C 59.05122756958008,51.44916915893555 59.06713104248047,52.34136199951172 59.07041931152344,52.863441467285156 C 59.05500411987305,52.927242279052734 59.065486907958984,53.734500885009766 59.062557220458984,53.94498825073242" fill="none" fill-opacity="1.0" filling="0" stroke="black" stroke-linecap="round" stroke-linejoin="round" stroke-width="0.7"/>
  <path d="M 59.04634094238281,53.776588439941406 C 59.06517028808594,54.3542366027832 59.063682556152344,55.28526306152344 59.05464172363281,55.12094497680664 C 59.080101013183594,55.342979431152344 59.04738998413086,56.231529235839844 59.062660217285156,56.42594909667969 C 59.05122756958008,56.23041915893555 59.06713104248047,57.12261199951172 59.07041931152344,57.644691467285156 C 59.05500411987305,57.708492279052734 59.065486907958984,58.515750885009766 59.062557220458984,58.72623825073242" fill="none" fill-opacity="1.0" filling="0" stroke="black" stroke-linecap="round" stroke-linejoin="round" stroke-width="0.7"/>
  <path d="M 58.98932647705078,58.694000244140625 C 59.06792068481445,59.06839370727539 59.0673713684082,59.92190933227539 59.107269287109375,59.74867630004883 C 59.068084716796875,59.95883560180664 59.117279052734375,60.719940185546875 59.104637145996094,61.01664733886719 C 59.07433319091797,60.698158264160156 59.155303955078125,61.561431884765625 59.10857391357422,62.35324478149414 C 59.11322021484375,62.37834167480469 59.07762145996094,63.17179870605469 58.567344665527344,63.38468933105469" fill="none" fill-opacity="1.0" filling="0" stroke="black" stroke-linecap="round" stroke-linejoin="round" stroke-width="0.7"/>
</svg>
