<?xml version="1.0" encoding="utf-8" ?>
<svg baseProfile="full" height="480" version="1.1" viewBox="0 0 72 72" width="480" xmlns="http://www.w3.org/2000/svg" xmlns:ev="http://www.w3.org/2001/xml-events" xmlns:xlink="http://www.w3.org/1999/xlink">
  <defs/>
  <path d="M 34.442481994628906,37.4080696105957 C 35.17879104614258,37.75747299194336 36.19936752319336,37.96418380737305 35.73993682861328,37.868682861328125 C 36.110130310058594,37.96061706542969 37.10023498535156,38.114723205566406 36.897010803222656,38.03705596923828 C 36.96632385253906,38.077213287353516 37.63026428222656,38.11712646484375 37.99805450439453,38.08237838745117 C 37.85038757324219,38.06812286376953 38.577083587646484,38.112247467041016 39.240386962890625,37.94111633300781" fill="none" fill-opacity="1.0" filling="0" stroke="black" stroke-linecap="round" stroke-linejoin="round" stroke-width="0.7"/>
  <path d="M 30.310007095336914,34.97909927368164 C 30.894142150878906,35.66434097290039 31.794771194458008,36.308345794677734 31.263591766357422,35.90224838256836 C 31.6859130859375,36.2465705871582 32.51405334472656,36.76735305786133 32.3334846496582,36.59242630004883 C 32.446102142333984,36.69297790527344 32.930233001708984,36.980133056640625 33.31901931762695,37.14668655395508 C 33.318599700927734,37.17097473144531 33.849483489990234,37.37915802001953 34.39555740356445,37.57024383544922" fill="none" fill-opacity="1.0" filling="0" stroke="black" stroke-linecap="round" stroke-linejoin="round" stroke-width="0.7"/>
  <path d="M 28.101219177246094,30.474456787109375 C 28.142820358276367,30.8529109954834 28.478534698486328,31.648990631103516 28.415653228759766,31.489715576171875 C 28.42441749572754,31.574487686157227 28.86102867126465,32.47277069091797 28.92502784729004,32.59226608276367 C 28.7838134765625,32.31597900390625 29.148311614990234,32.98992919921875 29.569042205810547,33.6650505065918 C 29.522666931152344,33.59568405151367 29.93000602722168,34.23603057861328 30.414751052856445,34.775543212890625" fill="none" fill-opacity="1.0" filling="0" stroke="black" stroke-linecap="round" stroke-linejoin="round" stroke-width="0.7"/>
  <path d="M 28.152202606201172,25.425722122192383 C 27.9916934967041,25.952861785888672 27.8731746673584,26.741971969604492 27.891822814941406,26.560211181640625 C 27.824323654174805,26.86640739440918 27.74428939819336,27.685850143432617 27.74087142944336,27.86620330810547 C 27.80801010131836,27.528575897216797 27.67438507080078,28.501815795898438 27.870115280151367,29.211795806884766 C 27.768444061279297,29.098167419433594 27.96296501159668,29.88491439819336 28.110523223876953,30.25931167602539" fill="none" fill-opacity="1.0" filling="0" stroke="black" stroke-linecap="round" stroke-linejoin="round" stroke-width="0.7"/>
  <path d="M 28.23029899597168,25.6510009765625 C 28.436378479003906,24.94039535522461 28.679838180541992,24.437606811523438 28.708200454711914,24.47562026977539 C 28.6018009185791,24.549339294433594 28.86235809326172,24.11981773376465 29.28346061706543,23.431394577026367 C 29.12076187133789,23.684406280517578 29.497671127319336,23.030588150024414 29.98649787902832,22.487051010131836 C 29.73525619506836,22.753299713134766 30.154674530029297,22.183061599731445 30.86277961730957,21.596660614013672" fill="none" fill-opacity="1.0" filling="0" stroke="black" stroke-linecap="round" stroke-linejoin="round" stroke-width="0.7"/>
  <path d="M 31.006216049194336,21.303834915161133 C 31.147825241088867,21.181764602661133 31.941226959228516,20.594921112060547 31.856815338134766,20.66740608215332 C 31.898845672607422,20.642921447753906 32.67116165161133,20.162635803222656 32.95027160644531,20.025867462158203 C 32.720985412597656,20.168689727783203 33.54429244995117,19.66073989868164 34.12221908569336,19.508066177368164 C 33.99755096435547,19.552379608154297 34.72722625732422,19.271406173706055 35.38218307495117,19.162477493286133" fill="none" fill-opacity="1.0" filling="0" stroke="black" stroke-linecap="round" stroke-linejoin="round" stroke-width="0.7"/>
  <path d="M 35.54147720336914,19.10773277282715 C 35.93408203125,18.938730239868164 36.971900939941406,18.835235595703125 36.727394104003906,18.870540618896484 C 37.071571350097656,18.825809478759766 37.91457748413086,18.868436813354492 38.07642364501953,18.811437606811523 C 37.99076843261719,18.847043991088867 38.69023132324219,18.8366756439209 39.22921371459961,18.935033798217773 C 39.1823616027832,18.906185150146484 39.88347625732422,19.03086280822754 40.404701232910156,19.130403518676758" fill="none" fill-opacity="1.0" filling="0" stroke="black" stroke-linecap="round" stroke-linejoin="round" stroke-width="0.7"/>
  <path d="M 40.35872268676758,19.314403533935547 C 41.18650817871094,19.51507568359375 42.27586364746094,20.10955810546875 41.652259826660156,19.834949493408203 C 42.055381774902344,19.983905792236328 42.813018798828125,20.44887924194336 42.787208557128906,20.394824981689453 C 42.84867477416992,20.431060791015625 43.47315979003906,20.899097442626953 43.77439498901367,21.081405639648438 C 43.85350036621094,21.172563552856445 44.35751724243164,21.57819938659668 44.59410858154297,21.77589225769043" fill="none" fill-opacity="1.0" filling="0" stroke="black" stroke-linecap="round" stroke-linejoin="round" stroke-width="0.7"/>
  <path d="M 44.68029022216797,21.777162551879883 C 44.92277526855469,21.92685890197754 45.43199157714844,22.75527572631836 45.333595275878906,22.566652297973633 C 45.294212341308594,22.413330078125 45.85927200317383,23.31122589111328 46.001708984375,23.557653427124023 C 45.91877365112305,23.363027572631836 46.23915481567383,23.968849182128906 46.592628479003906,24.754535675048828 C 46.598846435546875,24.754182815551758 46.88151550292969,25.630695343017578 47.00214385986328,26.026281356811523" fill="none" fill-opacity="1.0" filling="0" stroke="black" stroke-linecap="round" stroke-linejoin="round" stroke-width="0.7"/>
  <path d="M 47.04568099975586,25.957237243652344 C 47.251060485839844,26.41889762878418 47.2695426940918,27.296585083007812 47.253990173339844,27.14202117919922 C 47.31422805786133,27.317235946655273 47.30046463012695,28.103776931762695 47.282249450683594,28.34681510925293 C 47.26677703857422,28.078824996948242 47.284698486328125,28.92243766784668 47.15335464477539,29.664749145507812 C 47.11015701293945,29.6498966217041 46.99919128417969,30.638965606689453 46.878902435302734,30.857959747314453" fill="none" fill-opacity="1.0" filling="0" stroke="black" stroke-linecap="round" stroke-linejoin="round" stroke-width="0.7"/>
  <path d="M 44.266719818115234,34.96267318725586 C 44.70355987548828,34.49600601196289 45.04121398925781,34.07850646972656 44.99147415161133,34.13564682006836 C 44.972572326660156,34.17378616333008 45.42338943481445,33.63854217529297 45.759132385253906,33.11691665649414 C 45.569602966308594,33.37470626831055 46.03261947631836,32.766929626464844 46.40355682373047,31.974628448486328 C 46.1905517578125,32.36322784423828 46.59722137451172,31.729860305786133 46.85911560058594,30.858741760253906" fill="none" fill-opacity="1.0" filling="0" stroke="black" stroke-linecap="round" stroke-linejoin="round" stroke-width="0.7"/>
  <path d="M 39.71591567993164,37.33688735961914 C 40.39012145996094,37.25144577026367 41.20497131347656,37.02318572998047 40.95684814453125,37.080081939697266 C 41.0245246887207,37.068580627441406 41.821407318115234,36.77000045776367 42.09364700317383,36.610530853271484 C 41.80050277709961,36.73526382446289 42.468048095703125,36.39141082763672 43.03680419921875,36.0087776184082 C 42.74021530151367,36.15542984008789 43.579010009765625,35.709938049316406 44.09768295288086,35.21156692504883" fill="none" fill-opacity="1.0" filling="0" stroke="black" stroke-linecap="round" stroke-linejoin="round" stroke-width="0.7"/>
  <path d="M 34.432342529296875,39.307884216308594 C 35.11237335205078,39.631568908691406 36.20133972167969,39.842159271240234 35.730796813964844,39.74555969238281 C 36.117305755615234,39.8480224609375 37.12266159057617,39.99125289916992 36.88512420654297,39.92192459106445 C 36.97111511230469,39.959320068359375 37.68833541870117,40.012359619140625 38.0494270324707,40.00004959106445 C 37.94426727294922,39.9909553527832 38.669708251953125,40.04483413696289 39.259769439697266,39.98152542114258" fill="none" fill-opacity="1.0" filling="0" stroke="black" stroke-linecap="round" stroke-linejoin="round" stroke-width="0.7"/>
  <path d="M 30.233200073242188,36.76722717285156 C 30.878948211669922,37.44415283203125 31.8564453125,38.042625427246094 31.251575469970703,37.63642501831055 C 31.707008361816406,37.96710205078125 32.60232925415039,38.42080307006836 32.38301467895508,38.270816802978516 C 32.50624084472656,38.35185241699219 33.05119705200195,38.63412094116211 33.42231369018555,38.765785217285156 C 33.442840576171875,38.80179214477539 33.96530532836914,38.971275329589844 34.47370910644531,39.15831756591797" fill="none" fill-opacity="1.0" filling="0" stroke="black" stroke-linecap="round" stroke-linejoin="round" stroke-width="0.7"/>
  <path d="M 27.236465454101562,32.90787124633789 C 27.376426696777344,33.245975494384766 27.915029525756836,34.12828063964844 27.747108459472656,33.87040710449219 C 27.844697952270508,34.06463623046875 28.45002555847168,34.89167785644531 28.452816009521484,34.93678283691406 C 28.37977409362793,34.81195068359375 28.81032371520996,35.398502349853516 29.202045440673828,35.868526458740234 C 29.220745086669922,35.882537841796875 29.636981964111328,36.43421936035156 30.141149520874023,36.834434509277344" fill="none" fill-opacity="1.0" filling="0" stroke="black" stroke-linecap="round" stroke-linejoin="round" stroke-width="0.7"/>
  <path d="M 26.143001556396484,27.974254608154297 C 26.17678451538086,28.32573890686035 26.22031593322754,29.0548152923584 26.21174430847168,28.970943450927734 C 26.225231170654297,29.033979415893555 26.366939544677734,29.954349517822266 26.432247161865234,30.176692962646484 C 26.355369567871094,29.813785552978516 26.519481658935547,30.669307708740234 26.828086853027344,31.556800842285156 C 26.746278762817383,31.440196990966797 27.062040328979492,32.26512908935547 27.300106048583984,32.75421142578125" fill="none" fill-opacity="1.0" filling="0" stroke="black" stroke-linecap="round" stroke-linejoin="round" stroke-width="0.7"/>
  <path d="M 26.85072135925293,23.186193466186523 C 26.684833526611328,23.643264770507812 26.460010528564453,24.428815841674805 26.53306007385254,24.25295066833496 C 26.43288230895996,24.52735710144043 26.279743194580078,25.288734436035156 26.241634368896484,25.397809982299805 C 26.305530548095703,25.033084869384766 26.145793914794922,26.08600616455078 26.086688995361328,26.812135696411133 C 26.079755783081055,26.762767791748047 26.00619888305664,27.616352081298828 26.03790855407715,28.006296157836914" fill="none" fill-opacity="1.0" filling="0" stroke="black" stroke-linecap="round" stroke-linejoin="round" stroke-width="0.7"/>
  <path d="M 27.030527114868164,23.069841384887695 C 27.127403259277344,22.622989654541016 27.446813583374023,22.124927520751953 27.4428653717041,22.097591400146484 C 27.34977149963379,22.177074432373047 27.64427947998047,21.78533363342285 28.078857421875,21.109210968017578 C 27.9033145904541,21.408828735351562 28.267040252685547,20.764833450317383 28.836666107177734,20.138757705688477 C 28.567678451538086,20.408161163330078 29.071178436279297,19.783308029174805 29.827022552490234,19.124467849731445" fill="none" fill-opacity="1.0" filling="0" stroke="black" stroke-linecap="round" stroke-linejoin="round" stroke-width="0.7"/>
  <path d="M 29.90972137451172,19.15275764465332 C 30.080116271972656,19.02991485595703 30.876365661621094,18.443344116210938 30.79547119140625,18.51350975036621 C 30.83005142211914,18.48810386657715 31.651336669921875,17.965333938598633 31.940793991088867,17.821516036987305 C 31.662065505981445,17.973979949951172 32.55255126953125,17.44767189025879 33.103363037109375,17.232345581054688 C 32.9885368347168,17.297298431396484 33.70796203613281,16.950428009033203 34.2275276184082,16.834741592407227" fill="none" fill-opacity="1.0" filling="0" stroke="black" stroke-linecap="round" stroke-linejoin="round" stroke-width="0.7"/>
  <path d="M 34.43706130981445,16.922290802001953 C 34.77161407470703,16.731359481811523 35.620506286621094,16.491779327392578 35.5539665222168,16.501047134399414 C 35.74795913696289,16.447906494140625 36.59529113769531,16.309741973876953 36.85499954223633,16.252403259277344 C 36.64639663696289,16.306913375854492 37.35361862182617,16.21417236328125 37.962181091308594,16.215023040771484 C 37.86768341064453,16.222766876220703 38.59455490112305,16.210651397705078 39.24806213378906,16.25426483154297" fill="none" fill-opacity="1.0" filling="0" stroke="black" stroke-linecap="round" stroke-linejoin="round" stroke-width="0.7"/>
  <path d="M 39.02054214477539,16.46657943725586 C 39.788673400878906,16.506263732910156 40.87187957763672,16.737781524658203 40.37567138671875,16.64861488342285 C 40.88966369628906,16.744203567504883 41.51659393310547,16.947084426879883 41.57834243774414,16.90093421936035 C 41.54233169555664,16.938373565673828 42.284584045410156,17.16804313659668 42.67957305908203,17.35272979736328 C 42.7261848449707,17.383140563964844 43.39809799194336,17.683940887451172 43.69547653198242,17.824596405029297" fill="none" fill-opacity="1.0" filling="0" stroke="black" stroke-linecap="round" stroke-linejoin="round" stroke-width="0.7"/>
  <path d="M 43.82264709472656,17.707687377929688 C 44.45820236206055,18.025571823120117 45.34024429321289,18.782386779785156 44.95209503173828,18.470348358154297 C 45.067291259765625,18.576622009277344 45.94392776489258,19.22479820251465 45.91461944580078,19.34246253967285 C 46.01384735107422,19.330093383789062 46.36963653564453,19.817840576171875 46.71131896972656,20.213375091552734 C 46.77922058105469,20.32672119140625 47.155540466308594,20.858537673950195 47.299530029296875,21.101736068725586" fill="none" fill-opacity="1.0" filling="0" stroke="black" stroke-linecap="round" stroke-linejoin="round" stroke-width="0.7"/>
  <path d="M 47.3543586730957,21.161666870117188 C 47.60662078857422,21.333600997924805 48.0572509765625,22.12943458557129 47.948638916015625,21.951885223388672 C 47.955657958984375,21.791540145874023 48.39423370361328,22.68163299560547 48.55697250366211,22.931251525878906 C 48.46736526489258,22.70029640197754 48.75556182861328,23.323144912719727 49.072967529296875,24.213762283325195 C 49.084571838378906,24.158145904541016 49.32053756713867,25.12903594970703 49.40461730957031,25.521013259887695" fill="none" fill-opacity="1.0" filling="0" stroke="black" stroke-linecap="round" stroke-linejoin="round" stroke-width="0.7"/>
  <path d="M 49.38113784790039,25.673677444458008 C 49.59854507446289,26.1397762298584 49.67713165283203,27.021160125732422 49.6594123840332,26.874279022216797 C 49.70862579345703,26.992328643798828 49.76947021484375,27.79918670654297 49.75203323364258,28.08013916015625 C 49.71197509765625,27.824079513549805 49.79241943359375,28.63457489013672 49.723915100097656,29.37099266052246 C 49.69843673706055,29.348451614379883 49.65572738647461,30.369869232177734 49.60620880126953,30.575468063354492" fill="none" fill-opacity="1.0" filling="0" stroke="black" stroke-linecap="round" stroke-linejoin="round" stroke-width="0.7"/>
  <path d="M 49.29058837890625,30.690269470214844 C 49.170440673828125,31.275341033935547 49.09463882446289,31.901033401489258 49.040279388427734,31.65251922607422 C 49.033348083496094,32.07863998413086 48.7164306640625,32.75581741333008 48.69174575805664,32.76467514038086 C 48.853424072265625,32.31203079223633 48.653255462646484,33.14714431762695 48.26122283935547,33.7476806640625 C 48.351436614990234,33.66203689575195 47.94314193725586,34.3314094543457 47.50039291381836,35.14305877685547" fill="none" fill-opacity="1.0" filling="0" stroke="black" stroke-linecap="round" stroke-linejoin="round" stroke-width="0.7"/>
  <path d="M 44.05557632446289,38.46726608276367 C 44.43146514892578,38.29131317138672 44.9903564453125,37.94017791748047 44.878177642822266,37.96941375732422 C 44.88397979736328,38.00232696533203 45.43964767456055,37.61285400390625 45.90719223022461,37.19797897338867 C 45.508460998535156,37.50494384765625 46.14284133911133,36.9966926574707 46.76506423950195,36.270606994628906 C 46.49394226074219,36.571189880371094 47.13551330566406,35.92382049560547 47.652435302734375,35.219337463378906" fill="none" fill-opacity="1.0" filling="0" stroke="black" stroke-linecap="round" stroke-linejoin="round" stroke-width="0.7"/>
  <path d="M 39.39469528198242,40.117408752441406 C 39.9305534362793,40.112937927246094 40.50175476074219,40.006961822509766 40.44258117675781,39.99995040893555 C 40.491973876953125,40.03144454956055 41.15343475341797,39.820011138916016 41.39663314819336,39.737606048583984 C 41.17725372314453,39.86202621459961 41.56419372558594,39.665855407714844 42.358341217041016,39.38381576538086 C 41.90522384643555,39.52577590942383 42.867897033691406,39.201866149902344 43.87057876586914,38.630706787109375" fill="none" fill-opacity="1.0" filling="0" stroke="black" stroke-linecap="round" stroke-linejoin="round" stroke-width="0.7"/>
  <path d="M 48.755672454833984,58.23897933959961 C 49.262516021728516,58.2557487487793 50.26258087158203,58.24017333984375 50.00274658203125,58.246585845947266 C 50.308502197265625,58.262298583984375 51.31356430053711,58.23914337158203 51.23849105834961,58.25398254394531 C 51.30247116088867,58.2509651184082 52.03700637817383,58.2503776550293 52.4952392578125,58.2453498840332 C 52.471107482910156,58.23200988769531 53.29819107055664,58.272403717041016 53.62152099609375,58.192176818847656" fill="none" fill-opacity="1.0" filling="0" stroke="black" stroke-linecap="round" stroke-linejoin="round" stroke-width="0.7"/>
  <path d="M 43.962432861328125,58.22062683105469 C 44.4249382019043,58.231956481933594 45.41272735595703,58.206600189208984 45.17882537841797,58.22837829589844 C 45.5069580078125,58.21527862548828 46.440391540527344,58.22755432128906 46.41708755493164,58.22254943847656 C 46.44253921508789,58.22739028930664 47.21370315551758,58.21953201293945 47.67880630493164,58.21856689453125 C 47.67008590698242,58.21250915527344 48.49505615234375,58.224342346191406 48.85285186767578,58.205299377441406" fill="none" fill-opacity="1.0" filling="0" stroke="black" stroke-linecap="round" stroke-linejoin="round" stroke-width="0.7"/>
  <path d="M 38.899932861328125,58.22062683105469 C 39.3624382019043,58.231956481933594 40.35022735595703,58.206600189208984 40.11632537841797,58.22837829589844 C 40.4444580078125,58.21527862548828 41.377891540527344,58.22755432128906 41.35458755493164,58.22254943847656 C 41.38003921508789,58.22739028930664 42.15120315551758,58.21953201293945 42.61630630493164,58.21856689453125 C 42.60758590698242,58.21250915527344 43.43255615234375,58.224342346191406 43.79035186767578,58.205299377441406" fill="none" fill-opacity="1.0" filling="0" stroke="black" stroke-linecap="round" stroke-linejoin="round" stroke-width="0.7"/>
  <path d="M 34.11867904663086,58.22062683105469 C 34.5811882019043,58.231956481933594 35.568973541259766,58.206600189208984 35.3350715637207,58.22837829589844 C 35.6632080078125,58.21527862548828 36.596641540527344,58.22755432128906 36.57333755493164,58.22254943847656 C 36.59878921508789,58.22739028930664 37.36995315551758,58.21953201293945 37.83505630493164,58.21856689453125 C 37.82633590698242,58.21250915527344 38.65130615234375,58.224342346191406 39.00910186767578,58.205299377441406" fill="none" fill-opacity="1.0" filling="0" stroke="black" stroke-linecap="round" stroke-linejoin="round" stroke-width="0.7"/>
  <path d="M 29.337427139282227,58.22062683105469 C 29.799936294555664,58.231956481933594 30.7877254486084,58.206600189208984 30.553821563720703,58.22837829589844 C 30.881961822509766,58.21527862548828 31.815391540527344,58.22755432128906 31.79208755493164,58.22254943847656 C 31.81753921508789,58.22739028930664 32.58870315551758,58.21953201293945 33.05380630493164,58.21856689453125 C 33.04508590698242,58.21250915527344 33.87005615234375,58.224342346191406 34.22785186767578,58.205299377441406" fill="none" fill-opacity="1.0" filling="0" stroke="black" stroke-linecap="round" stroke-linejoin="round" stroke-width="0.7"/>
  <path d="M 24.556177139282227,58.22062683105469 C 25.018686294555664,58.231956481933594 26.0064754486084,58.206600189208984 25.772571563720703,58.22837829589844 C 26.100711822509766,58.21527862548828 27.034141540527344,58.22755432128906 27.01083755493164,58.22254943847656 C 27.03628921508789,58.22739028930664 27.80745506286621,58.21953201293945 28.272554397583008,58.21856689453125 C 28.263835906982422,58.21250915527344 29.088804244995117,58.224342346191406 29.446603775024414,58.205299377441406" fill="none" fill-opacity="1.0" filling="0" stroke="black" stroke-linecap="round" stroke-linejoin="round" stroke-width="0.7"/>
  <path d="M 21.589031219482422,56.112823486328125 C 21.359769821166992,57.6419563293457 21.721363067626953,57.793025970458984 21.509281158447266,57.5375862121582 C 21.49434471130371,58.0836067199707 22.149677276611328,58.18443298339844 22.0726318359375,58.07596206665039 C 22.136707305908203,58.043888092041016 22.147300720214844,58.14071273803711 23.057741165161133,58.02836608886719 C 22.65269660949707,58.00519561767578 23.181190490722656,58.12485885620117 24.5303955078125,58.084999084472656" fill="none" fill-opacity="1.0" filling="0" stroke="black" stroke-linecap="round" stroke-linejoin="round" stroke-width="0.7"/>
  <path d="M 22.422517776489258,51.321876525878906 C 22.289794921875,51.75634765625 22.054094314575195,52.53579330444336 22.117122650146484,52.359825134277344 C 22.036800384521484,52.62081527709961 21.8583927154541,53.372711181640625 21.814842224121094,53.46324157714844 C 21.896947860717773,53.091365814208984 21.68964385986328,54.15149688720703 21.58251953125,54.891517639160156 C 21.578189849853516,54.83635711669922 21.448936462402344,55.70786666870117 21.455968856811523,56.12364959716797" fill="none" fill-opacity="1.0" filling="0" stroke="black" stroke-linecap="round" stroke-linejoin="round" stroke-width="0.7"/>
  <path d="M 22.487171173095703,51.366859436035156 C 22.77593994140625,50.66216278076172 22.963184356689453,50.12310791015625 23.02313232421875,50.149452209472656 C 22.931690216064453,50.2360725402832 23.19270133972168,49.723480224609375 23.544748306274414,49.07366943359375 C 23.391536712646484,49.281089782714844 23.79534912109375,48.60381317138672 24.15064811706543,47.99532699584961 C 23.943037033081055,48.34070587158203 24.276424407958984,47.74530029296875 24.78849983215332,47.07194137573242" fill="none" fill-opacity="1.0" filling="0" stroke="black" stroke-linecap="round" stroke-linejoin="round" stroke-width="0.7"/>
  <path d="M 24.944120407104492,46.92586135864258 C 25.067516326904297,46.759666442871094 25.578269958496094,46.14827346801758 25.60266876220703,46.17839813232422 C 25.567779541015625,46.18782424926758 26.08906364440918,45.677146911621094 26.537261962890625,45.25871658325195 C 26.169570922851562,45.590003967285156 26.90596580505371,44.89764404296875 27.516521453857422,44.36921691894531 C 27.297229766845703,44.57585906982422 27.91156005859375,44.03883743286133 28.523420333862305,43.62782287597656" fill="none" fill-opacity="1.0" filling="0" stroke="black" stroke-linecap="round" stroke-linejoin="round" stroke-width="0.7"/>
  <path d="M 28.41124153137207,43.721805572509766 C 28.60295295715332,43.634525299072266 29.38140106201172,43.145050048828125 29.35237693786621,43.205440521240234 C 29.391040802001953,43.176692962646484 30.297107696533203,42.738746643066406 30.54041862487793,42.63945388793945 C 30.260181427001953,42.754730224609375 31.108978271484375,42.36005401611328 31.690204620361328,42.14570617675781 C 31.533550262451172,42.22144317626953 32.31727981567383,41.90553665161133 32.913543701171875,41.76111602783203" fill="none" fill-opacity="1.0" filling="0" stroke="black" stroke-linecap="round" stroke-linejoin="round" stroke-width="0.7"/>
  <path d="M 32.77961349487305,41.61001968383789 C 33.00572204589844,41.59564971923828 33.87931823730469,41.41592025756836 33.790706634521484,41.443031311035156 C 33.962669372558594,41.37596130371094 34.969825744628906,41.21703338623047 35.066184997558594,41.17432403564453 C 34.9505615234375,41.234806060791016 35.67652130126953,41.10166931152344 36.2575569152832,41.064483642578125 C 36.151206970214844,41.10670852661133 36.967796325683594,41.004432678222656 37.534385681152344,41.06460189819336" fill="none" fill-opacity="1.0" filling="0" stroke="black" stroke-linecap="round" stroke-linejoin="round" stroke-width="0.7"/>
  <path d="M 37.80488967895508,41.1733283996582 C 38.42547607421875,41.19002151489258 39.559818267822266,41.37018966674805 39.13660430908203,41.294403076171875 C 39.65758514404297,41.38766098022461 40.37397384643555,41.51637268066406 40.38768768310547,41.46421432495117 C 40.355899810791016,41.50685119628906 41.123390197753906,41.649314880371094 41.5594482421875,41.747039794921875 C 41.567222595214844,41.77519226074219 42.317771911621094,41.960174560546875 42.638832092285156,42.061378479003906" fill="none" fill-opacity="1.0" filling="0" stroke="black" stroke-linecap="round" stroke-linejoin="round" stroke-width="0.7"/>
  <path d="M 42.54289627075195,41.949642181396484 C 43.342376708984375,42.175994873046875 44.43904495239258,42.68240737915039 43.83660125732422,42.42622375488281 C 44.246944427490234,42.57115173339844 45.070465087890625,42.978294372558594 44.98453903198242,42.90693283081055 C 45.07790756225586,42.9434700012207 45.768714904785156,43.35123825073242 46.02464294433594,43.514137268066406 C 46.16020202636719,43.59751510620117 46.66844177246094,43.91352462768555 46.9084587097168,44.11162185668945" fill="none" fill-opacity="1.0" filling="0" stroke="black" stroke-linecap="round" stroke-linejoin="round" stroke-width="0.7"/>
  <path d="M 46.90890121459961,44.064579010009766 C 47.470863342285156,44.50774383544922 48.31642150878906,45.34215545654297 47.944644927978516,44.968143463134766 C 48.04607391357422,45.07648468017578 48.897483825683594,45.8247184753418 48.89182662963867,45.85165023803711 C 48.978824615478516,45.93661117553711 49.40229034423828,46.366127014160156 49.719417572021484,46.75404739379883 C 49.83507537841797,46.86902618408203 50.22678756713867,47.39619827270508 50.40019607543945,47.60828399658203" fill="none" fill-opacity="1.0" filling="0" stroke="black" stroke-linecap="round" stroke-linejoin="round" stroke-width="0.7"/>
  <path d="M 50.267555236816406,47.37120056152344 C 50.406005859375,47.477073669433594 50.94334411621094,48.360740661621094 50.88017272949219,48.219276428222656 C 50.822227478027344,48.07157897949219 51.40979766845703,48.97287368774414 51.552978515625,49.25963592529297 C 51.46464538574219,49.039756774902344 51.81185531616211,49.67948913574219 52.145301818847656,50.371063232421875 C 52.15696716308594,50.4339714050293 52.502105712890625,51.21678161621094 52.66970443725586,51.62613296508789" fill="none" fill-opacity="1.0" filling="0" stroke="black" stroke-linecap="round" stroke-linejoin="round" stroke-width="0.7"/>
  <path d="M 52.6155891418457,52.17733383178711 C 52.724639892578125,52.57618713378906 53.05619812011719,53.404808044433594 52.95841979980469,53.252784729003906 C 52.94847869873047,53.22426986694336 53.27287673950195,54.174171447753906 53.24025344848633,54.431304931640625 C 53.19709396362305,54.233402252197266 53.41494369506836,54.872100830078125 53.48412322998047,55.61376190185547 C 53.5493278503418,55.626014709472656 53.6326904296875,56.62116622924805 53.69685745239258,56.94298553466797" fill="none" fill-opacity="1.0" filling="0" stroke="black" stroke-linecap="round" stroke-linejoin="round" stroke-width="0.7"/>
  <path d="M 50.724422454833984,58.80147933959961 C 51.231266021728516,58.8182487487793 52.23133087158203,58.80267333984375 51.97149658203125,58.809085845947266 C 52.277252197265625,58.824798583984375 53.28231430053711,58.80164337158203 53.20724105834961,58.81648254394531 C 53.27122116088867,58.8134651184082 54.00575637817383,58.8128776550293 54.4639892578125,58.8078498840332 C 54.439857482910156,58.79450988769531 55.26694107055664,58.834903717041016 55.59027099609375,58.754676818847656" fill="none" fill-opacity="1.0" filling="0" stroke="black" stroke-linecap="round" stroke-linejoin="round" stroke-width="0.7"/>
  <path d="M 45.931182861328125,58.78312683105469 C 46.3936882019043,58.794456481933594 47.38147735595703,58.769100189208984 47.14757537841797,58.79087829589844 C 47.4757080078125,58.77777862548828 48.409141540527344,58.79005432128906 48.38583755493164,58.78504943847656 C 48.41128921508789,58.78989028930664 49.18245315551758,58.78203201293945 49.64755630493164,58.78106689453125 C 49.63883590698242,58.77500915527344 50.46380615234375,58.786842346191406 50.82160186767578,58.767799377441406" fill="none" fill-opacity="1.0" filling="0" stroke="black" stroke-linecap="round" stroke-linejoin="round" stroke-width="0.7"/>
  <path d="M 40.868682861328125,58.78312683105469 C 41.3311882019043,58.794456481933594 42.31897735595703,58.769100189208984 42.08507537841797,58.79087829589844 C 42.4132080078125,58.77777862548828 43.346641540527344,58.79005432128906 43.32333755493164,58.78504943847656 C 43.34878921508789,58.78989028930664 44.11995315551758,58.78203201293945 44.58505630493164,58.78106689453125 C 44.57633590698242,58.77500915527344 45.40130615234375,58.786842346191406 45.75910186767578,58.767799377441406" fill="none" fill-opacity="1.0" filling="0" stroke="black" stroke-linecap="round" stroke-linejoin="round" stroke-width="0.7"/>
  <path d="M 36.087432861328125,58.78312683105469 C 36.5499382019043,58.794456481933594 37.53772735595703,58.769100189208984 37.30382537841797,58.79087829589844 C 37.6319580078125,58.77777862548828 38.565391540527344,58.79005432128906 38.54208755493164,58.78504943847656 C 38.56753921508789,58.78989028930664 39.33870315551758,58.78203201293945 39.80380630493164,58.78106689453125 C 39.79508590698242,58.77500915527344 40.62005615234375,58.786842346191406 40.97785186767578,58.767799377441406" fill="none" fill-opacity="1.0" filling="0" stroke="black" stroke-linecap="round" stroke-linejoin="round" stroke-width="0.7"/>
  <path d="M 31.306177139282227,58.78312683105469 C 31.768686294555664,58.794456481933594 32.756473541259766,58.769100189208984 32.5225715637207,58.79087829589844 C 32.8507080078125,58.77777862548828 33.784141540527344,58.79005432128906 33.76083755493164,58.78504943847656 C 33.78628921508789,58.78989028930664 34.55745315551758,58.78203201293945 35.02255630493164,58.78106689453125 C 35.01383590698242,58.77500915527344 35.83880615234375,58.786842346191406 36.19660186767578,58.767799377441406" fill="none" fill-opacity="1.0" filling="0" stroke="black" stroke-linecap="round" stroke-linejoin="round" stroke-width="0.7"/>
  <path d="M 26.524927139282227,58.78312683105469 C 26.987436294555664,58.794456481933594 27.9752254486084,58.769100189208984 27.741321563720703,58.79087829589844 C 28.069461822509766,58.77777862548828 29.002891540527344,58.79005432128906 28.97958755493164,58.78504943847656 C 29.00503921508789,58.78989028930664 29.77620506286621,58.78203201293945 30.241304397583008,58.78106689453125 C 30.232585906982422,58.77500915527344 31.057554244995117,58.786842346191406 31.415353775024414,58.767799377441406" fill="none" fill-opacity="1.0" filling="0" stroke="black" stroke-linecap="round" stroke-linejoin="round" stroke-width="0.7"/>
  <path d="M 21.462427139282227,58.78312683105469 C 21.924936294555664,58.794456481933594 22.9127254486084,58.769100189208984 22.678821563720703,58.79087829589844 C 23.006961822509766,58.77777862548828 23.940391540527344,58.79005432128906 23.91708755493164,58.78504943847656 C 23.94253921508789,58.78989028930664 24.71370506286621,58.78203201293945 25.178804397583008,58.78106689453125 C 25.170085906982422,58.77500915527344 25.995054244995117,58.786842346191406 26.352853775024414,58.767799377441406" fill="none" fill-opacity="1.0" filling="0" stroke="black" stroke-linecap="round" stroke-linejoin="round" stroke-width="0.7"/>
  <path d="M 19.317861557006836,55.661502838134766 C 19.136144638061523,57.14753723144531 19.311077117919922,57.48675537109375 19.20951271057129,57.17626190185547 C 19.192354202270508,57.793827056884766 19.473384857177734,58.27703857421875 19.318496704101562,58.10813522338867 C 19.461702346801758,57.988426208496094 19.341026306152344,58.335880279541016 20.176483154296875,58.43675994873047 C 19.747268676757812,58.31385803222656 20.226451873779297,58.530517578125 21.767419815063477,58.51054382324219" fill="none" fill-opacity="1.0" filling="0" stroke="black" stroke-linecap="round" stroke-linejoin="round" stroke-width="0.7"/>
  <path d="M 20.172517776489258,51.040626525878906 C 20.039794921875,51.47509765625 19.804094314575195,52.25454330444336 19.867122650146484,52.078575134277344 C 19.786800384521484,52.33956527709961 19.6083927154541,53.091461181640625 19.564842224121094,53.18199157714844 C 19.646947860717773,52.810115814208984 19.43964385986328,53.87024688720703 19.33251953125,54.610267639160156 C 19.328189849853516,54.55510711669922 19.198936462402344,55.42661666870117 19.205968856811523,55.84239959716797" fill="none" fill-opacity="1.0" filling="0" stroke="black" stroke-linecap="round" stroke-linejoin="round" stroke-width="0.7"/>
  <path d="M 20.324459075927734,51.03553009033203 C 20.500438690185547,50.273841857910156 20.66383934020996,49.77114486694336 20.723787307739258,49.79912567138672 C 20.643295288085938,49.885276794433594 20.8458309173584,49.427146911621094 21.224689483642578,48.83192443847656 C 21.055612564086914,48.99607467651367 21.423789978027344,48.43976593017578 21.810762405395508,47.83319091796875 C 21.597381591796875,48.145347595214844 21.933961868286133,47.59047317504883 22.445131301879883,46.8425178527832" fill="none" fill-opacity="1.0" filling="0" stroke="black" stroke-linecap="round" stroke-linejoin="round" stroke-width="0.7"/>
  <path d="M 22.57857894897461,46.82979965209961 C 22.653207778930664,46.62946701049805 23.059724807739258,46.09656524658203 23.09653091430664,46.054710388183594 C 23.02756690979004,46.11210250854492 23.4190616607666,45.686729431152344 23.863794326782227,45.13214874267578 C 23.590194702148438,45.4853515625 24.09148597717285,44.824920654296875 24.7718563079834,44.16316223144531 C 24.4947509765625,44.44248580932617 25.074554443359375,43.81186294555664 25.81727409362793,43.171730041503906" fill="none" fill-opacity="1.0" filling="0" stroke="black" stroke-linecap="round" stroke-linejoin="round" stroke-width="0.7"/>
  <path d="M 25.738948822021484,43.41728591918945 C 25.916568756103516,43.28702163696289 26.704608917236328,42.71663284301758 26.636478424072266,42.78437805175781 C 26.662261962890625,42.77108383178711 27.530427932739258,42.20669937133789 27.8415584564209,42.04556655883789 C 27.51300621032715,42.22097396850586 28.440114974975586,41.67436981201172 28.9986572265625,41.39115524291992 C 28.877145767211914,41.472740173339844 29.570146560668945,41.083499908447266 29.96677589416504,40.951927185058594" fill="none" fill-opacity="1.0" filling="0" stroke="black" stroke-linecap="round" stroke-linejoin="round" stroke-width="0.7"/>
  <path d="M 30.014827728271484,40.8801383972168 C 30.23540496826172,40.73239517211914 30.926851272583008,40.47499465942383 30.993968963623047,40.516483306884766 C 31.13181495666504,40.43068313598633 31.953256607055664,40.17603302001953 32.146602630615234,40.11882781982422 C 31.92421531677246,40.148460388183594 32.58307647705078,40.006710052490234 33.27593231201172,39.80714797973633 C 33.07794952392578,39.899742126464844 33.98012924194336,39.644168853759766 34.671287536621094,39.54233169555664" fill="none" fill-opacity="1.0" filling="0" stroke="black" stroke-linecap="round" stroke-linejoin="round" stroke-width="0.7"/>
  <path d="M 34.69902801513672,39.47208023071289 C 34.99702072143555,39.472652435302734 36.014183044433594,39.343238830566406 35.8217658996582,39.37310028076172 C 36.06275939941406,39.34945297241211 37.12171936035156,39.26344299316406 37.11490249633789,39.236629486083984 C 37.10305404663086,39.26832580566406 37.87371826171875,39.19064712524414 38.372501373291016,39.212188720703125 C 38.343109130859375,39.24452209472656 39.11109161376953,39.18114471435547 39.54788589477539,39.264198303222656" fill="none" fill-opacity="1.0" filling="0" stroke="black" stroke-linecap="round" stroke-linejoin="round" stroke-width="0.7"/>
  <path d="M 39.54461669921875,39.379940032958984 C 40.218326568603516,39.46528625488281 41.37062072753906,39.65365219116211 40.915733337402344,39.5634880065918 C 41.41526412963867,39.670257568359375 42.16286087036133,39.800445556640625 42.13127899169922,39.78202819824219 C 42.1428337097168,39.80283737182617 42.95130157470703,40.01475524902344 43.27702331542969,40.08463668823242 C 43.370094299316406,40.14854049682617 44.057029724121094,40.32787322998047 44.2636833190918,40.46785354614258" fill="none" fill-opacity="1.0" filling="0" stroke="black" stroke-linecap="round" stroke-linejoin="round" stroke-width="0.7"/>
  <path d="M 44.23039627075195,40.262142181396484 C 45.029876708984375,40.488494873046875 46.12654495239258,40.99490737915039 45.52410125732422,40.73872375488281 C 45.934444427490234,40.88365173339844 46.757965087890625,41.290794372558594 46.67203903198242,41.21943283081055 C 46.76540756225586,41.2559700012207 47.456214904785156,41.66373825073242 47.71214294433594,41.826637268066406 C 47.84770202636719,41.91001510620117 48.35594177246094,42.22602462768555 48.5959587097168,42.42412185668945" fill="none" fill-opacity="1.0" filling="0" stroke="black" stroke-linecap="round" stroke-linejoin="round" stroke-width="0.7"/>
  <path d="M 48.534461975097656,42.454917907714844 C 49.17906951904297,42.90495300292969 50.08491516113281,43.70307540893555 49.6473274230957,43.30405807495117 C 49.79085159301758,43.455665588378906 50.69786834716797,44.13441848754883 50.6356201171875,44.148075103759766 C 50.74610900878906,44.240074157714844 51.186771392822266,44.67851638793945 51.50453567504883,45.018287658691406 C 51.61540985107422,45.14033889770508 51.999874114990234,45.64664840698242 52.15362548828125,45.85600280761719" fill="none" fill-opacity="1.0" filling="0" stroke="black" stroke-linecap="round" stroke-linejoin="round" stroke-width="0.7"/>
  <path d="M 52.123313903808594,45.715850830078125 C 52.285194396972656,45.83909606933594 52.86248779296875,46.726593017578125 52.79029846191406,46.597991943359375 C 52.75328063964844,46.48904800415039 53.36767578125,47.35015869140625 53.50950622558594,47.60709762573242 C 53.43031311035156,47.427284240722656 53.78840255737305,48.041622161865234 54.13239288330078,48.669498443603516 C 54.17689514160156,48.75040054321289 54.54982376098633,49.423439025878906 54.75113296508789,49.90374755859375" fill="none" fill-opacity="1.0" filling="0" stroke="black" stroke-linecap="round" stroke-linejoin="round" stroke-width="0.7"/>
  <path d="M 54.75706481933594,49.96154022216797 C 54.889251708984375,50.25960159301758 55.25951385498047,51.074676513671875 55.1390380859375,50.94606399536133 C 55.161338806152344,50.87783432006836 55.48417282104492,51.810203552246094 55.51783752441406,52.08576583862305 C 55.46876907348633,51.833702087402344 55.689353942871094,52.50926971435547 55.8211669921875,53.34268569946289 C 55.85926055908203,53.3189582824707 55.99789810180664,54.355934143066406 56.067325592041016,54.65724563598633" fill="none" fill-opacity="1.0" filling="0" stroke="black" stroke-linecap="round" stroke-linejoin="round" stroke-width="0.7"/>
  <path d="M 55.75591278076172,54.51824188232422 C 55.9122314453125,54.91571044921875 56.01019287109375,55.72907638549805 56.0013313293457,55.52163314819336 C 56.000160217285156,55.69190979003906 56.116661071777344,56.45330810546875 56.12443923950195,56.68671417236328 C 56.07259750366211,56.41062927246094 56.21370315551758,57.15105438232422 56.24868392944336,57.99515151977539 C 56.2171745300293,58.044883728027344 56.21583557128906,58.854026794433594 55.616180419921875,59.09867477416992" fill="none" fill-opacity="1.0" filling="0" stroke="black" stroke-linecap="round" stroke-linejoin="round" stroke-width="0.7"/>
</svg>
