<?xml version="1.0" ?>
<svg xmlns="http://www.w3.org/2000/svg" version="1.1" width="72" height="72">
  <defs/>
  <g>
    <path d="M 23.409507751464844 41.442420959472656 C 23.83064842224121 40.0751953125 26.509878158569336 38.796016693115234 30.402624130249023 38.644775390625 C 33.62574005126953 39.0531120300293 35.23503494262695 39.03515625 35.34069061279297 38.65646743774414 C 34.86594009399414 38.27465057373047 34.142486572265625 37.99263000488281 33.574119567871094 37.86538314819336 C 33.36503601074219 37.72091293334961 33.380882263183594 37.67167282104492 33.4820442199707 37.70759582519531 C 33.585105895996094 37.69774627685547 33.571372985839844 37.63030242919922 33.563316345214844 37.623233795166016 C 34.24228286743164 37.82425308227539 36.139041900634766 38.39806365966797 39.462684631347656 38.89579391479492 C 43.601436614990234 39.36915969848633 46.98384475708008 40.128326416015625 48.602073669433594 41.164894104003906 C 48.10313415527344 41.525604248046875 45.944664001464844 41.15983963012695 42.81427001953125 40.37580871582031 C 39.05934524536133 39.613189697265625 34.866111755371094 39.422943115234375 30.587331771850586 40.159793853759766 C 27.156585693359375 41.10192108154297 24.725814819335938 41.74664306640625 23.409507751464844 41.442420959472656" stroke-width="2.0" fill="none" stroke="rgb(0, 0, 0)" stroke-opacity="1" stroke-linecap="round" stroke-linejoin="round"/>
    <path d="M 22.16860580444336 42.92366409301758 C 22.856807708740234 41.2550048828125 25.3461856842041 39.73439407348633 29.140119552612305 39.11085510253906 C 32.98540496826172 39.028404235839844 35.49858093261719 38.931068420410156 36.10350799560547 38.6004524230957 C 35.330867767333984 38.198360443115234 34.29704666137695 37.89768600463867 33.624454498291016 37.65258026123047 C 33.40648651123047 37.4483757019043 33.512237548828125 37.35715866088867 33.752227783203125 37.28048324584961 C 33.853702545166016 37.171600341796875 33.787315368652344 37.2070426940918 33.82673263549805 37.411964416503906 C 34.7783317565918 37.96095275878906 37.338897705078125 38.80850601196289 41.3228874206543 39.55861282348633 C 45.56232833862305 40.452903747558594 48.76351547241211 41.95634460449219 50.11840057373047 43.38373565673828 C 49.41741180419922 43.94385528564453 47.076171875 43.6226806640625 43.34078598022461 42.84963607788086 C 38.45549011230469 42.18254852294922 33.07118225097656 42.147090911865234 28.27971649169922 42.77586364746094 C 25.061887741088867 43.45271301269531 23.004005432128906 43.7095947265625 22.16860580444336 42.92366409301758" stroke-width="2.0" fill="none" stroke="rgb(0, 0, 0)" stroke-opacity="1" stroke-linecap="round" stroke-linejoin="round"/>
    <path d="M 21.20999526977539 43.83656311035156 C 22.580768585205078 41.815853118896484 25.472482681274414 40.29256057739258 29.359249114990234 39.55821228027344 C 32.859283447265625 38.86469650268555 34.16034698486328 37.303157806396484 33.45254898071289 34.99850082397461 C 32.00184631347656 32.518043518066406 31.245349884033203 30.07098388671875 32.47804641723633 28.18752670288086 C 35.64716339111328 27.445980072021484 38.93053436279297 28.359163284301758 40.56809997558594 30.51898765563965 C 39.91615295410156 32.863525390625 38.02497482299805 34.954654693603516 36.26304626464844 36.59859085083008 C 36.320777893066406 37.97102737426758 38.94700241088867 39.187904357910156 43.1429328918457 40.574058532714844 C 47.284358978271484 42.279239654541016 50.2591438293457 44.48701477050781 51.25469970703125 46.311012268066406 C 50.35371017456055 47.10611343383789 47.675498962402344 47.1790657043457 43.17221450805664 47.1590461730957 C 36.93653869628906 47.2393798828125 30.07701873779297 47.15668487548828 24.979412078857422 46.86145782470703 C 22.359966278076172 46.4234733581543 21.065874099731445 45.467628479003906 21.20999526977539 43.83656311035156" stroke-width="2.0" fill="none" stroke="rgb(0, 0, 0)" stroke-opacity="1" stroke-linecap="round" stroke-linejoin="round"/>
    <path d="M 20.20442008972168 44.380313873291016 C 22.268754959106445 42.04257583618164 25.732995986938477 40.58072280883789 29.79328727722168 40.09934616088867 C 32.089073181152344 39.15996551513672 31.51252555847168 36.38140869140625 29.5928955078125 31.75619125366211 C 28.490949630737305 27.075801849365234 29.42833709716797 23.09721565246582 32.70328140258789 20.376052856445312 C 37.10138702392578 19.678874969482422 41.286781311035156 21.360679626464844 43.7677116394043 24.813634872436523 C 44.061771392822266 29.182865142822266 42.305355072021484 33.24180221557617 39.3677864074707 36.400978088378906 C 37.88528060913086 38.285465240478516 40.38935089111328 39.529747009277344 44.968685150146484 41.36705017089844 C 48.96595001220703 43.95650863647461 51.52498245239258 46.79417037963867 52.16868209838867 48.97100830078125 C 51.098087310791016 50.275535583496094 48.23379898071289 51.07955551147461 43.04011917114258 51.901859283447266 C 35.499027252197266 52.31766128540039 27.350906372070312 51.82952117919922 21.988887786865234 50.73900604248047 C 19.778982162475586 49.00526809692383 19.351552963256836 46.85069274902344 20.20442008972168 44.380313873291016" stroke-width="2.0" fill="none" stroke="rgb(0, 0, 0)" stroke-opacity="1" stroke-linecap="round" stroke-linejoin="round"/>
    <path d="M 18.449451446533203 45.10380935668945 C 21.55751609802246 42.27353286743164 26.016569137573242 40.951881408691406 30.194978713989258 40.7344970703125 C 30.97832489013672 39.425045013427734 28.703916549682617 35.074947357177734 26.59030532836914 28.67850112915039 C 26.402881622314453 22.9210205078125 28.883577346801758 18.641387939453125 32.85594177246094 16.211702346801758 C 37.24821090698242 15.754898071289062 41.760807037353516 17.444639205932617 44.93686294555664 21.287893295288086 C 45.886558532714844 26.600549697875977 44.72802734375 32.00770568847656 41.64634704589844 36.29721450805664 C 39.232666015625 38.576927185058594 41.96364974975586 39.92889404296875 47.52981948852539 42.072303771972656 C 51.782657623291016 45.561668395996094 54.080020904541016 49.07343292236328 54.329925537109375 51.821510314941406 C 52.89545440673828 53.63744354248047 49.576316833496094 54.98613357543945 43.457340240478516 56.12077713012695 C 34.38280487060547 56.492408752441406 24.91992950439453 55.77667999267578 19.010774612426758 54.22968673706055 C 16.87530517578125 51.68779754638672 16.86934471130371 48.54216766357422 18.449451446533203 45.10380935668945" stroke-width="2.0" fill="none" stroke="rgb(0, 0, 0)" stroke-opacity="1" stroke-linecap="round" stroke-linejoin="round"/>
    <path d="M 16.46415901184082 46.022544860839844 C 20.84791374206543 42.48151779174805 26.75090217590332 41.3709716796875 30.86781120300293 41.29475402832031 C 29.714914321899414 39.42893981933594 25.871068954467773 33.2895393371582 23.9760799407959 25.422677993774414 C 25.07550048828125 18.77733612060547 28.763505935668945 14.57612133026123 33.1316032409668 12.567631721496582 C 37.49333953857422 12.322015762329102 42.19734573364258 13.952728271484375 45.89741897583008 18.015113830566406 C 47.23395919799805 24.138912200927734 46.23954772949219 30.817550659179688 42.989288330078125 36.134273529052734 C 39.9294319152832 38.82175827026367 43.13523483276367 40.17992401123047 49.98493957519531 42.44483184814453 C 54.82225799560547 47.04716110229492 56.96348190307617 51.50518798828125 56.96211624145508 54.859405517578125 C 55.269412994384766 56.95561218261719 51.385501861572266 58.487144470214844 44.18466567993164 59.65668869018555 C 33.4853630065918 59.94435501098633 22.81355094909668 59.175533294677734 16.40953254699707 57.44655227661133 C 14.13830852508545 54.48051452636719 14.234319686889648 50.58173370361328 16.46415901184082 46.022544860839844" stroke-width="2.0" fill="none" stroke="rgb(0, 0, 0)" stroke-opacity="1" stroke-linecap="round" stroke-linejoin="round"/>
    <path d="M 14.388492584228516 47.12397766113281 C 20.284366607666016 42.87523651123047 27.723237991333008 41.80173110961914 31.527645111083984 41.572959899902344 C 28.93429946899414 38.8615837097168 24.387258529663086 31.140947341918945 22.782743453979492 22.191139221191406 C 24.498855590820312 15.014591217041016 28.79725456237793 10.938665390014648 33.342891693115234 9.282184600830078 C 37.75320816040039 9.206548690795898 42.59474182128906 10.764059066772461 46.72526550292969 14.878292083740234 C 48.39830017089844 21.65209197998047 47.260826110839844 29.619888305664062 43.63933563232422 35.99484634399414 C 40.11479949951172 39.13468933105469 43.91022491455078 40.49142837524414 52.29521179199219 42.663787841796875 C 57.920166015625 48.32745361328125 59.94854736328125 53.995994567871094 59.647342681884766 57.92273712158203 C 57.59846878051758 60.2222785949707 53.06422805786133 61.764652252197266 44.674468994140625 62.7889289855957 C 32.36599349975586 62.96510314941406 20.641984939575195 62.19175338745117 13.953991889953613 60.45051193237305 C 11.588080406188965 57.31866455078125 11.645980834960938 52.862083435058594 14.388492584228516 47.12397766113281" stroke-width="2.0" fill="none" stroke="rgb(0, 0, 0)" stroke-opacity="1" stroke-linecap="round" stroke-linejoin="round"/>
    <path d="M 12.699127197265625 48.08414077758789 C 20.024139404296875 43.434349060058594 28.762466430664062 42.316192626953125 32.04011535644531 41.664615631103516 C 28.209043502807617 37.834205627441406 23.392059326171875 28.87100601196289 22.032331466674805 19.255388259887695 C 24.290998458862305 11.996861457824707 28.904800415039062 8.211199760437012 33.63360595703125 6.815464496612549 C 38.101139068603516 6.846271514892578 42.928707122802734 8.370028495788574 47.36366653442383 12.455808639526367 C 49.31657028198242 19.69151496887207 48.03633499145508 28.7073974609375 43.971168518066406 35.95275115966797 C 39.879886627197266 39.514869689941406 43.8571891784668 40.88997268676758 53.66697311401367 42.88912582397461 C 60.21669387817383 49.19476318359375 62.33051681518555 55.9625358581543 61.90266418457031 60.38469314575195 C 59.555198669433594 62.78865051269531 54.405269622802734 64.2444839477539 44.852298736572266 65.07384490966797 C 31.108335494995117 65.14740753173828 18.63343620300293 64.40086364746094 11.926179885864258 62.727848052978516 C 9.571683883666992 59.595176696777344 9.603541374206543 54.75688934326172 12.699127197265625 48.08414077758789" stroke-width="2.0" fill="none" stroke="rgb(0, 0, 0)" stroke-opacity="1" stroke-linecap="round" stroke-linejoin="round"/>
    <path d="M 12.055608749389648 48.511993408203125 C 19.929285049438477 43.68636703491211 29.20522689819336 42.52322769165039 32.27375411987305 41.667537689208984 C 27.93402099609375 37.42887496948242 23.04440689086914 28.015939712524414 21.821292877197266 18.170320510864258 C 24.286788940429688 10.950160026550293 28.98910140991211 7.307651042938232 33.779571533203125 6.0060200691223145 C 38.28675842285156 6.072754859924316 43.1151008605957 7.589208126068115 47.629119873046875 11.692771911621094 C 49.638851165771484 19.11995506286621 48.2664794921875 28.49842071533203 44.00475311279297 36.01911163330078 C 39.699501037597656 39.72914505004883 43.702911376953125 41.14854431152344 54.07889175415039 43.13741683959961 C 61.01739501953125 49.561180114746094 63.17240905761719 56.710086822509766 62.724308013916016 61.27003860473633 C 60.3130989074707 63.68416976928711 54.97853469848633 65.08265686035156 45.01996994018555 65.83946990966797 C 30.734962463378906 65.88101959228516 17.983240127563477 65.15636444091797 11.251119613647461 63.54253005981445 C 8.875020027160645 60.460227966308594 8.870465278625488 55.525726318359375 12.055608749389648 48.511993408203125" stroke-width="2.0" fill="none" stroke="rgb(0, 0, 0)" stroke-opacity="1" stroke-linecap="round" stroke-linejoin="round"/>
    <path d="M 12.717179298400879 48.20853042602539 C 19.883907318115234 43.454139709472656 28.642959594726562 42.29608917236328 32.05103302001953 41.65294647216797 C 28.26909637451172 37.84767150878906 23.479785919189453 28.90863609313965 22.139461517333984 19.31777572631836 C 24.406497955322266 12.079628944396973 28.99470329284668 8.30510139465332 33.685184478759766 6.921526908874512 C 38.12116241455078 6.972212791442871 42.927947998046875 8.53549575805664 47.3243522644043 12.681396484375 C 49.22603988647461 19.95374870300293 47.911746978759766 28.933792114257812 43.8223876953125 36.08152770996094 C 39.86665344238281 39.542388916015625 44.09988021850586 40.857940673828125 53.83430480957031 42.953887939453125 C 60.16305923461914 49.32876205444336 62.17782211303711 55.95821762084961 61.709861755371094 60.257755279541016 C 59.392459869384766 62.599300384521484 54.3702507019043 64.03659057617188 45.084083557128906 64.87681579589844 C 31.609477996826172 64.97020721435547 19.14711570739746 64.24110412597656 12.290423393249512 62.60235595703125 C 9.815328598022461 59.5369758605957 9.76513957977295 54.7940788269043 12.717179298400879 48.20853042602539" stroke-width="2.0" fill="none" stroke="rgb(0, 0, 0)" stroke-opacity="1" stroke-linecap="round" stroke-linejoin="round"/>
  </g>
</svg>
