<?xml version="1.0" ?>
<svg xmlns="http://www.w3.org/2000/svg" version="1.1" width="72" height="72">
  <defs/>
  <g>
    <path d="M 27.575294494628906 38.0938720703125 C 28.574174880981445 37.871910095214844 30.807945251464844 38.00618362426758 32.96068572998047 38.24602127075195 C 34.15404510498047 37.94556427001953 34.56209945678711 37.503604888916016 34.569915771484375 37.33443832397461 C 34.358848571777344 37.17157745361328 34.143917083740234 37.10233688354492 33.91666030883789 37.01506423950195 C 33.81443405151367 36.92512512207031 33.87181854248047 36.895233154296875 33.99882888793945 36.940914154052734 C 34.056861877441406 37.01799392700195 33.96467590332031 37.074222564697266 33.866973876953125 37.07699203491211 C 34.04983139038086 37.25959396362305 35.01152801513672 37.56665802001953 36.99502944946289 37.917938232421875 C 40.10874557495117 38.10505294799805 43.186485290527344 38.25014114379883 44.87615203857422 38.6220703125 C 44.63352966308594 38.830230712890625 42.93262481689453 38.60001754760742 40.660457611083984 38.09970474243164 C 38.38821792602539 37.67581558227539 36.04359436035156 37.53168487548828 33.28776168823242 37.86390686035156 C 30.52668571472168 38.29090881347656 28.36612319946289 38.30540084838867 27.575294494628906 38.0938720703125" stroke-width="2.0" fill="none" stroke="rgb(0, 0, 0)" stroke-opacity="1" stroke-linecap="round" stroke-linejoin="round"/>
    <path d="M 26.70351791381836 38.51494598388672 C 27.5927677154541 38.089019775390625 30.03771209716797 38.10304641723633 32.55413818359375 38.42267990112305 C 34.067604064941406 38.20555877685547 34.54588317871094 37.700294494628906 34.607078552246094 37.4736213684082 C 34.38023376464844 37.29224395751953 34.1421012878418 37.199501037597656 33.880126953125 37.102378845214844 C 33.750946044921875 36.99857711791992 33.806766510009766 36.96611404418945 33.955421447753906 37.01319885253906 C 34.020965576171875 37.08502197265625 33.9181022644043 37.127288818359375 33.81684112548828 37.135311126708984 C 34.07204818725586 37.336490631103516 35.17414474487305 37.692691802978516 37.390167236328125 38.109832763671875 C 40.77699661254883 38.336952209472656 43.95721435546875 38.55966567993164 45.61573028564453 39.02017593383789 C 45.24677658081055 39.233642578125 43.416168212890625 38.97151565551758 41.024688720703125 38.430152893066406 C 38.58940124511719 37.935935974121094 35.97817611694336 37.786521911621094 32.92120361328125 38.172515869140625 C 29.971355438232422 38.68023681640625 27.67011833190918 38.75968551635742 26.70351791381836 38.51494598388672" stroke-width="2.0" fill="none" stroke="rgb(0, 0, 0)" stroke-opacity="1" stroke-linecap="round" stroke-linejoin="round"/>
    <path d="M 26.09705924987793 38.8749885559082 C 26.86453628540039 38.29751968383789 29.413793563842773 38.15470504760742 32.20372772216797 38.50632095336914 C 33.98568344116211 38.39665603637695 34.559688568115234 37.8670654296875 34.64570999145508 37.587398529052734 C 34.41376876831055 37.39962387084961 34.13661193847656 37.28188705444336 33.83817672729492 37.1787109375 C 33.69013595581055 37.06995391845703 33.75327682495117 37.03514862060547 33.922733306884766 37.07869338989258 C 33.98896408081055 37.14433670043945 33.874183654785156 37.17292022705078 33.776161193847656 37.18655776977539 C 34.09529113769531 37.40020751953125 35.325069427490234 37.79790115356445 37.748958587646484 38.24263000488281 C 41.32183074951172 38.498966217041016 44.54169845581055 38.79210662841797 46.14968490600586 39.323036193847656 C 45.665748596191406 39.530879974365234 43.718658447265625 39.223087310791016 41.23214340209961 38.646846771240234 C 38.68327713012695 38.09330368041992 35.93661117553711 37.946712493896484 32.73537826538086 38.382442474365234 C 29.638702392578125 38.973976135253906 27.238239288330078 39.13348388671875 26.09705924987793 38.8749885559082" stroke-width="2.0" fill="none" stroke="rgb(0, 0, 0)" stroke-opacity="1" stroke-linecap="round" stroke-linejoin="round"/>
    <path d="M 25.60934829711914 39.26755142211914 C 26.205724716186523 38.557918548583984 28.826255798339844 38.178062438964844 31.879741668701172 38.55485916137695 C 33.91754913330078 38.5683708190918 34.59576416015625 38.050846099853516 34.69013214111328 37.71783447265625 C 34.452476501464844 37.52135467529297 34.12824630737305 37.375972747802734 33.78829574584961 37.26707077026367 C 33.62339782714844 37.15394973754883 33.70171356201172 37.1168212890625 33.883453369140625 37.15480422973633 C 33.9508171081543 37.20886993408203 33.83432388305664 37.22175216674805 33.748382568359375 37.23823928833008 C 34.130775451660156 37.45238494873047 35.46957778930664 37.89006805419922 38.06981658935547 38.3437385559082 C 41.78131103515625 38.62007141113281 45.013519287109375 38.98606872558594 46.55314636230469 39.585166931152344 C 45.99007797241211 39.78042221069336 43.971702575683594 39.44186782836914 41.40830612182617 38.83368682861328 C 38.74907684326172 38.24103546142578 35.86687088012695 38.08454132080078 32.568180084228516 38.56929397583008 C 29.38582992553711 39.24706268310547 26.90456199645996 39.51258087158203 25.60934829711914 39.26755142211914" stroke-width="2.0" fill="none" stroke="rgb(0, 0, 0)" stroke-opacity="1" stroke-linecap="round" stroke-linejoin="round"/>
    <path d="M 25.244651794433594 39.65378189086914 C 25.66830062866211 38.83961486816406 28.27722930908203 38.2349853515625 31.56993293762207 38.5535774230957 C 33.86504364013672 38.68069076538086 34.67224884033203 38.22556686401367 34.75780487060547 37.864295959472656 C 34.503692626953125 37.64692687988281 34.125762939453125 37.47389602661133 33.746681213378906 37.360374450683594 C 33.561405181884766 37.242958068847656 33.65616989135742 37.208717346191406 33.84443283081055 37.239105224609375 C 33.906707763671875 37.27993392944336 33.794586181640625 37.27815246582031 33.728580474853516 37.29607391357422 C 34.173187255859375 37.50659942626953 35.61838912963867 37.97549057006836 38.385005950927734 38.43696594238281 C 42.210670471191406 38.728755950927734 45.435157775878906 39.15986633300781 46.902835845947266 39.81773376464844 C 46.27837371826172 40.001914978027344 44.206581115722656 39.63966751098633 41.58451843261719 39.00608825683594 C 38.83013153076172 38.379634857177734 35.82789611816406 38.207725524902344 32.43130874633789 38.72312545776367 C 29.201770782470703 39.4714469909668 26.678176879882812 39.84385299682617 25.244651794433594 39.65378189086914" stroke-width="2.0" fill="none" stroke="rgb(0, 0, 0)" stroke-opacity="1" stroke-linecap="round" stroke-linejoin="round"/>
    <path d="M 24.929668426513672 40.05483627319336 C 25.18789291381836 39.15190505981445 27.721172332763672 38.318702697753906 31.231197357177734 38.51865005493164 C 33.81398010253906 38.772186279296875 34.781917572021484 38.400264739990234 34.846580505371094 38.02562713623047 C 34.55623245239258 37.77800369262695 34.11749267578125 37.58381271362305 33.70174026489258 37.45962905883789 C 33.511375427246094 37.332908630371094 33.61024856567383 37.30759048461914 33.80024337768555 37.32477569580078 C 33.85481262207031 37.35460662841797 33.746864318847656 37.34673309326172 33.70877456665039 37.365623474121094 C 34.22671127319336 37.5731086730957 35.790687561035156 38.061100006103516 38.728553771972656 38.52788543701172 C 42.64142608642578 38.84832763671875 45.84418487548828 39.35367202758789 47.25102233886719 40.05472183227539 C 46.58246612548828 40.23381042480469 44.4653205871582 39.85854721069336 41.7850227355957 39.19452667236328 C 38.92850875854492 38.536991119384766 35.799503326416016 38.345863342285156 32.288272857666016 38.884613037109375 C 29.015522003173828 39.69587326049805 26.467185974121094 40.17091751098633 24.929668426513672 40.05483627319336" stroke-width="2.0" fill="none" stroke="rgb(0, 0, 0)" stroke-opacity="1" stroke-linecap="round" stroke-linejoin="round"/>
    <path d="M 24.57524299621582 40.54912185668945 C 24.66947364807129 39.5507926940918 27.09127426147461 38.461578369140625 30.78685760498047 38.453067779541016 C 33.69171905517578 38.82468032836914 34.92494583129883 38.59941101074219 34.982383728027344 38.214900970458984 C 34.63935852050781 37.925048828125 34.10587692260742 37.72227096557617 33.65665817260742 37.58586502075195 C 33.463844299316406 37.44599914550781 33.5509033203125 37.41661834716797 33.732330322265625 37.42155456542969 C 33.79520797729492 37.441707611083984 33.71733856201172 37.4263801574707 33.70595169067383 37.451393127441406 C 34.30075454711914 37.65279769897461 36.016727447509766 38.16836166381836 39.161155700683594 38.63108825683594 C 43.15168380737305 38.99293518066406 46.311214447021484 39.605342864990234 47.65817642211914 40.37215805053711 C 46.96431350708008 40.546051025390625 44.80862808227539 40.16482162475586 42.0538215637207 39.47297668457031 C 39.0357666015625 38.783443450927734 35.70377731323242 38.56234359741211 32.0277214050293 39.128807067871094 C 28.71254539489746 40.00513458251953 26.166259765625 40.594608306884766 24.57524299621582 40.54912185668945" stroke-width="2.0" fill="none" stroke="rgb(0, 0, 0)" stroke-opacity="1" stroke-linecap="round" stroke-linejoin="round"/>
    <path d="M 24.092647552490234 41.21480941772461 C 24.09371566772461 40.11695098876953 26.358787536621094 38.774024963378906 30.17135238647461 38.46430587768555 C 33.45250701904297 38.85496139526367 35.11552810668945 38.81871032714844 35.25554656982422 38.45488357543945 C 34.836639404296875 38.1076545715332 34.169105529785156 37.86226272583008 33.63681411743164 37.73809814453125 C 33.44125747680664 37.59101486206055 33.497047424316406 37.540771484375 33.6378173828125 37.55020523071289 C 33.70610809326172 37.572208404541016 33.67845153808594 37.52865219116211 33.70301055908203 37.55073165893555 C 34.40757369995117 37.75494384765625 36.360965728759766 38.32498550415039 39.78407287597656 38.778953552246094 C 43.86737060546875 39.22854232788086 46.96071243286133 39.99191665649414 48.2275390625 40.88181686401367 C 47.50783157348633 41.04489517211914 45.334449768066406 40.6534423828125 42.46943283081055 39.944297790527344 C 39.19187545776367 39.21849822998047 35.5222282409668 38.97749710083008 31.568103790283203 39.59020233154297 C 28.183860778808594 40.52507400512695 25.674942016601562 41.22785568237305 24.092647552490234 41.21480941772461" stroke-width="2.0" fill="none" stroke="rgb(0, 0, 0)" stroke-opacity="1" stroke-linecap="round" stroke-linejoin="round"/>
    <path d="M 23.251277923583984 42.309120178222656 C 23.282773971557617 41.03295135498047 25.385391235351562 39.39653015136719 29.189424514770508 38.67405700683594 C 33.021060943603516 38.87074279785156 35.36568069458008 39.01018142700195 35.797054290771484 38.734703063964844 C 35.16176986694336 38.35512924194336 34.3457145690918 38.0185661315918 33.71811294555664 37.849422454833984 C 33.501548767089844 37.73301696777344 33.48662185668945 37.71424102783203 33.5633430480957 37.74473571777344 C 33.66930389404297 37.644412994384766 33.67644119262695 37.55915832519531 33.75685501098633 37.598602294921875 C 34.71963882446289 37.97612762451172 37.183475494384766 38.62982940673828 41.057281494140625 39.1705436706543 C 45.2009391784668 39.8470344543457 48.17203903198242 40.9947509765625 49.255210876464844 42.077476501464844 C 48.4510383605957 42.329612731933594 46.23833084106445 41.9068717956543 43.13766860961914 41.09672164916992 C 39.316280364990234 40.321407318115234 34.996917724609375 40.04910659790039 30.63890838623047 40.71114730834961 C 27.138484954833984 41.668113708496094 24.70447540283203 42.40138626098633 23.251277923583984 42.309120178222656" stroke-width="2.0" fill="none" stroke="rgb(0, 0, 0)" stroke-opacity="1" stroke-linecap="round" stroke-linejoin="round"/>
    <path d="M 22.11853790283203 43.585750579833984 C 22.588857650756836 41.97259521484375 24.80944061279297 40.22385787963867 28.550819396972656 39.29014205932617 C 32.57637405395508 38.91983413696289 35.121212005615234 38.26065444946289 35.61207580566406 37.36725616455078 C 34.69748306274414 36.61136245727539 33.55902862548828 36.06553268432617 33.08919143676758 35.61659240722656 C 33.5297966003418 35.311973571777344 34.4906120300293 35.62704086303711 35.007381439208984 36.060142517089844 C 34.80846405029297 36.430171966552734 34.375335693359375 36.769962310791016 34.32139205932617 37.284637451171875 C 35.481285095214844 38.08171081542969 38.50030517578125 39.04783630371094 42.78443908691406 39.95908737182617 C 46.82509231567383 41.19209671020508 49.64134979248047 42.951698303222656 50.483680725097656 44.28382873535156 C 49.5595588684082 44.684532165527344 47.21448516845703 44.31144714355469 43.553611755371094 43.5724983215332 C 38.71742248535156 42.9731559753418 33.3072509765625 42.87687683105469 28.440956115722656 43.36929702758789 C 25.15873908996582 43.96457290649414 23.068300247192383 44.233116149902344 22.11853790283203 43.585750579833984" stroke-width="2.0" fill="none" stroke="rgb(0, 0, 0)" stroke-opacity="1" stroke-linecap="round" stroke-linejoin="round"/>
  </g>
</svg>
