<?xml version="1.0" ?>
<svg xmlns="http://www.w3.org/2000/svg" version="1.1" width="72" height="72">
  <defs/>
  <g>
    <path d="M 34.699951171875 36.59012985229492 C 34.653011322021484 36.56764221191406 34.72757339477539 36.589210510253906 34.75634002685547 36.596885681152344 C 34.6827278137207 36.58271408081055 34.565948486328125 36.55023956298828 34.417240142822266 36.54750061035156 C 34.27072525024414 36.53424835205078 34.149513244628906 36.525428771972656 34.09946060180664 36.53078079223633 C 34.12715148925781 36.51885986328125 34.241085052490234 36.499229431152344 34.36587142944336 36.507816314697266 C 34.43886947631836 36.5152702331543 34.49464797973633 36.53498077392578 34.557411193847656 36.53913879394531 C 34.63460922241211 36.56064987182617 34.8309326171875 36.57477569580078 35.22340393066406 36.56723403930664 C 35.81514358520508 36.57796096801758 36.50484848022461 36.59382629394531 36.968196868896484 36.56049728393555 C 37.17890930175781 36.48508071899414 37.23278045654297 36.4964714050293 37.16658401489258 36.559181213378906 C 36.968902587890625 36.58436584472656 36.58797073364258 36.57096862792969 36.07417297363281 36.551513671875 C 35.48411178588867 36.6096076965332 35.00035858154297 36.5948371887207 34.699951171875 36.59012985229492" stroke-width="2.0" fill="none" stroke="rgb(0, 0, 0)" stroke-opacity="1" stroke-linecap="round" stroke-linejoin="round"/>
    <path d="M 34.75722122192383 36.601051330566406 C 34.698638916015625 36.57021713256836 34.75065612792969 36.58222961425781 34.76144027709961 36.58955001831055 C 34.679439544677734 36.574256896972656 34.561832427978516 36.543663024902344 34.41181182861328 36.543094635009766 C 34.265838623046875 36.5295524597168 34.14553451538086 36.52217102050781 34.09762191772461 36.527957916259766 C 34.127098083496094 36.51634216308594 34.24092102050781 36.497344970703125 34.371864318847656 36.502567291259766 C 34.454864501953125 36.5101203918457 34.518985748291016 36.52323913574219 34.58647918701172 36.52690887451172 C 34.665016174316406 36.549163818359375 34.85654067993164 36.562164306640625 35.228267669677734 36.55598068237305 C 35.78535079956055 36.574012756347656 36.4322509765625 36.59762191772461 36.87998962402344 36.571231842041016 C 37.10756301879883 36.510955810546875 37.176231384277344 36.520816802978516 37.116798400878906 36.5665397644043 C 36.91683578491211 36.586181640625 36.54863739013672 36.57420349121094 36.06265640258789 36.55748748779297 C 35.51283264160156 36.60688400268555 35.047996520996094 36.60396957397461 34.75722122192383 36.601051330566406" stroke-width="2.0" fill="none" stroke="rgb(0, 0, 0)" stroke-opacity="1" stroke-linecap="round" stroke-linejoin="round"/>
    <path d="M 34.78145217895508 36.60155487060547 C 34.719482421875 36.570289611816406 34.76535415649414 36.579654693603516 34.76959228515625 36.5875244140625 C 34.68439483642578 36.57170104980469 34.5654411315918 36.54213333129883 34.41587829589844 36.542240142822266 C 34.270729064941406 36.52863693237305 34.151039123535156 36.52199935913086 34.10303497314453 36.52797317504883 C 34.13179397583008 36.516090393066406 34.244815826416016 36.497154235839844 34.3753776550293 36.5025634765625 C 34.45992660522461 36.50952911376953 34.52614212036133 36.52069854736328 34.59478759765625 36.52408981323242 C 34.67548370361328 36.54609298706055 34.86679458618164 36.55795669555664 35.2337646484375 36.5523796081543 C 35.780303955078125 36.572139739990234 36.413089752197266 36.5977668762207 36.85549545288086 36.574195861816406 C 37.087974548339844 36.5191764831543 37.16042709350586 36.527259826660156 37.10227966308594 36.568389892578125 C 36.90334701538086 36.58751678466797 36.54216003417969 36.57517623901367 36.06697082519531 36.55813980102539 C 35.53057098388672 36.605690002441406 35.070594787597656 36.60563659667969 34.78145217895508 36.60155487060547" stroke-width="2.0" fill="none" stroke="rgb(0, 0, 0)" stroke-opacity="1" stroke-linecap="round" stroke-linejoin="round"/>
    <path d="M 34.798683166503906 36.6015625 C 34.73509979248047 36.56977081298828 34.778961181640625 36.57760238647461 34.78253173828125 36.58584976196289 C 34.696311950683594 36.569915771484375 34.577552795410156 36.54155731201172 34.4271240234375 36.54271697998047 C 34.27985382080078 36.529170989990234 34.15909194946289 36.522884368896484 34.11006164550781 36.52927780151367 C 34.13856506347656 36.51641845703125 34.25115966796875 36.49789047241211 34.37936019897461 36.50424575805664 C 34.46171569824219 36.51058578491211 34.52800750732422 36.521297454833984 34.597530364990234 36.5240364074707 C 34.68060302734375 36.54526138305664 34.87448501586914 36.5557746887207 35.24253463745117 36.5509033203125 C 35.7878303527832 36.571800231933594 36.4172477722168 36.59777069091797 36.85763168334961 36.574607849121094 C 37.090553283691406 36.52040481567383 37.1629638671875 36.52775573730469 37.10468292236328 36.568321228027344 C 36.90682601928711 36.58748245239258 36.54965591430664 36.57627487182617 36.079471588134766 36.55717086791992 C 35.54832077026367 36.60342788696289 35.0892448425293 36.605281829833984 34.798683166503906 36.6015625" stroke-width="2.0" fill="none" stroke="rgb(0, 0, 0)" stroke-opacity="1" stroke-linecap="round" stroke-linejoin="round"/>
    <path d="M 34.819671630859375 36.60130310058594 C 34.754791259765625 36.568878173828125 34.795013427734375 36.57533645629883 34.79676818847656 36.584407806396484 C 34.709800720214844 36.56813430786133 34.590702056884766 36.54078674316406 34.43947219848633 36.54323196411133 C 34.29031753540039 36.530059814453125 34.16897964477539 36.5240364074707 34.11784744262695 36.53094482421875 C 34.146148681640625 36.517696380615234 34.25847244262695 36.49895095825195 34.38453674316406 36.50642395019531 C 34.463626861572266 36.51179504394531 34.52931213378906 36.523033142089844 34.59896469116211 36.52470016479492 C 34.684226989746094 36.544551849365234 34.881771087646484 36.55464172363281 35.25255584716797 36.54994583129883 C 35.801109313964844 36.57188034057617 36.42995071411133 36.597347259521484 36.86930465698242 36.57408142089844 C 37.10080337524414 36.51969909667969 37.17168426513672 36.52653503417969 37.11219787597656 36.567527770996094 C 36.91579055786133 36.58717346191406 36.56306076049805 36.577720642089844 36.0980224609375 36.55569076538086 C 35.57106018066406 36.60054016113281 35.11199951171875 36.60472106933594 34.819671630859375 36.60130310058594" stroke-width="2.0" fill="none" stroke="rgb(0, 0, 0)" stroke-opacity="1" stroke-linecap="round" stroke-linejoin="round"/>
    <path d="M 34.82697296142578 36.59952163696289 C 34.76066207885742 36.56671142578125 34.80552673339844 36.57403564453125 34.81372833251953 36.584163665771484 C 34.72810363769531 36.56835174560547 34.60820770263672 36.541839599609375 34.45626449584961 36.54567337036133 C 34.304542541503906 36.53295135498047 34.18207550048828 36.527015686035156 34.127201080322266 36.53410339355469 C 34.15541458129883 36.5196647644043 34.266963958740234 36.50297546386719 34.38689422607422 36.51285934448242 C 34.45892333984375 36.5155029296875 34.52180480957031 36.529075622558594 34.59078598022461 36.52919387817383 C 34.6771240234375 36.54688262939453 34.88166046142578 36.556922912597656 35.26294708251953 36.55155563354492 C 35.82571029663086 36.57384490966797 36.467472076416016 36.596961975097656 36.9103889465332 36.57095718383789 C 37.135128021240234 36.51090621948242 37.19956588745117 36.5179328918457 37.13704299926758 36.56378173828125 C 36.942535400390625 36.58543395996094 36.59037399291992 36.578800201416016 36.123722076416016 36.553104400634766 C 35.590545654296875 36.598472595214844 35.12611389160156 36.60325241088867 34.82697296142578 36.59952163696289" stroke-width="2.0" fill="none" stroke="rgb(0, 0, 0)" stroke-opacity="1" stroke-linecap="round" stroke-linejoin="round"/>
    <path d="M 34.81917190551758 36.59446716308594 C 34.75146484375 36.562408447265625 34.80957794189453 36.57345962524414 34.831058502197266 36.58592987060547 C 34.75148010253906 36.571258544921875 34.6319465637207 36.54556655883789 34.47886276245117 36.55049514770508 C 34.322547912597656 36.53908157348633 34.19786071777344 36.53291702270508 34.13680648803711 36.54042434692383 C 34.16468048095703 36.52462387084961 34.27393341064453 36.51231384277344 34.384159088134766 36.526390075683594 C 34.4426383972168 36.52603530883789 34.499664306640625 36.540260314941406 34.570621490478516 36.5386848449707 C 34.66102600097656 36.5541877746582 34.87392044067383 36.56333541870117 35.2729377746582 36.55590057373047 C 35.86066436767578 36.576229095458984 36.52815246582031 36.59407043457031 36.97743606567383 36.563720703125 C 37.188514709472656 36.49478530883789 37.2413215637207 36.50175857543945 37.17490768432617 36.55760192871094 C 36.9850959777832 36.58330535888672 36.63229751586914 36.578857421875 36.157108306884766 36.54890060424805 C 35.605987548828125 36.597389221191406 35.12912368774414 36.60000228881836 34.81917190551758 36.59446716308594" stroke-width="2.0" fill="none" stroke="rgb(0, 0, 0)" stroke-opacity="1" stroke-linecap="round" stroke-linejoin="round"/>
    <path d="M 34.8096923828125 36.588260650634766 C 34.739158630371094 36.55618667602539 34.812416076660156 36.57352828979492 34.847312927246094 36.58900451660156 C 34.77583694458008 36.574886322021484 34.65940475463867 36.549800872802734 34.50603485107422 36.55732345581055 C 34.3445930480957 36.547584533691406 34.21425247192383 36.541839599609375 34.144107818603516 36.549522399902344 C 34.169921875 36.53239440917969 34.27613067626953 36.52616500854492 34.374664306640625 36.54305648803711 C 34.425411224365234 36.538612365722656 34.480342864990234 36.553619384765625 34.55037307739258 36.552581787109375 C 34.644256591796875 36.56261444091797 34.86821746826172 36.5694694519043 35.28416442871094 36.56086349487305 C 35.894283294677734 36.5788688659668 36.58256530761719 36.59209442138672 37.0362434387207 36.55731964111328 C 37.23706817626953 36.480865478515625 37.27918243408203 36.483863830566406 37.20893096923828 36.55184555053711 C 37.024139404296875 36.584388732910156 36.67573165893555 36.58005142211914 36.190834045410156 36.54383850097656 C 35.622215270996094 36.59339141845703 35.129547119140625 36.596595764160156 34.8096923828125 36.588260650634766" stroke-width="2.0" fill="none" stroke="rgb(0, 0, 0)" stroke-opacity="1" stroke-linecap="round" stroke-linejoin="round"/>
    <path d="M 34.724891662597656 36.56749725341797 C 34.67261505126953 36.54140853881836 34.787940979003906 36.57865905761719 34.8575553894043 36.60030746459961 C 34.81568145751953 36.59011459350586 34.70582580566406 36.568965911865234 34.54429626464844 36.579345703125 C 34.36824035644531 36.57457733154297 34.218467712402344 36.56996154785156 34.12825012207031 36.57966613769531 C 34.1514892578125 36.56771469116211 34.250885009765625 36.569091796875 34.33049774169922 36.578651428222656 C 34.37846374511719 36.571205139160156 34.432777404785156 36.58944320678711 34.4954948425293 36.594913482666016 C 34.58682632446289 36.59571838378906 34.83730697631836 36.592227935791016 35.30384063720703 36.576778411865234 C 36.00193405151367 36.578514099121094 36.74855041503906 36.58481216430664 37.21187210083008 36.53569793701172 C 37.38998794555664 36.454586029052734 37.39213562011719 36.4379768371582 37.296424865722656 36.525657653808594 C 37.111202239990234 36.58560562133789 36.76213073730469 36.57661437988281 36.24000930786133 36.53315734863281 C 35.610477447509766 36.58964920043945 35.06278610229492 36.58958435058594 34.724891662597656 36.56749725341797" stroke-width="2.0" fill="none" stroke="rgb(0, 0, 0)" stroke-opacity="1" stroke-linecap="round" stroke-linejoin="round"/>
    <path d="M 34.575801849365234 36.540924072265625 C 34.55109405517578 36.5236930847168 34.71908950805664 36.572509765625 34.86104965209961 36.61513137817383 C 34.86855697631836 36.61556625366211 34.7591552734375 36.60089111328125 34.57920455932617 36.61680221557617 C 34.384952545166016 36.625728607177734 34.21537399291992 36.641029357910156 34.09783935546875 36.64400863647461 C 34.11123275756836 36.62628173828125 34.207244873046875 36.62932205200195 34.27028274536133 36.63840866088867 C 34.315025329589844 36.62501907348633 34.3626823425293 36.641971588134766 34.418983459472656 36.65374755859375 C 34.515750885009766 36.643943786621094 34.800148010253906 36.62665939331055 35.352210998535156 36.58753967285156 C 36.14523696899414 36.584495544433594 36.98163986206055 36.567955017089844 37.486289978027344 36.52300262451172 C 37.639686584472656 36.445526123046875 37.5594482421875 36.38174057006836 37.408206939697266 36.482994079589844 C 37.208099365234375 36.580711364746094 36.850318908691406 36.576393127441406 36.27466583251953 36.526268005371094 C 35.56596755981445 36.58440399169922 34.9377555847168 36.58100128173828 34.575801849365234 36.540924072265625" stroke-width="2.0" fill="none" stroke="rgb(0, 0, 0)" stroke-opacity="1" stroke-linecap="round" stroke-linejoin="round"/>
  </g>
</svg>
