<?xml version="1.0" ?>
<svg xmlns="http://www.w3.org/2000/svg" version="1.1" width="72" height="72">
  <defs/>
  <g>
    <path d="M 7.521151542663574 60.644954681396484 C 14.632826805114746 57.34294891357422 18.976823806762695 54.64047622680664 18.39752960205078 51.291229248046875 C 15.460968017578125 46.817935943603516 12.667722702026367 40.25840377807617 12.530418395996094 31.59120750427246 C 16.291982650756836 22.832199096679688 23.990047454833984 16.49321174621582 32.78739547729492 13.413782119750977 C 41.623294830322266 14.507326126098633 50.51239776611328 19.531044006347656 56.81235885620117 26.392269134521484 C 59.367916107177734 33.94663619995117 58.899986267089844 40.07589340209961 57.037864685058594 44.686649322509766 C 54.929290771484375 48.56797409057617 53.854427337646484 52.76187515258789 56.435691833496094 57.18541717529297 C 63.320579528808594 61.61492919921875 68.83277130126953 66.28656768798828 70.5166015625 69.95326232910156 C 70.30333709716797 71.37848663330078 66.94144439697266 71.77942657470703 49.31325912475586 71.8790054321289 C 15.880199432373047 71.86814880371094 3.5289714336395264 71.76284790039062 1.4192348718643188 71.30730438232422 C 1.4146326780319214 69.5908432006836 3.038151264190674 65.36572265625 7.521151542663574 60.644954681396484" stroke-width="2.0" fill="none" stroke="rgb(0, 0, 0)" stroke-opacity="1" stroke-linecap="round" stroke-linejoin="round"/>
    <path d="M 12.382469177246094 58.40174102783203 C 11.642960548400879 55.89025115966797 10.820930480957031 53.24507141113281 9.579508781433105 49.42631149291992 C 8.28276538848877 43.83542251586914 7.908705234527588 35.801063537597656 9.601390838623047 26.572511672973633 C 14.436713218688965 18.186241149902344 22.470537185668945 12.577219009399414 32.41386032104492 10.189898490905762 C 43.37406539916992 11.33011531829834 53.28970718383789 16.024097442626953 59.93928146362305 23.09544563293457 C 63.19050979614258 31.305988311767578 64.13780212402344 38.37070846557617 63.76979446411133 43.764644622802734 C 63.01083755493164 48.004817962646484 62.09111022949219 51.53565979003906 60.955997467041016 55.02945327758789 C 59.52781677246094 59.067989349365234 57.53975296020508 62.95005798339844 54.671905517578125 65.97854614257812 C 50.3359260559082 68.07734680175781 44.92815399169922 69.3238754272461 37.78544998168945 69.79991149902344 C 30.23749351501465 69.5260009765625 23.889389038085938 68.63105773925781 18.70902442932129 67.0793685913086 C 15.23523998260498 64.74922180175781 13.394430160522461 61.599586486816406 12.382469177246094 58.40174102783203" stroke-width="2.0" fill="none" stroke="rgb(0, 0, 0)" stroke-opacity="1" stroke-linecap="round" stroke-linejoin="round"/>
    <path d="M 6.85615348815918 53.58359146118164 C 6.0386857986450195 51.1123046875 5.499268531799316 47.9500732421875 4.886134624481201 43.05744552612305 C 4.712486743927002 35.53440856933594 5.733902454376221 26.63556480407715 8.619001388549805 18.055072784423828 C 14.092524528503418 11.638509750366211 22.251361846923828 7.9791951179504395 32.86163330078125 6.76828670501709 C 44.96614456176758 7.616888046264648 54.8341064453125 10.99355697631836 61.54037094116211 16.762624740600586 C 65.29402923583984 24.746973037719727 66.87556457519531 33.06562805175781 67.26769256591797 40.08775329589844 C 66.98595428466797 45.251644134521484 66.42810821533203 49.0183219909668 65.64388275146484 52.18351745605469 C 64.5740966796875 55.298187255859375 63.06852722167969 58.33810043334961 60.51089859008789 60.713836669921875 C 56.16812515258789 61.77922439575195 48.86793899536133 61.56185531616211 37.267520904541016 61.00667190551758 C 25.284805297851562 61.76188659667969 17.08854866027832 62.15713119506836 12.564711570739746 60.87199401855469 C 9.826602935791016 58.49106979370117 8.050102233886719 56.06706237792969 6.85615348815918 53.58359146118164" stroke-width="2.0" fill="none" stroke="rgb(0, 0, 0)" stroke-opacity="1" stroke-linecap="round" stroke-linejoin="round"/>
    <path d="M 3.600416898727417 47.65542984008789 C 3.1784591674804688 44.46318817138672 2.995565414428711 39.72770309448242 3.0969529151916504 33.223297119140625 C 3.7812676429748535 25.079246520996094 5.53096866607666 17.10154151916504 9.030523300170898 10.936641693115234 C 14.665406227111816 6.981454372406006 22.83216094970703 4.8963494300842285 33.472450256347656 4.376518726348877 C 45.857643127441406 4.94785213470459 55.4661865234375 7.088435173034668 62.015838623046875 11.138766288757324 C 65.83650207519531 17.33767318725586 67.90606689453125 25.309955596923828 68.74125671386719 33.46827697753906 C 68.92694854736328 40.37743377685547 68.71540832519531 45.41478729248047 68.27245330810547 48.97406768798828 C 67.54540252685547 52.173316955566406 66.2887954711914 54.943359375 63.842376708984375 55.875152587890625 C 59.49480056762695 53.98920440673828 51.750144958496094 49.159671783447266 39.440738677978516 45.1450080871582 C 25.5438232421875 46.348567962646484 14.780360221862793 51.179012298583984 8.551640510559082 54.178070068359375 C 5.670821189880371 53.46839141845703 4.331313133239746 50.66777038574219 3.600416898727417 47.65542984008789" stroke-width="2.0" fill="none" stroke="rgb(0, 0, 0)" stroke-opacity="1" stroke-linecap="round" stroke-linejoin="round"/>
    <path d="M 2.4434876441955566 38.54618835449219 C 2.287768840789795 34.43648910522461 2.4144961833953857 29.07611846923828 2.9313127994537354 22.304649353027344 C 4.091540336608887 15.710450172424316 6.394243240356445 10.346199989318848 10.248384475708008 6.558928966522217 C 16.019702911376953 4.278863906860352 23.89189910888672 3.1097474098205566 34.15031814575195 2.8652279376983643 C 45.86074447631836 3.2533717155456543 55.208438873291016 4.532888412475586 61.633155822753906 7.139204978942871 C 65.62847137451172 11.364300727844238 67.91448974609375 17.476974487304688 69.0987319946289 24.879684448242188 C 69.57931518554688 32.307472229003906 69.62801361083984 38.633907318115234 69.37281036376953 43.157997131347656 C 68.80296325683594 46.38150405883789 67.77005004882812 48.513553619384766 65.78084564208984 48.46371078491211 C 62.00538635253906 45.70844268798828 54.82258987426758 40.449520111083984 42.258697509765625 36.08995819091797 C 27.133394241333008 36.193084716796875 14.632402420043945 39.93431854248047 7.471713066101074 43.3835563659668 C 4.281036853790283 43.835628509521484 2.968435287475586 41.59024429321289 2.4434876441955566 38.54618835449219" stroke-width="2.0" fill="none" stroke="rgb(0, 0, 0)" stroke-opacity="1" stroke-linecap="round" stroke-linejoin="round"/>
    <path d="M 2.322983503341675 27.825307846069336 C 2.304375648498535 24.15723419189453 2.667280435562134 19.501283645629883 3.4830260276794434 14.586875915527344 C 5.078765392303467 10.069571495056152 7.778717994689941 6.525272846221924 12.020227432250977 4.215903282165527 C 17.896133422851562 2.838073968887329 25.255245208740234 2.131767749786377 34.63847732543945 1.9846763610839844 C 45.292205810546875 2.265469551086426 54.31613540649414 3.0729169845581055 60.772300720214844 4.747032165527344 C 64.93275451660156 7.573485374450684 67.47229766845703 11.949458122253418 68.89250946044922 17.651153564453125 C 69.61967468261719 24.083717346191406 69.87250518798828 30.168869018554688 69.77130126953125 35.073001861572266 C 69.33920288085938 38.331382751464844 68.49565887451172 40.19622802734375 66.84664916992188 39.83928298950195 C 63.48878860473633 36.99504852294922 56.693641662597656 32.032962799072266 44.21956253051758 27.914997100830078 C 28.665388107299805 27.428468704223633 15.613363265991211 29.289365768432617 7.66925048828125 31.42446517944336 C 4.190943717956543 31.55009651184082 2.7890119552612305 30.053129196166992 2.322983503341675 27.825307846069336" stroke-width="2.0" fill="none" stroke="rgb(0, 0, 0)" stroke-opacity="1" stroke-linecap="round" stroke-linejoin="round"/>
    <path d="M 2.506852626800537 22.43089485168457 C 2.559697151184082 19.49987030029297 3.0116705894470215 15.72278881072998 4.018874168395996 11.655028343200684 C 5.803009510040283 7.970187187194824 8.730225563049316 5.190559387207031 13.20764446258545 3.3940916061401367 C 19.101892471313477 2.3385281562805176 26.237403869628906 1.7855817079544067 35.058475494384766 1.6674489974975586 C 45.025390625 1.9054698944091797 53.81642150878906 2.5685927867889404 60.24732208251953 3.913551092147827 C 64.48101043701172 6.197216510772705 67.14228820800781 9.811746597290039 68.67393493652344 14.679844856262207 C 69.50118255615234 20.335233688354492 69.85497283935547 25.976760864257812 69.85808563232422 30.592239379882812 C 69.51640319824219 33.712093353271484 68.75653839111328 35.392547607421875 67.22615051269531 34.99200439453125 C 63.95893096923828 32.41695022583008 57.16156768798828 27.80206298828125 44.902061462402344 23.992507934570312 C 29.415409088134766 23.203475952148438 16.384471893310547 24.508264541625977 8.131532669067383 25.872390747070312 C 4.426232814788818 25.592941284179688 2.961815595626831 24.359649658203125 2.506852626800537 22.43089485168457" stroke-width="2.0" fill="none" stroke="rgb(0, 0, 0)" stroke-opacity="1" stroke-linecap="round" stroke-linejoin="round"/>
    <path d="M 2.6849863529205322 21.167095184326172 C 2.7707033157348633 18.476577758789062 3.284987688064575 14.8828706741333 4.38129997253418 11.03028392791748 C 6.280466079711914 7.543135643005371 9.352859497070312 4.938324928283691 13.960197448730469 3.261660575866699 C 19.820093154907227 2.271489381790161 26.7603816986084 1.743392825126648 35.22871398925781 1.6200850009918213 C 44.75786590576172 1.8508902788162231 53.35739517211914 2.49965763092041 59.81375503540039 3.7776355743408203 C 64.1280517578125 5.941242694854736 66.88260650634766 9.387105941772461 68.49634552001953 14.060843467712402 C 69.3744125366211 19.509326934814453 69.76927185058594 24.988422393798828 69.80437469482422 29.48935317993164 C 69.49274444580078 32.54254150390625 68.75572204589844 34.13719177246094 67.25806427001953 33.76722717285156 C 64.02411651611328 31.278392791748047 57.28913497924805 26.768627166748047 45.16463088989258 23.013256072998047 C 29.789398193359375 22.09321403503418 16.74911117553711 23.22837257385254 8.406521797180176 24.43172836303711 C 4.617842197418213 24.060895919799805 3.1238455772399902 22.915142059326172 2.6849863529205322 21.167095184326172" stroke-width="2.0" fill="none" stroke="rgb(0, 0, 0)" stroke-opacity="1" stroke-linecap="round" stroke-linejoin="round"/>
    <path d="M 2.8722376823425293 22.94725227355957 C 2.975721836090088 20.130184173583984 3.5178866386413574 16.266002655029297 4.6783013343811035 12.133429527282715 C 6.67356014251709 8.355165481567383 9.861061096191406 5.4986395835876465 14.569693565368652 3.650791883468628 C 20.45692253112793 2.5453081130981445 27.228160858154297 1.9569700956344604 35.3275032043457 1.7970860004425049 C 44.36761474609375 2.042935371398926 52.779762268066406 2.7677764892578125 59.26237487792969 4.178284168243408 C 63.67923355102539 6.524450302124023 66.57339477539062 10.238868713378906 68.268310546875 15.200912475585938 C 69.18655395507812 20.922908782958984 69.59046936035156 26.540464401245117 69.60900115966797 31.138011932373047 C 69.2809829711914 34.210784912109375 68.50640106201172 35.757930755615234 66.99738311767578 35.42453384399414 C 63.79590606689453 32.86565399169922 57.14727020263672 28.279468536376953 45.08677673339844 24.313274383544922 C 29.761600494384766 23.39406394958496 16.792564392089844 24.606168746948242 8.51878833770752 25.869970321655273 C 4.765217304229736 25.614871978759766 3.3014094829559326 24.667470932006836 2.8722376823425293 22.94725227355957" stroke-width="2.0" fill="none" stroke="rgb(0, 0, 0)" stroke-opacity="1" stroke-linecap="round" stroke-linejoin="round"/>
    <path d="M 3.1410446166992188 28.504880905151367 C 3.22993803024292 25.095197677612305 3.7577600479125977 20.450658798217773 4.923171043395996 15.49487018585205 C 6.986941337585449 10.854523658752441 10.279023170471191 7.190378665924072 15.099340438842773 4.784188270568848 C 21.07263946533203 3.3201422691345215 27.67428207397461 2.5471208095550537 35.30751037597656 2.3036866188049316 C 43.850433349609375 2.578821897506714 51.97730255126953 3.5157511234283447 58.51851272583008 5.321048259735107 C 63.0946159362793 8.245279312133789 66.17234802246094 12.710793495178223 67.94712829589844 18.441024780273438 C 68.88471221923828 24.778419494628906 69.23341369628906 30.71540641784668 69.1821517944336 35.579803466796875 C 68.76824188232422 38.62185287475586 67.85709381103516 40.213626861572266 66.29328918457031 40.143192291259766 C 63.06977081298828 37.37949752807617 56.57753372192383 32.61619186401367 44.585609436035156 28.192588806152344 C 29.385799407958984 27.43410873413086 16.533254623413086 28.994049072265625 8.534018516540527 30.777545928955078 C 4.953719139099121 30.864887237548828 3.571887731552124 30.240314483642578 3.1410446166992188 28.504880905151367" stroke-width="2.0" fill="none" stroke="rgb(0, 0, 0)" stroke-opacity="1" stroke-linecap="round" stroke-linejoin="round"/>
  </g>
</svg>
