<?xml version="1.0" ?>
<svg xmlns="http://www.w3.org/2000/svg" version="1.1" width="72" height="72">
  <defs/>
  <g>
    <path d="M 18.699687957763672 49.28899383544922 C 18.492542266845703 46.64017868041992 16.81975555419922 42.52473831176758 14.695318222045898 36.12006378173828 C 13.676607131958008 27.670015335083008 14.650317192077637 18.95743179321289 17.772756576538086 11.17231273651123 C 23.01373291015625 6.268306255340576 29.242345809936523 3.9358227252960205 36.421875 3.466538906097412 C 43.84886932373047 4.262967109680176 50.55916213989258 6.634617328643799 55.071468353271484 11.178545951843262 C 57.91367721557617 17.763967514038086 59.0549430847168 25.619665145874023 58.553077697753906 32.95307540893555 C 57.136070251464844 38.60246658325195 55.59708023071289 42.66447830200195 54.6456184387207 45.51659393310547 C 54.55751037597656 47.81141662597656 54.54645538330078 50.016883850097656 53.44165802001953 52.711708068847656 C 50.956085205078125 55.35960006713867 46.257442474365234 57.066810607910156 39.059959411621094 57.68556213378906 C 30.621875762939453 57.534034729003906 24.318769454956055 56.15618133544922 20.862506866455078 53.52922058105469 C 18.85113525390625 51.42302322387695 18.33082389831543 50.51622772216797 18.699687957763672 49.28899383544922" stroke-width="2.0" fill="none" stroke="rgb(0, 0, 0)" stroke-opacity="1" stroke-linecap="round" stroke-linejoin="round"/>
    <path d="M 18.855575561523438 49.753074645996094 C 18.712661743164062 47.165016174316406 17.078603744506836 43.13215255737305 14.816791534423828 36.96083068847656 C 13.627798080444336 28.6049861907959 14.476079940795898 19.953615188598633 17.467443466186523 12.054695129394531 C 22.683815002441406 6.9200615882873535 29.00157356262207 4.420098304748535 36.224693298339844 3.889234781265259 C 43.77800750732422 4.71920108795166 50.450164794921875 7.145893573760986 55.029510498046875 11.762892723083496 C 57.966064453125 18.371013641357422 59.07305908203125 26.220600128173828 58.51398468017578 33.467281341552734 C 57.04939651489258 39.00688934326172 55.50362777709961 42.99552917480469 54.546634674072266 45.837833404541016 C 54.474632263183594 48.15203094482422 54.44615173339844 50.497459411621094 53.332855224609375 53.37158203125 C 50.74982833862305 56.13213348388672 46.01177215576172 58.09437561035156 38.962501525878906 58.95922088623047 C 30.664278030395508 58.77713394165039 24.51244354248047 57.17119598388672 20.984100341796875 54.416717529296875 C 18.905691146850586 52.07139587402344 18.384672164916992 50.96968078613281 18.855575561523438 49.753074645996094" stroke-width="2.0" fill="none" stroke="rgb(0, 0, 0)" stroke-opacity="1" stroke-linecap="round" stroke-linejoin="round"/>
    <path d="M 19.965484619140625 50.299659729003906 C 20.026208877563477 47.80550003051758 18.291154861450195 43.841156005859375 15.696267127990723 37.871185302734375 C 14.114205360412598 29.46342658996582 14.574618339538574 20.63084602355957 17.326072692871094 12.35976791381836 C 22.494739532470703 6.947319984436035 28.74045181274414 4.300646781921387 36.05805587768555 3.723379135131836 C 43.581459045410156 4.548779010772705 50.38299560546875 7.069342136383057 54.92258834838867 11.884149551391602 C 57.70060348510742 18.76283073425293 58.614013671875 26.732210159301758 57.825809478759766 33.97032928466797 C 56.146034240722656 39.45354461669922 54.3839111328125 43.3907356262207 53.35478591918945 46.22365951538086 C 53.408653259277344 48.579742431640625 53.62417221069336 51.17717742919922 52.67443084716797 54.30131530761719 C 50.089969635009766 57.364830017089844 45.42213821411133 59.76999282836914 38.80164337158203 60.99976348876953 C 30.935916900634766 60.71363830566406 25.122032165527344 58.71608352661133 21.501190185546875 55.75688552856445 C 19.45846176147461 53.05049514770508 19.075712203979492 51.63766098022461 19.965484619140625 50.299659729003906" stroke-width="2.0" fill="none" stroke="rgb(0, 0, 0)" stroke-opacity="1" stroke-linecap="round" stroke-linejoin="round"/>
    <path d="M 21.838420867919922 50.87781524658203 C 22.26676368713379 48.452552795410156 20.489166259765625 44.68824005126953 17.463056564331055 38.808013916015625 C 15.1871976852417 30.308298110961914 14.998801231384277 21.013408660888672 17.3612117767334 12.275408744812012 C 22.439321517944336 6.566673755645752 28.550851821899414 3.8385064601898193 35.843021392822266 3.227816104888916 C 43.31201171875 3.9973995685577393 50.21662139892578 6.615473747253418 54.68658447265625 11.740377426147461 C 57.146728515625 19.09126853942871 57.69512176513672 27.284379959106445 56.510032653808594 34.52615737915039 C 54.41908645629883 39.99876403808594 52.258060455322266 43.87286376953125 51.08558654785156 46.72368240356445 C 51.34958267211914 49.26309585571289 52.05634307861328 52.19041061401367 51.5175666809082 55.644317626953125 C 49.14857482910156 59.10728454589844 44.647621154785156 61.968048095703125 38.77215576171875 63.373748779296875 C 31.491811752319336 62.93022155761719 25.678068161010742 60.730648040771484 21.618093490600586 57.620792388916016 C 19.818593978881836 54.59232711791992 20.19540786743164 52.5257453918457 21.838420867919922 50.87781524658203" stroke-width="2.0" fill="none" stroke="rgb(0, 0, 0)" stroke-opacity="1" stroke-linecap="round" stroke-linejoin="round"/>
    <path d="M 23.541805267333984 51.57660675048828 C 25.043636322021484 49.15956115722656 23.444211959838867 45.538787841796875 19.990503311157227 39.885704040527344 C 16.6584529876709 31.260364532470703 15.655811309814453 21.383596420288086 17.5563907623291 12.172077178955078 C 22.452016830444336 6.131710052490234 28.492645263671875 3.3965671062469482 35.53548049926758 2.746100664138794 C 42.90872573852539 3.4260754585266113 49.7918701171875 6.0689287185668945 54.290122985839844 11.494949340820312 C 56.323612213134766 19.392168045043945 56.44445037841797 27.86962890625 54.71626281738281 35.11991882324219 C 51.96599197387695 40.570247650146484 49.4310302734375 44.40708541870117 48.23528289794922 47.40446090698242 C 48.91505813598633 50.25138854980469 51.072784423828125 53.50547790527344 53.33658981323242 57.472259521484375 C 53.99045181274414 61.455047607421875 51.240570068359375 64.98450469970703 42.06786346435547 66.95433807373047 C 27.581830978393555 66.60069274902344 17.86531639099121 64.19116973876953 14.46923828125 60.20634078979492 C 15.539200782775879 56.45235824584961 19.557065963745117 53.63908767700195 23.541805267333984 51.57660675048828" stroke-width="2.0" fill="none" stroke="rgb(0, 0, 0)" stroke-opacity="1" stroke-linecap="round" stroke-linejoin="round"/>
    <path d="M 22.81220245361328 51.953372955322266 C 27.826217651367188 49.80677032470703 27.356857299804688 46.26788330078125 23.567171096801758 40.82296371459961 C 18.949556350708008 32.19511795043945 16.804956436157227 21.59737205505371 18.242328643798828 11.911336898803711 C 22.805988311767578 5.624318599700928 28.586753845214844 2.943241596221924 35.25417709350586 2.240079641342163 C 42.50040817260742 2.7906103134155273 48.886077880859375 5.260469436645508 53.60798263549805 10.829155921936035 C 55.163490295410156 19.326576232910156 54.593162536621094 28.30458641052246 52.09192657470703 35.686805725097656 C 48.54975891113281 41.15599822998047 45.617042541503906 45.08356857299805 44.79726791381836 48.33512878417969 C 48.01469039916992 51.570919036865234 55.53481674194336 55.16654586791992 62.973899841308594 60.14815902709961 C 66.03028106689453 65.97694396972656 63.57094955444336 69.30599212646484 48.23080062866211 70.4971694946289 C 19.621143341064453 70.45619201660156 6.8119096755981445 69.29706573486328 4.886152744293213 65.61044311523438 C 7.3983659744262695 59.2921257019043 14.023051261901855 54.79229736328125 22.81220245361328 51.953372955322266" stroke-width="2.0" fill="none" stroke="rgb(0, 0, 0)" stroke-opacity="1" stroke-linecap="round" stroke-linejoin="round"/>
    <path d="M 17.209735870361328 51.6116828918457 C 28.03143882751465 49.6286735534668 30.977153778076172 46.43809509277344 27.948057174682617 41.26478576660156 C 21.98587417602539 32.84454345703125 18.525638580322266 21.424884796142578 19.432621002197266 11.233546257019043 C 23.60951805114746 4.978732585906982 29.090456008911133 2.491265296936035 35.26717758178711 1.8319002389907837 C 41.76920700073242 2.239283800125122 47.511451721191406 4.295536041259766 52.32554244995117 9.706117630004883 C 53.87266159057617 18.632328033447266 52.26659393310547 28.491188049316406 48.548484802246094 36.05773162841797 C 44.266605377197266 41.5235481262207 41.64696502685547 45.49658203125 43.7537841796875 48.87264633178711 C 53.37825393676758 52.099422454833984 64.64996337890625 56.52131652832031 69.15992736816406 63.94880676269531 C 69.57969665527344 69.1335220336914 66.0234603881836 70.878662109375 49.29662322998047 71.3122329711914 C 19.180389404296875 71.2689208984375 5.239224910736084 70.84214782714844 2.4295449256896973 69.18621826171875 C 2.880666494369507 64.04590606689453 6.884100914001465 56.10476303100586 17.209735870361328 51.6116828918457" stroke-width="2.0" fill="none" stroke="rgb(0, 0, 0)" stroke-opacity="1" stroke-linecap="round" stroke-linejoin="round"/>
    <path d="M 12.40689754486084 51.04604721069336 C 25.655418395996094 48.46017837524414 32.772743225097656 46.11338806152344 30.916675567626953 41.27960205078125 C 24.39049530029297 33.02379608154297 20.085344314575195 21.102439880371094 20.468215942382812 10.795116424560547 C 24.26557731628418 4.722717761993408 29.596416473388672 2.344060182571411 35.41383361816406 1.7160122394561768 C 40.997859954833984 2.0208630561828613 46.3956413269043 3.762568712234497 51.10678482055664 8.772281646728516 C 52.84288787841797 17.804248809814453 50.51129150390625 28.37653160095215 45.95807647705078 36.18031311035156 C 41.201507568359375 41.563865661621094 39.98574447631836 45.433963775634766 46.568206787109375 48.347496032714844 C 59.54290771484375 51.139793395996094 67.65287017822266 57.713768005371094 69.55913543701172 65.89855194091797 C 68.68096923828125 69.5744857788086 63.11179733276367 70.69303894042969 46.54720687866211 71.01615142822266 C 21.778364181518555 70.94468688964844 7.594548225402832 70.5521240234375 3.360192060470581 69.33192443847656 C 2.7680139541625977 65.64295959472656 4.722495079040527 58.00798034667969 12.40689754486084 51.04604721069336" stroke-width="2.0" fill="none" stroke="rgb(0, 0, 0)" stroke-opacity="1" stroke-linecap="round" stroke-linejoin="round"/>
    <path d="M 10.007368087768555 50.30771255493164 C 22.300708770751953 46.606773376464844 32.57859420776367 44.72486877441406 32.833927154541016 41.11006164550781 C 26.182252883911133 33.91868209838867 21.179460525512695 22.469850540161133 20.871379852294922 12.122235298156738 C 24.26335906982422 5.728135108947754 29.532447814941406 3.04384708404541 34.956687927246094 2.2602806091308594 C 40.02187728881836 2.451388359069824 45.142189025878906 3.9329493045806885 49.762977600097656 8.31252670288086 C 51.77560806274414 16.87896156311035 49.49693298339844 27.8476505279541 44.50712203979492 36.14337921142578 C 39.286705017089844 41.098114013671875 40.21051788330078 44.07135009765625 51.14598083496094 46.13617706298828 C 63.23871612548828 50.20686721801758 67.76358795166016 59.13119125366211 68.2442398071289 65.93160247802734 C 66.16009521484375 68.67762756347656 59.847198486328125 69.72042846679688 45.36312484741211 70.09908294677734 C 24.919239044189453 70.00332641601562 10.918067932128906 69.5145263671875 5.447288513183594 68.267333984375 C 3.9985265731811523 65.17306518554688 4.842489719390869 58.81177520751953 10.007368087768555 50.30771255493164" stroke-width="2.0" fill="none" stroke="rgb(0, 0, 0)" stroke-opacity="1" stroke-linecap="round" stroke-linejoin="round"/>
    <path d="M 10.83989429473877 49.082645416259766 C 20.507946014404297 44.43134307861328 30.75102996826172 43.15205764770508 32.794742584228516 41.564910888671875 C 27.192554473876953 36.208404541015625 22.139415740966797 25.76799774169922 21.274560928344727 15.430683135986328 C 24.21184730529785 8.41018295288086 29.23427963256836 5.160012245178223 34.30017852783203 4.097259521484375 C 39.038482666015625 4.237547874450684 43.960777282714844 5.720210552215576 48.57358169555664 9.858623504638672 C 50.66553497314453 17.692346572875977 48.986846923828125 27.923025131225586 44.33388137817383 36.00405502319336 C 39.26915740966797 40.27861022949219 42.24579620361328 42.04359436035156 53.84495162963867 43.80144500732422 C 62.563575744628906 49.65529251098633 65.36772918701172 57.996864318847656 65.14447784423828 63.359588623046875 C 62.679100036621094 65.97113037109375 56.772884368896484 67.2551498413086 45.10988998413086 67.8467025756836 C 28.634845733642578 67.80101013183594 15.233153343200684 67.14024353027344 8.832633972167969 65.63509368896484 C 6.735589027404785 62.536590576171875 6.972472667694092 57.07930374145508 10.83989429473877 49.082645416259766" stroke-width="2.0" fill="none" stroke="rgb(0, 0, 0)" stroke-opacity="1" stroke-linecap="round" stroke-linejoin="round"/>
  </g>
</svg>
