<?xml version="1.0" ?>
<svg xmlns="http://www.w3.org/2000/svg" version="1.1" width="72" height="72">
  <defs/>
  <g>
    <path d="M 9.812164306640625 44.66663360595703 C 9.138907432556152 42.15583419799805 8.428829193115234 37.633113861083984 8.39887523651123 31.089508056640625 C 9.657626152038574 23.935626983642578 12.847101211547852 17.006103515625 17.861106872558594 11.815634727478027 C 24.07305145263672 8.667576789855957 30.364688873291016 7.017094612121582 36.18851852416992 6.423139572143555 C 42.04789352416992 6.713508605957031 48.77858352661133 8.31159782409668 55.22906494140625 11.815896987915039 C 60.259033203125 17.06659507751465 63.30322265625 23.692907333374023 64.50260162353516 30.54827117919922 C 64.51004028320312 36.50102996826172 63.95834732055664 40.8264045715332 63.3380241394043 43.904666900634766 C 62.62355041503906 46.13337326049805 61.60666275024414 48.070743560791016 59.84226989746094 49.9702262878418 C 56.71976089477539 50.744773864746094 50.9644889831543 48.382144927978516 40.95711135864258 43.84859848022461 C 29.034223556518555 43.72844314575195 19.17064666748047 47.03725051879883 13.481073379516602 48.00748062133789 C 11.109254837036133 46.623931884765625 10.264262199401855 45.64126205444336 9.812164306640625 44.66663360595703" stroke-width="2.0" fill="none" stroke="rgb(0, 0, 0)" stroke-opacity="1" stroke-linecap="round" stroke-linejoin="round"/>
    <path d="M 8.555954933166504 44.334869384765625 C 7.965479850769043 41.86309814453125 7.3902506828308105 37.25267791748047 7.5049028396606445 30.737974166870117 C 8.863308906555176 23.604251861572266 12.039731979370117 16.69953727722168 17.14533042907715 11.530783653259277 C 23.47943687438965 8.30246353149414 29.77794075012207 6.562246322631836 35.76289749145508 5.896365642547607 C 41.93815612792969 6.226058006286621 48.74158477783203 7.943162441253662 55.42025375366211 11.419925689697266 C 60.659488677978516 16.589738845825195 63.84394836425781 23.285886764526367 65.194580078125 30.275602340698242 C 65.39441680908203 36.334136962890625 64.98334503173828 40.744834899902344 64.39320373535156 43.91545104980469 C 63.670082092285156 46.27639389038086 62.618831634521484 48.30718994140625 60.77484893798828 50.22092056274414 C 57.49318313598633 50.62153244018555 51.40833282470703 47.62205505371094 40.963722229003906 42.9938850402832 C 28.538732528686523 42.9882698059082 18.280473709106445 46.66261291503906 12.381514549255371 48.038719177246094 C 9.919838905334473 46.62729263305664 8.985997200012207 45.424583435058594 8.555954933166504 44.334869384765625" stroke-width="2.0" fill="none" stroke="rgb(0, 0, 0)" stroke-opacity="1" stroke-linecap="round" stroke-linejoin="round"/>
    <path d="M 8.110392570495605 44.80253601074219 C 7.542118549346924 42.423179626464844 6.966114521026611 37.86613464355469 7.011778354644775 31.366607666015625 C 8.254819869995117 24.165367126464844 11.312604904174805 17.119274139404297 16.444915771484375 11.740004539489746 C 22.813554763793945 8.34809684753418 29.13164520263672 6.4572672843933105 35.33037185668945 5.7286248207092285 C 41.83346939086914 6.061605453491211 48.837913513183594 7.912163257598877 55.59803771972656 11.493138313293457 C 60.884674072265625 16.727632522583008 64.10061645507812 23.502878189086914 65.48324584960938 30.564640045166016 C 65.74357604980469 36.632301330566406 65.378662109375 41.05571746826172 64.78538513183594 44.28187942504883 C 64.0509262084961 46.71527862548828 62.93666458129883 48.845428466796875 61.00595474243164 50.81159591674805 C 57.551509857177734 51.00337600708008 51.19578552246094 47.73826217651367 40.457847595214844 43.22758865356445 C 27.968610763549805 43.533180236816406 17.78946304321289 47.42544174194336 11.986295700073242 48.80811309814453 C 9.534911155700684 47.30743408203125 8.551581382751465 45.973838806152344 8.110392570495605 44.80253601074219" stroke-width="2.0" fill="none" stroke="rgb(0, 0, 0)" stroke-opacity="1" stroke-linecap="round" stroke-linejoin="round"/>
    <path d="M 8.139067649841309 45.69413375854492 C 7.56706428527832 43.44035720825195 6.906663417816162 39.07474136352539 6.778738975524902 32.58757400512695 C 7.824805736541748 25.29220199584961 10.668625831604004 17.970958709716797 15.692527770996094 12.294109344482422 C 22.11767578125 8.665618896484375 28.546117782592773 6.609414577484131 34.91621017456055 5.790699005126953 C 41.6727180480957 6.1210246086120605 48.85295104980469 8.103182792663574 55.687740325927734 11.834574699401855 C 60.99979782104492 17.218616485595703 64.19868469238281 24.131330490112305 65.55106353759766 31.21953773498535 C 65.79442596435547 37.21490478515625 65.4119644165039 41.5909423828125 64.79475402832031 44.828224182128906 C 64.02774047851562 47.263763427734375 62.84331130981445 49.491580963134766 60.83866882324219 51.541770935058594 C 57.197242736816406 51.670509338378906 50.6374626159668 48.35039138793945 39.71031188964844 44.064308166503906 C 27.39149284362793 44.760459899902344 17.549360275268555 48.71474838256836 12.012283325195312 49.866188049316406 C 9.627507209777832 48.26613998413086 8.60677433013916 46.90084457397461 8.139067649841309 45.69413375854492" stroke-width="2.0" fill="none" stroke="rgb(0, 0, 0)" stroke-opacity="1" stroke-linecap="round" stroke-linejoin="round"/>
    <path d="M 8.495284080505371 46.623165130615234 C 7.898700714111328 44.446990966796875 7.148653507232666 40.319026947021484 6.8360066413879395 33.91060256958008 C 7.689944267272949 26.542171478271484 10.286707878112793 19.03392791748047 15.169401168823242 13.007177352905273 C 21.619821548461914 9.12226676940918 28.169342041015625 6.90778923034668 34.62723159790039 6.001081466674805 C 41.48002243041992 6.3216142654418945 48.747047424316406 8.393976211547852 55.64143371582031 12.266613960266113 C 60.97046661376953 17.799575805664062 64.13529205322266 24.83879852294922 65.43171691894531 31.9288387298584 C 65.61170196533203 37.819557189941406 65.18431854248047 42.111541748046875 64.53623962402344 45.29133605957031 C 63.72759246826172 47.738670349121094 62.491485595703125 50.0377082824707 60.42524719238281 52.16082763671875 C 56.64915466308594 52.34532165527344 49.96131134033203 49.10572052001953 39.00094223022461 45.1339111328125 C 26.99995994567871 46.1357421875 17.5842227935791 49.98882293701172 12.337224960327148 50.779029846191406 C 10.034276008605957 49.11785888671875 8.993708610534668 47.82179260253906 8.495284080505371 46.623165130615234" stroke-width="2.0" fill="none" stroke="rgb(0, 0, 0)" stroke-opacity="1" stroke-linecap="round" stroke-linejoin="round"/>
    <path d="M 8.961584091186523 47.138214111328125 C 8.335323333740234 44.948150634765625 7.5173563957214355 40.941707611083984 7.089394569396973 34.66160583496094 C 7.816587448120117 27.25130844116211 10.274118423461914 19.685577392578125 15.059294700622559 13.466545104980469 C 21.527973175048828 9.44424819946289 28.140735626220703 7.171267032623291 34.564693450927734 6.2251386642456055 C 41.306121826171875 6.518522262573242 48.51869201660156 8.587265968322754 55.4418830871582 12.495049476623535 C 60.80060577392578 18.094074249267578 63.94530487060547 25.176166534423828 65.20549011230469 32.25234603881836 C 65.32548522949219 38.071868896484375 64.85501861572266 42.29951858520508 64.18949890136719 45.442134857177734 C 63.35702896118164 47.87702941894531 62.099647521972656 50.18153381347656 60.01734161376953 52.342018127441406 C 56.19789123535156 52.62915802001953 49.492008209228516 49.529022216796875 38.58425521850586 45.782432556152344 C 26.858304977416992 46.94501495361328 17.77530288696289 50.60498809814453 12.748550415039062 51.11410140991211 C 10.506915092468262 49.477535247802734 9.469564437866211 48.28211975097656 8.961584091186523 47.138214111328125" stroke-width="2.0" fill="none" stroke="rgb(0, 0, 0)" stroke-opacity="1" stroke-linecap="round" stroke-linejoin="round"/>
    <path d="M 9.553401947021484 47.73883056640625 C 8.892138481140137 45.53444290161133 8.025899887084961 41.65293884277344 7.466519355773926 35.5323600769043 C 8.011215209960938 28.0242862701416 10.291791915893555 20.401798248291016 14.941730499267578 14.010998725891113 C 21.431861877441406 9.83563232421875 28.13734245300293 7.507826805114746 34.52135467529297 6.514215469360352 C 41.14907455444336 6.785078048706055 48.308048248291016 8.864974975585938 55.274681091308594 12.834640502929688 C 60.6416130065918 18.533178329467773 63.72989273071289 25.653331756591797 64.91740417480469 32.724212646484375 C 64.94820404052734 38.4503059387207 64.41968536376953 42.57781982421875 63.73786926269531 45.65372085571289 C 62.87997055053711 48.07133483886719 61.59389114379883 50.37962341308594 59.51424789428711 52.60279083251953 C 55.69091796875 53.080753326416016 49.027137756347656 50.254974365234375 38.18111801147461 46.8839225769043 C 26.79462432861328 48.17738723754883 18.080631256103516 51.44953918457031 13.31549072265625 51.57236099243164 C 11.117059707641602 49.935543060302734 10.071113586425781 48.8210563659668 9.553401947021484 47.73883056640625" stroke-width="2.0" fill="none" stroke="rgb(0, 0, 0)" stroke-opacity="1" stroke-linecap="round" stroke-linejoin="round"/>
    <path d="M 10.468652725219727 48.34708786010742 C 9.763912200927734 46.09653091430664 8.832098960876465 42.32321548461914 8.091903686523438 36.33136749267578 C 8.41916561126709 28.74412727355957 10.545390129089355 21.08812141418457 15.055630683898926 14.580670356750488 C 21.53647232055664 10.284405708312988 28.344886779785156 7.944469928741455 34.63593673706055 6.935192108154297 C 41.019962310791016 7.18792200088501 48.04259490966797 9.23637580871582 55.019527435302734 13.251455307006836 C 60.38188171386719 19.054685592651367 63.37295150756836 26.192811965942383 64.441650390625 33.23501205444336 C 64.32263946533203 38.82738494873047 63.7214241027832 42.81978988647461 63.03430938720703 45.82774353027344 C 62.1519775390625 48.19957733154297 60.837432861328125 50.4967041015625 58.79497146606445 52.79714584350586 C 55.05893325805664 53.63184356689453 48.58363723754883 51.44343948364258 37.91556167602539 48.67447280883789 C 26.915565490722656 49.96006774902344 18.62335205078125 52.49233627319336 14.197591781616211 52.03730010986328 C 12.06158447265625 50.37360382080078 11.000832557678223 49.35171890258789 10.468652725219727 48.34708786010742" stroke-width="2.0" fill="none" stroke="rgb(0, 0, 0)" stroke-opacity="1" stroke-linecap="round" stroke-linejoin="round"/>
    <path d="M 11.884981155395508 49.1206169128418 C 11.139761924743652 46.80961990356445 10.14880084991455 43.118202209472656 9.118189811706543 37.314029693603516 C 9.10316276550293 29.559001922607422 11.044124603271484 21.916854858398438 15.411773681640625 15.282976150512695 C 21.756511688232422 10.895200729370117 28.62167739868164 8.516037940979004 34.86110305786133 7.536407470703125 C 40.99314880371094 7.752107620239258 47.933013916015625 9.748924255371094 54.77452087402344 13.855923652648926 C 59.97898864746094 19.82210350036621 62.79609680175781 26.91444969177246 63.653785705566406 33.867698669433594 C 63.30976104736328 39.298091888427734 62.624114990234375 43.0987548828125 61.90913009643555 46.06545639038086 C 61.02686309814453 48.378334045410156 59.6802864074707 50.680747985839844 57.725318908691406 53.1364631652832 C 54.17070388793945 54.640892028808594 48.010498046875 53.60928726196289 37.875648498535156 51.904884338378906 C 27.40155792236328 52.915225982666016 19.583724975585938 54.09019470214844 15.585110664367676 52.76296615600586 C 13.491825103759766 51.0084342956543 12.452293395996094 50.0594367980957 11.884981155395508 49.1206169128418" stroke-width="2.0" fill="none" stroke="rgb(0, 0, 0)" stroke-opacity="1" stroke-linecap="round" stroke-linejoin="round"/>
    <path d="M 14.057154655456543 50.08171081542969 C 13.397236824035645 47.68348693847656 12.338470458984375 43.991546630859375 10.825630187988281 38.44314193725586 C 10.281414031982422 30.634687423706055 11.851621627807617 22.848114013671875 15.891585350036621 16.089298248291016 C 22.02507972717285 11.568246841430664 28.80955696105957 9.229289054870605 35.021488189697266 8.354225158691406 C 41.033294677734375 8.531521797180176 47.96644592285156 10.382806777954102 54.50016403198242 14.559205055236816 C 59.30281448364258 20.729291915893555 61.75651550292969 27.883678436279297 62.228759765625 34.70908737182617 C 61.583106994628906 39.800682067871094 60.75961685180664 43.415199279785156 60.05207824707031 46.332420349121094 C 59.274818420410156 48.75742721557617 57.960792541503906 51.119422912597656 56.05062484741211 53.96284484863281 C 52.79397201538086 56.22014617919922 47.08598327636719 56.94170379638672 38.06995391845703 56.736244201660156 C 28.401905059814453 56.98883056640625 21.453622817993164 56.533241271972656 17.779911041259766 54.27692794799805 C 15.583641052246094 52.12644577026367 14.593387603759766 51.08143997192383 14.057154655456543 50.08171081542969" stroke-width="2.0" fill="none" stroke="rgb(0, 0, 0)" stroke-opacity="1" stroke-linecap="round" stroke-linejoin="round"/>
  </g>
</svg>
