<?xml version="1.0" encoding="utf-8" ?>
<svg xmlns="http://www.w3.org/2000/svg" xmlns:ev="http://www.w3.org/2001/xml-events" xmlns:xlink="http://www.w3.org/1999/xlink" baseProfile="full" height="480" version="1.1" viewBox="0.0 0.0 72.0 72.0" width="480">
  <defs/>
  <path d="M 37.192138671875,36.0 L 37.01250076293945,36.038673400878906 L 36.67499923706055,36.07827377319336 L 36.337501525878906,36.10106658935547 L 36.0,36.111019134521484 L 35.662498474121094,36.111019134521484 L 35.32500076293945,36.10106658935547 L 34.98749923706055,36.07827377319336 L 34.650001525878906,36.038673400878906 L 34.3125,35.965538024902344 L 34.24753919819735,35.95322415182062" fill="none" stroke="#000000" stroke-width="0.4"/>
  <path d="M 34.24753919819735,35.95322415182062 L 33.974998474121094,35.90156173706055 L 33.63750076293945,35.851409912109375 L 33.29999923706055,35.812744140625 L 32.962501525878906,35.73807144165039 L 32.625,35.58738327026367 L 32.287498474121094,35.50724792480469 L 31.950000762939453,35.42432403564453 L 31.78446388244629,35.32500076293945 L 31.612499237060547,35.225242614746094 L 31.41464403183527,35.174281316541844" fill="none" stroke="#000000" stroke-width="0.4"/>
  <path d="M 31.41464403183527,35.174281316541844 L 31.274999618530273,35.13831329345703 L 31.016992568969727,34.98749923706055 L 30.9375,34.925838470458984 L 30.600000381469727,34.80857467651367 L 30.360937118530273,34.650001525878906 L 30.262500762939453,34.57172393798828 L 29.924999237060547,34.42795944213867 L 29.77655029296875,34.3125 L 29.587499618530273,34.1842155456543 L 29.292491912841797,33.974998474121094 L 29.25,33.934268951416016 L 28.912500381469727,33.708492279052734 L 28.881942162270928,33.68172732038514" fill="none" stroke="#000000" stroke-width="0.4"/>
  <path d="M 28.881942162270928,33.68172732038514 L 28.83144760131836,33.63750076293945 L 28.575000762939453,33.44130325317383 L 28.41651153564453,33.29999923706055 L 28.237499237060547,33.14506530761719 L 28.04479217529297,32.962501525878906 L 27.900001525878906,32.822879791259766 L 27.70444679260254,32.625 L 27.5625,32.47695541381836 L 27.387039184570312,32.287498474121094 L 27.088666915893555,31.950000762939453 L 26.887500762939453,31.697471618652344 L 26.813995361328125,31.612499237060547 L 26.796754305472735,31.58643645312797" fill="none" stroke="#000000" stroke-width="0.4"/>
  <path d="M 26.796754305472735,31.58643645312797 L 26.59073257446289,31.274999618530273 L 26.549999237060547,31.22736930847168 L 26.356754302978516,30.9375 L 26.212501525878906,30.73423194885254 L 26.114063262939453,30.600000381469727 L 25.95832061767578,30.262500762939453 L 25.875,30.143470764160156 L 25.74887466430664,29.924999237060547 L 25.607906341552734,29.587499618530273 L 25.537500381469727,29.476757049560547 L 25.424121856689453,29.25 L 25.353203582963403,29.016299616712544" fill="none" stroke="#000000" stroke-width="0.4"/>
  <path d="M 25.353203582963403,29.016299616712544 L 25.321704864501953,28.912500381469727 L 25.200000762939453,28.676250457763672 L 25.143749237060547,28.575000762939453 L 25.0648193359375,28.237499237060547 L 24.973918914794922,27.900001525878906 L 24.862499237060547,27.595064163208008 L 24.848541259765625,27.5625 L 24.770893096923828,27.225000381469727 L 24.728073120117188,26.887500762939453 L 24.675113677978516,26.549999237060547 L 24.626028060913086,26.212501525878906 L 24.61945933719222,26.16425435785103" fill="none" stroke="#000000" stroke-width="0.4"/>
  <path d="M 24.61945933719222,26.16425435785103 L 24.580078125,25.875 L 24.546092987060547,25.537500381469727 L 24.521076202392578,25.200000762939453 L 24.511043548583984,24.862499237060547 L 24.513492584228516,24.525001525878906 L 24.531490325927734,24.1875 L 24.562366485595703,23.850000381469727 L 24.604209899902344,23.512500762939453 L 24.64670140860337,23.213019066069027" fill="none" stroke="#000000" stroke-width="0.4"/>
  <path d="M 24.64670140860337,23.213019066069027 L 24.652095794677734,23.174999237060547 L 24.704669952392578,22.837501525878906 L 24.752811431884766,22.5 L 24.804424285888672,22.162500381469727 L 24.862499237060547,21.987133026123047 L 24.92156219482422,21.825000762939453 L 25.03028106689453,21.487499237060547 L 25.10179901123047,21.150001525878906 L 25.200000762939453,20.901697158813477 L 25.24625015258789,20.8125 L 25.387985229492188,20.475000381469727 L 25.42276102875429,20.369114134575153" fill="none" stroke="#000000" stroke-width="0.4"/>
  <path d="M 25.42276102875429,20.369114134575153 L 25.498828887939453,20.137500762939453 L 25.537500381469727,20.08446502685547 L 25.698951721191406,19.80000114440918 L 25.8262996673584,19.462499618530273 L 25.875,19.404911041259766 L 26.05312728881836,19.125 L 26.212501525878906,18.84324836730957 L 26.2564697265625,18.787500381469727 L 26.45024299621582,18.450000762939453 L 26.549999237060547,18.32962417602539 L 26.71875,18.11250114440918 L 26.887500762939453,17.887887954711914 L 26.929471322783638,17.840126571229163" fill="none" stroke="#000000" stroke-width="0.4"/>
  <path d="M 26.929471322783638,17.840126571229163 L 26.98670196533203,17.774999618530273 L 27.225000381469727,17.462947845458984 L 27.248577117919922,17.4375 L 27.534576416015625,17.100000381469727 L 27.900001525878906,16.725919723510742 L 28.237499237060547,16.411043167114258 L 28.624217987060547,16.087499618530273 L 29.03474472147185,15.769924602250176" fill="none" stroke="#000000" stroke-width="0.4"/>
  <path d="M 29.03474472147185,15.769924602250176 L 29.060501098632812,15.75 L 29.25,15.607292175292969 L 29.52440071105957,15.412500381469727 L 29.587499618530273,15.363800048828125 L 29.924999237060547,15.163541793823242 L 30.06988525390625,15.075000762939453 L 30.262500762939453,14.953542709350586 L 30.600000381469727,14.793750762939453 L 30.691556930541992,14.73750114440918 L 30.9375,14.59390640258789 L 31.274999618530273,14.473505020141602 L 31.428606033325195,14.400001525878906 L 31.60065924837716,14.310531641217654" fill="none" stroke="#000000" stroke-width="0.4"/>
  <path d="M 31.60065924837716,14.310531641217654 L 31.612499237060547,14.304374694824219 L 31.950000762939453,14.17939567565918 L 32.287498474121094,14.092634201049805 L 32.34864044189453,14.0625 L 32.625,13.942571640014648 L 32.962501525878906,13.858808517456055 L 33.29999923706055,13.815195083618164 L 33.63750076293945,13.726318359375 L 33.974998474121094,13.634479522705078 L 34.3125,13.583562850952148 L 34.456601725129985,13.56852381938369" fill="none" stroke="#000000" stroke-width="0.4"/>
  <path d="M 34.456601725129985,13.56852381938369 L 34.650001525878906,13.54833984375 L 34.98749923706055,13.527580261230469 L 35.32500076293945,13.519109725952148 L 36.0,13.517118453979492 L 36.337501525878906,13.519109725952148 L 36.67499923706055,13.528261184692383 L 37.01250076293945,13.54833984375 L 37.349998474121094,13.583562850952148 L 37.415602773042416,13.593894671588949" fill="none" stroke="#000000" stroke-width="0.4"/>
  <path d="M 37.415602773042416,13.593894671588949 L 37.6875,13.636714935302734 L 38.025001525878906,13.728925704956055 L 38.36249923706055,13.815195083618164 L 38.70000076293945,13.859487533569336 L 39.037498474121094,13.945341110229492 L 39.312034606933594,14.0625 L 39.375,14.092634201049805 L 39.712501525878906,14.182910919189453 L 40.04999923706055,14.305999755859375 L 40.23189926147461,14.400001525878906 L 40.25034277266698,14.408713925864449" fill="none" stroke="#000000" stroke-width="0.4"/>
  <path d="M 40.25034277266698,14.408713925864449 L 40.38750076293945,14.473505020141602 L 40.724998474121094,14.60019302368164 L 40.962703704833984,14.73750114440918 L 41.0625,14.797378540039062 L 41.400001525878906,14.960685729980469 L 41.58080291748047,15.075000762939453 L 42.07500076293945,15.369733810424805 L 42.12929153442383,15.412500381469727 L 42.412498474121094,15.613542556762695 L 42.59077835083008,15.75 L 42.75,15.874961853027344 L 42.79234467584568,15.90765843802485" fill="none" stroke="#000000" stroke-width="0.4"/>
  <path d="M 42.79234467584568,15.90765843802485 L 43.02525329589844,16.087499618530273 L 43.087501525878906,16.14097785949707 L 43.42499923706055,16.41851043701172 L 43.76250076293945,16.734577178955078 L 44.118751525878906,17.100000381469727 L 44.40254592895508,17.4375 L 44.4375,17.47543716430664 L 44.666160583496094,17.774999618530273 L 44.775001525878906,17.899282455444336 L 44.861782155406,18.01362479784049" fill="none" stroke="#000000" stroke-width="0.4"/>
  <path d="M 44.861782155406,18.01362479784049 L 44.936824798583984,18.11250114440918 L 45.11249923706055,18.337871551513672 L 45.208251953125,18.450000762939453 L 45.39374923706055,18.787500381469727 L 45.45000076293945,18.858783721923828 L 45.6036376953125,19.125 L 45.787498474121094,19.4206485748291 L 45.82408142089844,19.462499618530273 L 45.95803451538086,19.80000114440918 L 46.125,20.097702026367188 L 46.15513229370117,20.137500762939453 L 46.2697639465332,20.475000381469727 L 46.31031836548466,20.576187425241464" fill="none" stroke="#000000" stroke-width="0.4"/>
  <path d="M 46.31031836548466,20.576187425241464 L 46.405029296875,20.8125 L 46.462501525878906,20.925804138183594 L 46.5532112121582,21.150001525878906 L 46.623619079589844,21.487499237060547 L 46.730377197265625,21.825000762939453 L 46.79999923706055,22.01646614074707 L 46.850624084472656,22.162500381469727 L 46.90593719482422,22.5 L 46.95119094848633,22.837501525878906 L 47.00271224975586,23.174999237060547 L 47.0372724094855,23.43240100252234" fill="none" stroke="#000000" stroke-width="0.4"/>
  <path d="M 47.0372724094855,23.43240100252234 L 47.04802703857422,23.512500762939453 L 47.08911895751953,23.850000381469727 L 47.121131896972656,24.1875 L 47.138816833496094,24.525001525878906 L 47.14142608642578,24.862499237060547 L 47.131011962890625,25.200000762939453 L 47.10448455810547,25.537500381469727 L 47.07304382324219,25.875 L 47.002139935568295,26.38378909170008" fill="none" stroke="#000000" stroke-width="0.4"/>
  <path d="M 47.002139935568295,26.38378909170008 L 46.97897720336914,26.549999237060547 L 46.928436279296875,26.887500762939453 L 46.88584899902344,27.225000381469727 L 46.79999923706055,27.558666229248047 L 46.67660140991211,27.900001525878906 L 46.590858459472656,28.237499237060547 L 46.509246826171875,28.575000762939453 L 46.462501525878906,28.656394958496094 L 46.33214569091797,28.912500381469727 L 46.239455372563356,29.22998535556756" fill="none" stroke="#000000" stroke-width="0.4"/>
  <path d="M 46.239455372563356,29.22998535556756 L 46.233612060546875,29.25 L 46.125,29.458354949951172 L 46.0433464050293,29.587499618530273 L 45.90778732299805,29.924999237060547 L 45.787498474121094,30.12896728515625 L 45.69443130493164,30.262500762939453 L 45.54161071777344,30.600000381469727 L 45.45000076293945,30.72144889831543 L 45.29910659790039,30.9375 L 45.11249923706055,31.215206146240234 L 45.06187438964844,31.274999618530273 L 44.838417053222656,31.612499237060547 L 44.775001525878906,31.684127807617188 L 44.71769287372358,31.757103309668377" fill="none" stroke="#000000" stroke-width="0.4"/>
  <path d="M 44.71769287372358,31.757103309668377 L 44.56620788574219,31.950000762939453 L 44.27067947387695,32.287498474121094 L 44.099998474121094,32.47074508666992 L 43.95209503173828,32.625 L 43.76250076293945,32.81800079345703 L 43.61167907714844,32.962501525878906 L 43.42499923706055,33.13717269897461 L 43.23686599731445,33.29999923706055 L 43.087501525878906,33.43561935424805 L 42.82212448120117,33.63750076293945 L 42.75,33.70048522949219 L 42.590969195614285,33.806889229496896" fill="none" stroke="#000000" stroke-width="0.4"/>
  <path d="M 42.590969195614285,33.806889229496896 L 42.412498474121094,33.926300048828125 L 42.36103439331055,33.974998474121094 L 42.07500076293945,34.179725646972656 L 41.878334045410156,34.3125 L 41.73749923706055,34.42399597167969 L 41.400001525878906,34.56863784790039 L 41.296451568603516,34.650001525878906 L 41.0625,34.80518341064453 L 40.724998474121094,34.9223518371582 L 40.63992691040039,34.98749923706055 L 40.38750076293945,35.13648986816406 L 40.04999923706055,35.2226448059082 L 40.02879973068935,35.234808286180886" fill="none" stroke="#000000" stroke-width="0.4"/>
  <path d="M 40.02879973068935,35.234808286180886 L 39.871604919433594,35.32500076293945 L 39.712501525878906,35.421566009521484 L 39.375,35.5057487487793 L 39.037498474121094,35.582672119140625 L 38.8597526550293,35.662498474121094 L 38.70000076293945,35.73645782470703 L 38.36249923706055,35.811920166015625 L 38.025001525878906,35.851409912109375 L 37.6875,35.90156173706055 L 37.349998474121094,35.965538024902344 L 37.192138671875,36.0" fill="none" stroke="#000000" stroke-width="0.4"/>
  <path d="M 56.87825012207031,57.9375 L 56.587501525878906,58.14947509765625 L 56.25,58.14339065551758 L 55.912498474121094,58.14537811279297 L 53.99712045118986,58.14533048469522" fill="none" stroke="#000000" stroke-width="0.4"/>
  <path d="M 53.99712045118986,58.14533048469522 L 51.04686180317732,58.14525712308952" fill="none" stroke="#000000" stroke-width="0.4"/>
  <path d="M 51.04686180317732,58.14525712308952 L 49.16249465942383,58.14521026611328 L 48.096603155135504,58.14518496619682" fill="none" stroke="#000000" stroke-width="0.4"/>
  <path d="M 48.096603155135504,58.14518496619682 L 45.14634450704193,58.14511493909084" fill="none" stroke="#000000" stroke-width="0.4"/>
  <path d="M 45.14634450704193,58.14511493909084 L 42.41250228881836,58.145050048828125 L 42.19608585895738,58.145044545076814" fill="none" stroke="#000000" stroke-width="0.4"/>
  <path d="M 42.19608585895738,58.145044545076814 L 39.24582721098678,58.1449695161619" fill="none" stroke="#000000" stroke-width="0.4"/>
  <path d="M 39.24582721098678,58.1449695161619 L 36.29556856301617,58.14489448724699" fill="none" stroke="#000000" stroke-width="0.4"/>
  <path d="M 36.29556856301617,58.14489448724699 L 35.662498474121094,58.14487838745117 L 33.34530991498044,58.144822077340386" fill="none" stroke="#000000" stroke-width="0.4"/>
  <path d="M 33.34530991498044,58.144822077340386 L 30.395051266926913,58.144750382962876" fill="none" stroke="#000000" stroke-width="0.4"/>
  <path d="M 30.395051266926913,58.144750382962876 L 28.91250228881836,58.14471435546875 L 27.44479261889378,58.1446778591539" fill="none" stroke="#000000" stroke-width="0.4"/>
  <path d="M 27.44479261889378,58.1446778591539 L 24.494533970881243,58.144604497527475" fill="none" stroke="#000000" stroke-width="0.4"/>
  <path d="M 24.494533970881243,58.144604497527475 L 22.162500381469727,58.14454650878906 L 21.54427532286871,58.144531135896706" fill="none" stroke="#000000" stroke-width="0.4"/>
  <path d="M 21.54427532286871,58.144531135896706 L 18.59401667485617,58.14445777424955" fill="none" stroke="#000000" stroke-width="0.4"/>
  <path d="M 18.59401667485617,58.14445777424955 L 15.643758026843635,58.1443844126024" fill="none" stroke="#000000" stroke-width="0.4"/>
  <path d="M 15.643758026843635,58.1443844126024 L 15.412500381469727,58.144378662109375 L 15.075000762939453,58.14947509765625 L 14.77823257446289,57.9375 L 14.81430435180664,57.599998474121094 L 14.820379257202148,57.26249694824219 L 14.842010498046875,56.92499923706055 L 14.914533615112305,56.25 L 14.962294914805096,55.93084341170544" fill="none" stroke="#000000" stroke-width="0.4"/>
  <path d="M 14.962294914805096,55.93084341170544 L 14.96504020690918,55.912498474121094 L 15.02897834777832,55.57499694824219 L 15.10068130493164,55.23749923706055 L 15.158348083496094,54.900001525878906 L 15.220369338989258,54.5625 L 15.294694900512695,54.224998474121094 L 15.381929397583008,53.88749694824219 L 15.412500381469727,53.78704833984375 L 15.475915908813477,53.54999923706055 L 15.561458587646484,53.212501525878906 L 15.609426782877351,53.05473431008502" fill="none" stroke="#000000" stroke-width="0.4"/>
  <path d="M 15.609426782877351,53.05473431008502 L 15.664073944091797,52.875 L 15.75,52.60036849975586 L 15.773405075073242,52.537498474121094 L 16.002120971679688,51.86249923706055 L 16.087499618530273,51.623435974121094 L 16.26837730407715,51.1875 L 16.384267807006836,50.849998474121094 L 16.42500114440918,50.779685974121094 L 16.561851501464844,50.51250076293945 L 16.64050518000941,50.295580390260156" fill="none" stroke="#000000" stroke-width="0.4"/>
  <path d="M 16.64050518000941,50.295580390260156 L 16.684226989746094,50.17499923706055 L 16.882158279418945,49.837501525878906 L 17.014144897460938,49.5 L 17.100000381469727,49.36891555786133 L 17.232107162475586,49.162498474121094 L 17.370637893676758,48.82500076293945 L 17.4375,48.735660552978516 L 17.597997665405273,48.48749923706055 L 17.774999618530273,48.17732238769531 L 17.796899795532227,48.150001525878906 L 17.986854553222656,47.8125 L 18.05692477071092,47.72106142427079" fill="none" stroke="#000000" stroke-width="0.4"/>
  <path d="M 18.05692477071092,47.72106142427079 L 18.11250114440918,47.648536682128906 L 18.24265480041504,47.474998474121094 L 18.450000762939453,47.147430419921875 L 18.45901870727539,47.13750076293945 L 18.674684524536133,46.79999923706055 L 18.787500381469727,46.66960144042969 L 18.94696807861328,46.462501525878906 L 19.125,46.23855972290039 L 19.225313186645508,46.125 L 19.462499618530273,45.82220458984375 L 19.496963500976562,45.787498474121094 L 19.75228500366211,45.45000076293945 L 19.80000114440918,45.399864196777344 L 19.82747996076487,45.36680993343168" fill="none" stroke="#000000" stroke-width="0.4"/>
  <path d="M 19.82747996076487,45.36680993343168 L 20.038894653320312,45.11249923706055 L 20.137500762939453,45.00823974609375 L 20.347951889038086,44.775001525878906 L 20.672679901123047,44.4375 L 21.007740020751953,44.099998474121094 L 21.150001525878906,43.96017837524414 L 21.487499237060547,43.63593673706055 L 21.718589782714844,43.42499923706055 L 21.825000762939453,43.3249626159668 L 21.895362433756652,43.26639860726632" fill="none" stroke="#000000" stroke-width="0.4"/>
  <path d="M 21.895362433756652,43.26639860726632 L 22.11029815673828,43.087501525878906 L 22.162500381469727,43.03847122192383 L 22.5,42.77664566040039 L 22.528579711914062,42.75 L 22.837501525878906,42.51642608642578 L 22.95344352722168,42.412498474121094 L 23.174999237060547,42.2364501953125 L 23.383872985839844,42.07500076293945 L 23.512500762939453,41.97281265258789 L 23.850000381469727,41.74687576293945 L 23.861358642578125,41.73749923706055 L 24.1875,41.53193283081055 L 24.24549765029209,41.48904990755342" fill="none" stroke="#000000" stroke-width="0.4"/>
  <path d="M 24.24549765029209,41.48904990755342 L 24.36593246459961,41.400001525878906 L 24.525001525878906,41.29158401489258 L 24.862499237060547,41.0815315246582 L 24.890941619873047,41.0625 L 25.200000762939453,40.899742126464844 L 25.473438262939453,40.724998474121094 L 25.537500381469727,40.678253173828125 L 25.875,40.52228927612305 L 26.212501525878906,40.32583999633789 L 26.549999237060547,40.17417526245117 L 26.796794891357422,40.04999923706055 L 26.80959899794506,40.0431249320434" fill="none" stroke="#000000" stroke-width="0.4"/>
  <path d="M 26.80959899794506,40.0431249320434 L 26.887500762939453,40.00130081176758 L 27.225000381469727,39.860286712646484 L 27.5625,39.711181640625 L 27.900001525878906,39.56800842285156 L 28.237499237060547,39.45011520385742 L 28.429981231689453,39.375 L 28.575000762939453,39.31229019165039 L 28.912500381469727,39.187164306640625 L 29.25,39.1026496887207 L 29.42447280883789,39.037498474121094 L 29.55809504744098,38.98312909181161" fill="none" stroke="#000000" stroke-width="0.4"/>
  <path d="M 29.55809504744098,38.98312909181161 L 29.587499618530273,38.97116470336914 L 29.924999237060547,38.8657341003418 L 30.262500762939453,38.79438781738281 L 30.600000381469727,38.71150588989258 L 30.629779815673828,38.70000076293945 L 30.9375,38.59674835205078 L 31.274999618530273,38.5217170715332 L 31.612499237060547,38.472320556640625 L 31.950000762939453,38.431053161621094 L 32.224220275878906,38.36249923706055 L 32.287498474121094,38.34302520751953 L 32.424196346289264,38.31179331127874" fill="none" stroke="#000000" stroke-width="0.4"/>
  <path d="M 32.424196346289264,38.31179331127874 L 32.625,38.26591491699219 L 32.962501525878906,38.21657943725586 L 33.29999923706055,38.18014144897461 L 33.63750076293945,38.15114212036133 L 33.974998474121094,38.14182662963867 L 34.3125,38.12863540649414 L 34.650001525878906,38.104827880859375 L 34.98749923706055,38.09014892578125 L 35.36080627670206,38.079971679717566" fill="none" stroke="#000000" stroke-width="0.4"/>
  <path d="M 35.36080627670206,38.079971679717566 L 35.662498474121094,38.071746826171875 L 36.0,38.071746826171875 L 36.67499923706055,38.09014892578125 L 37.01250076293945,38.104827880859375 L 37.349998474121094,38.12863540649414 L 37.6875,38.14182662963867 L 38.025001525878906,38.15114212036133 L 38.3081148853752,38.175468499696166" fill="none" stroke="#000000" stroke-width="0.4"/>
  <path d="M 38.3081148853752,38.175468499696166 L 38.36249923706055,38.18014144897461 L 38.70000076293945,38.21657943725586 L 39.037498474121094,38.26591491699219 L 39.375,38.34302520751953 L 39.43674087524414,38.36249923706055 L 39.712501525878906,38.4327278137207 L 40.04999923706055,38.472320556640625 L 40.38750076293945,38.5217170715332 L 40.724998474121094,38.59897232055664 L 41.032127380371094,38.70000076293945 L 41.0625,38.71150588989258 L 41.19524835387883,38.7441055630703" fill="none" stroke="#000000" stroke-width="0.4"/>
  <path d="M 41.19524835387883,38.7441055630703 L 41.400001525878906,38.79438781738281 L 41.73749923706055,38.8657341003418 L 42.07500076293945,38.97116470336914 L 42.23802947998047,39.037498474121094 L 42.412498474121094,39.1026496887207 L 42.75,39.19008255004883 L 43.087501525878906,39.31456756591797 L 43.22724533081055,39.375 L 43.42499923706055,39.45170593261719 L 43.76250076293945,39.571346282958984 L 43.990878135450814,39.66758087140304" fill="none" stroke="#000000" stroke-width="0.4"/>
  <path d="M 43.990878135450814,39.66758087140304 L 44.09748077392578,39.712501525878906 L 44.4375,39.86354064941406 L 44.775001525878906,40.00522994995117 L 44.858306884765625,40.04999923706055 L 45.11249923706055,40.177093505859375 L 45.45000076293945,40.32942199707031 L 45.54721450805664,40.38750076293945 L 45.787498474121094,40.525665283203125 L 46.125,40.68223571777344 L 46.182281494140625,40.724998474121094 L 46.462501525878906,40.903621673583984 L 46.62243721917429,40.988733112943834" fill="none" stroke="#000000" stroke-width="0.4"/>
  <path d="M 46.62243721917429,40.988733112943834 L 46.76105499267578,41.0625 L 46.79999923706055,41.08894729614258 L 47.13750076293945,41.296661376953125 L 47.288265228271484,41.400001525878906 L 47.474998474121094,41.536415100097656 L 47.791805267333984,41.73749923706055 L 47.8125,41.7545051574707 L 48.150001525878906,41.97870635986328 L 48.269187927246094,42.07500076293945 L 48.48749923706055,42.24284362792969 L 48.70216369628906,42.412498474121094 L 48.82500076293945,42.5206184387207 L 49.033553988653765,42.6804699895668" fill="none" stroke="#000000" stroke-width="0.4"/>
  <path d="M 49.033553988653765,42.6804699895668 L 49.124267578125,42.75 L 49.162498474121094,42.78572082519531 L 49.5,43.05091857910156 L 49.538753509521484,43.087501525878906 L 49.837501525878906,43.33341979980469 L 49.934391021728516,43.42499923706055 L 50.17499923706055,43.64437484741211 L 50.29670715332031,43.76250076293945 L 50.51250076293945,43.965965270996094 L 50.6496696472168,44.099998474121094 L 50.98480987548828,44.4375 L 51.20732977108029,44.66974557612579" fill="none" stroke="#000000" stroke-width="0.4"/>
  <path d="M 51.20732977108029,44.66974557612579 L 51.30817794799805,44.775001525878906 L 51.525001525878906,45.01874923706055 L 51.61408996582031,45.11249923706055 L 51.86249923706055,45.41548156738281 L 51.89527893066406,45.45000076293945 L 52.15522766113281,45.787498474121094 L 52.19999694824219,45.83352279663086 L 52.427764892578125,46.125 L 52.537498474121094,46.24972915649414 L 52.70878601074219,46.462501525878906 L 52.875,46.681209564208984 L 52.9793701171875,46.79999923706055 L 53.073688473562875,46.950127372170556" fill="none" stroke="#000000" stroke-width="0.4"/>
  <path d="M 53.073688473562875,46.950127372170556 L 53.19140625,47.13750076293945 L 53.212501525878906,47.16120910644531 L 53.411293029785156,47.474998474121094 L 53.54999923706055,47.66157531738281 L 53.667755126953125,47.8125 L 53.85177993774414,48.150001525878906 L 53.88749694824219,48.1953125 L 54.058998107910156,48.48749923706055 L 54.224998474121094,48.74855422973633 L 54.28307342529297,48.82500076293945 L 54.42460632324219,49.162498474121094 L 54.5625,49.37989807128906 L 54.61352200196644,49.45666270427728" fill="none" stroke="#000000" stroke-width="0.4"/>
  <path d="M 54.61352200196644,49.45666270427728 L 54.64232635498047,49.5 L 54.770423889160156,49.837501525878906 L 54.900001525878906,50.05738830566406 L 54.97187805175781,50.17499923706055 L 55.0953369140625,50.51250076293945 L 55.23749923706055,50.795108795166016 L 55.269813537597656,50.849998474121094 L 55.38603973388672,51.1875 L 55.57499694824219,51.645938873291016 L 55.65327453613281,51.86249923706055 L 55.75614699917739,52.16727294982983" fill="none" stroke="#000000" stroke-width="0.4"/>
  <path d="M 55.75614699917739,52.16727294982983 L 55.912498474121094,52.63048553466797 L 56.09062194824219,53.212501525878906 L 56.176307678222656,53.54999923706055 L 56.25,53.82078552246094 L 56.27124786376953,53.88749694824219 L 56.35931396484375,54.224998474121094 L 56.43624496459961,54.5625 L 56.497982025146484,54.900001525878906 L 56.51662528176549,55.014283022646985" fill="none" stroke="#000000" stroke-width="0.4"/>
  <path d="M 56.51662528176549,55.014283022646985 L 56.55303955078125,55.23749923706055 L 56.622459411621094,55.57499694824219 L 56.68940734863281,55.912498474121094 L 56.7415771484375,56.25 L 56.81282043457031,56.92499923706055 L 56.83623504638672,57.26249694824219 L 56.84327697753906,57.599998474121094 L 56.87825012207031,57.9375" fill="none" stroke="#000000" stroke-width="0.4"/>
  <path d="M 58.275001525878906,60.060935974121094 L 57.9375,60.11754608154297 L 57.26249694824219,60.12061309814453 L 55.294395244765454,60.12061309814453" fill="none" stroke="#000000" stroke-width="0.4"/>
  <path d="M 55.294395244765454,60.12061309814453 L 52.30906723892488,60.12061309814453" fill="none" stroke="#000000" stroke-width="0.4"/>
  <path d="M 52.30906723892488,60.12061309814453 L 50.11874771118164,60.12061309814453 L 49.32373923308431,60.12061309814453" fill="none" stroke="#000000" stroke-width="0.4"/>
  <path d="M 49.32373923308431,60.12061309814453 L 46.33841122724374,60.12061309814453" fill="none" stroke="#000000" stroke-width="0.4"/>
  <path d="M 46.33841122724374,60.12061309814453 L 43.35308322140317,60.12061309814453" fill="none" stroke="#000000" stroke-width="0.4"/>
  <path d="M 43.35308322140317,60.12061309814453 L 42.974998474121094,60.12061309814453 L 40.367755215562596,60.12061309814453" fill="none" stroke="#000000" stroke-width="0.4"/>
  <path d="M 40.367755215562596,60.12061309814453 L 37.382427209722024,60.12061309814453" fill="none" stroke="#000000" stroke-width="0.4"/>
  <path d="M 37.382427209722024,60.12061309814453 L 35.83124923706055,60.12061309814453 L 34.39709920388145,60.12061309814453" fill="none" stroke="#000000" stroke-width="0.4"/>
  <path d="M 34.39709920388145,60.12061309814453 L 31.41177119804088,60.12061309814453" fill="none" stroke="#000000" stroke-width="0.4"/>
  <path d="M 31.41177119804088,60.12061309814453 L 28.6875,60.12061309814453 L 28.426443192200313,60.12061309814453" fill="none" stroke="#000000" stroke-width="0.4"/>
  <path d="M 28.426443192200313,60.12061309814453 L 25.441115186359742,60.12061309814453" fill="none" stroke="#000000" stroke-width="0.4"/>
  <path d="M 25.441115186359742,60.12061309814453 L 22.455787180519167,60.12061309814453" fill="none" stroke="#000000" stroke-width="0.4"/>
  <path d="M 22.455787180519167,60.12061309814453 L 21.543750762939453,60.12061309814453 L 19.470459174678595,60.12061309814453" fill="none" stroke="#000000" stroke-width="0.4"/>
  <path d="M 19.470459174678595,60.12061309814453 L 16.485131168838024,60.12061309814453" fill="none" stroke="#000000" stroke-width="0.4"/>
  <path d="M 16.485131168838024,60.12061309814453 L 14.400001525878906,60.12061309814453 L 13.725000381469727,60.118324279785156 L 13.502452072108895,60.08391077268568" fill="none" stroke="#000000" stroke-width="0.4"/>
  <path d="M 13.502452072108895,60.08391077268568 L 13.387500762939453,60.06613540649414 L 13.255990982055664,59.962501525878906 L 13.05000114440918,59.79084014892578 L 12.898920059204102,59.625 L 12.829326629638672,59.287498474121094 L 12.819223403930664,58.94999694824219 L 12.843120574951172,58.275001525878906 L 12.852611541748047,57.9375 L 12.85789680480957,57.599998474121094 L 12.859125857735894,57.42375985401812" fill="none" stroke="#000000" stroke-width="0.4"/>
  <path d="M 12.859125857735894,57.42375985401812 L 12.860250473022461,57.26249694824219 L 12.877233505249023,56.92499923706055 L 12.911516189575195,56.587501525878906 L 12.955541610717773,56.25 L 13.018281936645508,55.912498474121094 L 13.05000114440918,55.771873474121094 L 13.09073257446289,55.57499694824219 L 13.150314331054688,55.23749923706055 L 13.186115264892578,54.900001525878906 L 13.232072830200195,54.5625 L 13.25335047577171,54.469575133188826" fill="none" stroke="#000000" stroke-width="0.4"/>
  <path d="M 13.25335047577171,54.469575133188826 L 13.30935287475586,54.224998474121094 L 13.387500762939453,53.99212646484375 L 13.424339294433594,53.88749694824219 L 13.500879287719727,53.54999923706055 L 13.544134140014648,53.212501525878906 L 13.638374328613281,52.875 L 13.725000381469727,52.691986083984375 L 13.793556213378906,52.537498474121094 L 13.859487533569336,52.19999694824219 L 13.950357437133789,51.86249923706055 L 14.058195480417949,51.60818890363897" fill="none" stroke="#000000" stroke-width="0.4"/>
  <path d="M 14.058195480417949,51.60818890363897 L 14.0625,51.59803771972656 L 14.096963882446289,51.525001525878906 L 14.191699981689453,51.1875 L 14.323829650878906,50.849998474121094 L 14.400001525878906,50.70177459716797 L 14.484375,50.51250076293945 L 14.590097427368164,50.17499923706055 L 14.73750114440918,49.861297607421875 L 14.751459121704102,49.837501525878906 L 14.881462097167969,49.5 L 15.060609817504883,49.162498474121094 L 15.075000762939453,49.139583587646484 L 15.204974786339804,48.86038125852698" fill="none" stroke="#000000" stroke-width="0.4"/>
  <path d="M 15.204974786339804,48.86038125852698 L 15.221445083618164,48.82500076293945 L 15.39332389831543,48.48749923706055 L 15.412500381469727,48.45737075805664 L 15.56174087524414,48.150001525878906 L 15.74604606628418,47.8125 L 15.944408416748047,47.474998474121094 L 16.087499618530273,47.25255584716797 L 16.17359733581543,47.13750076293945 L 16.33793830871582,46.79999923706055 L 16.42500114440918,46.687957763671875 L 16.58128547668457,46.462501525878906 L 16.697806713900956,46.282609777992924" fill="none" stroke="#000000" stroke-width="0.4"/>
  <path d="M 16.697806713900956,46.282609777992924 L 16.762500762939453,46.18273162841797 L 16.811614990234375,46.125 L 17.01776123046875,45.787498474121094 L 17.100000381469727,45.6991081237793 L 17.29172134399414,45.45000076293945 L 17.4375,45.255287170410156 L 17.558320999145508,45.11249923706055 L 17.774999618530273,44.79951858520508 L 17.797067642211914,44.775001525878906 L 18.055126190185547,44.4375 L 18.11250114440918,44.3805046081543 L 18.34912872314453,44.099998474121094 L 18.450000762939453,43.994407653808594 L 18.514341389136824,43.92141359400908" fill="none" stroke="#000000" stroke-width="0.4"/>
  <path d="M 18.514341389136824,43.92141359400908 L 18.654415130615234,43.76250076293945 L 18.787500381469727,43.61496353149414 L 18.963394165039062,43.42499923706055 L 19.125,43.259002685546875 L 20.137500762939453,42.25481414794922 L 20.327709197998047,42.07500076293945 L 20.475000381469727,41.93873977661133 L 20.62378144584044,41.811438947491254" fill="none" stroke="#000000" stroke-width="0.4"/>
  <path d="M 20.62378144584044,41.811438947491254 L 20.71019744873047,41.73749923706055 L 20.8125,41.643428802490234 L 21.10869598388672,41.400001525878906 L 21.150001525878906,41.35926818847656 L 21.487499237060547,41.101539611816406 L 21.532211303710938,41.0625 L 21.825000762939453,40.8429069519043 L 21.972148895263672,40.724998474121094 L 22.433317184448242,40.38750076293945 L 22.5,40.333099365234375 L 22.837501525878906,40.116817474365234 L 22.925609588623047,40.04999923706055 L 22.994253218332034,40.00211795337863" fill="none" stroke="#000000" stroke-width="0.4"/>
  <path d="M 22.994253218332034,40.00211795337863 L 23.174999237060547,39.876041412353516 L 23.427322387695312,39.712501525878906 L 23.512500762939453,39.65327072143555 L 23.850000381469727,39.465476989746094 L 23.998699188232422,39.375 L 24.1875,39.253543853759766 L 24.525001525878906,39.07823181152344 L 24.579185485839844,39.037498474121094 L 24.862499237060547,38.856910705566406 L 25.200000762939453,38.709014892578125 L 25.21169662475586,38.70000076293945 L 25.537500381469727,38.51616287231445 L 25.569586542809475,38.50399549210514" fill="none" stroke="#000000" stroke-width="0.4"/>
  <path d="M 25.569586542809475,38.50399549210514 L 25.875,38.388179779052734 L 25.908748626708984,38.36249923706055 L 26.212501525878906,38.18821716308594 L 26.549999237060547,38.06977081298828 L 26.62232208251953,38.025001525878906 L 26.887500762939453,37.88470458984375 L 27.225000381469727,37.79732131958008 L 27.472095489501953,37.6875 L 27.5625,37.63325881958008 L 27.900001525878906,37.503334045410156 L 28.237499237060547,37.4151496887207 L 28.315563313448806,37.37364754519899" fill="none" stroke="#000000" stroke-width="0.4"/>
  <path d="M 28.315563313448806,37.37364754519899 L 28.36004638671875,37.349998474121094 L 28.575000762939453,37.24123001098633 L 28.912500381469727,37.1642951965332 L 29.25,37.10411071777344 L 29.4609375,37.01250076293945 L 29.587499618530273,36.94921875 L 29.924999237060547,36.722129821777344 L 29.967187881469727,36.67499923706055 L 29.924999237060547,36.63506317138672 L 29.587499618530273,36.466590881347656 L 29.396251678466797,36.337501525878906 L 29.25,36.2290153503418 L 28.960559432355364,36.10368766797478" fill="none" stroke="#000000" stroke-width="0.4"/>
  <path d="M 28.960559432355364,36.10368766797478 L 28.912500381469727,36.08287811279297 L 28.813865661621094,36.0 L 28.575000762939453,35.840003967285156 L 28.32742691040039,35.662498474121094 L 28.237499237060547,35.581138610839844 L 27.900001525878906,35.38745880126953 L 27.83273696899414,35.32500076293945 L 27.5625,35.12053680419922 L 27.413721084594727,34.98749923706055 L 27.225000381469727,34.82560348510742 L 27.029556274414062,34.650001525878906 L 26.887500762939453,34.51408767700195 L 26.671932220458984,34.3125 L 26.623456240062893,34.264496867334515" fill="none" stroke="#000000" stroke-width="0.4"/>
  <path d="M 26.623456240062893,34.264496867334515 L 26.331106185913086,33.974998474121094 L 25.875,33.491851806640625 L 25.702640533447266,33.29999923706055 L 25.537500381469727,33.105777740478516 L 25.404277801513672,32.962501525878906 L 25.200000762939453,32.68745040893555 L 25.146411895751953,32.625 L 24.946876525878906,32.287498474121094 L 24.862499237060547,32.186248779296875 L 24.7170109723154,31.980237010546933" fill="none" stroke="#000000" stroke-width="0.4"/>
  <path d="M 24.7170109723154,31.980237010546933 L 24.69565773010254,31.950000762939453 L 24.525001525878906,31.682687759399414 L 24.472126007080078,31.612499237060547 L 24.301040649414062,31.274999618530273 L 24.1875,31.087308883666992 L 24.093990325927734,30.9375 L 23.944110870361328,30.600000381469727 L 23.850000381469727,30.416484832763672 L 23.76895523071289,30.262500762939453 L 23.512500762939453,29.638858795166016 L 23.486820220947266,29.587499618530273 L 23.389593983970947,29.316747018567284" fill="none" stroke="#000000" stroke-width="0.4"/>
  <path d="M 23.389593983970947,29.316747018567284 L 23.365625381469727,29.25 L 23.174999237060547,28.64314842224121 L 23.14931869506836,28.575000762939453 L 23.045272827148438,28.237499237060547 L 22.96333122253418,27.900001525878906 L 22.907726287841797,27.5625 L 22.838817596435547,27.225000381469727 L 22.758289337158203,26.887500762939453 L 22.703556060791016,26.549999237060547 L 22.68950518504237,26.421144805331103" fill="none" stroke="#000000" stroke-width="0.4"/>
  <path d="M 22.68950518504237,26.421144805331103 L 22.6667537689209,26.212501525878906 L 22.636333465576172,25.875 L 22.619609832763672,25.537500381469727 L 22.610370635986328,25.200000762939453 L 22.603633880615234,24.862499237060547 L 22.60854721069336,24.525001525878906 L 22.634428024291992,23.850000381469727 L 22.65119171142578,23.512500762939453 L 22.658924822974395,23.440390801814655" fill="none" stroke="#000000" stroke-width="0.4"/>
  <path d="M 22.658924822974395,23.440390801814655 L 22.68738555908203,23.174999237060547 L 22.743133544921875,22.837501525878906 L 22.80670738220215,22.5 L 22.837501525878906,22.3681640625 L 22.88227081298828,22.162500381469727 L 22.94051742553711,21.825000762939453 L 23.01345443725586,21.487499237060547 L 23.10637664794922,21.150001525878906 L 23.21573257446289,20.8125 L 23.30047178923792,20.530529414280664" fill="none" stroke="#000000" stroke-width="0.4"/>
  <path d="M 23.30047178923792,20.530529414280664 L 23.31715965270996,20.475000381469727 L 23.440025329589844,20.137500762939453 L 23.70520782470703,19.462499618530273 L 23.850000381469727,19.157873153686523 L 23.86888885498047,19.125 L 24.1875,18.460681915283203 L 24.392627716064453,18.11250114440918 L 24.525001525878906,17.90395164489746 L 24.569105061285242,17.83737833846616" fill="none" stroke="#000000" stroke-width="0.4"/>
  <path d="M 24.569105061285242,17.83737833846616 L 24.610429763793945,17.774999618530273 L 24.79908561706543,17.4375 L 24.862499237060547,17.35383415222168 L 25.043376922607422,17.100000381469727 L 25.308120727539062,16.762500762939453 L 25.537500381469727,16.463232040405273 L 25.572708129882812,16.42500114440918 L 25.853906631469727,16.087499618530273 L 25.875,16.065601348876953 L 26.15817642211914,15.75 L 26.40458093575299,15.493771915904347" fill="none" stroke="#000000" stroke-width="0.4"/>
  <path d="M 26.40458093575299,15.493771915904347 L 26.482736587524414,15.412500381469727 L 26.549999237060547,15.345235824584961 L 26.887500762939453,15.03927993774414 L 27.23401641845703,14.73750114440918 L 27.5625,14.473505020141602 L 27.647472381591797,14.400001525878906 L 27.900001525878906,14.202188491821289 L 28.08905029296875,14.0625 L 28.237499237060547,13.93986701965332 L 28.575000762939453,13.743751525878906 L 28.595088958740234,13.725000381469727 L 28.731711534136885,13.637171641641531" fill="none" stroke="#000000" stroke-width="0.4"/>
  <path d="M 28.731711534136885,13.637171641641531 L 28.912500381469727,13.520950317382812 L 29.128665924072266,13.387500762939453 L 29.25,13.293388366699219 L 29.587499618530273,13.151065826416016 L 29.743379592895508,13.05000114440918 L 29.924999237060547,12.92683219909668 L 30.262500762939453,12.82352066040039 L 30.438282012939453,12.712501525878906 L 30.600000381469727,12.600326538085938 L 30.9375,12.510477066040039 L 31.274999618530273,12.381488800048828 L 31.283788681030273,12.375 L 31.385777671403165,12.328376782802804" fill="none" stroke="#000000" stroke-width="0.4"/>
  <path d="M 31.385777671403165,12.328376782802804 L 31.612499237060547,12.224733352661133 L 31.950000762939453,12.16091537475586 L 32.287498474121094,12.046518325805664 L 32.3056755065918,12.037500381469727 L 32.625,11.92530632019043 L 32.962501525878906,11.864404678344727 L 33.29999923706055,11.825523376464844 L 33.63750076293945,11.766862869262695 L 33.91727066040039,11.700000762939453 L 33.974998474121094,11.683629989624023 L 34.272514928869576,11.61855225842028" fill="none" stroke="#000000" stroke-width="0.4"/>
  <path d="M 34.272514928869576,11.61855225842028 L 34.3125,11.609806060791016 L 34.650001525878906,11.578737258911133 L 35.32500076293945,11.553951263427734 L 35.662498474121094,11.543407440185547 L 36.0,11.543407440185547 L 36.337501525878906,11.553951263427734 L 37.01250076293945,11.578737258911133 L 37.25321359888559,11.600896400031738" fill="none" stroke="#000000" stroke-width="0.4"/>
  <path d="M 37.25321359888559,11.600896400031738 L 37.349998474121094,11.609806060791016 L 37.6875,11.686044692993164 L 37.7376708984375,11.700000762939453 L 38.025001525878906,11.766862869262695 L 38.36249923706055,11.825523376464844 L 38.70000076293945,11.865114212036133 L 39.037498474121094,11.926528930664062 L 39.34687423706055,12.037500381469727 L 39.375,12.051456451416016 L 39.712501525878906,12.161975860595703 L 40.04999923706055,12.226533889770508 L 40.150605766151116,12.272966892354976" fill="none" stroke="#000000" stroke-width="0.4"/>
  <path d="M 40.150605766151116,12.272966892354976 L 40.371681213378906,12.375 L 40.38750076293945,12.386505126953125 L 40.724998474121094,12.511419296264648 L 41.0625,12.603597640991211 L 41.219905853271484,12.712501525878906 L 41.400001525878906,12.824705123901367 L 41.73749923706055,12.930023193359375 L 41.9149055480957,13.05000114440918 L 42.07500076293945,13.152355194091797 L 42.412498474121094,13.298742294311523 L 42.527366638183594,13.387500762939453 L 42.75,13.523366928100586 L 42.81467019672918,13.565816758445377" fill="none" stroke="#000000" stroke-width="0.4"/>
  <path d="M 42.81467019672918,13.565816758445377 L 43.05717849731445,13.725000381469727 L 43.087501525878906,13.752923965454102 L 43.42499923706055,13.946083068847656 L 43.56434631347656,14.0625 L 43.76250076293945,14.207813262939453 L 44.007843017578125,14.400001525878906 L 44.099998474121094,14.478275299072266 L 44.41874694824219,14.73750114440918 L 44.4375,14.756250381469727 L 44.775001525878906,15.048553466796875 L 45.11249923706055,15.351463317871094 L 45.160538627644655,15.399501207318071" fill="none" stroke="#000000" stroke-width="0.4"/>
  <path d="M 45.160538627644655,15.399501207318071 L 45.17353820800781,15.412500381469727 L 45.49771499633789,15.75 L 45.79900360107422,16.087499618530273 L 46.0789794921875,16.42500114440918 L 46.125,16.47601890563965 L 46.346290588378906,16.762500762939453 L 46.61015701293945,17.100000381469727 L 46.79999923706055,17.36801528930664 L 46.85439682006836,17.4375 L 47.01727038560144,17.727089919617995" fill="none" stroke="#000000" stroke-width="0.4"/>
  <path d="M 47.01727038560144,17.727089919617995 L 47.04421615600586,17.774999618530273 L 47.13750076293945,17.91803550720215 L 47.26050567626953,18.11250114440918 L 47.474998474121094,18.48164176940918 L 47.62419891357422,18.787500381469727 L 47.78214645385742,19.125 L 47.8125,19.179086685180664 L 47.949806213378906,19.462499618530273 L 48.0848503112793,19.80000114440918 L 48.2142333984375,20.137500762939453 L 48.31205010264904,20.408070910823138" fill="none" stroke="#000000" stroke-width="0.4"/>
  <path d="M 48.31205010264904,20.408070910823138 L 48.336246490478516,20.475000381469727 L 48.43687438964844,20.8125 L 48.54526138305664,21.150001525878906 L 48.639686584472656,21.487499237060547 L 48.714134216308594,21.825000762939453 L 48.77247619628906,22.162500381469727 L 48.82500076293945,22.41834831237793 L 48.844032287597656,22.5 L 48.907676696777344,22.837501525878906 L 48.966495513916016,23.174999237060547 L 48.981567633660255,23.312034559458258" fill="none" stroke="#000000" stroke-width="0.4"/>
  <path d="M 48.981567633660255,23.312034559458258 L 49.00361633300781,23.512500762939453 L 49.020748138427734,23.850000381469727 L 49.034061431884766,24.1875 L 49.04969024658203,24.525001525878906 L 49.0557746887207,24.862499237060547 L 49.037811279296875,25.537500381469727 L 49.01881790161133,25.875 L 48.98768615722656,26.212501525878906 L 48.97894714529682,26.29235760958683" fill="none" stroke="#000000" stroke-width="0.4"/>
  <path d="M 48.97894714529682,26.29235760958683 L 48.95075225830078,26.549999237060547 L 48.8936653137207,26.887500762939453 L 48.808631896972656,27.225000381469727 L 48.74672317504883,27.5625 L 48.690589904785156,27.900001525878906 L 48.60680389404297,28.237499237060547 L 48.503868103027344,28.575000762939453 L 48.48749923706055,28.61801528930664 L 48.39810562133789,28.912500381469727 L 48.305724637150874,29.193890900111548" fill="none" stroke="#000000" stroke-width="0.4"/>
  <path d="M 48.305724637150874,29.193890900111548 L 48.28730392456055,29.25 L 48.16395568847656,29.587499618530273 L 48.150001525878906,29.614402770996094 L 48.021671295166016,29.924999237060547 L 47.88737106323242,30.262500762939453 L 47.8125,30.402084350585938 L 47.71167755126953,30.600000381469727 L 47.55990982055664,30.9375 L 47.474998474121094,31.072158813476562 L 47.35403060913086,31.274999618530273 L 47.18026351928711,31.612499237060547 L 47.13750076293945,31.669780731201172 L 47.01097715075504,31.874079667385697" fill="none" stroke="#000000" stroke-width="0.4"/>
  <path d="M 47.01097715075504,31.874079667385697 L 46.963958740234375,31.950000762939453 L 46.79999923706055,32.177215576171875 L 46.709049224853516,32.287498474121094 L 46.50757598876953,32.625 L 46.462501525878906,32.67807388305664 L 46.25130844116211,32.962501525878906 L 46.125,33.09685516357422 L 45.95534896850586,33.29999923706055 L 45.787498474121094,33.486724853515625 L 45.323909759521484,33.974998474121094 L 45.124729742888164,34.175307009794885" fill="none" stroke="#000000" stroke-width="0.4"/>
  <path d="M 45.124729742888164,34.175307009794885 L 45.11249923706055,34.18760681152344 L 44.98545455932617,34.3125 L 44.775001525878906,34.509376525878906 L 44.628055572509766,34.650001525878906 L 44.4375,34.82217788696289 L 44.24247741699219,34.98749923706055 L 44.099998474121094,35.11542510986328 L 43.821563720703125,35.32500076293945 L 43.76250076293945,35.380123138427734 L 43.42499923706055,35.572303771972656 L 43.32374572753906,35.662498474121094 L 43.087501525878906,35.8360481262207 L 42.84215545654297,36.0 L 42.801916314038564,36.03417778644953" fill="none" stroke="#000000" stroke-width="0.4"/>
  <path d="M 42.801916314038564,36.03417778644953 L 42.75,36.07827377319336 L 42.412498474121094,36.225303649902344 L 42.258750915527344,36.337501525878906 L 42.07500076293945,36.463417053222656 L 41.73749923706055,36.63059616088867 L 41.690250396728516,36.67499923706055 L 41.73749923706055,36.72821044921875 L 42.07500076293945,36.95103454589844 L 42.195533752441406,37.01250076293945 L 42.412498474121094,37.10688781738281 L 42.75,37.16499328613281 L 43.087501525878906,37.24466323852539 L 43.228451552500765,37.31556190300203" fill="none" stroke="#000000" stroke-width="0.4"/>
  <path d="M 43.228451552500765,37.31556190300203 L 43.296913146972656,37.349998474121094 L 43.42499923706055,37.41686248779297 L 43.76250076293945,37.504825592041016 L 44.099998474121094,37.639808654785156 L 44.17929458618164,37.6875 L 44.4375,37.799705505371094 L 44.775001525878906,37.88666534423828 L 45.03363037109375,38.025001525878906 L 45.11249923706055,38.073699951171875 L 45.45000076293945,38.19188690185547 L 45.741329193115234,38.36249923706055 L 45.787498474121094,38.3969612121582 L 45.96654248689733,38.46213214811053" fill="none" stroke="#000000" stroke-width="0.4"/>
  <path d="M 45.96654248689733,38.46213214811053 L 46.125,38.51980972290039 L 46.44078063964844,38.70000076293945 L 46.462501525878906,38.71636962890625 L 46.79999923706055,38.86180114746094 L 47.076560974121094,39.037498474121094 L 47.13750076293945,39.08226776123047 L 47.474998474121094,39.259254455566406 L 47.65377426147461,39.375 L 47.8125,39.47099685668945 L 48.150001525878906,39.65774154663086 L 48.22875213623047,39.712501525878906 L 48.48749923706055,39.88020706176758 L 48.557314222050636,39.92976711634261" fill="none" stroke="#000000" stroke-width="0.4"/>
  <path d="M 48.557314222050636,39.92976711634261 L 48.7266845703125,40.04999923706055 L 48.82500076293945,40.124874114990234 L 49.162498474121094,40.33879852294922 L 49.22101593017578,40.38750076293945 L 49.5,40.58980178833008 L 49.682037353515625,40.724998474121094 L 49.837501525878906,40.8499641418457 L 50.117340087890625,41.0625 L 50.17499923706055,41.11300277709961 L 50.51250076293945,41.3676872253418 L 50.54481506347656,41.400001525878906 L 50.849998474121094,41.650184631347656 L 50.93565578203591,41.728867114727635" fill="none" stroke="#000000" stroke-width="0.4"/>
  <path d="M 50.93565578203591,41.728867114727635 L 50.94505310058594,41.73749923706055 L 51.1875,41.943443298339844 L 51.328941345214844,42.07500076293945 L 51.525001525878906,42.26136779785156 L 52.537498474121094,43.26719665527344 L 52.69196319580078,43.42499923706055 L 53.0013427734375,43.76250076293945 L 53.0572554095919,43.82644868146926" fill="none" stroke="#000000" stroke-width="0.4"/>
  <path d="M 53.0572554095919,43.82644868146926 L 53.212501525878906,44.004005432128906 L 53.30516815185547,44.099998474121094 L 53.54999923706055,44.392112731933594 L 53.59538650512695,44.4375 L 53.8537483215332,44.775001525878906 L 53.88749694824219,44.81297302246094 L 54.09526443481445,45.11249923706055 L 54.224998474121094,45.26622772216797 L 54.5625,45.71133041381836 L 54.634193420410156,45.787498474121094 L 54.83808517456055,46.125 L 54.88447825226765,46.17965070825949" fill="none" stroke="#000000" stroke-width="0.4"/>
  <path d="M 54.88447825226765,46.17965070825949 L 54.900001525878906,46.19793701171875 L 55.07343673706055,46.462501525878906 L 55.23749923706055,46.704559326171875 L 55.3131103515625,46.79999923706055 L 55.4793701171875,47.13750076293945 L 55.57499694824219,47.26789855957031 L 55.709800720214844,47.474998474121094 L 55.900634765625,47.8125 L 55.912498474121094,47.82831954956055 L 56.0899772644043,48.150001525878906 L 56.25,48.477569580078125 L 56.25653839111328,48.48749923706055 L 56.391410464427416,48.7492265535721" fill="none" stroke="#000000" stroke-width="0.4"/>
  <path d="M 56.391410464427416,48.7492265535721 L 56.430458068847656,48.82500076293945 L 56.587501525878906,49.1604118347168 L 56.77063751220703,49.5 L 56.899322509765625,49.837501525878906 L 56.92499923706055,49.884124755859375 L 57.06146240234375,50.17499923706055 L 57.16875457763672,50.51250076293945 L 57.26249694824219,50.73210144042969 L 57.323974609375,50.849998474121094 L 57.46339416503906,51.1875 L 57.54498584318937,51.49396326184124" fill="none" stroke="#000000" stroke-width="0.4"/>
  <path d="M 57.54498584318937,51.49396326184124 L 57.55324935913086,51.525001525878906 L 57.599998474121094,51.628265380859375 L 57.701904296875,51.86249923706055 L 57.79571533203125,52.19999694824219 L 57.859222412109375,52.537498474121094 L 57.9375,52.72581481933594 L 58.00849151611328,52.875 L 58.111549377441406,53.212501525878906 L 58.15592956542969,53.54999923706055 L 58.222129821777344,53.88749694824219 L 58.275001525878906,54.04612731933594 L 58.337547302246094,54.224998474121094 L 58.368753175164706,54.34875053152141" fill="none" stroke="#000000" stroke-width="0.4"/>
  <path d="M 58.368753175164706,54.34875053152141 L 58.42265319824219,54.5625 L 58.47093963623047,54.900001525878906 L 58.50389099121094,55.23749923706055 L 58.556251525878906,55.57499694824219 L 58.61249923706055,55.852622985839844 L 58.62699890136719,55.912498474121094 L 58.694679260253906,56.25 L 58.74164962768555,56.587501525878906 L 58.77960205078125,56.92499923706055 L 58.79941177368164,57.26249694824219 L 58.79996180824399,57.298252832055056" fill="none" stroke="#000000" stroke-width="0.4"/>
  <path d="M 58.79996180824399,57.298252832055056 L 58.804603576660156,57.599998474121094 L 58.806331634521484,57.9375 L 58.81357955932617,58.275001525878906 L 58.836029052734375,58.94999694824219 L 58.82765197753906,59.287498474121094 L 58.7559814453125,59.625 L 58.61249923706055,59.78099060058594 L 58.39720153808594,59.962501525878906 L 58.275001525878906,60.060935974121094" fill="none" stroke="#000000" stroke-width="0.4"/>
</svg>
