<?xml version="1.0" encoding="utf-8" ?>
<svg xmlns="http://www.w3.org/2000/svg" xmlns:ev="http://www.w3.org/2001/xml-events" xmlns:xlink="http://www.w3.org/1999/xlink" baseProfile="full" height="480" version="1.1" viewBox="0.0 0.0 72.0 72.0" width="480">
  <defs/>
  <path d="M 35.08642578125,40.38750076293945 L 34.98749923706055,40.408592224121094 L 34.650001525878906,40.44875717163086 L 34.3125,40.47187423706055 L 33.974998474121094,40.490074157714844 L 33.63750076293945,40.47578430175781 L 33.29999923706055,40.457523345947266 L 32.962501525878906,40.41981506347656 L 32.625,40.3530387878418 L 32.287498474121094,40.309226989746094 L 32.21298152670549,40.29361997929532" fill="none" stroke="#000000" stroke-width="0.4"/>
  <path d="M 32.21298152670549,40.29361997929532 L 31.950000762939453,40.23854064941406 L 31.612499237060547,40.136009216308594 L 31.340435028076172,40.04999923706055 L 30.9375,39.90672302246094 L 30.600000381469727,39.77057647705078 L 29.924999237060547,39.434879302978516 L 29.833106994628906,39.375 L 29.552363112520904,39.19902489425551" fill="none" stroke="#000000" stroke-width="0.4"/>
  <path d="M 29.552363112520904,39.19902489425551 L 29.29467010498047,39.037498474121094 L 29.25,39.003997802734375 L 28.912500381469727,38.78437423706055 L 28.816875457763672,38.70000076293945 L 28.575000762939453,38.497314453125 L 28.237499237060547,38.19756317138672 L 28.06094741821289,38.025001525878906 L 27.900001525878906,37.8649787902832 L 27.5625,37.51776885986328 L 27.41375732421875,37.349998474121094 L 27.37900702376527,37.308892109396034" fill="none" stroke="#000000" stroke-width="0.4"/>
  <path d="M 27.37900702376527,37.308892109396034 L 27.225000381469727,37.12671661376953 L 27.12264633178711,37.01250076293945 L 26.887500762939453,36.69375228881836 L 26.868749618530273,36.67499923706055 L 26.67861557006836,36.337501525878906 L 26.549999237060547,36.174530029296875 L 26.424476623535156,36.0 L 26.257099151611328,35.662498474121094 L 26.212501525878906,35.604148864746094 L 25.894775390625,34.98749923706055 L 25.875,34.957366943359375 L 25.84045866800163,34.87553655658932" fill="none" stroke="#000000" stroke-width="0.4"/>
  <path d="M 25.84045866800163,34.87553655658932 L 25.745258331298828,34.650001525878906 L 25.63125228881836,34.3125 L 25.537500381469727,34.133201599121094 L 25.460796356201172,33.974998474121094 L 25.39543914794922,33.63750076293945 L 25.293373107910156,33.29999923706055 L 25.200000762939453,33.0306510925293 L 25.174320220947266,32.962501525878906 L 25.10024070739746,32.625 L 25.059375762939453,32.287498474121094 L 25.036700552294636,32.11471887620714" fill="none" stroke="#000000" stroke-width="0.4"/>
  <path d="M 25.036700552294636,32.11471887620714 L 25.01508331298828,31.950000762939453 L 24.96879005432129,31.612499237060547 L 24.918750762939453,31.274999618530273 L 24.891250610351562,30.9375 L 24.8715877532959,30.600000381469727 L 24.85601043701172,30.262500762939453 L 24.869041442871094,29.924999237060547 L 24.891250610351562,29.587499618530273 L 24.9167423248291,29.25 L 24.919010731850676,29.2339152129978" fill="none" stroke="#000000" stroke-width="0.4"/>
  <path d="M 24.919010731850676,29.2339152129978 L 25.01193618774414,28.575000762939453 L 25.09636688232422,27.900001525878906 L 25.165538787841797,27.5625 L 25.200000762939453,27.468387603759766 L 25.284942626953125,27.225000381469727 L 25.384992599487305,26.887500762939453 L 25.451644897460938,26.549999237060547 L 25.51605470499818,26.415682043940652" fill="none" stroke="#000000" stroke-width="0.4"/>
  <path d="M 25.51605470499818,26.415682043940652 L 25.537500381469727,26.370960235595703 L 25.622425079345703,26.212501525878906 L 25.740169525146484,25.875 L 25.875,25.54779052734375 L 25.881643295288086,25.537500381469727 L 26.051660537719727,25.200000762939453 L 26.212501525878906,24.894245147705078 L 26.23607635498047,24.862499237060547 L 26.412403106689453,24.525001525878906 L 26.549999237060547,24.330570220947266 L 26.659687042236328,24.1875 L 26.850758966115826,23.86128157568235" fill="none" stroke="#000000" stroke-width="0.4"/>
  <path d="M 26.850758966115826,23.86128157568235 L 26.85736656188965,23.850000381469727 L 26.887500762939453,23.81678009033203 L 27.11087417602539,23.512500762939453 L 27.225000381469727,23.38174819946289 L 27.395593643188477,23.174999237060547 L 27.5625,22.985286712646484 L 27.703292846679688,22.837501525878906 L 28.032371520996094,22.5 L 28.237499237060547,22.303125381469727 L 28.400623321533203,22.162500381469727 L 28.575000762939453,22.00773048400879 L 28.80718994140625,21.825000762939453 L 28.85214450777034,21.78566500849427" fill="none" stroke="#000000" stroke-width="0.4"/>
  <path d="M 28.85214450777034,21.78566500849427 L 28.912500381469727,21.732852935791016 L 29.25,21.53026580810547 L 29.295242309570312,21.487499237060547 L 29.587499618530273,21.28483009338379 L 29.812973022460938,21.150001525878906 L 29.924999237060547,21.06399154663086 L 30.262500762939453,20.927040100097656 L 30.454727172851562,20.8125 L 30.600000381469727,20.71186065673828 L 30.9375,20.610475540161133 L 31.274999618530273,20.476318359375 L 31.383215096965408,20.431257269519964" fill="none" stroke="#000000" stroke-width="0.4"/>
  <path d="M 31.383215096965408,20.431257269519964 L 31.612499237060547,20.335783004760742 L 31.950000762939453,20.279403686523438 L 32.287498474121094,20.218860626220703 L 32.591251373291016,20.137500762939453 L 32.625,20.125905990600586 L 32.962501525878906,20.04572296142578 L 33.29999923706055,20.016460418701172 L 33.63750076293945,20.002666473388672 L 33.974998474121094,19.993425369262695 L 34.223408879598324,20.00245359968985" fill="none" stroke="#000000" stroke-width="0.4"/>
  <path d="M 34.223408879598324,20.00245359968985 L 34.3125,20.005691528320312 L 34.650001525878906,20.02170753479004 L 34.98749923706055,20.057785034179688 L 35.28968048095703,20.137500762939453 L 35.32500076293945,20.149005889892578 L 35.662498474121094,20.233251571655273 L 36.0,20.29031753540039 L 36.337501525878906,20.35788917541504 L 36.59885787963867,20.475000381469727 L 36.67499923706055,20.517765045166016 L 37.01250076293945,20.62710189819336 L 37.025723806052646,20.632443246568336" fill="none" stroke="#000000" stroke-width="0.4"/>
  <path d="M 37.025723806052646,20.632443246568336 L 37.349998474121094,20.763431549072266 L 37.41783142089844,20.8125 L 37.6875,20.944740295410156 L 38.025001525878906,21.127933502197266 L 38.05258560180664,21.150001525878906 L 38.36249923706055,21.31787109375 L 38.591861724853516,21.487499237060547 L 38.70000076293945,21.576263427734375 L 39.037498474121094,21.785961151123047 L 39.08003234863281,21.825000762939453 L 39.375,22.05907440185547 L 39.47052983762054,22.148438950814754" fill="none" stroke="#000000" stroke-width="0.4"/>
  <path d="M 39.47052983762054,22.148438950814754 L 39.48556137084961,22.162500381469727 L 39.712501525878906,22.3643798828125 L 39.84895706176758,22.5 L 40.18229293823242,22.837501525878906 L 40.494693756103516,23.174999237060547 L 40.724998474121094,23.475154876708984 L 40.760047912597656,23.512500762939453 L 40.975990295410156,23.850000381469727 L 41.0625,23.95595932006836 L 41.22751998901367,24.1875 L 41.32733060194963,24.350252114796913" fill="none" stroke="#000000" stroke-width="0.4"/>
  <path d="M 41.32733060194963,24.350252114796913 L 41.400001525878906,24.46875 L 41.44694519042969,24.525001525878906 L 41.612327575683594,24.862499237060547 L 41.73749923706055,25.075408935546875 L 41.826377868652344,25.200000762939453 L 41.95332336425781,25.537500381469727 L 42.07500076293945,25.809486389160156 L 42.116554260253906,25.875 L 42.263648986816406,26.212501525878906 L 42.34062576293945,26.549999237060547 L 42.50483322143555,26.887500762939453 L 42.5254752482621,26.964064396882314" fill="none" stroke="#000000" stroke-width="0.4"/>
  <path d="M 42.5254752482621,26.964064396882314 L 42.5958251953125,27.225000381469727 L 42.63431167602539,27.5625 L 42.72431945800781,27.900001525878906 L 42.75,27.96814727783203 L 42.83753967285156,28.237499237060547 L 42.887664794921875,28.575000762939453 L 42.919525146484375,28.912500381469727 L 42.936283111572266,29.25 L 42.94383239746094,29.587499618530273 L 42.95241905440254,29.809566731340254" fill="none" stroke="#000000" stroke-width="0.4"/>
  <path d="M 42.95241905440254,29.809566731340254 L 42.95688247680664,29.924999237060547 L 42.9630241394043,30.262500762939453 L 42.94383239746094,30.9375 L 42.936283111572266,31.274999618530273 L 42.920291900634766,31.612499237060547 L 42.88446044921875,31.950000762939453 L 42.832759857177734,32.287498474121094 L 42.75,32.54227828979492 L 42.71965026855469,32.625 L 42.70582355983625,32.67572583459757" fill="none" stroke="#000000" stroke-width="0.4"/>
  <path d="M 42.70582355983625,32.67572583459757 L 42.627655029296875,32.962501525878906 L 42.5860481262207,33.29999923706055 L 42.49850845336914,33.63750076293945 L 42.412498474121094,33.798118591308594 L 42.32664489746094,33.974998474121094 L 42.253028869628906,34.3125 L 42.104183197021484,34.650001525878906 L 42.07500076293945,34.694610595703125 L 41.803382873535156,35.32500076293945 L 41.760761164875014,35.386005258225126" fill="none" stroke="#000000" stroke-width="0.4"/>
  <path d="M 41.760761164875014,35.386005258225126 L 41.73749923706055,35.4193000793457 L 41.61029052734375,35.662498474121094 L 41.41687774658203,36.0 L 41.400001525878906,36.02238464355469 L 41.220458984375,36.337501525878906 L 40.964805603027344,36.67499923706055 L 40.724998474121094,37.00044631958008 L 40.713226318359375,37.01250076293945 L 40.465476989746094,37.349998474121094 L 40.38750076293945,37.43630599975586 L 40.17101287841797,37.6875 L 40.109325101626666,37.749334545951164" fill="none" stroke="#000000" stroke-width="0.4"/>
  <path d="M 40.109325101626666,37.749334545951164 L 39.834312438964844,38.025001525878906 L 39.712501525878906,38.142906188964844 L 39.375,38.444740295410156 L 39.05491256713867,38.70000076293945 L 39.037498474121094,38.71636962890625 L 38.70000076293945,38.94862365722656 L 38.58202362060547,39.037498474121094 L 38.36249923706055,39.18428421020508 L 38.05553436279297,39.375 L 38.025001525878906,39.39840316772461 L 37.82098701005111,39.49766637344425" fill="none" stroke="#000000" stroke-width="0.4"/>
  <path d="M 37.82098701005111,39.49766637344425 L 37.6875,39.56261444091797 L 37.403602600097656,39.712501525878906 L 37.349998474121094,39.74481201171875 L 37.01250076293945,39.87076950073242 L 36.67499923706055,40.00325393676758 L 36.53934097290039,40.04999923706055 L 36.337501525878906,40.11684036254883 L 36.0,40.21562576293945 L 35.662498474121094,40.296630859375 L 35.32500076293945,40.34075164794922 L 35.08642578125,40.38750076293945" fill="none" stroke="#000000" stroke-width="0.4"/>
  <path d="M 51.525001525878906,48.500484466552734 L 51.1875,48.733394622802734 L 50.849998474121094,48.730079650878906 L 50.51250076293945,48.73199462890625 L 48.97036616326184,48.73199462890625" fill="none" stroke="#000000" stroke-width="0.4"/>
  <path d="M 48.97036616326184,48.73199462890625 L 46.343144252612205,48.73199462890625" fill="none" stroke="#000000" stroke-width="0.4"/>
  <path d="M 46.343144252612205,48.73199462890625 L 43.715922341962575,48.73199462890625" fill="none" stroke="#000000" stroke-width="0.4"/>
  <path d="M 43.715922341962575,48.73199462890625 L 43.087501525878906,48.73199462890625 L 42.75,48.730079650878906 L 42.412498474121094,48.734806060791016 L 42.07500076293945,48.714195251464844 L 41.82578659057617,48.48749923706055 L 41.82298278808594,48.150001525878906 L 41.85116319496869,47.840052082996664" fill="none" stroke="#000000" stroke-width="0.4"/>
  <path d="M 41.85116319496869,47.840052082996664 L 41.853668212890625,47.8125 L 42.07500076293945,47.615440368652344 L 42.412498474121094,47.59394073486328 L 42.75,47.59950256347656 L 44.37748162024667,47.59950256347656" fill="none" stroke="#000000" stroke-width="0.4"/>
  <path d="M 44.37748162024667,47.59950256347656 L 46.79999923706055,47.59950256347656 L 47.00470353089631,47.59950256347656" fill="none" stroke="#000000" stroke-width="0.4"/>
  <path d="M 47.00470353089631,47.59950256347656 L 49.631925441545945,47.59950256347656" fill="none" stroke="#000000" stroke-width="0.4"/>
  <path d="M 49.631925441545945,47.59950256347656 L 50.849998474121094,47.59950256347656 L 51.1875,47.59465408325195 L 51.49736022949219,47.8125 L 51.53408432006836,48.150001525878906 L 51.53408432006836,48.48749923706055 L 51.525001525878906,48.500484466552734" fill="none" stroke="#000000" stroke-width="0.4"/>
  <path d="M 39.037498474121094,52.76953125 L 38.70000076293945,52.77672576904297 L 38.36249923706055,52.774742126464844 L 36.0876616737518,52.774820775096636" fill="none" stroke="#000000" stroke-width="0.4"/>
  <path d="M 36.0876616737518,52.774820775096636 L 33.137742369545514,52.774922763529084" fill="none" stroke="#000000" stroke-width="0.4"/>
  <path d="M 33.137742369545514,52.774922763529084 L 32.625,52.774940490722656 L 30.187823065339224,52.77502475196154" fill="none" stroke="#000000" stroke-width="0.4"/>
  <path d="M 30.187823065339224,52.77502475196154 L 27.237903761132934,52.77512674039399" fill="none" stroke="#000000" stroke-width="0.4"/>
  <path d="M 27.237903761132934,52.77512674039399 L 26.887500762939453,52.77513885498047 L 24.287984456809433,52.77522527214006" fill="none" stroke="#000000" stroke-width="0.4"/>
  <path d="M 24.287984456809433,52.77522527214006 L 21.338065152470133,52.775323337940506" fill="none" stroke="#000000" stroke-width="0.4"/>
  <path d="M 21.338065152470133,52.775323337940506 L 21.150001525878906,52.77532958984375 L 20.8125,52.773353576660156 L 20.475000381469727,52.778141021728516 L 20.137500762939453,52.546875 L 20.13096046447754,52.537498474121094 L 20.12100601196289,52.19999694824219 L 20.138818740844727,51.86249923706055 L 20.180267333984375,51.1875 L 20.213158704398282,50.8748623650623" fill="none" stroke="#000000" stroke-width="0.4"/>
  <path d="M 20.213158704398282,50.8748623650623 L 20.215774536132812,50.849998474121094 L 20.248519897460938,50.51250076293945 L 20.274856567382812,50.17499923706055 L 20.29763412475586,49.837501525878906 L 20.32744598388672,49.5 L 20.375328063964844,49.162498474121094 L 20.47101402282715,48.82500076293945 L 20.475000381469727,48.8162727355957 L 20.57863426208496,48.48749923706055 L 20.627788543701172,48.150001525878906 L 20.656081940445915,47.969027698262195" fill="none" stroke="#000000" stroke-width="0.4"/>
  <path d="M 20.656081940445915,47.969027698262195 L 20.680553436279297,47.8125 L 20.8125,47.47258758544922 L 20.931568145751953,47.13750076293945 L 20.995885848999023,46.79999923706055 L 21.14069938659668,46.462501525878906 L 21.150001525878906,46.447357177734375 L 21.27447509765625,46.125 L 21.371360778808594,45.787498474121094 L 21.574817657470703,45.45000076293945 L 21.646564264052987,45.20855119006912" fill="none" stroke="#000000" stroke-width="0.4"/>
  <path d="M 21.646564264052987,45.20855119006912 L 21.675106048583984,45.11249923706055 L 21.825000762939453,44.8663444519043 L 21.888416290283203,44.775001525878906 L 22.012176513671875,44.4375 L 22.162500381469727,44.20396041870117 L 22.234375,44.099998474121094 L 22.389293670654297,43.76250076293945 L 22.5,43.604488372802734 L 22.608482360839844,43.42499923706055 L 22.837501525878906,43.078617095947266 L 23.03140640258789,42.75 L 23.103526718361373,42.65928535702335" fill="none" stroke="#000000" stroke-width="0.4"/>
  <path d="M 23.103526718361373,42.65928535702335 L 23.174999237060547,42.56938552856445 L 23.291751861572266,42.412498474121094 L 23.512500762939453,42.131248474121094 L 23.565235137939453,42.07500076293945 L 23.809646606445312,41.73749923706055 L 23.850000381469727,41.692588806152344 L 24.091875076293945,41.400001525878906 L 24.396482467651367,41.0625 L 24.72594451904297,40.724998474121094 L 24.862499237060547,40.58662414550781 L 25.027694599589097,40.4302412195527" fill="none" stroke="#000000" stroke-width="0.4"/>
  <path d="M 25.027694599589097,40.4302412195527 L 25.072843551635742,40.38750076293945 L 25.200000762939453,40.26948547363281 L 25.454402923583984,40.04999923706055 L 25.537500381469727,39.97538375854492 L 25.875,39.711181640625 L 26.212501525878906,39.45570373535156 L 26.311689376831055,39.375 L 26.549999237060547,39.18693542480469 L 26.78183364868164,39.037498474121094 L 26.887500762939453,38.951194763183594 L 27.04880714416504,38.70000076293945 L 26.893157336474943,38.47639185403314" fill="none" stroke="#000000" stroke-width="0.4"/>
  <path d="M 26.893157336474943,38.47639185403314 L 26.887500762939453,38.468265533447266 L 26.79536247253418,38.36249923706055 L 26.483139038085938,38.025001525878906 L 26.212501525878906,37.67713928222656 L 25.98370361328125,37.349998474121094 L 25.875,37.21369934082031 L 25.736608505249023,37.01250076293945 L 25.537500381469727,36.718505859375 L 25.498828887939453,36.67499923706055 L 25.335601806640625,36.337501525878906 L 25.200000762939453,36.13409423828125 L 25.173347103870494,36.093162415494355" fill="none" stroke="#000000" stroke-width="0.4"/>
  <path d="M 25.173347103870494,36.093162415494355 L 25.112682342529297,36.0 L 24.97677993774414,35.662498474121094 L 24.862499237060547,35.464080810546875 L 24.785327911376953,35.32500076293945 L 24.673294067382812,34.98749923706055 L 24.525001525878906,34.66972351074219 L 24.513492584228516,34.650001525878906 L 24.410287857055664,34.3125 L 24.303245544433594,33.974998474121094 L 24.1875,33.63348388671875 L 24.115513133703526,33.352388485677835" fill="none" stroke="#000000" stroke-width="0.4"/>
  <path d="M 24.115513133703526,33.352388485677835 L 24.102096557617188,33.29999923706055 L 24.035316467285156,32.962501525878906 L 23.964279174804688,32.625 L 23.903953552246094,32.287498474121094 L 23.84607696533203,31.950000762939453 L 23.803253173828125,31.612499237060547 L 23.775117874145508,31.274999618530273 L 23.754619598388672,30.9375 L 23.742042541503906,30.600000381469727 L 23.739282216824005,30.433129465468944" fill="none" stroke="#000000" stroke-width="0.4"/>
  <path d="M 23.739282216824005,30.433129465468944 L 23.736459732055664,30.262500762939453 L 23.740623474121094,29.924999237060547 L 23.752525329589844,29.587499618530273 L 23.774425506591797,29.25 L 23.799373626708984,28.912500381469727 L 23.83849334716797,28.575000762939453 L 23.8947696685791,28.237499237060547 L 23.956409454345703,27.900001525878906 L 24.02496337890625,27.5625 L 24.037162673496038,27.50579098700173" fill="none" stroke="#000000" stroke-width="0.4"/>
  <path d="M 24.037162673496038,27.50579098700173 L 24.097566604614258,27.225000381469727 L 24.173542022705078,26.887500762939453 L 24.1875,26.852476119995117 L 24.290925979614258,26.549999237060547 L 24.394962310791016,26.212501525878906 L 24.490537643432617,25.875 L 24.525001525878906,25.813827514648438 L 24.658977508544922,25.537500381469727 L 24.772306442260742,25.200000762939453 L 24.862499237060547,25.027542114257812 L 24.957555770874023,24.862499237060547 L 25.010259931938435,24.735999813771656" fill="none" stroke="#000000" stroke-width="0.4"/>
  <path d="M 25.010259931938435,24.735999813771656 L 25.098169326782227,24.525001525878906 L 25.315460205078125,24.1875 L 25.474084854125977,23.850000381469727 L 25.537500381469727,23.76839256286621 L 25.706249237060547,23.512500762939453 L 25.875,23.28125 L 25.962997436523438,23.174999237060547 L 26.18909454345703,22.837501525878906 L 26.212501525878906,22.811641693115234 L 26.44957733154297,22.5 L 26.549999237060547,22.3901424407959 L 26.636316935164324,22.291080772378983" fill="none" stroke="#000000" stroke-width="0.4"/>
  <path d="M 26.636316935164324,22.291080772378983 L 26.748355865478516,22.162500381469727 L 27.074676513671875,21.825000762939453 L 27.225000381469727,21.675537109375 L 27.5625,21.354633331298828 L 27.809764862060547,21.150001525878906 L 27.900001525878906,21.065624237060547 L 28.237499237060547,20.835905075073242 L 28.26090431213379,20.8125 L 28.575000762939453,20.59069061279297 L 28.72265625,20.475000381469727 L 28.861144963384582,20.369220344345727" fill="none" stroke="#000000" stroke-width="0.4"/>
  <path d="M 28.861144963384582,20.369220344345727 L 28.912500381469727,20.329994201660156 L 29.25,20.151458740234375 L 29.265216827392578,20.137500762939453 L 29.587499618530273,19.957963943481445 L 29.885723114013672,19.80000114440918 L 29.924999237060547,19.76768684387207 L 30.262500762939453,19.630491256713867 L 30.600000381469727,19.50726890563965 L 30.668554306030273,19.462499618530273 L 30.9375,19.3359375 L 31.274999618530273,19.27353286743164 L 31.543365074104898,19.194944969295417" fill="none" stroke="#000000" stroke-width="0.4"/>
  <path d="M 31.543365074104898,19.194944969295417 L 31.612499237060547,19.174699783325195 L 31.733436584472656,19.125 L 31.950000762939453,19.04672622680664 L 32.287498474121094,18.983991622924805 L 32.625,18.959888458251953 L 32.962501525878906,18.931310653686523 L 33.29999923706055,18.90645408630371 L 33.63750076293945,18.889921188354492 L 33.974998474121094,18.885772705078125 L 34.3125,18.902175903320312 L 34.457053654602745,18.90998822338771" fill="none" stroke="#000000" stroke-width="0.4"/>
  <path d="M 34.457053654602745,18.90998822338771 L 34.98749923706055,18.938655853271484 L 35.662498474121094,19.000524520874023 L 36.0,19.068750381469727 L 36.122947692871094,19.125 L 36.337501525878906,19.213869094848633 L 36.67499923706055,19.291568756103516 L 37.01250076293945,19.360143661499023 L 37.190895080566406,19.462499618530273 L 37.305033224106666,19.530209962266362" fill="none" stroke="#000000" stroke-width="0.4"/>
  <path d="M 37.305033224106666,19.530209962266362 L 37.349998474121094,19.556884765625 L 37.6875,19.650253295898438 L 37.9692268371582,19.80000114440918 L 38.025001525878906,19.844770431518555 L 38.36249923706055,19.986345291137695 L 38.59874725341797,20.137500762939453 L 38.70000076293945,20.218860626220703 L 39.037498474121094,20.37957763671875 L 39.152008056640625,20.475000381469727 L 39.375,20.632671356201172 L 39.62055969238281,20.8125 L 39.712501525878906,20.8923282623291 L 39.83789058124771,20.989187020134374" fill="none" stroke="#000000" stroke-width="0.4"/>
  <path d="M 39.83789058124771,20.989187020134374 L 40.04607391357422,21.150001525878906 L 40.38750076293945,21.431251525878906 L 40.787986755371094,21.825000762939453 L 41.11396408081055,22.162500381469727 L 41.38849639892578,22.5 L 41.400001525878906,22.512149810791016 L 41.647979736328125,22.837501525878906 L 41.73749923706055,22.945451736450195 L 41.8647299496814,23.115714702171037" fill="none" stroke="#000000" stroke-width="0.4"/>
  <path d="M 41.8647299496814,23.115714702171037 L 41.90903091430664,23.174999237060547 L 42.07500076293945,23.409156799316406 L 42.158843994140625,23.512500762939453 L 42.334224700927734,23.850000381469727 L 42.412498474121094,23.948436737060547 L 42.571075439453125,24.1875 L 42.71768569946289,24.525001525878906 L 42.75,24.562654495239258 L 42.92195129394531,24.862499237060547 L 43.03497314453125,25.200000762939453 L 43.087501525878906,25.26837158203125 L 43.23545455932617,25.537500381469727 L 43.272026167382194,25.68332120103549" fill="none" stroke="#000000" stroke-width="0.4"/>
  <path d="M 43.272026167382194,25.68332120103549 L 43.320098876953125,25.875 L 43.42499923706055,26.10065269470215 L 43.48786544799805,26.212501525878906 L 43.58708953857422,26.549999237060547 L 43.65388870239258,26.887500762939453 L 43.763816833496094,27.225000381469727 L 43.86988830566406,27.5625 L 43.92491912841797,27.900001525878906 L 43.954811096191406,28.237499237060547 L 43.9870690605354,28.5255193336768" fill="none" stroke="#000000" stroke-width="0.4"/>
  <path d="M 43.9870690605354,28.5255193336768 L 43.992610931396484,28.575000762939453 L 44.10392379760742,29.25 L 44.15252685546875,29.924999237060547 L 44.16686248779297,30.262500762939453 L 44.161659240722656,30.600000381469727 L 44.14073181152344,30.9375 L 44.09868240356445,31.274999618530273 L 44.06983609637789,31.458408440583497" fill="none" stroke="#000000" stroke-width="0.4"/>
  <path d="M 44.06983609637789,31.458408440583497 L 44.04560089111328,31.612499237060547 L 43.998374938964844,31.950000762939453 L 43.95546340942383,32.287498474121094 L 43.922630310058594,32.625 L 43.87110900878906,32.962501525878906 L 43.76250076293945,33.29723358154297 L 43.641239166259766,33.63750076293945 L 43.58305740356445,33.974998474121094 L 43.48345184326172,34.3125 L 43.47020995176954,34.33360510174392" fill="none" stroke="#000000" stroke-width="0.4"/>
  <path d="M 43.47020995176954,34.33360510174392 L 43.42499923706055,34.405662536621094 L 43.305931091308594,34.650001525878906 L 43.22770690917969,34.98749923706055 L 43.087501525878906,35.24138259887695 L 43.02762222290039,35.32500076293945 L 42.910675048828125,35.662498474121094 L 42.75,35.9377555847168 L 42.699371337890625,36.0 L 42.55827713012695,36.337501525878906 L 42.412498474121094,36.542232513427734 L 42.31106185913086,36.67499923706055 L 42.16902677376309,36.954333536809976" fill="none" stroke="#000000" stroke-width="0.4"/>
  <path d="M 42.16902677376309,36.954333536809976 L 42.13945007324219,37.01250076293945 L 42.07500076293945,37.08675003051758 L 41.9008903503418,37.349998474121094 L 41.73749923706055,37.55052947998047 L 41.616966247558594,37.6875 L 41.400001525878906,37.96668243408203 L 41.34492492675781,38.025001525878906 L 41.0625,38.36947250366211 L 40.84031295776367,38.70000076293945 L 41.0625,39.02515411376953 L 41.07696533203125,39.037498474121094 L 41.35841565126276,39.226937850795686" fill="none" stroke="#000000" stroke-width="0.4"/>
  <path d="M 41.35841565126276,39.226937850795686 L 41.400001525878906,39.25492858886719 L 41.55105972290039,39.375 L 41.73749923706055,39.5168342590332 L 41.990623474121094,39.712501525878906 L 42.07500076293945,39.78290557861328 L 42.4083137512207,40.04999923706055 L 42.75,40.34473419189453 L 43.087501525878906,40.665771484375 L 43.48125076293945,41.0625 L 43.574386263412414,41.16651192000248" fill="none" stroke="#000000" stroke-width="0.4"/>
  <path d="M 43.574386263412414,41.16651192000248 L 43.76250076293945,41.37659454345703 L 43.78590393066406,41.400001525878906 L 44.054298400878906,41.73749923706055 L 44.099998474121094,41.786983489990234 L 44.317649841308594,42.07500076293945 L 44.4375,42.21286392211914 L 44.775001525878906,42.64963150024414 L 44.863765716552734,42.75 L 45.05474090576172,43.087501525878906 L 45.11249923706055,43.15690612792969 L 45.27789306640625,43.42499923706055 L 45.34183182447384,43.51880782698289" fill="none" stroke="#000000" stroke-width="0.4"/>
  <path d="M 45.34183182447384,43.51880782698289 L 45.45000076293945,43.67750930786133 L 45.521873474121094,43.76250076293945 L 45.6654052734375,44.099998474121094 L 45.787498474121094,44.264732360839844 L 45.90453338623047,44.4375 L 45.985694885253906,44.775001525878906 L 45.787498474121094,44.91299819946289 L 45.45000076293945,44.927818298339844 L 45.11249923706055,44.929264068603516 L 44.775001525878906,44.800682067871094 L 44.748748779296875,44.775001525878906 L 44.65454680850206,44.59378685454258" fill="none" stroke="#000000" stroke-width="0.4"/>
  <path d="M 44.65454680850206,44.59378685454258 L 44.57330322265625,44.4375 L 44.4375,44.23944854736328 L 44.32836151123047,44.099998474121094 L 44.161659240722656,43.76250076293945 L 44.099998474121094,43.69476318359375 L 43.91583251953125,43.42499923706055 L 43.76250076293945,43.22690200805664 L 43.64311981201172,43.087501525878906 L 43.42499923706055,42.77918243408203 L 43.39707946777344,42.75 L 43.1577262878418,42.412498474121094 L 43.087501525878906,42.33811569213867 L 42.960863109280055,42.191485540275494" fill="none" stroke="#000000" stroke-width="0.4"/>
  <path d="M 42.960863109280055,42.191485540275494 L 42.860260009765625,42.07500076293945 L 42.54120635986328,41.73749923706055 L 42.412498474121094,41.60505294799805 L 42.07500076293945,41.2714729309082 L 41.84750747680664,41.0625 L 41.73749923706055,40.957794189453125 L 41.45948791503906,40.724998474121094 L 41.400001525878906,40.67060089111328 L 41.0625,40.423221588134766 L 41.01919174194336,40.38750076293945 L 40.77973818791001,40.21732390004849" fill="none" stroke="#000000" stroke-width="0.4"/>
  <path d="M 40.77973818791001,40.21732390004849 L 40.724998474121094,40.17842102050781 L 40.38750076293945,39.930206298828125 L 40.06976318359375,39.712501525878906 L 40.04999923706055,39.696128845214844 L 39.712501525878906,39.6522331237793 L 39.626564025878906,39.712501525878906 L 39.11793518066406,40.04999923706055 L 39.037498474121094,40.10814666748047 L 38.70000076293945,40.303123474121094 L 38.55099868774414,40.38750076293945 L 38.36249923706055,40.50181198120117 L 38.256736308539864,40.55080054054445" fill="none" stroke="#000000" stroke-width="0.4"/>
  <path d="M 38.256736308539864,40.55080054054445 L 38.025001525878906,40.658138275146484 L 37.89375305175781,40.724998474121094 L 37.6875,40.834190368652344 L 37.349998474121094,40.962745666503906 L 37.076419830322266,41.0625 L 37.01250076293945,41.09375 L 36.67499923706055,41.22335433959961 L 36.0,41.361328125 L 35.662498474121094,41.47148513793945 L 35.481061648706465,41.506832024818465" fill="none" stroke="#000000" stroke-width="0.4"/>
  <path d="M 35.481061648706465,41.506832024818465 L 35.32500076293945,41.537235260009766 L 34.98749923706055,41.577003479003906 L 34.650001525878906,41.60163116455078 L 34.3125,41.61408615112305 L 33.974998474121094,41.61623764038086 L 33.63750076293945,41.61515426635742 L 33.29999923706055,41.60472869873047 L 32.962501525878906,41.584171295166016 L 32.625,41.54790496826172 L 32.54151827246566,41.533451308402654" fill="none" stroke="#000000" stroke-width="0.4"/>
  <path d="M 32.54151827246566,41.533451308402654 L 32.287498474121094,41.489471435546875 L 31.997692108154297,41.400001525878906 L 31.950000762939453,41.383628845214844 L 31.612499237060547,41.30289840698242 L 31.274999618530273,41.244598388671875 L 30.9375,41.123538970947266 L 30.80904769897461,41.0625 L 30.600000381469727,40.97962188720703 L 30.262500762939453,40.87187576293945 L 29.992116928100586,40.724998474121094 L 29.924999237060547,40.684268951416016 L 29.756120266451248,40.6144752766845" fill="none" stroke="#000000" stroke-width="0.4"/>
  <path d="M 29.756120266451248,40.6144752766845 L 29.587499618530273,40.5447883605957 L 29.32748794555664,40.38750076293945 L 29.25,40.33687210083008 L 28.912500381469727,40.1484375 L 28.770313262939453,40.04999923706055 L 28.575000762939453,39.91897964477539 L 28.28592300415039,39.712501525878906 L 28.237499237060547,39.673828125 L 27.900001525878906,39.66773223876953 L 27.8348388671875,39.712501525878906 L 27.5625,39.88334274291992 L 27.316343307495117,40.04999923706055 L 27.225000381469727,40.11549758911133 L 27.2156470169706,40.12196402135323" fill="none" stroke="#000000" stroke-width="0.4"/>
  <path d="M 27.2156470169706,40.12196402135323 L 26.887500762939453,40.34882736206055 L 26.843650817871094,40.38750076293945 L 26.549999237060547,40.61490249633789 L 26.212501525878906,40.90312576293945 L 26.030677795410156,41.0625 L 25.875,41.20420837402344 L 25.671375274658203,41.400001525878906 L 25.537500381469727,41.53211212158203 L 25.334781646728516,41.73749923706055 L 25.200000762939453,41.87966537475586 L 25.021757125854492,42.07500076293945 L 25.018118476885114,42.07912971023757" fill="none" stroke="#000000" stroke-width="0.4"/>
  <path d="M 25.018118476885114,42.07912971023757 L 24.862499237060547,42.25571823120117 L 24.726879119873047,42.412498474121094 L 24.525001525878906,42.66178894042969 L 24.451305389404297,42.75 L 24.19918441772461,43.087501525878906 L 24.1875,43.1011848449707 L 23.728126525878906,43.76250076293945 L 23.528871536254883,44.099998474121094 L 23.512500762939453,44.1219367980957 L 23.321250915527344,44.4375 L 23.30301626391178,44.47168967451903" fill="none" stroke="#000000" stroke-width="0.4"/>
  <path d="M 23.30301626391178,44.47168967451903 L 23.174999237060547,44.71171951293945 L 23.13550567626953,44.775001525878906 L 22.961048126220703,45.11249923706055 L 22.837501525878906,45.36874771118164 L 22.791152954101562,45.45000076293945 L 22.63637351989746,45.787498474121094 L 22.509017944335938,46.125 L 22.5,46.138580322265625 L 22.339879989624023,46.462501525878906 L 22.248355865478516,46.79999923706055 L 22.162500381469727,47.01277160644531 L 22.10189437866211,47.13750076293945 L 22.096029701079555,47.15439366932921" fill="none" stroke="#000000" stroke-width="0.4"/>
  <path d="M 22.096029701079555,47.15439366932921 L 21.984725952148438,47.474998474121094 L 21.922101974487305,47.8125 L 21.825000762939453,48.12287902832031 L 21.812946319580078,48.150001525878906 L 21.69792938232422,48.48749923706055 L 21.632259368896484,48.82500076293945 L 21.602039337158203,49.162498474121094 L 21.540374755859375,49.5 L 21.487499237060547,49.703369140625 L 21.448749542236328,49.837501525878906 L 21.418453507326547,50.01525152399377" fill="none" stroke="#000000" stroke-width="0.4"/>
  <path d="M 21.418453507326547,50.01525152399377 L 21.391225814819336,50.17499923706055 L 21.3481388092041,50.51250076293945 L 21.32221221923828,50.849998474121094 L 21.303335189819336,51.1875 L 21.326047897338867,51.525001525878906 L 21.487499237060547,51.667232513427734 L 21.825000762939453,51.666297912597656 L 22.5,51.669071197509766 L 22.70516781695198,51.669071342445484" fill="none" stroke="#000000" stroke-width="0.4"/>
  <path d="M 22.70516781695198,51.669071342445484 L 25.655087122920577,51.669073426342884" fill="none" stroke="#000000" stroke-width="0.4"/>
  <path d="M 25.655087122920577,51.669073426342884 L 27.900001525878906,51.66907501220703 L 28.60500642888933,51.66907501220703" fill="none" stroke="#000000" stroke-width="0.4"/>
  <path d="M 28.60500642888933,51.66907501220703 L 31.554925734858664,51.66907501220703" fill="none" stroke="#000000" stroke-width="0.4"/>
  <path d="M 31.554925734858664,51.66907501220703 L 33.30000305175781,51.66907501220703 L 34.504845040827696,51.66907416107566" fill="none" stroke="#000000" stroke-width="0.4"/>
  <path d="M 34.504845040827696,51.66907416107566 L 37.454764346796274,51.66907207717679" fill="none" stroke="#000000" stroke-width="0.4"/>
  <path d="M 37.454764346796274,51.66907207717679 L 38.70000076293945,51.669071197509766 L 39.037498474121094,51.67346954345703 L 39.31245422363281,51.86249923706055 L 39.32437515258789,52.19999694824219 L 39.310096740722656,52.537498474121094 L 39.037498474121094,52.76953125" fill="none" stroke="#000000" stroke-width="0.4"/>
</svg>
