<?xml version="1.0" encoding="utf-8" ?>
<svg xmlns="http://www.w3.org/2000/svg" xmlns:ev="http://www.w3.org/2001/xml-events" xmlns:xlink="http://www.w3.org/1999/xlink" baseProfile="full" height="480" version="1.1" viewBox="0.0 0.0 72.0 72.0" width="480">
  <defs/>
  <path d="M 51.1875,53.11534118652344 L 50.849998474121094,53.109825134277344 L 50.51250076293945,53.112464904785156 L 48.23998573271208,53.112464904785156" fill="none" stroke="#000000" stroke-width="0.4"/>
  <path d="M 48.23998573271208,53.112464904785156 L 45.29241606839866,53.112464904785156" fill="none" stroke="#000000" stroke-width="0.4"/>
  <path d="M 45.29241606839866,53.112464904785156 L 43.171875,53.112464904785156 L 42.34484640408523,53.112464904785156" fill="none" stroke="#000000" stroke-width="0.4"/>
  <path d="M 42.34484640408523,53.112464904785156 L 39.397276739771804,53.112464904785156" fill="none" stroke="#000000" stroke-width="0.4"/>
  <path d="M 39.397276739771804,53.112464904785156 L 36.44970707545838,53.112464904785156" fill="none" stroke="#000000" stroke-width="0.4"/>
  <path d="M 36.44970707545838,53.112464904785156 L 35.83125305175781,53.112464904785156 L 33.50213741114495,53.112464904785156" fill="none" stroke="#000000" stroke-width="0.4"/>
  <path d="M 33.50213741114495,53.112464904785156 L 30.554567746831523,53.112464904785156" fill="none" stroke="#000000" stroke-width="0.4"/>
  <path d="M 30.554567746831523,53.112464904785156 L 28.49062728881836,53.112464904785156 L 27.606998082518096,53.112464904785156" fill="none" stroke="#000000" stroke-width="0.4"/>
  <path d="M 27.606998082518096,53.112464904785156 L 24.65942841820467,53.112464904785156" fill="none" stroke="#000000" stroke-width="0.4"/>
  <path d="M 24.65942841820467,53.112464904785156 L 21.711858753891242,53.112464904785156" fill="none" stroke="#000000" stroke-width="0.4"/>
  <path d="M 21.711858753891242,53.112464904785156 L 21.150001525878906,53.112464904785156 L 20.8125,53.109825134277344 L 20.475000381469727,53.11534118652344 L 20.1897029876709,52.875 L 20.184246063232422,52.537498474121094 L 20.261407004315817,51.540408883126716" fill="none" stroke="#000000" stroke-width="0.4"/>
  <path d="M 20.261407004315817,51.540408883126716 L 20.28871726989746,51.1875 L 20.306991577148438,50.849998474121094 L 20.345125198364258,50.51250076293945 L 20.411300659179688,50.17499923706055 L 20.527875900268555,49.837501525878906 L 20.604618072509766,49.5 L 20.644508361816406,49.162498474121094 L 20.73302459716797,48.82500076293945 L 20.810615167091402,48.66247916934779" fill="none" stroke="#000000" stroke-width="0.4"/>
  <path d="M 20.810615167091402,48.66247916934779 L 20.8125,48.658531188964844 L 20.889205932617188,48.48749923706055 L 20.965835571289062,48.150001525878906 L 21.056133270263672,47.8125 L 21.150001525878906,47.65272521972656 L 21.244384765625,47.474998474121094 L 21.329242706298828,47.13750076293945 L 21.487499237060547,46.843807220458984 L 21.519813537597656,46.79999923706055 L 21.639375686645508,46.462501525878906 L 21.81825065612793,46.125 L 21.825000762939453,46.11518859863281 L 21.904007047421533,45.94706955061132" fill="none" stroke="#000000" stroke-width="0.4"/>
  <path d="M 21.904007047421533,45.94706955061132 L 21.97899627685547,45.787498474121094 L 22.162500381469727,45.47941589355469 L 22.18590545654297,45.45000076293945 L 22.352344512939453,45.11249923706055 L 22.58135986328125,44.775001525878906 L 22.78125,44.4375 L 22.837501525878906,44.36164093017578 L 23.012462615966797,44.099998474121094 L 23.263439178466797,43.76250076293945 L 23.488683284832423,43.47039065458917" fill="none" stroke="#000000" stroke-width="0.4"/>
  <path d="M 23.488683284832423,43.47039065458917 L 23.512500762939453,43.43950271606445 L 23.526561737060547,43.42499923706055 L 23.785446166992188,43.087501525878906 L 23.850000381469727,43.01517868041992 L 24.076082229614258,42.75 L 24.38204574584961,42.412498474121094 L 24.70899200439453,42.07500076293945 L 24.862499237060547,41.9224739074707 L 25.05360221862793,41.73749923706055 L 25.200000762939453,41.600196838378906 L 25.419260025024414,41.400001525878906 L 25.502796225688332,41.325124565527716" fill="none" stroke="#000000" stroke-width="0.4"/>
  <path d="M 25.502796225688332,41.325124565527716 L 25.537500381469727,41.29401779174805 L 25.81263542175293,41.0625 L 25.875,41.006248474121094 L 26.212501525878906,40.74875259399414 L 26.24013900756836,40.724998474121094 L 26.549999237060547,40.493106842041016 L 26.692337036132812,40.38750076293945 L 26.887500762939453,40.250648498535156 L 27.18395233154297,40.04999923706055 L 27.225000381469727,40.01768493652344 L 27.727840423583984,39.712501525878906 L 27.893123673075355,39.60827979992501" fill="none" stroke="#000000" stroke-width="0.4"/>
  <path d="M 27.893123673075355,39.60827979992501 L 27.900001525878906,39.60394287109375 L 28.237499237060547,39.42939758300781 L 28.325464248657227,39.375 L 28.575000762939453,39.22840118408203 L 28.912500381469727,39.08812713623047 L 28.995040893554688,39.037498474121094 L 29.25,38.88904571533203 L 29.587499618530273,38.78437423706055 L 29.78952407836914,38.70000076293945 L 29.800710678100586,38.36249923706055 L 29.587499618530273,38.18267059326172 L 29.40284571863053,38.06236708066872" fill="none" stroke="#000000" stroke-width="0.4"/>
  <path d="M 29.40284571863053,38.06236708066872 L 29.34549331665039,38.025001525878906 L 29.25,37.94176483154297 L 28.912500381469727,37.701454162597656 L 28.898544311523438,37.6875 L 28.575000762939453,37.421875 L 28.502227783203125,37.349998474121094 L 28.237499237060547,37.10084533691406 L 28.149154663085938,37.01250076293945 L 27.820171356201172,36.67499923706055 L 27.5625,36.374080657958984 L 27.52591896057129,36.337501525878906 L 27.30210282553564,36.01835011713623" fill="none" stroke="#000000" stroke-width="0.4"/>
  <path d="M 27.30210282553564,36.01835011713623 L 27.289234161376953,36.0 L 27.225000381469727,35.92988586425781 L 27.032264709472656,35.662498474121094 L 26.763294219970703,35.32500076293945 L 26.566875457763672,34.98749923706055 L 26.549999237060547,34.96755599975586 L 26.38043212890625,34.650001525878906 L 26.212501525878906,34.379737854003906 L 26.15625,34.3125 L 26.037784576416016,33.974998474121094 L 25.875,33.68722152709961 L 25.836328506469727,33.63750076293945 L 25.7960624905945,33.508520639895174" fill="none" stroke="#000000" stroke-width="0.4"/>
  <path d="M 25.7960624905945,33.508520639895174 L 25.73096466064453,33.29999923706055 L 25.61441421508789,32.962501525878906 L 25.537500381469727,32.807621002197266 L 25.457672119140625,32.625 L 25.393978118896484,32.287498474121094 L 25.319931030273438,31.950000762939453 L 25.219470977783203,31.612499237060547 L 25.200000762939453,31.552230834960938 L 25.1276798248291,31.274999618530273 L 25.09139060974121,30.9375 L 25.07477537929317,30.668587973832455" fill="none" stroke="#000000" stroke-width="0.4"/>
  <path d="M 25.07477537929317,30.668587973832455 L 25.070537567138672,30.600000381469727 L 25.044597625732422,30.262500762939453 L 25.026344299316406,29.924999237060547 L 25.017269134521484,29.587499618530273 L 25.017105102539062,29.25 L 25.026344299316406,28.912500381469727 L 25.043575286865234,28.575000762939453 L 25.068748474121094,28.237499237060547 L 25.090179443359375,27.900001525878906 L 25.108086710037117,27.725861328907413" fill="none" stroke="#000000" stroke-width="0.4"/>
  <path d="M 25.108086710037117,27.725861328907413 L 25.12488555908203,27.5625 L 25.200000762939453,27.262042999267578 L 25.314281463623047,26.887500762939453 L 25.389179229736328,26.549999237060547 L 25.44730567932129,26.212501525878906 L 25.537500381469727,26.006004333496094 L 25.605693817138672,25.875 L 25.719432830810547,25.537500381469727 L 25.818750381469727,25.200000762939453 L 25.875,25.11956787109375 L 25.981648855118134,24.933184061509827" fill="none" stroke="#000000" stroke-width="0.4"/>
  <path d="M 25.981648855118134,24.933184061509827 L 26.0220947265625,24.862499237060547 L 26.13579559326172,24.525001525878906 L 26.212501525878906,24.422103881835938 L 26.362014770507812,24.1875 L 26.533628463745117,23.850000381469727 L 26.549999237060547,23.831565856933594 L 26.746728897094727,23.512500762939453 L 26.887500762939453,23.32892608642578 L 27.008033752441406,23.174999237060547 L 27.225000381469727,22.873483657836914 L 27.259464263916016,22.837501525878906 L 27.505504608154297,22.5 L 27.545832534410533,22.45619152619625" fill="none" stroke="#000000" stroke-width="0.4"/>
  <path d="M 27.545832534410533,22.45619152619625 L 27.5625,22.438085556030273 L 27.79895782470703,22.162500381469727 L 27.900001525878906,22.056211471557617 L 28.125356674194336,21.825000762939453 L 28.237499237060547,21.712142944335938 L 28.575000762939453,21.392168045043945 L 28.866357803344727,21.150001525878906 L 28.912500381469727,21.107200622558594 L 29.25,20.86502456665039 L 29.3035888671875,20.8125 L 29.731237868391354,20.492843991956903" fill="none" stroke="#000000" stroke-width="0.4"/>
  <path d="M 29.731237868391354,20.492843991956903 L 29.755109786987305,20.475000381469727 L 29.924999237060547,20.34125518798828 L 30.262500762939453,20.160903930664062 L 30.288150787353516,20.137500762939453 L 30.863250732421875,19.80000114440918 L 30.9375,19.740121841430664 L 31.274999618530273,19.61328125 L 31.576560974121094,19.462499618530273 L 31.612499237060547,19.43457794189453 L 31.950000762939453,19.305967330932617 L 32.287498474121094,19.21820640563965 L 32.34831335290723,19.185941333383596" fill="none" stroke="#000000" stroke-width="0.4"/>
  <path d="M 32.34831335290723,19.185941333383596 L 32.625,19.039146423339844 L 32.962501525878906,18.97098731994629 L 33.29999923706055,18.91670036315918 L 33.63750076293945,18.821001052856445 L 33.734439849853516,18.787500381469727 L 33.974998474121094,18.717275619506836 L 34.3125,18.664085388183594 L 34.650001525878906,18.637910842895508 L 34.98749923706055,18.62845802307129 L 35.21373381307943,18.619308811856744" fill="none" stroke="#000000" stroke-width="0.4"/>
  <path d="M 35.21373381307943,18.619308811856744 L 35.32500076293945,18.614809036254883 L 35.662498474121094,18.607336044311523 L 36.0,18.607336044311523 L 36.337501525878906,18.613178253173828 L 36.67499923706055,18.626964569091797 L 37.01250076293945,18.637910842895508 L 37.349998474121094,18.66302490234375 L 37.6875,18.7139949798584 L 37.942420959472656,18.787500381469727 L 38.025001525878906,18.81624984741211 L 38.136102203565095,18.848228352804913" fill="none" stroke="#000000" stroke-width="0.4"/>
  <path d="M 38.136102203565095,18.848228352804913 L 38.36249923706055,18.913393020629883 L 38.70000076293945,18.970191955566406 L 39.037498474121094,19.034805297851562 L 39.211875915527344,19.125 L 39.375,19.21238899230957 L 39.712501525878906,19.302913665771484 L 40.04999923706055,19.421768188476562 L 40.10321044921875,19.462499618530273 L 40.38750076293945,19.60859489440918 L 40.724998474121094,19.728126525878906 L 40.81596755981445,19.80000114440918 L 40.88184778009234,19.839591255584576" fill="none" stroke="#000000" stroke-width="0.4"/>
  <path d="M 40.88184778009234,19.839591255584576 L 41.0625,19.948152542114258 L 41.400001525878906,20.133544921875 L 41.404518127441406,20.137500762939453 L 41.73749923706055,20.327774047851562 L 42.07500076293945,20.58953857421875 L 42.38236618041992,20.8125 L 42.412498474121094,20.842634201049805 L 42.75,21.082271575927734 L 42.82429885864258,21.150001525878906 L 43.087501525878906,21.36637306213379 L 43.274273268616966,21.54377064638702" fill="none" stroke="#000000" stroke-width="0.4"/>
  <path d="M 43.274273268616966,21.54377064638702 L 43.42499923706055,21.686931610107422 L 43.56141662597656,21.825000762939453 L 43.885318756103516,22.162500381469727 L 44.099998474121094,22.41100311279297 L 44.181209564208984,22.5 L 44.4375,22.84148597717285 L 44.671512603759766,23.174999237060547 L 44.775001525878906,23.30329704284668 L 44.93083190917969,23.512500762939453 L 45.11249923706055,23.79964828491211 L 45.13131938598453,23.821806571926842" fill="none" stroke="#000000" stroke-width="0.4"/>
  <path d="M 45.13131938598453,23.821806571926842 L 45.15526580810547,23.850000381469727 L 45.3105583190918,24.1875 L 45.45000076293945,24.397768020629883 L 45.54161071777344,24.525001525878906 L 45.64976119995117,24.862499237060547 L 45.787498474121094,25.092060089111328 L 45.86100387573242,25.200000762939453 L 45.950035095214844,25.537500381469727 L 46.071144104003906,25.875 L 46.125,25.977619171142578 L 46.222103118896484,26.212501525878906 L 46.271475959008136,26.508007092324476" fill="none" stroke="#000000" stroke-width="0.4"/>
  <path d="M 46.271475959008136,26.508007092324476 L 46.27849197387695,26.549999237060547 L 46.35471725463867,26.887500762939453 L 46.462501525878906,27.237655639648438 L 46.540775299072266,27.5625 L 46.572322845458984,27.900001525878906 L 46.61616516113281,28.575000762939453 L 46.633201599121094,28.912500381469727 L 46.64018249511719,29.25 L 46.63966727191441,29.417586764818093" fill="none" stroke="#000000" stroke-width="0.4"/>
  <path d="M 46.63966727191441,29.417586764818093 L 46.63914489746094,29.587499618530273 L 46.62739181518555,29.924999237060547 L 46.607276916503906,30.262500762939453 L 46.562255859375,30.9375 L 46.513126373291016,31.274999618530273 L 46.462501525878906,31.45159912109375 L 46.412723541259766,31.612499237060547 L 46.3188591003418,31.950000762939453 L 46.255958557128906,32.287498474121094 L 46.247432763839825,32.3250824818669" fill="none" stroke="#000000" stroke-width="0.4"/>
  <path d="M 46.247432763839825,32.3250824818669 L 46.17939758300781,32.625 L 46.125,32.72708511352539 L 46.00801086425781,32.962501525878906 L 45.9171028137207,33.29999923706055 L 45.787498474121094,33.6182746887207 L 45.77515411376953,33.63750076293945 L 45.602447509765625,33.974998474121094 L 45.45649337768555,34.3125 L 45.45000076293945,34.31947326660156 L 45.258644104003906,34.650001525878906 L 45.11249923706055,34.89434814453125 L 45.03738021850586,34.98749923706055 L 45.036150778904144,34.98999753604128" fill="none" stroke="#000000" stroke-width="0.4"/>
  <path d="M 45.036150778904144,34.98999753604128 L 44.87129211425781,35.32500076293945 L 44.775001525878906,35.43425369262695 L 44.60215377807617,35.662498474121094 L 44.4375,35.87449645996094 L 44.32655334472656,36.0 L 44.099998474121094,36.29931640625 L 44.06315994262695,36.337501525878906 L 43.792633056640625,36.67499923706055 L 43.76250076293945,36.70513153076172 L 43.475624084472656,37.01250076293945 L 43.42499923706055,37.06312561035156 L 43.19635953120289,37.27347492293531" fill="none" stroke="#000000" stroke-width="0.4"/>
  <path d="M 43.19635953120289,37.27347492293531 L 43.113182067871094,37.349998474121094 L 43.087501525878906,37.37567901611328 L 42.75,37.64406967163086 L 42.70198059082031,37.6875 L 42.412498474121094,37.905941009521484 L 42.277732849121094,38.025001525878906 L 42.07500076293945,38.166717529296875 L 41.834930419921875,38.36249923706055 L 41.86711883544922,38.70000076293945 L 42.07500076293945,38.78437423706055 L 42.412498474121094,38.89209747314453 L 42.659184837542256,39.0348329179743" fill="none" stroke="#000000" stroke-width="0.4"/>
  <path d="M 42.659184837542256,39.0348329179743 L 42.66379165649414,39.037498474121094 L 42.75,39.09002685546875 L 43.087501525878906,39.23261642456055 L 43.329856872558594,39.375 L 43.42499923706055,39.433074951171875 L 43.76250076293945,39.609737396240234 L 43.92443084716797,39.712501525878906 L 44.4375,40.02431869506836 L 44.4697151184082,40.04999923706055 L 44.775001525878906,40.254764556884766 L 44.96266174316406,40.38750076293945 L 45.17929551045687,40.54962562690968" fill="none" stroke="#000000" stroke-width="0.4"/>
  <path d="M 45.17929551045687,40.54962562690968 L 45.413631439208984,40.724998474121094 L 45.45000076293945,40.75579071044922 L 45.787498474121094,41.01380157470703 L 45.840084075927734,41.0625 L 46.125,41.30371856689453 L 46.23249435424805,41.400001525878906 L 46.462501525878906,41.608577728271484 L 46.60087585449219,41.73749923706055 L 46.79999923706055,41.92896270751953 L 46.94792938232422,42.07500076293945 L 47.27271270751953,42.412498474121094 L 47.367502980883216,42.51685978130848" fill="none" stroke="#000000" stroke-width="0.4"/>
  <path d="M 47.367502980883216,42.51685978130848 L 47.579261779785156,42.75 L 47.8125,43.02741622924805 L 47.866455078125,43.087501525878906 L 48.1241340637207,43.42499923706055 L 48.150001525878906,43.45247268676758 L 48.38948059082031,43.76250076293945 L 48.48749923706055,43.896671295166016 L 48.640625,44.099998474121094 L 48.82500076293945,44.379150390625 L 48.86836242675781,44.4375 L 49.07373809814453,44.775001525878906 L 49.1355277962029,44.86877485482154" fill="none" stroke="#000000" stroke-width="0.4"/>
  <path d="M 49.1355277962029,44.86877485482154 L 49.162498474121094,44.909706115722656 L 49.30176544189453,45.11249923706055 L 49.461326599121094,45.45000076293945 L 49.5,45.50062561035156 L 49.67530822753906,45.787498474121094 L 49.823543548583984,46.125 L 49.837501525878906,46.14268112182617 L 50.01517868041992,46.462501525878906 L 50.130226135253906,46.79999923706055 L 50.17499923706055,46.86150360107422 L 50.32880783081055,47.13750076293945 L 50.41143035888672,47.474998474121094 L 50.423063690320994,47.498522435809065" fill="none" stroke="#000000" stroke-width="0.4"/>
  <path d="M 50.423063690320994,47.498522435809065 L 50.51250076293945,47.67937469482422 L 50.5908088684082,47.8125 L 50.69017791748047,48.150001525878906 L 50.76123809814453,48.48749923706055 L 50.849998474121094,48.69501876831055 L 50.91498947143555,48.82500076293945 L 51.00924301147461,49.162498474121094 L 51.052024841308594,49.5 L 51.12408447265625,49.837501525878906 L 51.1875,50.032718658447266 L 51.23754119873047,50.17499923706055 L 51.26453620871353,50.30400893366516" fill="none" stroke="#000000" stroke-width="0.4"/>
  <path d="M 51.26453620871353,50.30400893366516 L 51.308162689208984,50.51250076293945 L 51.35019302368164,50.849998474121094 L 51.369834899902344,51.1875 L 51.465126037597656,52.537498474121094 L 51.462890625,52.875 L 51.1875,53.11534118652344" fill="none" stroke="#000000" stroke-width="0.4"/>
</svg>
