<?xml version="1.0" encoding="utf-8" ?>
<svg xmlns="http://www.w3.org/2000/svg" xmlns:ev="http://www.w3.org/2001/xml-events" xmlns:xlink="http://www.w3.org/1999/xlink" baseProfile="full" height="480" version="1.1" viewBox="0 0 72 72" width="480">
  <defs/>
  <path d="M 34.94269561767578,40.417057037353516 C 34.49939727783203,40.548709869384766 34.120887756347656,40.443389892578125 34.467140197753906,40.49650192260742 C 34.014591217041016,40.48343276977539 33.133949279785156,40.49742126464844 32.38031005859375,40.35698699951172" fill="none" stroke="black" stroke-width="0.4"/>
  <path d="M 29.681379318237305,39.332706451416016 C 30.490276336669922,39.76154708862305 30.5906982421875,39.746429443359375 30.451608657836914,39.702369689941406 C 30.80095863342285,39.83963394165039 31.108598709106445,39.98542404174805 32.38031005859375,40.35698699951172" fill="none" stroke="black" stroke-width="0.4"/>
  <path d="M 27.477344512939453,37.40597152709961 C 27.85417938232422,37.79154586791992 28.064897537231445,37.964481353759766 27.843952178955078,37.76361846923828 C 28.299116134643555,38.18486022949219 29.04354476928711,38.84244155883789 29.681379318237305,39.332706451416016" fill="none" stroke="black" stroke-width="0.4"/>
  <path d="M 25.873950958251953,35.01327133178711 C 25.948524475097656,35.16835403442383 26.081439971923828,35.487422943115234 25.977092742919922,35.22740173339844 C 26.248939514160156,35.75275802612305 26.827302932739258,36.6438102722168 27.477344512939453,37.40597152709961" fill="none" stroke="black" stroke-width="0.4"/>
  <path d="M 25.05371856689453,32.26067352294922 C 25.081451416015625,32.44668960571289 25.143611907958984,32.832759857177734 25.112634658813477,32.51681900024414 C 25.214920043945312,33.126426696777344 25.526350021362305,34.267677307128906 25.873950958251953,35.01327133178711" fill="none" stroke="black" stroke-width="0.4"/>
  <path d="M 24.91876220703125,29.371105194091797 C 24.87116813659668,29.509357452392578 24.863136291503906,29.869468688964844 24.90748405456543,29.550065994262695 C 24.87757110595703,30.198509216308594 24.95298957824707,31.34490203857422 25.05371856689453,32.26067352294922" fill="none" stroke="black" stroke-width="0.4"/>
  <path d="M 25.45149040222168,26.572853088378906 C 25.385318756103516,26.739322662353516 25.265451431274414,27.028141021728516 25.40110969543457,26.731395721435547 C 25.189634323120117,27.37667465209961 24.974773406982422,28.37872886657715 24.91876220703125,29.371105194091797" fill="none" stroke="black" stroke-width="0.4"/>
  <path d="M 26.696292877197266,24.00539779663086 C 26.606586456298828,24.20246696472168 26.389577865600586,24.512311935424805 26.600872039794922,24.198299407958984 C 26.21177864074707,24.841171264648438 25.792776107788086,25.66268539428711 25.45149040222168,26.572853088378906" fill="none" stroke="black" stroke-width="0.4"/>
  <path d="M 28.708454132080078,21.851648330688477 C 28.419889450073242,22.106094360351562 28.12826156616211,22.40615463256836 28.43157958984375,22.1158447265625 C 27.817026138305664,22.697298049926758 27.22368621826172,23.360618591308594 26.696292877197266,24.00539779663086" fill="none" stroke="black" stroke-width="0.4"/>
  <path d="M 31.171113967895508,20.52488899230957 C 30.602733612060547,20.744447708129883 30.254209518432617,20.9154109954834 30.612361907958984,20.75263786315918 C 29.865571975708008,21.11273765563965 28.937057495117188,21.646753311157227 28.708454132080078,21.851648330688477" fill="none" stroke="black" stroke-width="0.4"/>
  <path d="M 34.040103912353516,20.029706954956055 C 33.38975143432617,20.063547134399414 32.89158630371094,20.112720489501953 33.3580436706543,20.06711196899414 C 32.63850021362305,20.1301212310791 31.76209259033203,20.30326271057129 31.171113967895508,20.52488899230957" fill="none" stroke="black" stroke-width="0.4"/>
  <path d="M 36.89834976196289,20.569303512573242 C 36.269290924072266,20.259597778320312 35.75911331176758,20.236019134521484 36.10112762451172,20.296438217163086 C 35.589393615722656,20.185749053955078 34.89937973022461,20.037694931030273 34.040103912353516,20.029706954956055" fill="none" stroke="black" stroke-width="0.4"/>
  <path d="M 36.89834976196289,20.569303512573242 C 37.899898529052734,20.99478530883789 38.12139892578125,21.170665740966797 37.88335418701172,21.02788734436035 C 38.46298599243164,21.367919921875 38.97649383544922,21.770122528076172 39.34739303588867,22.049182891845703" fill="none" stroke="black" stroke-width="0.4"/>
  <path d="M 39.34739303588867,22.049182891845703 C 39.888423919677734,22.592529296875 40.16425323486328,22.868661880493164 39.9165153503418,22.633939743041992 C 40.41532897949219,23.097490310668945 41.051788330078125,23.836566925048828 41.2935676574707,24.171306610107422" fill="none" stroke="black" stroke-width="0.4"/>
  <path d="M 41.2935676574707,24.171306610107422 C 41.51409912109375,24.726253509521484 41.72834396362305,25.09731101989746 41.55305862426758,24.79949188232422 C 41.886837005615234,25.34140396118164 42.341094970703125,26.31145477294922 42.53371810913086,26.808746337890625" fill="none" stroke="black" stroke-width="0.4"/>
  <path d="M 42.53371810913086,26.808746337890625 C 42.66181182861328,27.38357925415039 42.764892578125,27.80166244506836 42.650028228759766,27.38667869567871 C 42.84588623046875,28.1364688873291 42.9862174987793,29.34109878540039 42.91796112060547,29.672637939453125" fill="none" stroke="black" stroke-width="0.4"/>
  <path d="M 42.91796112060547,29.672637939453125 C 42.94707107543945,30.169645309448242 42.948509216308594,30.537391662597656 42.94112014770508,30.171581268310547 C 42.95102310180664,30.858928680419922 42.99552917480469,32.0119743347168 42.78061294555664,32.53175735473633" fill="none" stroke="black" stroke-width="0.4"/>
  <path d="M 42.78061294555664,32.53175735473633 C 42.69451904296875,33.029945373535156 42.53383255004883,33.444488525390625 42.68877410888672,33.009586334228516 C 42.503318786621094,33.64518356323242 42.18522262573242,34.6112060546875 41.826194763183594,35.217952728271484" fill="none" stroke="black" stroke-width="0.4"/>
  <path d="M 41.826194763183594,35.217952728271484 C 41.599342346191406,35.82172775268555 41.357391357421875,36.225486755371094 41.557525634765625,35.88766098022461 C 41.212162017822266,36.46000289916992 40.64139938354492,37.131629943847656 40.174903869628906,37.616451263427734" fill="none" stroke="black" stroke-width="0.4"/>
  <path d="M 40.174903869628906,37.616451263427734 C 39.728790283203125,38.20610427856445 39.422855377197266,38.4931755065918 39.62957000732422,38.27684783935547 C 39.192047119140625,38.722232818603516 38.453025817871094,39.14105224609375 37.98894119262695,39.42036437988281" fill="none" stroke="black" stroke-width="0.4"/>
  <path d="M 37.98894119262695,39.42036437988281 C 37.1046028137207,39.7856559753418 36.78107452392578,39.93167495727539 37.0694694519043,39.78926467895508 C 36.50606918334961,40.08738708496094 35.608482360839844,40.3706169128418 35.28368377685547,40.46210479736328" fill="none" stroke="black" stroke-width="0.4"/>
  <path d="M 51.397335052490234,48.61017990112305 C 51.07910919189453,48.689117431640625 50.63252639770508,48.65827941894531 50.97052001953125,48.67011642456055 C 50.614967346191406,48.6921501159668 49.7010498046875,48.761085510253906 49.13794708251953,48.69697189331055" fill="none" stroke="black" stroke-width="0.4"/>
  <path d="M 49.13794708251953,48.69697189331055 C 48.45924377441406,48.730411529541016 47.896934509277344,48.748958587646484 48.320030212402344,48.73984909057617 C 47.88593292236328,48.72544860839844 46.664119720458984,48.74087905883789 46.50246810913086,48.694610595703125" fill="none" stroke="black" stroke-width="0.4"/>
  <path d="M 46.50246810913086,48.694610595703125 C 45.83202362060547,48.730411529541016 45.26971435546875,48.748958587646484 45.69281005859375,48.73984909057617 C 45.25871276855469,48.72544860839844 44.03689956665039,48.74087905883789 43.875247955322266,48.694610595703125" fill="none" stroke="black" stroke-width="0.4"/>
  <path d="M 43.875247955322266,48.694610595703125 C 43.10871887207031,48.789188385009766 42.74380111694336,48.672149658203125 43.084224700927734,48.72587585449219 C 42.77415466308594,48.68499755859375 41.98685836791992,49.00505065917969 41.88887023925781,48.32685089111328" fill="none" stroke="black" stroke-width="0.4"/>
  <path d="M 44.29857635498047,47.66327667236328 C 43.67829895019531,47.59679412841797 43.05852508544922,47.612152099609375 43.549808502197266,47.62737274169922 C 42.90044021606445,47.592071533203125 42.20392990112305,47.572139739990234 41.88887023925781,48.32685089111328" fill="none" stroke="black" stroke-width="0.4"/>
  <path d="M 46.83503341674805,47.624244689941406 C 46.49358367919922,47.59791946411133 45.9312744140625,47.6164665222168 46.3543701171875,47.607357025146484 C 45.92027282714844,47.59295654296875 44.69845962524414,47.6083869934082 44.29857635498047,47.66327667236328" fill="none" stroke="black" stroke-width="0.4"/>
  <path d="M 49.46225357055664,47.624244689941406 C 49.12080383300781,47.59791946411133 48.558494567871094,47.6164665222168 48.981590270996094,47.607357025146484 C 48.54749298095703,47.59295654296875 47.325679779052734,47.6083869934082 46.83503341674805,47.624244689941406" fill="none" stroke="black" stroke-width="0.4"/>
  <path d="M 49.46225357055664,47.624244689941406 C 50.8989372253418,47.58176040649414 50.81481170654297,47.69983673095703 50.863224029541016,47.65174865722656 C 51.369319915771484,47.5119743347168 51.74427795410156,47.947757720947266 51.51481246948242,48.262786865234375" fill="none" stroke="black" stroke-width="0.4"/>
  <path d="M 38.84290313720703,52.77908706665039 C 38.438480377197266,52.771541595458984 37.90894317626953,52.76436233520508 38.3231201171875,52.768455505371094 C 37.82183074951172,52.790260314941406 36.658843994140625,52.7713737487793 36.2844352722168,52.76496124267578" fill="none" stroke="black" stroke-width="0.4"/>
  <path d="M 36.2844352722168,52.76496124267578 C 35.48860168457031,52.77423858642578 34.95906448364258,52.767059326171875 35.37324142456055,52.77115249633789 C 34.871952056884766,52.7929573059082 33.70896530151367,52.774070739746094 33.334556579589844,52.76765823364258" fill="none" stroke="black" stroke-width="0.4"/>
  <path d="M 33.334556579589844,52.76765823364258 C 32.53868103027344,52.77434158325195 32.00914764404297,52.76716232299805 32.42332077026367,52.77125549316406 C 31.92203140258789,52.793060302734375 30.759044647216797,52.774173736572266 30.3846378326416,52.76776123046875" fill="none" stroke="black" stroke-width="0.4"/>
  <path d="M 30.3846378326416,52.76776123046875 C 29.588762283325195,52.77444076538086 29.059228897094727,52.76726150512695 29.473403930664062,52.77135467529297 C 28.97211265563965,52.79315948486328 27.809125900268555,52.77427291870117 27.43471908569336,52.767860412597656" fill="none" stroke="black" stroke-width="0.4"/>
  <path d="M 27.43471908569336,52.767860412597656 C 26.63884162902832,52.77454376220703 26.10930824279785,52.767364501953125 26.523483276367188,52.77145767211914 C 26.022192001342773,52.79326248168945 24.85920524597168,52.774375915527344 24.484798431396484,52.76796340942383" fill="none" stroke="black" stroke-width="0.4"/>
  <path d="M 24.484798431396484,52.76796340942383 C 23.688922882080078,52.77464294433594 23.15938949584961,52.76746368408203 23.573564529418945,52.77155685424805 C 23.07227325439453,52.79336166381836 21.909286499023438,52.77447509765625 21.534879684448242,52.768062591552734" fill="none" stroke="black" stroke-width="0.4"/>
  <path d="M 20.14710235595703,51.08602523803711 C 20.1425838470459,51.64177703857422 20.23105812072754,51.76860809326172 20.19670295715332,51.564056396484375 C 20.232580184936523,52.032711029052734 19.829811096191406,52.98204040527344 21.534879684448242,52.768062591552734" fill="none" stroke="black" stroke-width="0.4"/>
  <path d="M 20.599550247192383,48.16423797607422 C 20.574155807495117,48.27838897705078 20.483198165893555,48.59949493408203 20.586917877197266,48.261260986328125 C 20.451730728149414,48.92607879638672 20.276203155517578,50.020240783691406 20.14710235595703,51.08602523803711" fill="none" stroke="black" stroke-width="0.4"/>
  <path d="M 21.5936222076416,45.41582489013672 C 21.54759979248047,45.58220291137695 21.343414306640625,45.930908203125 21.539653778076172,45.57188034057617 C 21.227449417114258,46.22886657714844 20.836612701416016,47.12286376953125 20.599550247192383,48.16423797607422" fill="none" stroke="black" stroke-width="0.4"/>
  <path d="M 23.054584503173828,42.82595443725586 C 22.939973831176758,43.01870346069336 22.689029693603516,43.36496353149414 22.927736282348633,43.01459884643555 C 22.449447631835938,43.66828918457031 21.999961853027344,44.43345642089844 21.5936222076416,45.41582489013672" fill="none" stroke="black" stroke-width="0.4"/>
  <path d="M 24.875972747802734,40.518943786621094 C 24.65500259399414,40.75234603881836 24.369869232177734,41.07819366455078 24.65138816833496,40.775840759277344 C 24.077302932739258,41.39990997314453 23.554569244384766,42.08491897583008 23.054584503173828,42.82595443725586" fill="none" stroke="black" stroke-width="0.4"/>
  <path d="M 26.975341796875,38.67332458496094 C 26.803234100341797,39.03123092651367 26.510395050048828,39.3242301940918 26.674814224243164,39.13095474243164 C 26.3187198638916,39.549713134765625 25.662994384765625,39.93573760986328 24.875972747802734,40.518943786621094" fill="none" stroke="black" stroke-width="0.4"/>
  <path d="M 25.250385284423828,36.23575973510742 C 25.357458114624023,36.4253044128418 25.523338317871094,36.715755462646484 25.381860733032227,36.46055221557617 C 25.691858291625977,36.99419403076172 26.350601196289062,37.8861083984375 26.975341796875,38.67332458496094" fill="none" stroke="black" stroke-width="0.4"/>
  <path d="M 24.118999481201172,33.52365493774414 C 24.157455444335938,33.6389045715332 24.262346267700195,34.009613037109375 24.198833465576172,33.70583724975586 C 24.383277893066406,34.29735565185547 24.843835830688477,35.3966178894043 25.250385284423828,36.23575973510742" fill="none" stroke="black" stroke-width="0.4"/>
  <path d="M 23.72564125061035,30.595489501953125 C 23.74776268005371,30.89226722717285 23.788846969604492,31.320465087890625 23.76479148864746,30.902223587036133 C 23.82335662841797,31.645421981811523 23.91941261291504,32.873390197753906 24.118999481201172,33.52365493774414" fill="none" stroke="black" stroke-width="0.4"/>
  <path d="M 23.930166244506836,27.692947387695312 C 23.914260864257812,27.792552947998047 23.867982864379883,28.081838607788086 23.933889389038086,27.782875061035156 C 23.8699951171875,28.42384147644043 23.78244400024414,29.590124130249023 23.72564125061035,30.595489501953125" fill="none" stroke="black" stroke-width="0.4"/>
  <path d="M 24.863887786865234,24.902746200561523 C 24.808752059936523,25.0740966796875 24.647361755371094,25.396745681762695 24.814546585083008,25.064851760864258 C 24.546995162963867,25.723922729492188 24.231657028198242,26.663066864013672 23.930166244506836,27.692947387695312" fill="none" stroke="black" stroke-width="0.4"/>
  <path d="M 26.58817481994629,22.461454391479492 C 26.413578033447266,22.66967010498047 26.137229919433594,22.97959327697754 26.389455795288086,22.67855453491211 C 25.84152603149414,23.306169509887695 25.364431381225586,23.998441696166992 24.863887786865234,24.902746200561523" fill="none" stroke="black" stroke-width="0.4"/>
  <path d="M 28.70448112487793,20.451902389526367 C 28.295015335083008,20.74873924255371 27.989532470703125,21.02680778503418 28.31888771057129,20.759021759033203 C 27.655040740966797,21.278261184692383 26.9576358795166,21.917165756225586 26.58817481994629,22.461454391479492" fill="none" stroke="black" stroke-width="0.4"/>
  <path d="M 31.397672653198242,19.290803909301758 C 30.670448303222656,19.519725799560547 30.336261749267578,19.656484603881836 30.71527099609375,19.507137298583984 C 29.92152976989746,19.782636642456055 28.990245819091797,20.202579498291016 28.70448112487793,20.451902389526367" fill="none" stroke="black" stroke-width="0.4"/>
  <path d="M 34.3018913269043,18.93929100036621 C 33.63426971435547,18.947216033935547 33.081443786621094,18.960784912109375 33.58736038208008,18.950183868408203 C 32.8534049987793,18.97722053527832 32.088993072509766,19.017683029174805 31.397672653198242,19.290803909301758" fill="none" stroke="black" stroke-width="0.4"/>
  <path d="M 37.16127014160156,19.463151931762695 C 36.5802001953125,19.100086212158203 36.025901794433594,19.069000244140625 36.38801574707031,19.136741638183594 C 35.87913513183594,19.030776977539062 35.18408203125,18.898794174194336 34.3018913269043,18.93929100036621" fill="none" stroke="black" stroke-width="0.4"/>
  <path d="M 37.16127014160156,19.463151931762695 C 38.28620910644531,19.85748291015625 38.486427307128906,20.053796768188477 38.25109100341797,19.89771842956543 C 38.850467681884766,20.222640991210938 39.33537673950195,20.572742462158203 39.69559860229492,20.86491584777832" fill="none" stroke="black" stroke-width="0.4"/>
  <path d="M 39.69559860229492,20.86491584777832 C 40.38456726074219,21.458465576171875 40.67755126953125,21.7149658203125 40.398658752441406,21.50377082824707 C 40.96754455566406,21.959766387939453 41.62539291381836,22.632366180419922 41.814537048339844,22.91858673095703" fill="none" stroke="black" stroke-width="0.4"/>
  <path d="M 41.814537048339844,22.91858673095703 C 42.15607452392578,23.468612670898438 42.37031936645508,23.839670181274414 42.19503402709961,23.541851043701172 C 42.528812408447266,24.083763122558594 42.983070373535156,25.053813934326172 43.17569351196289,25.551105499267578" fill="none" stroke="black" stroke-width="0.4"/>
  <path d="M 43.17569351196289,25.551105499267578 C 43.429473876953125,26.18844985961914 43.60304641723633,26.62314224243164 43.44539260864258,26.21539306640625 C 43.748016357421875,26.885007858276367 43.983741760253906,27.98707389831543 43.991580963134766,28.351961135864258" fill="none" stroke="black" stroke-width="0.4"/>
  <path d="M 43.991580963134766,28.351961135864258 C 44.072776794433594,28.92179298400879 44.13407897949219,29.269258499145508 44.08979415893555,28.93476676940918 C 44.19027328491211,29.580535888671875 44.242645263671875,30.74113655090332 44.11288070678711,31.289613723754883" fill="none" stroke="black" stroke-width="0.4"/>
  <path d="M 44.11288070678711,31.289613723754883 C 44.12635803222656,31.810848236083984 44.02334213256836,32.22206115722656 44.12977600097656,31.808683395385742 C 43.99144744873047,32.482154846191406 43.7574577331543,33.4604377746582 43.44940185546875,34.159366607666016" fill="none" stroke="black" stroke-width="0.4"/>
  <path d="M 43.44940185546875,34.159366607666016 C 43.39925765991211,34.60432815551758 43.18292999267578,35.011531829833984 43.37565612792969,34.63270568847656 C 43.10444641113281,35.271705627441406 42.63721466064453,36.06150436401367 42.27523422241211,36.792388916015625" fill="none" stroke="black" stroke-width="0.4"/>
  <path d="M 42.27523422241211,36.792388916015625 C 41.6700553894043,37.477928161621094 41.538570404052734,37.623939514160156 41.74538040161133,37.49729919433594 C 41.28792953491211,37.91096496582031 40.75584030151367,38.687068939208984 41.24500274658203,39.1051139831543" fill="none" stroke="black" stroke-width="0.4"/>
  <path d="M 41.24500274658203,39.1051139831543 C 41.98381423950195,39.71396255493164 42.27606201171875,39.94720458984375 41.9858512878418,39.74237060546875 C 42.61337661743164,40.180381774902344 43.32100296020508,40.804134368896484 43.513946533203125,40.99131774902344" fill="none" stroke="black" stroke-width="0.4"/>
  <path d="M 43.513946533203125,40.99131774902344 C 43.90576934814453,41.56303405761719 44.16293716430664,41.83623504638672 43.924705505371094,41.60103225708008 C 44.37385559082031,42.1021728515625 45.001861572265625,42.930179595947266 45.27784729003906,43.32331848144531" fill="none" stroke="black" stroke-width="0.4"/>
  <path d="M 45.27784729003906,43.32331848144531 C 45.72646713256836,43.891178131103516 45.6778678894043,44.19609451293945 45.68119812011719,43.965065002441406 C 45.922401428222656,44.397525787353516 45.85011291503906,45.027828216552734 44.7960090637207,44.820396423339844" fill="none" stroke="black" stroke-width="0.4"/>
  <path d="M 43.04288101196289,42.33903121948242 C 43.275550842285156,42.54704284667969 43.49161148071289,42.83488845825195 43.275978088378906,42.59866714477539 C 43.693321228027344,43.09299850463867 44.25046157836914,43.93171691894531 44.7960090637207,44.820396423339844" fill="none" stroke="black" stroke-width="0.4"/>
  <path d="M 40.881961822509766,40.329532623291016 C 41.38088607788086,40.66554641723633 41.663063049316406,40.90170669555664 41.38425827026367,40.68708038330078 C 41.974395751953125,41.13458251953125 42.629581451416016,41.775047302246094 43.04288101196289,42.33903121948242" fill="none" stroke="black" stroke-width="0.4"/>
  <path d="M 40.881961822509766,40.329532623291016 C 40.14793395996094,39.54930877685547 39.641845703125,39.75426483154297 39.85379409790039,39.73332977294922 C 39.33838653564453,39.91206741333008 38.765403747558594,40.22766876220703 38.411521911621094,40.443668365478516" fill="none" stroke="black" stroke-width="0.4"/>
  <path d="M 38.411521911621094,40.443668365478516 C 37.46181106567383,40.92668151855469 37.155635833740234,41.034202575683594 37.45271301269531,40.903690338134766 C 36.84721755981445,41.168968200683594 35.89525604248047,41.42162322998047 35.65149688720703,41.457698822021484" fill="none" stroke="black" stroke-width="0.4"/>
  <path d="M 35.65149688720703,41.457698822021484 C 34.81426239013672,41.66265869140625 34.404014587402344,41.598350524902344 34.784969329833984,41.61673355102539 C 34.27271270751953,41.62305450439453 33.362030029296875,41.648681640625 32.720497131347656,41.57545471191406" fill="none" stroke="black" stroke-width="0.4"/>
  <path d="M 29.962432861328125,40.695735931396484 C 30.821985244750977,41.08685302734375 30.909488677978516,41.065887451171875 30.74697494506836,41.02226638793945 C 31.134126663208008,41.16086196899414 31.405099868774414,41.252803802490234 32.720497131347656,41.57545471191406" fill="none" stroke="black" stroke-width="0.4"/>
  <path d="M 27.632991790771484,39.8485221862793 C 28.59699058532715,39.67795181274414 28.3881893157959,39.72710037231445 28.346088409423828,39.84397506713867 C 28.634355545043945,39.741302490234375 28.613887786865234,39.98765563964844 29.962432861328125,40.695735931396484" fill="none" stroke="black" stroke-width="0.4"/>
  <path d="M 27.632991790771484,39.8485221862793 C 26.663166046142578,40.51913833618164 26.357683181762695,40.797203063964844 26.68703842163086,40.5294189453125 C 26.023191452026367,41.04865646362305 25.325786590576172,41.68756103515625 25.130578994750977,41.95966720581055" fill="none" stroke="black" stroke-width="0.4"/>
  <path d="M 25.130578994750977,41.95966720581055 C 24.750858306884766,42.431541442871094 24.474510192871094,42.74146270751953 24.726736068725586,42.440425872802734 C 24.17880630493164,43.06803894042969 23.701711654663086,43.760311126708984 23.361249923706055,44.309913635253906" fill="none" stroke="black" stroke-width="0.4"/>
  <path d="M 23.361249923706055,44.309913635253906 C 23.111480712890625,44.77117919921875 22.918853759765625,45.13999557495117 23.119081497192383,44.780853271484375 C 22.775577545166016,45.45375442504883 22.40951919555664,46.32484817504883 22.173954010009766,47.01880645751953" fill="none" stroke="black" stroke-width="0.4"/>
  <path d="M 22.173954010009766,47.01880645751953 C 22.002723693847656,47.475711822509766 21.878604888916016,47.82773971557617 22.013813018798828,47.45750045776367 C 21.81930160522461,48.13535690307617 21.547372817993164,49.15870666503906 21.438594818115234,49.82619094848633" fill="none" stroke="black" stroke-width="0.4"/>
  <path d="M 21.438594818115234,49.82619094848633 C 21.28751564025879,50.71377944946289 21.37734603881836,50.782012939453125 21.357810974121094,50.65079116821289 C 21.30620765686035,51.02504348754883 21.02330780029297,51.87953186035156 22.541372299194336,51.701595306396484" fill="none" stroke="black" stroke-width="0.4"/>
  <path d="M 25.460451126098633,51.67598342895508 C 25.056026458740234,51.66843795776367 24.526493072509766,51.661258697509766 24.9406681060791,51.66535186767578 C 24.439376831054688,51.687156677246094 23.276390075683594,51.668270111083984 22.541372299194336,51.701595306396484" fill="none" stroke="black" stroke-width="0.4"/>
  <path d="M 28.410369873046875,51.675987243652344 C 28.005945205688477,51.66844177246094 27.476411819458008,51.66126251220703 27.890586853027344,51.66535568237305 C 27.38929557800293,51.68716049194336 26.226308822631836,51.66827392578125 25.460451126098633,51.67598342895508" fill="none" stroke="black" stroke-width="0.4"/>
  <path d="M 31.360288619995117,51.675987243652344 C 30.95586395263672,51.66844177246094 30.42633056640625,51.66126251220703 30.840505599975586,51.66535568237305 C 30.339214324951172,51.68716049194336 29.176227569580078,51.66827392578125 28.410369873046875,51.675987243652344" fill="none" stroke="black" stroke-width="0.4"/>
  <path d="M 34.31020736694336,51.675987243652344 C 33.905784606933594,51.66844177246094 33.37624740600586,51.66126251220703 33.79042434692383,51.66535568237305 C 33.28913497924805,51.68716049194336 32.12614822387695,51.66827392578125 31.360288619995117,51.675987243652344" fill="none" stroke="black" stroke-width="0.4"/>
  <path d="M 37.260128021240234,51.675987243652344 C 36.85570526123047,51.66844177246094 36.326168060302734,51.66126251220703 36.7403450012207,51.66535568237305 C 36.23905563354492,51.68716049194336 35.07606887817383,51.66827392578125 34.31020736694336,51.675987243652344" fill="none" stroke="black" stroke-width="0.4"/>
  <path d="M 37.260128021240234,51.675987243652344 C 38.51705551147461,51.59263229370117 38.53296661376953,51.742374420166016 38.50909423828125,51.677886962890625 C 39.08722686767578,51.56354522705078 39.45397186279297,52.079803466796875 39.18367385864258,52.64060974121094" fill="none" stroke="black" stroke-width="0.4"/>
</svg>
