<?xml version="1.0" encoding="utf-8" ?>
<svg xmlns="http://www.w3.org/2000/svg" xmlns:ev="http://www.w3.org/2001/xml-events" xmlns:xlink="http://www.w3.org/1999/xlink" baseProfile="full" height="480" version="1.1" viewBox="0 0 72 72" width="480">
  <defs/>
  <path d="M 37.010841369628906,36.029380798339844 C 36.51979064941406,36.174835205078125 36.13795852661133,36.08653259277344 36.500465393066406,36.11803436279297 C 36.012237548828125,36.10544204711914 35.171775817871094,36.147891998291016 34.4422721862793,36.03986740112305" fill="none" stroke="black" stroke-width="0.4"/>
  <path d="M 34.4422721862793,36.03986740112305 C 33.366798400878906,35.853614807128906 33.05938720703125,35.70943832397461 33.254276275634766,35.7929801940918 C 32.93389892578125,35.68240737915039 32.494754791259766,35.57577896118164 31.624547958374023,35.242431640625" fill="none" stroke="black" stroke-width="0.4"/>
  <path d="M 28.980567932128906,33.81861877441406 C 29.763351440429688,34.31327438354492 29.860267639160156,34.35718536376953 29.72268295288086,34.29485321044922 C 30.11235809326172,34.50682067871094 30.66374397277832,34.78771209716797 31.624547958374023,35.242431640625" fill="none" stroke="black" stroke-width="0.4"/>
  <path d="M 26.881221771240234,31.747926712036133 C 27.162933349609375,32.111167907714844 27.381608963012695,32.302371978759766 27.158811569213867,32.07732391357422 C 27.603595733642578,32.54085159301758 28.38532257080078,33.28453826904297 28.980567932128906,33.81861877441406" fill="none" stroke="black" stroke-width="0.4"/>
  <path d="M 25.405784606933594,29.1827335357666 C 25.45301055908203,29.337383270263672 25.589527130126953,29.65822982788086 25.48947525024414,29.398481369018555 C 25.715438842773438,29.923463821411133 26.303621292114258,30.84783363342285 26.881221771240234,31.747926712036133" fill="none" stroke="black" stroke-width="0.4"/>
  <path d="M 24.601470947265625,26.35582160949707 C 24.62920379638672,26.541837692260742 24.691364288330078,26.927907943725586 24.66038703918457,26.61196517944336 C 24.762672424316406,27.221572875976562 25.0741024017334,28.36282730102539 25.405784606933594,29.1827335357666" fill="none" stroke="black" stroke-width="0.4"/>
  <path d="M 24.609790802001953,23.374052047729492 C 24.584278106689453,23.632278442382812 24.545278549194336,23.965837478637695 24.599853515625,23.6612606048584 C 24.50287628173828,24.330257415771484 24.492996215820312,25.454864501953125 24.601470947265625,26.35582160949707" fill="none" stroke="black" stroke-width="0.4"/>
  <path d="M 25.374906539916992,20.572917938232422 C 25.31977081298828,20.7442684173584 25.15837860107422,21.066917419433594 25.325565338134766,20.735023498535156 C 25.058013916015625,21.394094467163086 24.74267578125,22.33323860168457 24.609790802001953,23.374052047729492" fill="none" stroke="black" stroke-width="0.4"/>
  <path d="M 26.735841751098633,17.936365127563477 C 26.6216983795166,18.13772201538086 26.416616439819336,18.46773910522461 26.622926712036133,18.150659561157227 C 26.202848434448242,18.809139251708984 25.809335708618164,19.601200103759766 25.374906539916992,20.572917938232422" fill="none" stroke="black" stroke-width="0.4"/>
  <path d="M 28.839109420776367,15.833200454711914 C 28.55054473876953,16.087646484375 28.2589168548584,16.387706756591797 28.56223487854004,16.097396850585938 C 27.947681427001953,16.678850173950195 27.354341506958008,17.34217071533203 26.735841751098633,17.936365127563477" fill="none" stroke="black" stroke-width="0.4"/>
  <path d="M 31.441234588623047,14.385713577270508 C 30.739261627197266,14.72508716583252 30.445850372314453,14.882303237915039 30.78782081604004,14.714905738830566 C 30.001131057739258,15.091787338256836 29.15387725830078,15.644440650939941 28.839109420776367,15.833200454711914" fill="none" stroke="black" stroke-width="0.4"/>
  <path d="M 34.25905990600586,13.534781455993652 C 33.55715560913086,13.725293159484863 33.19546890258789,13.842560768127441 33.58622360229492,13.716723442077637 C 32.83628463745117,13.94678783416748 31.855318069458008,14.259571075439453 31.441234588623047,14.385713577270508" fill="none" stroke="black" stroke-width="0.4"/>
  <path d="M 37.2486457824707,13.577600479125977 C 36.64777374267578,13.51656723022461 36.103763580322266,13.527846336364746 36.557044982910156,13.53890323638916 C 35.89448547363281,13.525925636291504 35.016021728515625,13.5082368850708 34.25905990600586,13.534781455993652" fill="none" stroke="black" stroke-width="0.4"/>
  <path d="M 40.08662414550781,14.299663543701172 C 39.53187942504883,14.002049446105957 39.02656936645508,13.912026405334473 39.36496353149414,14.005824089050293 C 38.92561340332031,13.889237403869629 38.36202621459961,13.733972549438477 37.2486457824707,13.577600479125977" fill="none" stroke="black" stroke-width="0.4"/>
  <path d="M 40.08662414550781,14.299663543701172 C 41.23609161376953,14.755969047546387 41.436309814453125,14.952284812927246 41.20097351074219,14.796205520629883 C 41.800350189208984,15.12112808227539 42.28525924682617,15.471230506896973 42.64548110961914,15.763402938842773" fill="none" stroke="black" stroke-width="0.4"/>
  <path d="M 42.64548110961914,15.763402938842773 C 43.360321044921875,16.366657257080078 43.65330505371094,16.623157501220703 43.374412536621094,16.411962509155273 C 43.94329833984375,16.867958068847656 44.60114669799805,17.540555953979492 44.79029083251953,17.826778411865234" fill="none" stroke="black" stroke-width="0.4"/>
  <path d="M 44.79029083251953,17.826778411865234 C 45.1322135925293,18.39933204650879 45.376670837402344,18.76797103881836 45.19352340698242,18.50566291809082 C 45.54844665527344,18.961170196533203 46.03462219238281,19.787263870239258 46.30155944824219,20.38187026977539" fill="none" stroke="black" stroke-width="0.4"/>
  <path d="M 46.30155944824219,20.38187026977539 C 46.47372055053711,21.08832359313965 46.64729309082031,21.52301597595215 46.48963928222656,21.115266799926758 C 46.79226303100586,21.784881591796875 47.02798843383789,22.886947631835938 47.03582763671875,23.251834869384766" fill="none" stroke="black" stroke-width="0.4"/>
  <path d="M 47.03582763671875,23.251834869384766 C 47.10850143432617,23.74833869934082 47.13206481933594,24.06890869140625 47.114837646484375,23.756309509277344 C 47.182472229003906,24.373559951782227 47.12751007080078,25.509723663330078 47.0698356628418,26.191160202026367" fill="none" stroke="black" stroke-width="0.4"/>
  <path d="M 47.0698356628418,26.191160202026367 C 46.97713088989258,26.721729278564453 46.874114990234375,27.1329402923584 46.98054885864258,26.719562530517578 C 46.842220306396484,27.393033981323242 46.60823059082031,28.37131690979004 46.300174713134766,29.07024383544922" fill="none" stroke="black" stroke-width="0.4"/>
  <path d="M 46.300174713134766,29.07024383544922 C 46.102413177490234,29.625080108642578 45.84930419921875,30.043031692504883 46.076419830322266,29.68460464477539 C 45.704933166503906,30.312456130981445 45.14459991455078,31.036781311035156 44.756614685058594,31.569232940673828" fill="none" stroke="black" stroke-width="0.4"/>
  <path d="M 44.756614685058594,31.569232940673828 C 44.332942962646484,32.21176528930664 44.00972366333008,32.55022430419922 44.26251983642578,32.2695426940918 C 43.74888229370117,32.80917739868164 43.07598114013672,33.36731719970703 42.733116149902344,33.70090866088867" fill="none" stroke="black" stroke-width="0.4"/>
  <path d="M 42.733116149902344,33.70090866088867 C 41.95207214355469,34.25230026245117 41.633853912353516,34.46302795410156 41.91103744506836,34.26987075805664 C 41.34246063232422,34.65019989013672 40.530609130859375,35.05928039550781 40.211849212646484,35.183780670166016" fill="none" stroke="black" stroke-width="0.4"/>
  <path d="M 40.211849212646484,35.183780670166016 C 39.252235412597656,35.57936096191406 38.928016662597656,35.66147232055664 39.22650909423828,35.559120178222656 C 38.68158721923828,35.770957946777344 37.6861572265625,35.92678451538086 37.36984634399414,35.97298812866211" fill="none" stroke="black" stroke-width="0.4"/>
  <path d="M 56.7055778503418,58.07101058959961 C 56.21487808227539,58.193565368652344 55.80152893066406,58.12054443359375 56.2064208984375,58.150970458984375 C 55.68242645263672,58.12384033203125 54.90666198730469,58.18405532836914 54.18180847167969,58.15168762207031" fill="none" stroke="black" stroke-width="0.4"/>
  <path d="M 54.18180847167969,58.15168762207031 C 53.397891998291016,58.14466094970703 52.86835479736328,58.137481689453125 53.28253173828125,58.14157485961914 C 52.7812385559082,58.16337966918945 51.618255615234375,58.144493103027344 51.24384689331055,58.13808059692383" fill="none" stroke="black" stroke-width="0.4"/>
  <path d="M 51.24384689331055,58.13808059692383 C 50.4476318359375,58.144588470458984 49.918094635009766,58.13740921020508 50.332271575927734,58.141502380371094 C 49.83097839355469,58.163307189941406 48.667991638183594,58.1444206237793 48.29358673095703,58.13800811767578" fill="none" stroke="black" stroke-width="0.4"/>
  <path d="M 48.29358673095703,58.13800811767578 C 47.49737548828125,58.14451599121094 46.967838287353516,58.13733673095703 47.382015228271484,58.14142990112305 C 46.88072204589844,58.16323471069336 45.717735290527344,58.14434814453125 45.34333038330078,58.137935638427734" fill="none" stroke="black" stroke-width="0.4"/>
  <path d="M 45.34333038330078,58.137935638427734 C 44.547115325927734,58.144447326660156 44.017578125,58.13726806640625 44.43175506591797,58.141361236572266 C 43.93046188354492,58.16316604614258 42.767478942871094,58.14427947998047 42.393070220947266,58.13786697387695" fill="none" stroke="black" stroke-width="0.4"/>
  <path d="M 42.393070220947266,58.13786697387695 C 41.59685516357422,58.14437484741211 41.067317962646484,58.1371955871582 41.48149490356445,58.14128875732422 C 40.980201721191406,58.16309356689453 39.81721496582031,58.14420700073242 39.44281005859375,58.137794494628906" fill="none" stroke="black" stroke-width="0.4"/>
  <path d="M 39.44281005859375,58.137794494628906 C 38.64659881591797,58.1442985534668 38.117061614990234,58.13711929321289 38.5312385559082,58.141212463378906 C 38.029945373535156,58.16301727294922 36.86695861816406,58.14413070678711 36.4925537109375,58.137718200683594" fill="none" stroke="black" stroke-width="0.4"/>
  <path d="M 36.4925537109375,58.137718200683594 C 35.69633865356445,58.14422607421875 35.16680145263672,58.137046813964844 35.58097839355469,58.14113998413086 C 35.07968521118164,58.16294479370117 33.91670227050781,58.14405822753906 33.542293548583984,58.13764572143555" fill="none" stroke="black" stroke-width="0.4"/>
  <path d="M 33.542293548583984,58.13764572143555 C 32.74607849121094,58.1441535949707 32.21654510498047,58.1369743347168 32.63071823120117,58.14106750488281 C 32.12942886352539,58.162872314453125 30.966442108154297,58.143985748291016 30.5920352935791,58.1375732421875" fill="none" stroke="black" stroke-width="0.4"/>
  <path d="M 30.5920352935791,58.1375732421875 C 29.795820236206055,58.144081115722656 29.266286849975586,58.13690185546875 29.680461883544922,58.140995025634766 C 29.179170608520508,58.16279983520508 28.016183853149414,58.14391326904297 27.64177703857422,58.13750076293945" fill="none" stroke="black" stroke-width="0.4"/>
  <path d="M 27.64177703857422,58.13750076293945 C 26.845561981201172,58.14400863647461 26.316028594970703,58.1368293762207 26.73020362854004,58.14092254638672 C 26.228912353515625,58.16272735595703 25.06592559814453,58.14384078979492 24.691518783569336,58.137428283691406" fill="none" stroke="black" stroke-width="0.4"/>
  <path d="M 24.691518783569336,58.137428283691406 C 23.89530372619629,58.14393615722656 23.36577033996582,58.136756896972656 23.779945373535156,58.14085006713867 C 23.278654098510742,58.162654876708984 22.11566734313965,58.143768310546875 21.741260528564453,58.13735580444336" fill="none" stroke="black" stroke-width="0.4"/>
  <path d="M 21.741260528564453,58.13735580444336 C 20.945043563842773,58.14385986328125 20.415510177612305,58.136680603027344 20.82968521118164,58.14077377319336 C 20.328393936157227,58.16257858276367 19.165407180786133,58.14369201660156 18.791000366210938,58.13727951049805" fill="none" stroke="black" stroke-width="0.4"/>
  <path d="M 18.791000366210938,58.13727951049805 C 17.99478530883789,58.1437873840332 17.465251922607422,58.1366081237793 17.879426956176758,58.14070129394531 C 17.378135681152344,58.162506103515625 16.21514892578125,58.143619537353516 15.840743064880371,58.13720703125" fill="none" stroke="black" stroke-width="0.4"/>
  <path d="M 14.899584770202637,56.0539436340332 C 14.809542655944824,56.49443054199219 14.829702377319336,56.740028381347656 14.87822151184082,56.501678466796875 C 14.849203109741211,57.038021087646484 14.336711883544922,58.04166793823242 15.840743064880371,58.13720703125" fill="none" stroke="black" stroke-width="0.4"/>
  <path d="M 15.55750846862793,53.258358001708984 C 15.531343460083008,53.3836784362793 15.407222747802734,53.7357063293457 15.542431831359863,53.3654670715332 C 15.347921371459961,54.0433235168457 15.0759916305542,55.066673278808594 14.899584770202637,56.0539436340332" fill="none" stroke="black" stroke-width="0.4"/>
  <path d="M 16.567264556884766,50.50218963623047 C 16.521242141723633,50.6685676574707 16.31705665588379,51.01727294921875 16.513296127319336,50.65824508666992 C 16.201091766357422,51.31523132324219 15.810256004333496,52.209228515625 15.55750846862793,53.258358001708984" fill="none" stroke="black" stroke-width="0.4"/>
  <path d="M 18.02825355529785,47.90035629272461 C 17.91364288330078,48.09310531616211 17.66269874572754,48.43936538696289 17.901405334472656,48.0890007019043 C 17.42311668395996,48.74269104003906 16.973630905151367,49.50785827636719 16.567264556884766,50.50218963623047" fill="none" stroke="black" stroke-width="0.4"/>
  <path d="M 19.753826141357422,45.546058654785156 C 19.57355308532715,45.72702407836914 19.2913875579834,46.06089782714844 19.543712615966797,45.76853942871094 C 19.010698318481445,46.39262008666992 18.452247619628906,47.04305648803711 18.02825355529785,47.90035629272461" fill="none" stroke="black" stroke-width="0.4"/>
  <path d="M 21.770837783813477,43.38020324707031 C 21.432607650756836,43.663291931152344 21.128507614135742,43.9670295715332 21.450733184814453,43.683746337890625 C 20.820222854614258,44.241737365722656 20.185108184814453,44.9022331237793 19.753826141357422,45.546058654785156" fill="none" stroke="black" stroke-width="0.4"/>
  <path d="M 24.063392639160156,41.55197525024414 C 23.66090965270996,41.83500671386719 23.344390869140625,42.1220703125 23.652952194213867,41.87169647216797 C 23.013587951660156,42.392303466796875 22.256738662719727,42.973480224609375 21.770837783813477,43.38020324707031" fill="none" stroke="black" stroke-width="0.4"/>
  <path d="M 26.61198616027832,40.069297790527344 C 26.053874969482422,40.36954116821289 25.7432861328125,40.5809440612793 26.06207275390625,40.38533020019531 C 25.341894149780273,40.821868896484375 24.483936309814453,41.359474182128906 24.063392639160156,41.55197525024414" fill="none" stroke="black" stroke-width="0.4"/>
  <path d="M 29.404388427734375,39.09779739379883 C 28.718488693237305,39.30921173095703 28.396188735961914,39.43914794921875 28.736434936523438,39.31051254272461 C 28.014888763427734,39.56650161743164 26.97486114501953,39.867069244384766 26.61198616027832,40.069297790527344" fill="none" stroke="black" stroke-width="0.4"/>
  <path d="M 32.263275146484375,38.392372131347656 C 31.61781120300293,38.487281799316406 31.183229446411133,38.564125061035156 31.62116050720215,38.48198699951172 C 30.90602684020996,38.62820816040039 29.90007781982422,38.81462478637695 29.404388427734375,39.09779739379883" fill="none" stroke="black" stroke-width="0.4"/>
  <path d="M 35.13031005859375,38.02381896972656 C 34.594600677490234,38.0443229675293 34.06806564331055,38.09435272216797 34.521507263183594,38.06524658203125 C 33.891502380371094,38.13410568237305 33.023338317871094,38.24003601074219 32.263275146484375,38.392372131347656" fill="none" stroke="black" stroke-width="0.4"/>
  <path d="M 38.1156120300293,38.1496696472168 C 37.63190460205078,38.098243713378906 37.091636657714844,38.11112976074219 37.51122283935547,38.10628128051758 C 36.93593978881836,38.114707946777344 35.84206771850586,38.08769989013672 35.13031005859375,38.02381896972656" fill="none" stroke="black" stroke-width="0.4"/>
  <path d="M 41.04093933105469,38.65293502807617 C 40.407108306884766,38.495361328125 39.96992492675781,38.46536636352539 40.28424072265625,38.50110626220703 C 39.760616302490234,38.414493560791016 38.954322814941406,38.296104431152344 38.1156120300293,38.1496696472168" fill="none" stroke="black" stroke-width="0.4"/>
  <path d="M 41.04093933105469,38.65293502807617 C 42.448814392089844,39.08035659790039 42.469215393066406,39.100608825683594 42.31955337524414,39.05948257446289 C 42.74740219116211,39.21537399291992 43.1806526184082,39.35117721557617 43.835872650146484,39.64490509033203" fill="none" stroke="black" stroke-width="0.4"/>
  <path d="M 43.835872650146484,39.64490509033203 C 45.07205581665039,40.142337799072266 45.178565979003906,40.25120162963867 44.99240493774414,40.14017105102539 C 45.512657165527344,40.37411117553711 45.98414611816406,40.56904983520508 46.512542724609375,40.85108184814453" fill="none" stroke="black" stroke-width="0.4"/>
  <path d="M 46.512542724609375,40.85108184814453 C 47.43574523925781,41.506744384765625 47.67072677612305,41.6844596862793 47.42937088012695,41.53269958496094 C 48.012046813964844,41.875160217285156 48.63391876220703,42.31406021118164 48.932838439941406,42.532371520996094" fill="none" stroke="black" stroke-width="0.4"/>
  <path d="M 48.932838439941406,42.532371520996094 C 49.63102722167969,43.13624954223633 49.913204193115234,43.37240982055664 49.6343994140625,43.15778350830078 C 50.22453689575195,43.60528564453125 50.879722595214844,44.245750427246094 51.130615234375,44.481407165527344" fill="none" stroke="black" stroke-width="0.4"/>
  <path d="M 51.130615234375,44.481407165527344 C 51.540958404541016,45.09693145751953 51.81592559814453,45.37517166137695 51.578575134277344,45.11888122558594 C 52.035560607910156,45.62664794921875 52.78726577758789,46.47011947631836 52.989200592041016,46.799217224121094" fill="none" stroke="black" stroke-width="0.4"/>
  <path d="M 52.989200592041016,46.799217224121094 C 53.324031829833984,47.30894470214844 53.56024932861328,47.62510681152344 53.358455657958984,47.380001068115234 C 53.72512435913086,47.86555862426758 54.27954864501953,48.742591857910156 54.573856353759766,49.263057708740234" fill="none" stroke="black" stroke-width="0.4"/>
  <path d="M 54.573856353759766,49.263057708740234 C 54.827537536621094,49.77705383300781 55.008663177490234,50.19230651855469 54.86496353149414,49.86018371582031 C 55.130069732666016,50.41551208496094 55.49730682373047,51.40174102783203 55.69045639038086,52.004425048828125" fill="none" stroke="black" stroke-width="0.4"/>
  <path d="M 55.69045639038086,52.004425048828125 C 55.91712188720703,52.55420684814453 56.03831481933594,53.006107330322266 55.926063537597656,52.594512939453125 C 56.151222229003906,53.29803466796875 56.37160110473633,54.47580337524414 56.454524993896484,54.84169387817383" fill="none" stroke="black" stroke-width="0.4"/>
  <path d="M 56.454524993896484,54.84169387817383 C 56.625919342041016,55.418704986572266 56.6995735168457,55.850502014160156 56.60730743408203,55.4290885925293 C 56.77571487426758,56.1794319152832 56.84782409667969,57.37721252441406 56.859779357910156,57.756954193115234" fill="none" stroke="black" stroke-width="0.4"/>
  <path d="M 56.859779357910156,57.756954193115234 C 57.642791748046875,60.12344741821289 57.13578414916992,60.096256256103516 57.56251525878906,60.109344482421875 C 56.99910354614258,60.1187744140625 55.99073791503906,60.11131286621094 55.47582244873047,60.110816955566406" fill="none" stroke="black" stroke-width="0.4"/>
  <path d="M 55.47582244873047,60.110816955566406 C 54.71636199951172,60.1207160949707 54.18031311035156,60.10186767578125 54.60410690307617,60.11922073364258 C 54.06349563598633,60.134857177734375 52.94623565673828,60.11603927612305 52.49497985839844,60.122779846191406" fill="none" stroke="black" stroke-width="0.4"/>
  <path d="M 52.49497985839844,60.122779846191406 C 51.73103332519531,60.1207160949707 51.194984436035156,60.10186767578125 51.618778228759766,60.11922073364258 C 51.07816696166992,60.134857177734375 49.960906982421875,60.11603927612305 49.50965118408203,60.122779846191406" fill="none" stroke="black" stroke-width="0.4"/>
  <path d="M 49.50965118408203,60.122779846191406 C 48.745704650878906,60.1207160949707 48.20965576171875,60.10186767578125 48.63344955444336,60.11922073364258 C 48.092838287353516,60.134857177734375 46.97557830810547,60.11603927612305 46.524322509765625,60.122779846191406" fill="none" stroke="black" stroke-width="0.4"/>
  <path d="M 46.524322509765625,60.122779846191406 C 45.760379791259766,60.1207160949707 45.22433090209961,60.10186767578125 45.64812469482422,60.11922073364258 C 45.107513427734375,60.134857177734375 43.99025344848633,60.11603927612305 43.538997650146484,60.122779846191406" fill="none" stroke="black" stroke-width="0.4"/>
  <path d="M 43.538997650146484,60.122779846191406 C 42.77505111694336,60.1207160949707 42.2390022277832,60.10186767578125 42.66279602050781,60.11922073364258 C 42.12218475341797,60.134857177734375 41.00492477416992,60.11603927612305 40.55366897583008,60.122779846191406" fill="none" stroke="black" stroke-width="0.4"/>
  <path d="M 40.55366897583008,60.122779846191406 C 39.78972244262695,60.1207160949707 39.2536735534668,60.10186767578125 39.677467346191406,60.11922073364258 C 39.13685607910156,60.134857177734375 38.019596099853516,60.11603927612305 37.56834030151367,60.122779846191406" fill="none" stroke="black" stroke-width="0.4"/>
  <path d="M 37.56834030151367,60.122779846191406 C 36.80439376831055,60.1207160949707 36.26834487915039,60.10186767578125 36.692138671875,60.11922073364258 C 36.151527404785156,60.134857177734375 35.03426742553711,60.11603927612305 34.583011627197266,60.122779846191406" fill="none" stroke="black" stroke-width="0.4"/>
  <path d="M 34.583011627197266,60.122779846191406 C 33.81906509399414,60.1207160949707 33.283016204833984,60.10186767578125 33.706809997558594,60.11922073364258 C 33.16619873046875,60.134857177734375 32.0489387512207,60.11603927612305 31.59768295288086,60.122779846191406" fill="none" stroke="black" stroke-width="0.4"/>
  <path d="M 31.59768295288086,60.122779846191406 C 30.833738327026367,60.1207160949707 30.29768943786621,60.10186767578125 30.721481323242188,60.11922073364258 C 30.18087387084961,60.134857177734375 29.06361198425293,60.11603927612305 28.612356185913086,60.122779846191406" fill="none" stroke="black" stroke-width="0.4"/>
  <path d="M 28.612356185913086,60.122779846191406 C 27.84840965270996,60.1207160949707 27.312360763549805,60.10186767578125 27.73615264892578,60.11922073364258 C 27.195545196533203,60.134857177734375 26.078283309936523,60.11603927612305 25.62702751159668,60.122779846191406" fill="none" stroke="black" stroke-width="0.4"/>
  <path d="M 25.62702751159668,60.122779846191406 C 24.863082885742188,60.1207160949707 24.32703399658203,60.10186767578125 24.750825881958008,60.11922073364258 C 24.21021842956543,60.134857177734375 23.09295654296875,60.11603927612305 22.641700744628906,60.122779846191406" fill="none" stroke="black" stroke-width="0.4"/>
  <path d="M 22.641700744628906,60.122779846191406 C 21.87775421142578,60.1207160949707 21.341705322265625,60.10186767578125 21.7654972076416,60.11922073364258 C 21.224889755249023,60.134857177734375 20.107627868652344,60.11603927612305 19.6563720703125,60.122779846191406" fill="none" stroke="black" stroke-width="0.4"/>
  <path d="M 19.6563720703125,60.122779846191406 C 18.892425537109375,60.1207160949707 18.35637664794922,60.10186767578125 18.780168533325195,60.11922073364258 C 18.239561080932617,60.134857177734375 17.122299194335938,60.11603927612305 16.671043395996094,60.122779846191406" fill="none" stroke="black" stroke-width="0.4"/>
  <path d="M 16.671043395996094,60.122779846191406 C 15.851884841918945,60.13493347167969 15.344876289367676,60.10774230957031 15.771607398986816,60.12083053588867 C 15.208195686340332,60.1302604675293 14.199832916259766,60.122798919677734 13.684914588928223,60.1223030090332" fill="none" stroke="black" stroke-width="0.4"/>
  <path d="M 12.860004425048828,57.638580322265625 C 12.855963706970215,58.04965591430664 12.872316360473633,58.357364654541016 12.887063026428223,58.06666564941406 C 12.914209365844727,58.69200134277344 12.577972412109375,59.71038818359375 13.684914588928223,60.1223030090332" fill="none" stroke="black" stroke-width="0.4"/>
  <path d="M 13.221168518066406,54.688961029052734 C 13.19577407836914,54.80311584472656 13.104816436767578,55.12421798706055 13.208535194396973,54.78598403930664 C 13.073348999023438,55.450801849365234 12.897821426391602,56.54496383666992 12.860004425048828,57.638580322265625" fill="none" stroke="black" stroke-width="0.4"/>
  <path d="M 13.95240306854248,51.76354217529297 C 13.908576965332031,51.89249038696289 13.803802490234375,52.26536560058594 13.935654640197754,51.894065856933594 C 13.710288047790527,52.58086395263672 13.471502304077148,53.58723068237305 13.221168518066406,54.688961029052734" fill="none" stroke="black" stroke-width="0.4"/>
  <path d="M 15.110872268676758,49.025814056396484 C 15.04354190826416,49.192420959472656 14.850914001464844,49.56123733520508 15.051143646240234,49.20209503173828 C 14.70763874053955,49.874996185302734 14.34157943725586,50.746089935302734 13.95240306854248,51.76354217529297" fill="none" stroke="black" stroke-width="0.4"/>
  <path d="M 16.630929946899414,46.463531494140625 C 16.516319274902344,46.656280517578125 16.2653751373291,47.002540588378906 16.50408172607422,46.65217590332031 C 16.025793075561523,47.30586624145508 15.576306343078613,48.0710334777832 15.110872268676758,49.025814056396484" fill="none" stroke="black" stroke-width="0.4"/>
  <path d="M 18.41643524169922,44.076194763183594 C 18.195465087890625,44.30959701538086 17.91033172607422,44.63544464111328 18.191850662231445,44.333091735839844 C 17.617765426635742,44.95716094970703 17.09503173828125,45.64216995239258 16.630929946899414,46.463531494140625" fill="none" stroke="black" stroke-width="0.4"/>
  <path d="M 20.512441635131836,41.962032318115234 C 20.13726234436035,42.280269622802734 19.819364547729492,42.58616638183594 20.14326286315918,42.30997848510742 C 19.510360717773438,42.84799575805664 18.851543426513672,43.500091552734375 18.41643524169922,44.076194763183594" fill="none" stroke="black" stroke-width="0.4"/>
  <path d="M 22.797876358032227,40.05650329589844 C 22.34527015686035,40.39778137207031 22.031431198120117,40.66511917114258 22.360248565673828,40.411495208740234 C 21.69731330871582,40.91257858276367 20.980907440185547,41.54353713989258 20.512441635131836,41.962032318115234" fill="none" stroke="black" stroke-width="0.4"/>
  <path d="M 25.409896850585938,38.61933135986328 C 24.708608627319336,38.967857360839844 24.43982696533203,39.12718963623047 24.737468719482422,38.96940612792969 C 23.987394332885742,39.36680221557617 23.108552932739258,39.87898635864258 22.797876358032227,40.05650329589844" fill="none" stroke="black" stroke-width="0.4"/>
  <path d="M 28.12761116027832,37.42827224731445 C 27.36784553527832,37.710968017578125 27.068904876708984,37.840354919433594 27.418333053588867,37.69792938232422 C 26.62779426574707,37.98957824707031 25.701377868652344,38.42815399169922 25.409896850585938,38.61933135986328" fill="none" stroke="black" stroke-width="0.4"/>
  <path d="M 29.131258010864258,36.13251495361328 C 29.598663330078125,36.34583282470703 29.38939666748047,36.49458694458008 29.524215698242188,36.441402435302734 C 29.672048568725586,36.66926193237305 29.54070281982422,37.113311767578125 28.12761116027832,37.42827224731445" fill="none" stroke="black" stroke-width="0.4"/>
  <path d="M 26.73177146911621,34.40652847290039 C 27.25942611694336,34.84940719604492 27.46519660949707,35.010372161865234 27.254276275634766,34.83531188964844 C 27.736042022705078,35.19856643676758 28.485889434814453,35.752193450927734 29.131258010864258,36.13251495361328" fill="none" stroke="black" stroke-width="0.4"/>
  <path d="M 24.794647216796875,32.13548278808594 C 24.96415138244629,32.3997917175293 25.193492889404297,32.64067459106445 24.978078842163086,32.38969802856445 C 25.375415802001953,32.919036865234375 26.186677932739258,33.816795349121094 26.73177146911621,34.40652847290039" fill="none" stroke="black" stroke-width="0.4"/>
  <path d="M 23.426158905029297,29.508756637573242 C 23.501026153564453,29.659765243530273 23.650047302246094,30.00522232055664 23.533174514770508,29.711021423339844 C 23.802295684814453,30.301950454711914 24.33633804321289,31.379711151123047 24.794647216796875,32.13548278808594" fill="none" stroke="black" stroke-width="0.4"/>
  <path d="M 22.752866744995117,26.57877540588379 C 22.784299850463867,26.764650344848633 22.84711265563965,27.211761474609375 22.806188583374023,26.801559448242188 C 22.92656135559082,27.518970489501953 23.178850173950195,28.780729293823242 23.426158905029297,29.508756637573242" fill="none" stroke="black" stroke-width="0.4"/>
  <path d="M 22.62567901611328,23.618263244628906 C 22.624902725219727,23.812576293945312 22.59871482849121,24.177297592163086 22.64070701599121,23.827007293701172 C 22.595611572265625,24.534360885620117 22.617319107055664,25.72153663635254 22.752866744995117,26.57877540588379" fill="none" stroke="black" stroke-width="0.4"/>
  <path d="M 23.276329040527344,20.710121154785156 C 23.232501983642578,20.839069366455078 23.127727508544922,21.211942672729492 23.259578704833984,20.840641021728516 C 23.03421401977539,21.52743911743164 22.795427322387695,22.53380584716797 22.62567901611328,23.618263244628906" fill="none" stroke="black" stroke-width="0.4"/>
  <path d="M 24.4945125579834,18.01569938659668 C 24.380369186401367,18.217056274414062 24.1752872467041,18.547073364257812 24.3815975189209,18.22999382019043 C 23.961519241333008,18.888473510742188 23.56800651550293,19.68053436279297 23.276329040527344,20.710121154785156" fill="none" stroke="black" stroke-width="0.4"/>
  <path d="M 26.25172996520996,15.613489151000977 C 26.077133178710938,15.821704864501953 25.800785064697266,16.131628036499023 26.053009033203125,15.830589294433594 C 25.505081176757812,16.458206176757812 25.027986526489258,17.150476455688477 24.4945125579834,18.01569938659668" fill="none" stroke="black" stroke-width="0.4"/>
  <path d="M 28.523895263671875,13.687223434448242 C 28.114429473876953,13.984061241149902 27.80894660949707,14.262128829956055 28.138301849365234,13.994342803955078 C 27.474454879760742,14.513582229614258 26.777050018310547,15.152485847473145 26.25172996520996,15.613489151000977" fill="none" stroke="black" stroke-width="0.4"/>
  <path d="M 31.214210510253906,12.40041446685791 C 30.42293930053711,12.716307640075684 30.14228057861328,12.843470573425293 30.486190795898438,12.708006858825684 C 29.65946388244629,13.03232192993164 28.78851890563965,13.560710906982422 28.523895263671875,13.687223434448242" fill="none" stroke="black" stroke-width="0.4"/>
  <path d="M 34.10127639770508,11.718377113342285 C 33.455810546875,11.813285827636719 33.0212287902832,11.890128135681152 33.45915985107422,11.807990074157715 C 32.7440299987793,11.954211235046387 31.738079071044922,12.140629768371582 31.214210510253906,12.40041446685791" fill="none" stroke="black" stroke-width="0.4"/>
  <path d="M 37.07540512084961,11.606115341186523 C 36.47453308105469,11.545082092285156 35.93052291870117,11.556361198425293 36.38380432128906,11.567418098449707 C 35.72124481201172,11.55444049835205 34.84278106689453,11.536751747131348 34.10127639770508,11.718377113342285" fill="none" stroke="black" stroke-width="0.4"/>
  <path d="M 39.96644592285156,12.213610649108887 C 39.29042053222656,11.990612983703613 38.8626823425293,11.937773704528809 39.15229034423828,12.002708435058594 C 38.68974304199219,11.891341209411621 38.05931854248047,11.742958068847656 37.07540512084961,11.606115341186523" fill="none" stroke="black" stroke-width="0.4"/>
  <path d="M 39.96644592285156,12.213610649108887 C 41.24803924560547,12.733574867248535 41.354549407958984,12.842437744140625 41.16838836669922,12.731405258178711 C 41.68864059448242,12.965346336364746 42.16012954711914,13.160287857055664 42.68852615356445,13.442319869995117" fill="none" stroke="black" stroke-width="0.4"/>
  <path d="M 42.68852615356445,13.442319869995117 C 43.5750617980957,14.079042434692383 43.85572814941406,14.305569648742676 43.58624267578125,14.121835708618164 C 44.21577453613281,14.503365516662598 44.86937713623047,15.02721118927002 45.067893981933594,15.231292724609375" fill="none" stroke="black" stroke-width="0.4"/>
  <path d="M 45.067893981933594,15.231292724609375 C 45.52527618408203,15.847491264343262 45.81081771850586,16.112436294555664 45.549110412597656,15.87459945678711 C 46.036399841308594,16.383176803588867 46.73209762573242,17.195768356323242 46.95372772216797,17.522274017333984" fill="none" stroke="black" stroke-width="0.4"/>
  <path d="M 46.95372772216797,17.522274017333984 C 47.252357482910156,18.136676788330078 47.46660232543945,18.507734298706055 47.291316986083984,18.209915161132812 C 47.62509536743164,18.751827239990234 48.07935333251953,19.721878051757812 48.271976470947266,20.21916961669922" fill="none" stroke="black" stroke-width="0.4"/>
  <path d="M 48.271976470947266,20.21916961669922 C 48.42754364013672,20.823482513427734 48.548736572265625,21.275379180908203 48.436485290527344,20.863788604736328 C 48.661643981933594,21.567306518554688 48.882022857666016,22.745075225830078 48.96494674682617,23.11096954345703" fill="none" stroke="black" stroke-width="0.4"/>
  <path d="M 48.96494674682617,23.11096954345703 C 48.99540710449219,23.6485538482666 49.01104736328125,24.000062942504883 49.013824462890625,23.65431022644043 C 49.05140686035156,24.33585548400879 49.0797004699707,25.540416717529297 49.00579833984375,26.108686447143555" fill="none" stroke="black" stroke-width="0.4"/>
  <path d="M 49.00579833984375,26.108686447143555 C 48.958824157714844,26.62042236328125 48.849918365478516,27.03887367248535 48.97781753540039,26.60938835144043 C 48.80653762817383,27.316246032714844 48.591697692871094,28.348411560058594 48.29716491699219,29.003480911254883" fill="none" stroke="black" stroke-width="0.4"/>
  <path d="M 48.29716491699219,29.003480911254883 C 48.24437713623047,29.53849983215332 48.040592193603516,29.933805465698242 48.20930480957031,29.554462432861328 C 47.963356018066406,30.19357681274414 47.570945739746094,30.999126434326172 47.1254768371582,31.685697555541992" fill="none" stroke="black" stroke-width="0.4"/>
  <path d="M 47.1254768371582,31.685697555541992 C 46.73215103149414,32.278751373291016 46.49020004272461,32.68251037597656 46.69033432006836,32.34468460083008 C 46.344970703125,32.91702651977539 45.774208068847656,33.588653564453125 45.30771255493164,34.0734748840332" fill="none" stroke="black" stroke-width="0.4"/>
  <path d="M 45.30771255493164,34.0734748840332 C 44.61467361450195,34.60139083862305 44.28862762451172,34.91352462768555 44.559810638427734,34.652976989746094 C 44.011043548583984,35.15814208984375 43.268775939941406,35.68745422363281 42.983299255371094,35.96183395385742" fill="none" stroke="black" stroke-width="0.4"/>
  <path d="M 42.983299255371094,35.96183395385742 C 42.254310607910156,36.48749542236328 42.207115173339844,36.540260314941406 42.256107330322266,36.48551559448242 C 41.968570709228516,36.57624816894531 41.873741149902344,37.09437561035156 43.19739532470703,37.221961975097656" fill="none" stroke="black" stroke-width="0.4"/>
  <path d="M 43.19739532470703,37.221961975097656 C 44.4532470703125,37.76335906982422 44.47364807128906,37.78361129760742 44.3239860534668,37.74248504638672 C 44.751834869384766,37.89837646484375 45.18508529663086,38.0341796875 45.84030532836914,38.327911376953125" fill="none" stroke="black" stroke-width="0.4"/>
  <path d="M 45.84030532836914,38.327911376953125 C 46.94108200073242,38.940765380859375 47.117366790771484,39.07478332519531 46.9028205871582,38.95083236694336 C 47.46436309814453,39.23973846435547 48.00577163696289,39.55096435546875 48.42129898071289,39.80801010131836" fill="none" stroke="black" stroke-width="0.4"/>
  <path d="M 48.42129898071289,39.80801010131836 C 49.30255126953125,40.4932861328125 49.54258346557617,40.67539596557617 49.31596374511719,40.519309997558594 C 49.8643798828125,40.87309646606445 50.539302825927734,41.368736267089844 50.82640838623047,41.56966781616211" fill="none" stroke="black" stroke-width="0.4"/>
  <path d="M 50.82640838623047,41.56966781616211 C 51.40857696533203,42.16266632080078 51.69398880004883,42.41218948364258 51.41445541381836,42.172019958496094 C 51.97018051147461,42.672569274902344 52.7288818359375,43.448577880859375 52.94062423706055,43.65607833862305" fill="none" stroke="black" stroke-width="0.4"/>
  <path d="M 52.94062423706055,43.65607833862305 C 53.379913330078125,44.2299690246582 53.628761291503906,44.5152702331543 53.41582107543945,44.26264190673828 C 53.83425521850586,44.76445388793945 54.51737594604492,45.619144439697266 54.77553176879883,46.01765441894531" fill="none" stroke="black" stroke-width="0.4"/>
  <path d="M 54.77553176879883,46.01765441894531 C 55.14704513549805,46.51985549926758 55.38480758666992,46.868133544921875 55.20048141479492,46.609222412109375 C 55.52342224121094,47.091609954833984 56.0662841796875,48.003875732421875 56.31715774536133,48.578651428222656" fill="none" stroke="black" stroke-width="0.4"/>
  <path d="M 56.31715774536133,48.578651428222656 C 56.57350158691406,49.12922668457031 56.75014114379883,49.512840270996094 56.60222625732422,49.210567474365234 C 56.899818420410156,49.75395965576172 57.28609848022461,50.72199630737305 57.5349006652832,51.27897262573242" fill="none" stroke="black" stroke-width="0.4"/>
  <path d="M 57.5349006652832,51.27897262573242 C 57.66230010986328,51.86249923706055 57.80034637451172,52.287864685058594 57.678890228271484,51.917457580566406 C 57.908592224121094,52.552677154541016 58.23042297363281,53.684326171875 58.34854507446289,54.15163040161133" fill="none" stroke="black" stroke-width="0.4"/>
  <path d="M 58.34854507446289,54.15163040161133 C 58.41459655761719,54.85696792602539 58.50422668457031,55.30430221557617 58.427772521972656,54.85736846923828 C 58.605804443359375,55.61067581176758 58.78440475463867,56.857566833496094 58.80750274658203,57.12657165527344" fill="none" stroke="black" stroke-width="0.4"/>
  <path d="M 58.80750274658203,57.12657165527344 C 58.77592086791992,57.82303237915039 58.80372619628906,58.18544387817383 58.76940155029297,57.821346282958984 C 58.80816650390625,58.49845886230469 59.00202560424805,59.57845687866211 58.43134689331055,59.94476318359375" fill="none" stroke="black" stroke-width="0.4"/>
</svg>
