<?xml version="1.0" encoding="utf-8" ?>
<svg xmlns="http://www.w3.org/2000/svg" xmlns:ev="http://www.w3.org/2001/xml-events" xmlns:xlink="http://www.w3.org/1999/xlink" baseProfile="full" height="480" version="1.1" viewBox="0 0 72 72" width="480">
  <defs/>
  <path d="M 51.21631622314453,52.9958610534668 C 50.58964157104492,53.1132698059082 50.06010437011719,53.1060905456543 50.474281311035156,53.11018371582031 C 49.97298812866211,53.131988525390625 48.81000518798828,53.113101959228516 48.43559646606445,53.106689453125" fill="none" stroke="black" stroke-width="0.4"/>
  <path d="M 48.43559646606445,53.106689453125 C 47.6421012878418,53.11183166503906 47.11256408691406,53.104652404785156 47.52674102783203,53.10874557495117 C 47.025447845458984,53.130550384521484 45.862464904785156,53.111663818359375 45.48805618286133,53.10525131225586" fill="none" stroke="black" stroke-width="0.4"/>
  <path d="M 45.48805618286133,53.10525131225586 C 44.69453048706055,53.11183166503906 44.16499328613281,53.104652404785156 44.57917022705078,53.10874557495117 C 44.077877044677734,53.130550384521484 42.914894104003906,53.111663818359375 42.54048538208008,53.10525131225586" fill="none" stroke="black" stroke-width="0.4"/>
  <path d="M 42.54048538208008,53.10525131225586 C 41.74696350097656,53.11183166503906 41.21742630004883,53.104652404785156 41.6316032409668,53.10874557495117 C 41.13031005859375,53.130550384521484 39.96732711791992,53.111663818359375 39.592918395996094,53.10525131225586" fill="none" stroke="black" stroke-width="0.4"/>
  <path d="M 39.592918395996094,53.10525131225586 C 38.79939270019531,53.11183166503906 38.26985549926758,53.104652404785156 38.68403244018555,53.10874557495117 C 38.1827392578125,53.130550384521484 37.01975631713867,53.111663818359375 36.645347595214844,53.10525131225586" fill="none" stroke="black" stroke-width="0.4"/>
  <path d="M 36.645347595214844,53.10525131225586 C 35.85182189941406,53.11183166503906 35.32228469848633,53.104652404785156 35.7364616394043,53.10874557495117 C 35.23516845703125,53.130550384521484 34.07218551635742,53.111663818359375 33.697776794433594,53.10525131225586" fill="none" stroke="black" stroke-width="0.4"/>
  <path d="M 33.697776794433594,53.10525131225586 C 32.90425109863281,53.11183166503906 32.37471389770508,53.104652404785156 32.78889083862305,53.10874557495117 C 32.28759765625,53.130550384521484 31.12461280822754,53.111663818359375 30.750205993652344,53.10525131225586" fill="none" stroke="black" stroke-width="0.4"/>
  <path d="M 30.750205993652344,53.10525131225586 C 29.956682205200195,53.11183166503906 29.427148818969727,53.104652404785156 29.841323852539062,53.10874557495117 C 29.34003257751465,53.130550384521484 28.177045822143555,53.111663818359375 27.80263900756836,53.10525131225586" fill="none" stroke="black" stroke-width="0.4"/>
  <path d="M 27.80263900756836,53.10525131225586 C 27.009111404418945,53.11183166503906 26.479578018188477,53.104652404785156 26.893753051757812,53.10874557495117 C 26.3924617767334,53.130550384521484 25.229475021362305,53.111663818359375 24.85506820678711,53.10525131225586" fill="none" stroke="black" stroke-width="0.4"/>
  <path d="M 24.85506820678711,53.10525131225586 C 24.061542510986328,53.11183166503906 23.53200912475586,53.104652404785156 23.946184158325195,53.10874557495117 C 23.44489288330078,53.130550384521484 22.281906127929688,53.111663818359375 21.907501220703125,53.10525131225586" fill="none" stroke="black" stroke-width="0.4"/>
  <path d="M 20.171161651611328,51.77056121826172 C 20.091447830200195,52.33230972290039 20.191879272460938,52.34096908569336 20.15833282470703,52.25142288208008 C 20.044462203979492,52.54238510131836 19.94232940673828,53.28400421142578 21.907501220703125,53.10525131225586" fill="none" stroke="black" stroke-width="0.4"/>
  <path d="M 20.769968032836914,48.8494987487793 C 20.70379638671875,49.015968322753906 20.583927154541016,49.304786682128906 20.719587326049805,49.00804138183594 C 20.50811195373535,49.6533203125 20.293251037597656,50.65537643432617 20.171161651611328,51.77056121826172" fill="none" stroke="black" stroke-width="0.4"/>
  <path d="M 21.799610137939453,46.13180923461914 C 21.75358772277832,46.298187255859375 21.549402236938477,46.64689636230469 21.745641708374023,46.287864685058594 C 21.43343734741211,46.94485092163086 21.042600631713867,47.83884811401367 20.769968032836914,48.8494987487793" fill="none" stroke="black" stroke-width="0.4"/>
  <path d="M 23.375883102416992,43.600765228271484 C 23.261272430419922,43.793514251708984 23.01032829284668,44.139774322509766 23.249034881591797,43.78940963745117 C 22.7707462310791,44.44309997558594 22.321260452270508,45.20826721191406 21.799610137939453,46.13180923461914" fill="none" stroke="black" stroke-width="0.4"/>
  <path d="M 25.352741241455078,41.425933837890625 C 25.064176559448242,41.680381774902344 24.77254867553711,41.980438232421875 25.07586669921875,41.690128326416016 C 24.461313247680664,42.271583557128906 23.86797332763672,42.934906005859375 23.375883102416992,43.600765228271484" fill="none" stroke="black" stroke-width="0.4"/>
  <path d="M 27.738950729370117,39.679664611816406 C 27.202770233154297,40.0330924987793 26.893428802490234,40.260536193847656 27.225542068481445,40.03416442871094 C 26.525606155395508,40.496620178222656 25.756628036499023,41.105979919433594 25.352741241455078,41.425933837890625" fill="none" stroke="black" stroke-width="0.4"/>
  <path d="M 29.592966079711914,38.14212417602539 C 29.693159103393555,38.417518615722656 29.405479431152344,38.6677131652832 29.555599212646484,38.547603607177734 C 29.39759635925293,38.903541564941406 28.759605407714844,39.133811950683594 27.738950729370117,39.679664611816406" fill="none" stroke="black" stroke-width="0.4"/>
  <path d="M 27.39434814453125,36.15420150756836 C 27.67605972290039,36.5174446105957 27.89473533630371,36.708648681640625 27.671937942504883,36.48360061645508 C 28.116722106933594,36.94712829589844 28.898448944091797,37.69081497192383 29.592966079711914,38.14212417602539" fill="none" stroke="black" stroke-width="0.4"/>
  <path d="M 25.81329917907715,33.68449401855469 C 25.88787269592285,33.839576721191406 26.020788192749023,34.15864562988281 25.916440963745117,33.898624420166016 C 26.18828773498535,34.423980712890625 26.766651153564453,35.315032958984375 27.39434814453125,36.15420150756836" fill="none" stroke="black" stroke-width="0.4"/>
  <path d="M 25.05055809020996,30.85409927368164 C 25.078290939331055,31.040115356445312 25.140451431274414,31.426185607910156 25.109474182128906,31.11024284362793 C 25.211759567260742,31.719850540161133 25.523189544677734,32.86110305786133 25.81329917907715,33.68449401855469" fill="none" stroke="black" stroke-width="0.4"/>
  <path d="M 25.093339920043945,27.924617767333984 C 25.0808162689209,28.066570281982422 25.041162490844727,28.381649017333984 25.101024627685547,28.06192970275879 C 25.054637908935547,28.730680465698242 24.996450424194336,29.912582397460938 25.05055809020996,30.85409927368164" fill="none" stroke="black" stroke-width="0.4"/>
  <path d="M 25.88504409790039,25.111373901367188 C 25.82990837097168,25.282724380493164 25.66851806640625,25.60537338256836 25.835702896118164,25.273479461669922 C 25.568151473999023,25.93255043029785 25.2528133392334,26.871694564819336 25.093339920043945,27.924617767333984" fill="none" stroke="black" stroke-width="0.4"/>
  <path d="M 27.528627395629883,22.642601013183594 C 27.35403060913086,22.85081672668457 27.077682495117188,23.16073989868164 27.32990837097168,22.85970115661621 C 26.781978607177734,23.48731803894043 26.304885864257812,24.179588317871094 25.88504409790039,25.111373901367188" fill="none" stroke="black" stroke-width="0.4"/>
  <path d="M 29.594284057617188,20.596269607543945 C 29.184816360473633,20.89310646057129 28.879335403442383,21.171175003051758 29.208690643310547,20.90338897705078 C 28.544843673706055,21.42262840270996 27.84743881225586,22.061532974243164 27.528627395629883,22.642601013183594" fill="none" stroke="black" stroke-width="0.4"/>
  <path d="M 32.15730285644531,19.18275260925293 C 31.496047973632812,19.474008560180664 31.177467346191406,19.643190383911133 31.535995483398438,19.464786529541016 C 30.749940872192383,19.829408645629883 29.904964447021484,20.383007049560547 29.594284057617188,20.596269607543945" fill="none" stroke="black" stroke-width="0.4"/>
  <path d="M 35.02213668823242,18.60542869567871 C 34.32408905029297,18.65308380126953 33.86736297607422,18.733951568603516 34.308982849121094,18.67559242248535 C 33.550025939941406,18.784576416015625 32.73347091674805,19.055419921875 32.15730285644531,19.18275260925293" fill="none" stroke="black" stroke-width="0.4"/>
  <path d="M 37.985015869140625,18.754287719726562 C 37.32094955444336,18.625473022460938 36.755958557128906,18.635286331176758 37.20950698852539,18.661897659301758 C 36.54692459106445,18.63037109375 35.79875946044922,18.592144012451172 35.02213668823242,18.60542869567871" fill="none" stroke="black" stroke-width="0.4"/>
  <path d="M 37.985015869140625,18.754287719726562 C 39.4441032409668,19.178342819213867 39.42587661743164,19.171857833862305 39.29711151123047,19.180879592895508 C 39.70016860961914,19.28611946105957 40.123966217041016,19.423734664916992 40.7474250793457,19.713647842407227" fill="none" stroke="black" stroke-width="0.4"/>
  <path d="M 40.7474250793457,19.713647842407227 C 41.6655158996582,20.288063049316406 41.94618225097656,20.514591217041016 41.67669677734375,20.330856323242188 C 42.30622863769531,20.712387084960938 42.95983123779297,21.23623275756836 43.15835189819336,21.44031524658203" fill="none" stroke="black" stroke-width="0.4"/>
  <path d="M 43.15835189819336,21.44031524658203 C 43.70066452026367,21.966873168945312 43.948753356933594,22.244401931762695 43.721656799316406,22.011987686157227 C 44.18716812133789,22.472366333007812 44.7558708190918,23.225915908813477 45.05223846435547,23.623281478881836" fill="none" stroke="black" stroke-width="0.4"/>
  <path d="M 45.05223846435547,23.623281478881836 C 45.33108139038086,24.189857482910156 45.54664611816406,24.59182357788086 45.37828063964844,24.26538848876953 C 45.6744384765625,24.817705154418945 46.112037658691406,25.808561325073242 46.23762512207031,26.351913452148438" fill="none" stroke="black" stroke-width="0.4"/>
  <path d="M 46.23762512207031,26.351913452148438 C 46.40060043334961,27.01224136352539 46.51913070678711,27.436086654663086 46.39622116088867,27.019512176513672 C 46.63416290283203,27.738611221313477 46.73149871826172,28.872461318969727 46.65908432006836,29.244539260864258" fill="none" stroke="black" stroke-width="0.4"/>
  <path d="M 46.65908432006836,29.244539260864258 C 46.697227478027344,29.785306930541992 46.65855407714844,30.163286209106445 46.6852912902832,29.788009643554688 C 46.64259719848633,30.4502010345459 46.558799743652344,31.512426376342773 46.263004302978516,32.1525993347168" fill="none" stroke="black" stroke-width="0.4"/>
  <path d="M 46.263004302978516,32.1525993347168 C 46.22781753540039,32.662052154541016 46.02403259277344,33.0573616027832 46.192745208740234,32.678016662597656 C 45.94679641723633,33.31713104248047 45.554386138916016,34.1226806640625 45.108917236328125,34.80925369262695" fill="none" stroke="black" stroke-width="0.4"/>
  <path d="M 45.108917236328125,34.80925369262695 C 44.81857681274414,35.462066650390625 44.537784576416016,35.82621383666992 44.77229690551758,35.52263641357422 C 44.355342864990234,36.06889724731445 43.73371505737305,36.64717102050781 43.28015899658203,37.12302780151367" fill="none" stroke="black" stroke-width="0.4"/>
  <path d="M 43.28015899658203,37.12302780151367 C 42.52510452270508,37.720638275146484 42.3939094543457,37.83246994018555 42.56999206542969,37.7599983215332 C 42.096092224121094,38.0212516784668 41.58689498901367,38.78176498413086 42.50105285644531,38.95349884033203" fill="none" stroke="black" stroke-width="0.4"/>
  <path d="M 42.50105285644531,38.95349884033203 C 43.591796875,39.471622467041016 43.75772476196289,39.60921096801758 43.55925369262695,39.48331832885742 C 44.0822639465332,39.78460693359375 44.559532165527344,40.10612106323242 45.04462814331055,40.40728759765625" fill="none" stroke="black" stroke-width="0.4"/>
  <path d="M 45.04462814331055,40.40728759765625 C 45.78398513793945,40.994384765625 46.066162109375,41.23054504394531 45.787357330322266,41.01591873168945 C 46.37749481201172,41.46342086791992 47.03268051147461,42.103885650634766 47.283573150634766,42.339542388916016" fill="none" stroke="black" stroke-width="0.4"/>
  <path d="M 47.283573150634766,42.339542388916016 C 47.69917297363281,42.91319274902344 47.95634078979492,43.18639373779297 47.718109130859375,42.95119094848633 C 48.167259216308594,43.45233154296875 48.795265197753906,44.280338287353516 49.071250915527344,44.67347717285156" fill="none" stroke="black" stroke-width="0.4"/>
  <path d="M 49.071250915527344,44.67347717285156 C 49.36699295043945,45.252742767333984 49.58123779296875,45.623802185058594 49.40595245361328,45.32598114013672 C 49.73973083496094,45.86789321899414 50.19398880004883,46.83794403076172 50.38661193847656,47.335235595703125" fill="none" stroke="black" stroke-width="0.4"/>
  <path d="M 50.38661193847656,47.335235595703125 C 50.624534606933594,47.86469268798828 50.7457275390625,48.316593170166016 50.63347625732422,47.904998779296875 C 50.85863494873047,48.6085205078125 51.07901382446289,49.78628921508789 51.16193771362305,50.15217971801758" fill="none" stroke="black" stroke-width="0.4"/>
  <path d="M 51.16193771362305,50.15217971801758 C 51.37809753417969,50.730743408203125 51.42798614501953,51.09488296508789 51.384830474853516,50.73976516723633 C 51.458038330078125,51.38735580444336 51.54115295410156,52.4867057800293 51.21631622314453,52.9958610534668" fill="none" stroke="black" stroke-width="0.4"/>
</svg>
