<?xml version="1.0" ?>
<svg xmlns="http://www.w3.org/2000/svg" version="1.1" width="400" height="400">
  <defs/>
  <g>
    <path d="M 346.3064270019531 194.52500915527344 C 346.2991638183594 208.63973999023438 345.4424743652344 222.01036071777344 343.6717529296875 234.921875 C 340.85565185546875 247.6956329345703 336.6510009765625 260.1125183105469 330.6011657714844 272.2056579589844 C 322.0641174316406 284.1934814453125 310.3556213378906 296.0008239746094 295.5927429199219 307.3756408691406 C 278.6559753417969 317.4856262207031 260.8510437011719 325.5534362792969 242.54736328125 331.3109130859375 C 223.50970458984375 334.9070129394531 203.2299041748047 336.2152404785156 181.48440551757812 335.0380554199219 C 159.11892700195312 330.9284973144531 136.90777587890625 323.5720520019531 115.50296783447266 313.1829833984375 C 96.4423828125 300.5471496582031 81.18000793457031 286.7373352050781 70.10765838623047 272.3576354980469 C 62.46039581298828 257.685546875 57.43687438964844 242.5754852294922 54.33145523071289 227.75755310058594 C 52.5455322265625 213.7664337158203 51.84354019165039 200.2070770263672 52.0556640625 186.78797912597656 C 53.17951965332031 172.77854919433594 55.487815856933594 157.5780029296875 59.58355712890625 140.8419952392578 C 66.38139343261719 122.92564392089844 77.25079345703125 104.5842514038086 93.21836853027344 87.26130676269531 C 114.00059509277344 73.05886840820312 138.62184143066406 63.1931037902832 164.86599731445312 57.21363067626953 C 189.8961639404297 54.49964904785156 213.66995239257812 54.538360595703125 237.04013061523438 57.439697265625 C 260.23223876953125 63.956817626953125 283.3415222167969 74.50749206542969 304.84478759765625 88.87105560302734 C 321.4881286621094 106.43434143066406 332.4637145996094 125.56891632080078 339.134765625 144.39031982421875 C 343.1199951171875 162.4974822998047 345.3451843261719 179.414306640625 346.3064270019531 194.52500915527344" stroke-width="2.0" fill="rgb(252, 210, 48)" opacity="1.0" stroke="rgb(252, 210, 48)" stroke-opacity="1.0" stroke-linecap="round" stroke-linejoin="round"/>
    <path d="M 277.87939453125 202.4475555419922 C 277.218017578125 202.5751495361328 276.33465576171875 202.68016052246094 275.23382568359375 202.8065185546875 C 273.8462219238281 203.09803771972656 272.13348388671875 203.65399169921875 269.9964599609375 204.6176300048828 C 267.4066162109375 205.9986114501953 264.589111328125 207.66102600097656 261.87078857421875 209.60214233398438 C 259.2603759765625 211.8046875 256.7510986328125 214.27847290039062 254.34535217285156 216.99053955078125 C 251.99819946289062 219.7716064453125 249.73544311523438 222.37112426757812 247.75808715820312 224.62130737304688 C 246.28807067871094 226.22552490234375 245.41761779785156 226.84628295898438 245.38783264160156 226.45278930664062 C 246.29623413085938 225.06796264648438 247.94720458984375 222.94845581054688 250.16275024414062 220.5711669921875 C 252.75393676757812 218.04461669921875 255.50811767578125 215.418212890625 258.3385009765625 212.7658233642578 C 261.1376953125 210.23121643066406 263.69549560546875 208.04135131835938 265.92535400390625 206.26425170898438 C 267.86712646484375 204.96249389648438 269.56854248046875 204.09024047851562 271.10076904296875 203.45973205566406 C 272.4725646972656 202.96595764160156 273.6182556152344 202.61778259277344 274.5484619140625 202.37033081054688 C 275.3131103515625 202.28338623046875 275.8802185058594 202.33872985839844 276.3058166503906 202.3498077392578 C 276.631591796875 202.27975463867188 276.83349609375 202.0413360595703 276.97613525390625 201.6494140625 C 277.17877197265625 201.2958221435547 277.48583984375 201.09080505371094 277.896728515625 201.00146484375 C 278.30572509765625 201.0720672607422 278.56298828125 201.27682495117188 278.650390625 201.52468872070312 C 278.57952880859375 201.85609436035156 278.3266296386719 202.21815490722656 277.87939453125 202.4475555419922" stroke-width="2.0" fill="rgb(237, 235, 204)" opacity="1.0" stroke="rgb(237, 235, 204)" stroke-opacity="1.0" stroke-linecap="round" stroke-linejoin="round"/>
    <path d="M 278.0189208984375 171.18545532226562 C 277.36053466796875 171.31248474121094 276.48114013671875 171.41702270507812 275.38525390625 171.54281616210938 C 274.00384521484375 171.83302307128906 272.2987976074219 172.38648986816406 270.17138671875 173.34579467773438 C 267.5931396484375 174.72059631347656 264.78826904296875 176.37554931640625 262.0821533203125 178.30795288085938 C 259.4834289550781 180.50062561035156 256.98541259765625 182.96331787109375 254.59043884277344 185.66323852539062 C 252.25381469726562 188.43182373046875 250.00120544433594 191.01968383789062 248.03271484375 193.25979614257812 C 246.5692901611328 194.8568115234375 245.70272827148438 195.47479248046875 245.67308044433594 195.08303833007812 C 246.57740783691406 193.70443725585938 248.2209930419922 191.5944366455078 250.4265899658203 189.227783203125 C 253.00616455078125 186.71258544921875 255.7480010986328 184.09796142578125 258.565673828125 181.45745849609375 C 261.35235595703125 178.93421936035156 263.8986511230469 176.754150390625 266.1184997558594 174.98504638671875 C 268.05157470703125 173.68911743164062 269.745361328125 172.82078552246094 271.27069091796875 172.19309997558594 C 272.6363525390625 171.7015380859375 273.77691650390625 171.35491943359375 274.70294189453125 171.10858154296875 C 275.46417236328125 171.0220184326172 276.02874755859375 171.07711791992188 276.4524230957031 171.08815002441406 C 276.7767333984375 171.01840209960938 276.97772216796875 170.78106689453125 277.1197204589844 170.39089965820312 C 277.32147216796875 170.0388946533203 277.62713623046875 169.8347930908203 278.0362243652344 169.745849609375 C 278.443359375 169.81614685058594 278.6994934082031 170.01998901367188 278.7864990234375 170.2667236328125 C 278.7159423828125 170.59664916992188 278.46417236328125 170.95709228515625 278.0189208984375 171.18545532226562" stroke-width="2.0" fill="rgb(237, 235, 204)" opacity="1.0" stroke="rgb(237, 235, 204)" stroke-opacity="1.0" stroke-linecap="round" stroke-linejoin="round"/>
    <path d="M 274.41448974609375 182.5644989013672 C 273.7857666015625 182.685791015625 272.94598388671875 182.78562927246094 271.8994445800781 182.90576171875 C 270.58026123046875 183.18289184570312 268.9519958496094 183.71142578125 266.92041015625 184.6275177001953 C 264.45831298828125 185.9403839111328 261.77978515625 187.5207977294922 259.195556640625 189.36614990234375 C 256.71392822265625 191.46005249023438 254.32839965820312 193.81182861328125 252.04132080078125 196.39010620117188 C 249.80995178222656 199.03399658203125 247.65879821777344 201.50527954101562 245.77899169921875 203.64447021484375 C 244.38148498535156 205.1695556640625 243.55397033691406 205.75970458984375 243.52565002441406 205.38560485839844 C 244.3892364501953 204.069091796875 245.9587860107422 202.05413818359375 248.06503295898438 199.79409790039062 C 250.52841186523438 197.39218139648438 253.146728515625 194.89535522460938 255.83749389648438 192.373779296875 C 258.4986267089844 189.96420288085938 260.93023681640625 187.88235473632812 263.05010986328125 186.1929168701172 C 264.8961181640625 184.9553680419922 266.5135498046875 184.12615966796875 267.97021484375 183.5267333984375 C 269.27435302734375 183.05731201171875 270.3635559082031 182.726318359375 271.24786376953125 182.4910888671875 C 271.97479248046875 182.40841674804688 272.513916015625 182.46102905273438 272.91851806640625 182.4715576171875 C 273.228271484375 182.40496826171875 273.420166015625 182.17831420898438 273.5557861328125 181.80572509765625 C 273.7484436035156 181.46957397460938 274.04034423828125 181.274658203125 274.43096923828125 181.18972778320312 C 274.81976318359375 181.25686645507812 275.06439208984375 181.45152282714844 275.1474609375 181.68714904785156 C 275.080078125 182.00221252441406 274.83966064453125 182.34640502929688 274.41448974609375 182.5644989013672" stroke-width="2.0" fill="rgb(237, 235, 204)" opacity="1.0" stroke="rgb(237, 235, 204)" stroke-opacity="1.0" stroke-linecap="round" stroke-linejoin="round"/>
    <path d="M 242.22427368164062 293.236572265625 C 242.3950653076172 295.75579833984375 242.31224060058594 298.0484313964844 241.99557495117188 300.0314636230469 C 241.4420166015625 301.6976318359375 240.6224822998047 302.99462890625 239.49533081054688 303.8092956542969 C 237.97491455078125 304.14984130859375 235.88807678222656 303.9529113769531 233.00503540039062 303.2279357910156 C 228.972412109375 302.22119140625 223.42062377929688 301.0504455566406 215.9507293701172 299.94927978515625 C 206.49232482910156 299.41748046875 195.70770263671875 299.3539123535156 184.8026885986328 299.630615234375 C 175.42543029785156 300.43182373046875 168.2135772705078 301.4512634277344 163.04942321777344 302.28515625 C 159.4180145263672 302.7878112792969 156.8524627685547 302.64300537109375 155.01783752441406 301.7964172363281 C 153.6922149658203 300.44024658203125 152.75701904296875 298.79925537109375 152.11700439453125 296.9366760253906 C 151.72943115234375 294.8844909667969 151.58126831054688 292.7021179199219 151.65185546875 290.4443054199219 C 151.95947265625 288.19342041015625 152.52725219726562 285.9704895019531 153.39370727539062 283.74945068359375 C 154.63746643066406 281.57977294921875 156.418212890625 279.476806640625 158.94923400878906 277.4604797363281 C 162.51109313964844 275.6048889160156 167.41470336914062 273.8208923339844 174.059814453125 272.1502685546875 C 182.67608642578125 270.8725891113281 192.99021911621094 270.38525390625 204.04776000976562 271.130126953125 C 214.48052978515625 273.16314697265625 223.15367126464844 275.63153076171875 229.67599487304688 278.0793151855469 C 234.28787231445312 280.5075378417969 237.425537109375 282.9677429199219 239.5203094482422 285.4211120605469 C 240.89700317382812 287.98284912109375 241.75015258789062 290.6298828125 242.22427368164062 293.236572265625" stroke-width="2.0" fill="rgb(232, 125, 106)" opacity="1.0" stroke="rgb(232, 125, 106)" stroke-opacity="1.0" stroke-linecap="round" stroke-linejoin="round"/>
    <path d="M 282.1499328613281 174.62400817871094 C 282.0570983886719 176.84962463378906 281.6665954589844 178.84934997558594 280.9969177246094 180.58694458007812 C 280.0047912597656 182.07254028320312 278.6167907714844 183.27621459960938 276.7892150878906 184.13262939453125 C 274.484375 184.5224151611328 271.6582946777344 184.12538146972656 268.3644714355469 182.65194702148438 C 264.73858642578125 179.9043426513672 261.0206298828125 176.2467498779297 257.4383544921875 172.57125854492188 C 254.0692596435547 170.23101806640625 250.67681884765625 170.2909393310547 246.89572143554688 172.84503173828125 C 242.7114715576172 176.90272521972656 238.33335876464844 181.04696655273438 234.2310333251953 183.94020080566406 C 230.6984100341797 185.11752319335938 227.99249267578125 185.01522827148438 225.9333953857422 184.3030548095703 C 224.32034301757812 183.29879760742188 223.07571411132812 182.10073852539062 222.1353302001953 180.73526000976562 C 221.46939086914062 179.2284698486328 221.05538940429688 177.55111694335938 220.882080078125 175.66943359375 C 220.9803466796875 173.57513427734375 221.41650390625 171.20733642578125 222.25650024414062 168.4314422607422 C 223.6398162841797 165.21188354492188 225.72898864746094 161.60662841796875 228.56436157226562 157.9373016357422 C 232.1812744140625 154.4963836669922 236.49578857421875 151.51564025878906 241.2722625732422 149.19776916503906 C 246.31483459472656 147.73313903808594 251.46295166015625 147.1962432861328 256.5904541015625 147.67080688476562 C 261.6920166015625 149.24168395996094 266.5830383300781 151.73715209960938 271.0702209472656 154.9569549560547 C 274.7969665527344 158.6148681640625 277.6411437988281 162.4285888671875 279.7289733886719 166.03016662597656 C 281.1101379394531 169.26817321777344 281.87823486328125 172.1199951171875 282.1499328613281 174.62400817871094" stroke-width="2.0" fill="rgb(86, 36, 24)" opacity="1.0" stroke="rgb(86, 36, 24)" stroke-opacity="1.0" stroke-linecap="round" stroke-linejoin="round"/>
    <path d="M 179.14993286132812 174.62400817871094 C 179.05709838867188 176.84962463378906 178.66659545898438 178.84934997558594 177.99691772460938 180.58694458007812 C 177.00479125976562 182.07254028320312 175.61679077148438 183.27621459960938 173.78921508789062 184.13262939453125 C 171.484375 184.5224151611328 168.65829467773438 184.12538146972656 165.36447143554688 182.65194702148438 C 161.73858642578125 179.9043426513672 158.0206298828125 176.2467498779297 154.4383544921875 172.57125854492188 C 151.0692596435547 170.23101806640625 147.67681884765625 170.2909393310547 143.89572143554688 172.84503173828125 C 139.7114715576172 176.90272521972656 135.33335876464844 181.04696655273438 131.2310333251953 183.94020080566406 C 127.69840240478516 185.11752319335938 124.99249267578125 185.01522827148438 122.93339538574219 184.3030548095703 C 121.32034301757812 183.29879760742188 120.0757064819336 182.10073852539062 119.13533020019531 180.73526000976562 C 118.46939849853516 179.2284698486328 118.05538940429688 177.55111694335938 117.882080078125 175.66943359375 C 117.98035430908203 173.57513427734375 118.41650390625 171.20733642578125 119.2564926147461 168.4314422607422 C 120.63981628417969 165.21188354492188 122.72899627685547 161.60662841796875 125.56436157226562 157.9373016357422 C 129.1812744140625 154.4963836669922 133.49578857421875 151.51564025878906 138.2722625732422 149.19776916503906 C 143.31483459472656 147.73313903808594 148.46295166015625 147.1962432861328 153.59043884277344 147.67080688476562 C 158.6920166015625 149.24168395996094 163.58302307128906 151.73715209960938 168.07022094726562 154.9569549560547 C 171.79696655273438 158.6148681640625 174.64114379882812 162.4285888671875 176.72897338867188 166.03016662597656 C 178.11013793945312 169.26817321777344 178.8782196044922 172.1199951171875 179.14993286132812 174.62400817871094" stroke-width="2.0" fill="rgb(86, 36, 24)" opacity="1.0" stroke="rgb(86, 36, 24)" stroke-opacity="1.0" stroke-linecap="round" stroke-linejoin="round"/>
  </g>
</svg>
