<?xml version="1.0" ?>
<svg xmlns="http://www.w3.org/2000/svg" version="1.1" width="400" height="400">
  <defs/>
  <g>
    <path d="M 345.4510803222656 193.61241149902344 C 345.587158203125 208.44924926757812 344.7663269042969 222.814697265625 342.9090576171875 236.84327697753906 C 339.7988586425781 250.8523406982422 335.0466003417969 264.46539306640625 328.1527099609375 277.4907531738281 C 318.3651123046875 290.12982177734375 305.246337890625 302.30523681640625 289.02435302734375 313.70526123046875 C 270.80889892578125 323.3691101074219 251.580078125 330.5580749511719 232.45938110351562 335.3207702636719 C 213.1163787841797 337.97900390625 192.63453674316406 338.7268371582031 171.70565795898438 337.56304931640625 C 150.89779663085938 334.2856750488281 131.12217712402344 328.87646484375 113.109375 321.1993103027344 C 97.09817504882812 311.3013916015625 83.58064270019531 299.4732666015625 72.89974975585938 285.9707336425781 C 65.08721923828125 271.0970764160156 59.740882873535156 254.9983367919922 56.33799362182617 238.1268768310547 C 54.415870666503906 221.5842742919922 53.705726623535156 205.9059600830078 54.06061935424805 190.8485565185547 C 55.468353271484375 175.6822052001953 58.209468841552734 159.74586486816406 63.00914764404297 142.29092407226562 C 70.96290588378906 123.24700927734375 83.30838012695312 103.6250991821289 100.39212799072266 85.3975601196289 C 121.71357727050781 71.20039367675781 145.93359375 61.840660095214844 170.5635986328125 56.47423553466797 C 193.37879943847656 54.170894622802734 214.6368865966797 54.26071548461914 236.2080535888672 56.923828125 C 258.18133544921875 62.96355438232422 280.7237548828125 72.84197235107422 302.1097106933594 86.54765319824219 C 319.0546875 103.5830307006836 330.44927978515625 122.65609741210938 337.4989929199219 141.77310180664062 C 341.8288269042969 160.30844116210938 344.2867431640625 177.81651306152344 345.4510803222656 193.61241149902344" stroke-width="2.0" fill="rgb(252, 217, 72)" opacity="1.0" stroke="rgb(252, 217, 72)" stroke-opacity="1.0" stroke-linecap="round" stroke-linejoin="round"/>
    <path d="M 240.95126342773438 242.14111328125 C 240.61019897460938 242.2069091796875 240.1546630859375 242.26107788085938 239.5869598388672 242.32623291015625 C 238.87136840820312 242.4765625 237.9881134033203 242.76327514648438 236.88607788085938 243.2602081298828 C 235.5504913330078 243.97238159179688 234.09751892089844 244.82968139648438 232.69570922851562 245.8306884765625 C 231.34951782226562 246.96653747558594 230.0554962158203 248.2422637939453 228.8148651123047 249.640869140625 C 227.60446166992188 251.07504272460938 226.43756103515625 252.4156036376953 225.4178466796875 253.57601928710938 C 224.65975952148438 254.40330505371094 224.21087646484375 254.72341918945312 224.19552612304688 254.52049255371094 C 224.66397094726562 253.8063507080078 225.515380859375 252.7133331298828 226.65792846679688 251.48736572265625 C 227.99417114257812 250.1844482421875 229.4145050048828 248.83001708984375 230.87411499023438 247.46218872070312 C 232.31765747070312 246.15512084960938 233.63668823242188 245.0258026123047 234.78662109375 244.109375 C 235.78797912597656 243.43804931640625 236.66537475585938 242.9882354736328 237.45553588867188 242.6630859375 C 238.16297912597656 242.408447265625 238.75381469726562 242.22889709472656 239.23350524902344 242.10128784179688 C 239.62783813476562 242.05645751953125 239.9202880859375 242.08499145507812 240.1397705078125 242.0906982421875 C 240.30776977539062 242.05458068847656 240.41189575195312 241.931640625 240.48544311523438 241.72952270507812 C 240.5899658203125 241.54718017578125 240.748291015625 241.44143676757812 240.960205078125 241.39537048339844 C 241.17111206054688 241.43179321289062 241.3037872314453 241.53738403320312 241.34884643554688 241.66519165039062 C 241.3123016357422 241.8361053466797 241.181884765625 242.02281188964844 240.95126342773438 242.14111328125" stroke-width="2.0" fill="rgb(237, 235, 204)" opacity="1.0" stroke="rgb(237, 235, 204)" stroke-opacity="1.0" stroke-linecap="round" stroke-linejoin="round"/>
    <path d="M 232.57769775390625 281.5648498535156 C 232.8089141845703 285.9789733886719 232.3387451171875 290.3304748535156 231.21844482421875 294.6055603027344 C 229.47259521484375 298.7137451171875 227.208251953125 302.51239013671875 224.44149780273438 305.9498291015625 C 221.28248596191406 308.9725341796875 217.86378479003906 311.5623779296875 214.38319396972656 313.8870849609375 C 211.0339813232422 315.923828125 207.8863067626953 317.49285888671875 204.85601806640625 318.51495361328125 C 201.95822143554688 319.03271484375 199.12625122070312 319.1373291015625 196.34051513671875 318.86859130859375 C 193.4940185546875 318.1529846191406 190.31707763671875 316.9517822265625 186.843017578125 315.2806091308594 C 183.16807556152344 313.12255859375 179.52130126953125 310.534912109375 176.100341796875 307.51495361328125 C 173.1484375 304.0497131347656 170.80999755859375 300.1694030761719 169.0774383544922 296.0130615234375 C 167.9900360107422 291.6440734863281 167.50875854492188 287.14105224609375 167.5817108154297 282.57061767578125 C 168.14463806152344 277.9673767089844 169.1918182373047 273.5299072265625 170.80841064453125 269.36297607421875 C 173.0924530029297 265.6079406738281 176.03573608398438 262.35064697265625 179.5260009765625 259.49322509765625 C 183.51348876953125 257.0512390136719 188.05686950683594 255.06033325195312 192.87188720703125 253.56784057617188 C 197.57937622070312 252.64305114746094 202.00926208496094 252.2915496826172 206.039794921875 252.46815490722656 C 209.7143096923828 253.14779663085938 213.2612762451172 254.50222778320312 216.8883056640625 256.73211669921875 C 220.69940185546875 259.833740234375 224.40708923339844 263.6690979003906 227.63525390625 267.99334716796875 C 230.0643310546875 272.56646728515625 231.67845153808594 277.1099548339844 232.57769775390625 281.5648498535156" stroke-width="2.0" fill="rgb(133, 64, 73)" opacity="1.0" stroke="rgb(133, 64, 73)" stroke-opacity="1.0" stroke-linecap="round" stroke-linejoin="round"/>
    <path d="M 171.84230041503906 164.66192626953125 C 172.3297882080078 169.11953735351562 172.167724609375 173.56845092773438 171.3526611328125 177.61207580566406 C 169.97903442382812 181.17442321777344 168.20541381835938 184.26528930664062 166.18048095703125 186.88128662109375 C 164.0486602783203 189.056396484375 161.83486938476562 190.83319091796875 159.57168579101562 192.23785400390625 C 157.21986389160156 193.32371520996094 154.78146362304688 194.1260223388672 152.26016235351562 194.68704223632812 C 149.6039581298828 194.974853515625 146.90321350097656 194.97169494628906 144.24850463867188 194.674072265625 C 141.6478729248047 194.1033935546875 139.0826873779297 193.27169799804688 136.5718994140625 192.14125061035156 C 134.13540649414062 190.65283203125 131.85665893554688 188.7864990234375 129.747802734375 186.53756713867188 C 127.86155700683594 183.9730682373047 126.22901916503906 181.04983520507812 124.94793701171875 177.6453857421875 C 124.09944915771484 173.7999267578125 123.81501770019531 169.70196533203125 124.07948303222656 165.7682342529297 C 124.85694885253906 162.24725341796875 126.01985168457031 159.0139617919922 127.53317260742188 156.0662078857422 C 129.35501098632812 153.5054168701172 131.4193115234375 151.24913024902344 133.62294006347656 149.30160522460938 C 135.99655151367188 147.69717407226562 138.57188415527344 146.3893280029297 141.29656982421875 145.3571014404297 C 144.08766174316406 144.59567260742188 146.96682739257812 144.21778869628906 149.92086791992188 144.2789306640625 C 152.95443725585938 144.8078155517578 155.99966430664062 145.73004150390625 158.98101806640625 147.05166625976562 C 161.85372924804688 148.81466674804688 164.5310821533203 150.99920654296875 166.99771118164062 153.6677703857422 C 169.1234130859375 156.8192138671875 170.77540588378906 160.5048370361328 171.84230041503906 164.66192626953125" stroke-width="2.0" fill="rgb(72, 59, 44)" opacity="1.0" stroke="rgb(72, 59, 44)" stroke-opacity="1.0" stroke-linecap="round" stroke-linejoin="round"/>
    <path d="M 273.6012268066406 161.68606567382812 C 274.3115539550781 167.36874389648438 274.2197570800781 173.25039672851562 273.3265075683594 178.5165557861328 C 271.7344970703125 182.83518981933594 269.74163818359375 186.31625366210938 267.56976318359375 189.12962341308594 C 265.273681640625 191.41018676757812 262.967041015625 193.22052001953125 260.76397705078125 194.5966796875 C 258.61859130859375 195.61666870117188 256.4575500488281 196.33956909179688 254.28616333007812 196.79913330078125 C 252.0625 197.0358428955078 249.83917236328125 197.03533935546875 247.6531982421875 196.7874755859375 C 245.43031311035156 196.26565551757812 243.10658264160156 195.4182586669922 240.70211791992188 194.27386474609375 C 238.23175048828125 192.78465270996094 235.80038452148438 190.8455047607422 233.45703125 188.35096740722656 C 231.27406311035156 185.30685424804688 229.42205810546875 181.68316650390625 228.06243896484375 177.3413848876953 C 227.2720184326172 172.41893005371094 227.1353302001953 167.42469787597656 227.6270294189453 162.8354949951172 C 228.63856506347656 158.80862426757812 230.02691650390625 155.29025268554688 231.65370178222656 152.27291870117188 C 233.46253967285156 149.70413208007812 235.3689422607422 147.54425048828125 237.44004821777344 145.79058837890625 C 239.68634033203125 144.3449249267578 242.113037109375 143.17185974121094 244.6044158935547 142.2950897216797 C 247.11874389648438 141.69827270507812 249.67385864257812 141.42324829101562 252.26422119140625 141.44622802734375 C 254.85833740234375 141.79612731933594 257.456787109375 142.50550842285156 260.0616455078125 143.612548828125 C 262.68829345703125 145.1702880859375 265.27716064453125 147.21072387695312 267.76214599609375 149.7640380859375 C 270.12109375 152.926513671875 272.1434326171875 156.8204803466797 273.6012268066406 161.68606567382812" stroke-width="2.0" fill="rgb(60, 49, 52)" opacity="1.0" stroke="rgb(60, 49, 52)" stroke-opacity="1.0" stroke-linecap="round" stroke-linejoin="round"/>
    <path d="M 228.83566284179688 223.9677276611328 C 228.598388671875 224.0135040283203 228.281494140625 224.05117797851562 227.88658142089844 224.0965118408203 C 227.38877868652344 224.2010955810547 226.7743377685547 224.40054321289062 226.00770568847656 224.74623107910156 C 225.07859802246094 225.2416534423828 224.06784057617188 225.83804321289062 223.0926513671875 226.53439331054688 C 222.15618896484375 227.32455444335938 221.25599670410156 228.21200561523438 220.3929443359375 229.18495178222656 C 219.55093383789062 230.18263244628906 218.73916625976562 231.11520385742188 218.02981567382812 231.9224395751953 C 217.50244140625 232.49795532226562 217.19017028808594 232.72064208984375 217.1794891357422 232.5794677734375 C 217.50537109375 232.08267211914062 218.09765625 231.32232666015625 218.8924560546875 230.46946716308594 C 219.82203674316406 229.56309509277344 220.81008911132812 228.62088012695312 221.82546997070312 227.6693572998047 C 222.8296661376953 226.76007080078125 223.74725341796875 225.97447204589844 224.54721069335938 225.33694458007812 C 225.24380493164062 224.8699493408203 225.85418701171875 224.55703735351562 226.4038543701172 224.33084106445312 C 226.89599609375 224.15370178222656 227.3070068359375 224.02880859375 227.6407012939453 223.94003295898438 C 227.91500854492188 223.90884399414062 228.11846923828125 223.92869567871094 228.27114868164062 223.9326629638672 C 228.3880157470703 223.90753173828125 228.46044921875 223.82200622558594 228.51161193847656 223.68141174316406 C 228.58432006835938 223.5545654296875 228.6944580078125 223.4810028076172 228.84188842773438 223.44895935058594 C 228.98858642578125 223.4742889404297 229.08090209960938 223.54774475097656 229.11224365234375 223.63665771484375 C 229.08682250976562 223.75555419921875 228.99609375 223.88543701171875 228.83566284179688 223.9677276611328" stroke-width="2.0" fill="rgb(237, 235, 204)" opacity="1.0" stroke="rgb(237, 235, 204)" stroke-opacity="1.0" stroke-linecap="round" stroke-linejoin="round"/>
    <path d="M 157.92393493652344 102.4789047241211 C 158.082763671875 103.54036712646484 158.02676391601562 104.56953430175781 157.763427734375 105.5279312133789 C 157.26455688476562 106.37348937988281 156.5002899169922 107.06610107421875 155.4254150390625 107.56179809570312 C 153.96151733398438 107.87358093261719 152.05975341796875 108.02116394042969 149.6678466796875 108.03351593017578 C 146.73526000976562 107.95118713378906 143.1856689453125 107.9310073852539 138.9407196044922 108.25009155273438 C 133.99192810058594 109.14664459228516 128.4355010986328 110.76699829101562 122.6750259399414 113.15280151367188 C 117.30028533935547 116.03463745117188 112.86495971679688 118.93353271484375 109.4601058959961 121.22926330566406 C 106.87171936035156 122.56409454345703 104.9697265625 123.04541015625 103.59751892089844 122.95075225830078 C 102.60118865966797 122.49945068359375 101.86707305908203 121.84559631347656 101.3505630493164 121.04072570800781 C 101.03219604492188 120.11003112792969 100.9076919555664 119.09486389160156 100.9795150756836 118.00336456298828 C 101.26631164550781 116.84346771240234 101.79146575927734 115.56787109375 102.61663055419922 114.06758880615234 C 103.86663818359375 112.24235534667969 105.75627136230469 110.04874420166016 108.48872375488281 107.47057342529297 C 112.23014068603516 104.69156646728516 116.95806884765625 101.9914321899414 122.49258422851562 99.62052917480469 C 128.45936584472656 97.78564453125 134.39715576171875 96.55142211914062 139.78176879882812 95.8524398803711 C 144.37559509277344 95.48291015625 148.03909301757812 95.55558013916016 150.8924102783203 96.07157897949219 C 153.0958709716797 96.94539642333984 154.77259826660156 98.04484558105469 156.02737426757812 99.183349609375 C 156.92703247070312 100.2901840209961 157.541015625 101.39685821533203 157.92393493652344 102.4789047241211" stroke-width="2.0" fill="rgb(106, 67, 15)" opacity="1.0" stroke="rgb(106, 67, 15)" stroke-opacity="1.0" stroke-linecap="round" stroke-linejoin="round"/>
    <path d="M 297.947021484375 110.89668273925781 C 298.1919860839844 111.8013916015625 298.2326354980469 112.74285125732422 298.0780944824219 113.72930908203125 C 297.72576904296875 114.76891326904297 297.16571044921875 115.7948226928711 296.39361572265625 116.73210906982422 C 295.4102783203125 117.53031921386719 294.22332763671875 118.11973571777344 292.8037109375 118.46885681152344 C 291.1045227050781 118.53297424316406 289.0390625 118.2646484375 286.509521484375 117.59576416015625 C 283.347900390625 116.44564819335938 279.4516296386719 114.83696746826172 274.622802734375 112.88919830322266 C 268.9382629394531 110.86083221435547 262.8958740234375 109.19300842285156 257.2628479003906 108.22675323486328 C 252.6164093017578 107.66488647460938 249.12713623046875 107.14517974853516 246.73980712890625 106.39649963378906 C 245.120361328125 105.53372192382812 244.02734375 104.57727813720703 243.3020477294922 103.60472869873047 C 242.84539794921875 102.65464782714844 242.62399291992188 101.73194122314453 242.61526489257812 100.87391662597656 C 242.81031799316406 100.09213256835938 243.22445678710938 99.38117980957031 243.8838653564453 98.7606201171875 C 244.836669921875 98.21913146972656 246.1890411376953 97.7718505859375 248.14566040039062 97.47731018066406 C 250.93557739257812 97.39673614501953 254.74261474609375 97.478271484375 259.6707763671875 97.66559600830078 C 265.4388427734375 98.18446350097656 271.4952697753906 99.2642822265625 277.23919677734375 100.9660415649414 C 282.2670593261719 102.90364837646484 286.34393310546875 104.63954162597656 289.5845642089844 105.93598175048828 C 292.11785888671875 106.88580322265625 294.085205078125 107.67864990234375 295.5856628417969 108.42396545410156 C 296.691650390625 109.24038696289062 297.46173095703125 110.06349182128906 297.947021484375 110.89668273925781" stroke-width="2.0" fill="rgb(100, 61, 131)" opacity="1.0" stroke="rgb(100, 61, 131)" stroke-opacity="1.0" stroke-linecap="round" stroke-linejoin="round"/>
    <path d="M 233.51747131347656 236.59873962402344 C 233.69288635253906 237.76666259765625 233.69631958007812 238.81521606445312 233.52862548828125 239.73341369628906 C 233.1674041748047 240.59738159179688 232.57943725585938 241.4011993408203 231.72799682617188 242.09515380859375 C 230.55026245117188 242.6733856201172 228.97698974609375 243.05755615234375 226.8983154296875 243.23501586914062 C 224.16830444335938 243.35372924804688 220.62945556640625 243.626220703125 216.09521484375 244.05459594726562 C 210.5042724609375 244.57997131347656 204.0294952392578 245.02577209472656 197.04689025878906 245.20751953125 C 190.05421447753906 245.02455139160156 183.8450164794922 244.62228393554688 178.80926513671875 243.9951171875 C 174.95570373535156 243.22686767578125 172.08799743652344 242.42196655273438 169.9750518798828 241.54620361328125 C 168.4539031982422 240.59437561035156 167.40658569335938 239.5986785888672 166.7074737548828 238.63485717773438 C 166.29347229003906 237.71749877929688 166.12939453125 236.80140686035156 166.19180297851562 235.82846069335938 C 166.49639892578125 234.78639221191406 167.06878662109375 233.67703247070312 167.94125366210938 232.56358337402344 C 169.21267700195312 231.52566528320312 171.02684020996094 230.6475067138672 173.6147918701172 230.12350463867188 C 177.31338500976562 230.10292053222656 182.3174285888672 230.35203552246094 188.8638153076172 230.50267028808594 C 196.60829162597656 230.49996948242188 204.6136474609375 230.341064453125 211.9951934814453 230.20042419433594 C 218.09210205078125 229.98411560058594 222.7578125 229.72308349609375 226.22012329101562 229.74612426757812 C 228.72958374023438 230.30514526367188 230.49822998046875 231.30670166015625 231.7308807373047 232.57254028320312 C 232.58041381835938 233.97238159179688 233.1552734375 235.34881591796875 233.51747131347656 236.59873962402344" stroke-width="2.0" fill="rgb(246, 179, 59)" opacity="1.0" stroke="rgb(246, 179, 59)" stroke-opacity="1.0" stroke-linecap="round" stroke-linejoin="round"/>
    <path d="M 151.08460998535156 154.73989868164062 C 151.12864685058594 155.72145080566406 151.03524780273438 156.706298828125 150.8132781982422 157.64056396484375 C 150.46133422851562 158.52134704589844 149.99754333496094 159.32264709472656 149.436767578125 160.0456085205078 C 148.80404663085938 160.70712280273438 148.10369873046875 161.2981414794922 147.31137084960938 161.79266357421875 C 146.44076538085938 162.17994689941406 145.53103637695312 162.46432495117188 144.57717895507812 162.64866638183594 C 143.6136474609375 162.7489471435547 142.6788330078125 162.7611083984375 141.80979919433594 162.69390869140625 C 141.0047607421875 162.54159545898438 140.26602172851562 162.30960083007812 139.59326171875 161.99880981445312 C 138.99606323242188 161.59620666503906 138.4610595703125 161.08853149414062 137.98158264160156 160.46705627441406 C 137.5592803955078 159.73048400878906 137.21798706054688 158.87533569335938 136.98519897460938 157.9118194580078 C 136.8780975341797 156.86279296875 136.8889923095703 155.7837371826172 137.03431701660156 154.7482452392578 C 137.32119750976562 153.80844116210938 137.72238159179688 152.96145629882812 138.2196044921875 152.194580078125 C 138.80615234375 151.50840759277344 139.4582977294922 150.8917236328125 140.17323303222656 150.36009216308594 C 140.97079467773438 149.92001342773438 141.8615264892578 149.56661987304688 142.82936096191406 149.3175506591797 C 143.8462371826172 149.1729278564453 144.88131713867188 149.11175537109375 145.89767456054688 149.15463256835938 C 146.85928344726562 149.33363342285156 147.73483276367188 149.64666748046875 148.51626586914062 150.0884552001953 C 149.1999053955078 150.65728759765625 149.78497314453125 151.32583618164062 150.26124572753906 152.0773162841797 C 150.63763427734375 152.89955139160156 150.91693115234375 153.79385375976562 151.08460998535156 154.73989868164062" stroke-width="2.0" fill="rgb(180, 132, 18)" opacity="1.0" stroke="rgb(180, 132, 18)" stroke-opacity="1.0" stroke-linecap="round" stroke-linejoin="round"/>
    <path d="M 253.08460998535156 154.73989868164062 C 253.12864685058594 155.72145080566406 253.03524780273438 156.706298828125 252.8132781982422 157.64056396484375 C 252.46133422851562 158.52134704589844 251.99754333496094 159.32264709472656 251.436767578125 160.0456085205078 C 250.80404663085938 160.70712280273438 250.10369873046875 161.2981414794922 249.31137084960938 161.79266357421875 C 248.44076538085938 162.17994689941406 247.53103637695312 162.46432495117188 246.57717895507812 162.64866638183594 C 245.6136474609375 162.7489471435547 244.6788330078125 162.7611083984375 243.80979919433594 162.69390869140625 C 243.0047607421875 162.54159545898438 242.26602172851562 162.30960083007812 241.59326171875 161.99880981445312 C 240.99606323242188 161.59620666503906 240.4610595703125 161.08853149414062 239.98158264160156 160.46705627441406 C 239.5592803955078 159.73048400878906 239.21798706054688 158.87533569335938 238.98519897460938 157.9118194580078 C 238.8780975341797 156.86279296875 238.8889923095703 155.7837371826172 239.03431701660156 154.7482452392578 C 239.32119750976562 153.80844116210938 239.72238159179688 152.96145629882812 240.2196044921875 152.194580078125 C 240.80615234375 151.50840759277344 241.4582977294922 150.8917236328125 242.17323303222656 150.36009216308594 C 242.97079467773438 149.92001342773438 243.8615264892578 149.56661987304688 244.82936096191406 149.3175506591797 C 245.8462371826172 149.1729278564453 246.88131713867188 149.11175537109375 247.89767456054688 149.15463256835938 C 248.85928344726562 149.33363342285156 249.73483276367188 149.64666748046875 250.51626586914062 150.0884552001953 C 251.1999053955078 150.65728759765625 251.78497314453125 151.32583618164062 252.26124572753906 152.0773162841797 C 252.63763427734375 152.89955139160156 252.91693115234375 153.79385375976562 253.08460998535156 154.73989868164062" stroke-width="2.0" fill="rgb(180, 132, 18)" opacity="1.0" stroke="rgb(180, 132, 18)" stroke-opacity="1.0" stroke-linecap="round" stroke-linejoin="round"/>
  </g>
</svg>
