<?xml version="1.0" ?>
<svg xmlns="http://www.w3.org/2000/svg" version="1.1" width="400" height="400">
  <defs/>
  <g>
    <path d="M 345.4510803222656 193.61241149902344 C 345.587158203125 208.44924926757812 344.7663269042969 222.814697265625 342.9090576171875 236.84327697753906 C 339.7988586425781 250.8523406982422 335.0466003417969 264.46539306640625 328.1527099609375 277.4907531738281 C 318.3651123046875 290.12982177734375 305.246337890625 302.30523681640625 289.02435302734375 313.70526123046875 C 270.80889892578125 323.3691101074219 251.580078125 330.5580749511719 232.45938110351562 335.3207702636719 C 213.1163787841797 337.97900390625 192.63453674316406 338.7268371582031 171.70565795898438 337.56304931640625 C 150.89779663085938 334.2856750488281 131.12217712402344 328.87646484375 113.109375 321.1993103027344 C 97.09817504882812 311.3013916015625 83.58064270019531 299.4732666015625 72.89974975585938 285.9707336425781 C 65.08721923828125 271.0970764160156 59.740882873535156 254.9983367919922 56.33799362182617 238.1268768310547 C 54.415870666503906 221.5842742919922 53.705726623535156 205.9059600830078 54.06061935424805 190.8485565185547 C 55.468353271484375 175.6822052001953 58.209468841552734 159.74586486816406 63.00914764404297 142.29092407226562 C 70.96290588378906 123.24700927734375 83.30838012695312 103.6250991821289 100.39212799072266 85.3975601196289 C 121.71357727050781 71.20039367675781 145.93359375 61.840660095214844 170.5635986328125 56.47423553466797 C 193.37879943847656 54.170894622802734 214.6368865966797 54.26071548461914 236.2080535888672 56.923828125 C 258.18133544921875 62.96355438232422 280.7237548828125 72.84197235107422 302.1097106933594 86.54765319824219 C 319.0546875 103.5830307006836 330.44927978515625 122.65609741210938 337.4989929199219 141.77310180664062 C 341.8288269042969 160.30844116210938 344.2867431640625 177.81651306152344 345.4510803222656 193.61241149902344" stroke-width="2.0" fill="rgb(252, 217, 72)" opacity="1.0" stroke="rgb(252, 217, 72)" stroke-opacity="1.0" stroke-linecap="round" stroke-linejoin="round"/>
    <path d="M 238.5379180908203 277.8642883300781 C 238.81536865234375 279.18359375 238.8553466796875 280.47296142578125 238.67051696777344 281.7032470703125 C 238.24525451660156 282.9261169433594 237.55706787109375 284.1458435058594 236.5361328125 285.369384765625 C 235.09686279296875 286.5694274902344 233.1215362548828 287.6695861816406 230.3978271484375 288.6572265625 C 226.71572875976562 289.4200744628906 221.78582763671875 289.901123046875 215.42276000976562 290.11016845703125 C 207.57643127441406 290.1943664550781 198.6571502685547 290.11846923828125 189.63084411621094 289.83184814453125 C 181.75228881835938 289.5901794433594 175.61573791503906 289.1293029785156 171.0548553466797 288.41546630859375 C 167.73410034179688 287.3468322753906 165.3533477783203 286.0472412109375 163.6459197998047 284.6619873046875 C 162.43295288085938 283.30157470703125 161.58895874023438 281.992919921875 161.03407287597656 280.70263671875 C 160.71560668945312 279.4560546875 160.6306610107422 278.22430419921875 160.77926635742188 276.9997253417969 C 161.1735382080078 275.7879638671875 161.86224365234375 274.5935363769531 162.90003967285156 273.45654296875 C 164.3568878173828 272.3781433105469 166.30859375 271.423828125 168.85162353515625 270.6471252441406 C 172.22048950195312 270.1443176269531 176.8577423095703 270.0316467285156 183.17587280273438 270.1769714355469 C 191.3696746826172 270.2320556640625 200.68345642089844 270.19525146484375 209.97853088378906 270.3475036621094 C 218.02017211914062 270.58465576171875 224.12466430664062 270.66973876953125 228.5243377685547 270.95477294921875 C 231.70932006835938 271.7103576660156 234.0635528564453 272.76153564453125 235.82281494140625 273.95074462890625 C 237.10446166992188 275.2198791503906 237.98558044433594 276.5457763671875 238.5379180908203 277.8642883300781" stroke-width="2.0" fill="rgb(103, 51, 25)" opacity="1.0" stroke="rgb(103, 51, 25)" stroke-opacity="1.0" stroke-linecap="round" stroke-linejoin="round"/>
    <path d="M 292.352783203125 204.02621459960938 C 292.8267822265625 206.52244567871094 293.061279296875 209.06134033203125 293.0619812011719 211.59439086914062 C 292.81988525390625 214.02601623535156 292.32403564453125 216.26756286621094 291.53594970703125 218.30625915527344 C 290.4281005859375 220.08804321289062 288.9270324707031 221.59625244140625 286.89337158203125 222.8715057373047 C 284.14715576171875 223.96295166015625 280.47882080078125 224.88523864746094 275.698974609375 225.4040985107422 C 269.70733642578125 225.25570678710938 262.420166015625 224.28036499023438 253.69430541992188 222.57717895507812 C 243.553466796875 220.28440856933594 232.1243438720703 217.383544921875 219.78488159179688 214.30825805664062 C 207.170654296875 211.4504852294922 195.09158325195312 209.2960662841797 184.38540649414062 207.7224884033203 C 175.4387969970703 206.76800537109375 168.31399536132812 206.2767333984375 162.94281005859375 205.96139526367188 C 159.2117156982422 205.7423095703125 157.00799560546875 205.50521850585938 156.32302856445312 205.31809997558594 C 157.19017028808594 205.31805419921875 159.66738891601562 205.61480712890625 163.8877716064453 206.34228515625 C 169.933349609375 207.47982788085938 177.9171905517578 208.65869140625 187.88998413085938 209.4005584716797 C 199.7049560546875 209.22463989257812 213.0245361328125 207.77935791015625 227.04312133789062 205.14300537109375 C 240.6528778076172 201.96798706054688 252.73170471191406 198.74456787109375 262.77459716796875 195.97891235351562 C 270.7732849121094 194.27374267578125 276.8918762207031 193.82095336914062 281.435546875 194.1085205078125 C 284.7943115234375 194.92276000976562 287.29779052734375 196.17254638671875 289.17474365234375 197.70806884765625 C 290.57867431640625 199.55905151367188 291.60986328125 201.6762237548828 292.352783203125 204.02621459960938" stroke-width="2.0" fill="rgb(176, 161, 190)" opacity="1.0" stroke="rgb(176, 161, 190)" stroke-opacity="1.0" stroke-linecap="round" stroke-linejoin="round"/>
    <path d="M 294.79583740234375 201.78378295898438 C 294.9976501464844 203.28900146484375 294.96099853515625 204.98011779785156 294.6849060058594 206.75718688964844 C 294.13043212890625 208.64263916015625 293.25933837890625 210.6037139892578 292.0087890625 212.60794067382812 C 290.2809143066406 214.78562927246094 287.9405212402344 217.160888671875 284.8592224121094 219.7266082763672 C 280.90087890625 222.4240264892578 276.0193786621094 225.03054809570312 270.2583312988281 227.20913696289062 C 263.7341003417969 228.7430419921875 256.8249206542969 229.1602020263672 249.85829162597656 228.2581329345703 C 243.24427795410156 226.32986450195312 237.50860595703125 223.5909423828125 232.93637084960938 220.3924102783203 C 229.46827697753906 217.28622436523438 226.99176025390625 214.3992156982422 225.24240112304688 211.84976196289062 C 224.04171752929688 209.69708251953125 223.22850036621094 207.85150146484375 222.70787048339844 206.1720428466797 C 222.43507385253906 204.62109375 222.394287109375 203.1898956298828 222.58172607421875 201.8882598876953 C 222.9892120361328 200.74423217773438 223.63018798828125 199.7789764404297 224.51890563964844 199.02671813964844 C 225.712158203125 198.537109375 227.29449462890625 198.33029174804688 229.4947509765625 198.5146942138672 C 232.67254638671875 199.47207641601562 237.13604736328125 201.47418212890625 243.03448486328125 204.12294006347656 C 250.36526489257812 206.4659423828125 258.4479675292969 207.49325561523438 266.4847106933594 206.650146484375 C 273.88818359375 204.3856658935547 280.1391296386719 201.73492431640625 284.95782470703125 199.64923095703125 C 288.4302978515625 198.63685607910156 290.81829833984375 198.4693603515625 292.4622497558594 198.79696655273438 C 293.5856628417969 199.498046875 294.338623046875 200.51824951171875 294.79583740234375 201.78378295898438" stroke-width="2.0" fill="rgb(146, 43, 29)" opacity="1.0" stroke="rgb(146, 43, 29)" stroke-opacity="1.0" stroke-linecap="round" stroke-linejoin="round"/>
    <path d="M 174.6818389892578 201.0657958984375 C 174.83631896972656 202.74810791015625 174.7218475341797 204.68161010742188 174.33285522460938 206.80490112304688 C 173.64141845703125 209.108642578125 172.60658264160156 211.52401733398438 171.15948486328125 213.99362182617188 C 169.21026611328125 216.58172607421875 166.67376708984375 219.2513885498047 163.46047973632812 221.90017700195312 C 159.54055786132812 224.4449920654297 154.93545532226562 226.6314239501953 149.68992614746094 228.26425170898438 C 143.99774169921875 229.34857177734375 138.19371032714844 229.61334228515625 132.37344360351562 228.94671630859375 C 126.65609741210938 227.39871215820312 121.30615234375 224.90872192382812 116.70668029785156 221.6947479248047 C 113.0955810546875 218.3470458984375 110.4027328491211 215.1896514892578 108.48274230957031 212.26693725585938 C 107.13796997070312 209.7039794921875 106.25031280517578 207.45877075195312 105.67837524414062 205.41354370117188 C 105.35626220703125 203.56051635742188 105.26032257080078 201.89051818847656 105.38381958007812 200.44815063476562 C 105.71974182128906 199.22438049316406 106.27437591552734 198.20697021484375 107.06024932861328 197.38046264648438 C 108.14250946044922 196.75302124023438 109.62903594970703 196.37351989746094 111.70677185058594 196.41162109375 C 114.68415832519531 197.15985107421875 118.7945327758789 198.792236328125 124.2405014038086 201.197021484375 C 131.0216064453125 203.7228546142578 138.60621643066406 205.30087280273438 146.25173950195312 205.08583068847656 C 153.4533233642578 203.30816650390625 159.63336181640625 200.91871643066406 164.5266571044922 198.882080078125 C 168.10305786132812 197.74813842773438 170.60414123535156 197.48104858398438 172.3238983154297 197.80633544921875 C 173.48870849609375 198.56405639648438 174.2500457763672 199.67527770996094 174.6818389892578 201.0657958984375" stroke-width="2.0" fill="rgb(129, 35, 35)" opacity="1.0" stroke="rgb(129, 35, 35)" stroke-opacity="1.0" stroke-linecap="round" stroke-linejoin="round"/>
    <path d="M 309.4341735839844 158.2854766845703 C 309.9049072265625 159.20428466796875 310.0296936035156 160.0966033935547 309.859375 160.9286346435547 C 309.4368896484375 161.6875457763672 308.7948913574219 162.35556030273438 307.908935546875 162.90127563476562 C 306.7604675292969 163.33743286132812 305.32073974609375 163.63360595703125 303.56060791015625 163.77471923828125 C 301.4674987792969 163.76280212402344 299.02734375 163.57460021972656 296.186279296875 163.23233032226562 C 292.951171875 162.69680786132812 289.37310791015625 161.86016845703125 285.5182189941406 160.5851593017578 C 281.4274597167969 158.791748046875 277.18829345703125 156.5381622314453 273.0661926269531 153.974853515625 C 269.330322265625 151.28207397460938 266.2141418457031 148.63955688476562 263.7317810058594 146.1815948486328 C 261.8196716308594 143.95013427734375 260.39569091796875 141.91311645507812 259.37933349609375 140.01905822753906 C 258.6877746582031 138.2255859375 258.2939758300781 136.53713989257812 258.1509094238281 135.00283813476562 C 258.2367858886719 133.62127685546875 258.5536804199219 132.38626098632812 259.1045227050781 131.36447143554688 C 259.9029541015625 130.6245574951172 260.976806640625 130.21511840820312 262.30914306640625 130.20680236816406 C 263.871826171875 130.69691467285156 265.7202453613281 131.73284912109375 267.9060363769531 133.36782836914062 C 270.578369140625 135.71824645996094 273.8979187011719 138.7825927734375 277.9478759765625 142.3992156982422 C 282.7310791015625 146.2435302734375 288.0274658203125 149.59124755859375 293.29541015625 152.03530883789062 C 298.0087585449219 153.61471557617188 301.9209289550781 154.72410583496094 304.9210510253906 155.60696411132812 C 307.0718688964844 156.4688720703125 308.5310363769531 157.36367797851562 309.4341735839844 158.2854766845703" stroke-width="2.0" fill="rgb(131, 65, 199)" opacity="1.0" stroke="rgb(131, 65, 199)" stroke-opacity="1.0" stroke-linecap="round" stroke-linejoin="round"/>
    <path d="M 143.38714599609375 132.90679931640625 C 143.3360595703125 134.3924560546875 143.0527801513672 136.1304931640625 142.5222930908203 138.07870483398438 C 141.7049102783203 140.23651123046875 140.52923583984375 142.5210723876953 138.9679718017578 144.94216918945312 C 136.9673309326172 147.53550720214844 134.44493103027344 150.27964782714844 131.381591796875 153.0938262939453 C 127.76774597167969 155.87705993652344 123.65257263183594 158.43536376953125 119.20489501953125 160.6219024658203 C 114.5186767578125 162.45376586914062 109.66157531738281 164.07119750976562 104.98213195800781 165.4194793701172 C 100.8902587890625 166.39508056640625 97.46742248535156 166.9230194091797 94.68679809570312 167.08901977539062 C 92.48435974121094 166.96888732910156 90.79717254638672 166.6981964111328 89.53823852539062 166.28927612304688 C 88.59730529785156 165.74913024902344 87.90351867675781 165.0709991455078 87.42914581298828 164.29566955566406 C 87.15595245361328 163.45150756835938 87.06495666503906 162.5600128173828 87.14039611816406 161.65582275390625 C 87.3900146484375 160.72801208496094 87.83563232421875 159.76690673828125 88.54851531982422 158.7436981201172 C 89.65449523925781 157.66464233398438 91.34490966796875 156.55003356933594 94.00204467773438 155.41796875 C 98.03632354736328 154.1879119873047 103.59365844726562 152.50131225585938 110.17149353027344 149.90989685058594 C 117.04798889160156 146.1897430419922 123.37882995605469 141.8311004638672 128.6813507080078 137.6691436767578 C 132.88356018066406 134.30287170410156 136.0847625732422 131.98854064941406 138.4580841064453 130.59288024902344 C 140.17068481445312 129.96221923828125 141.38661193847656 129.87835693359375 142.26535034179688 130.1778106689453 C 142.87088012695312 130.7999725341797 143.23196411132812 131.7121124267578 143.38714599609375 132.90679931640625" stroke-width="2.0" fill="rgb(173, 119, 20)" opacity="1.0" stroke="rgb(173, 119, 20)" stroke-opacity="1.0" stroke-linecap="round" stroke-linejoin="round"/>
  </g>
</svg>
