<?xml version="1.0" ?>
<svg xmlns="http://www.w3.org/2000/svg" version="1.1" width="400" height="400">
  <defs/>
  <g>
    <path d="M 310.9585876464844 204.1992950439453 C 310.3388977050781 253.5519256591797 313.077392578125 292.11236572265625 319.64556884765625 316.8938293457031 C 325.7458801269531 331.22686767578125 328.39697265625 339.5722961425781 327.6416931152344 344.46923828125 C 323.6379089355469 347.4115905761719 316.16461181640625 349.260986328125 303.9899597167969 350.4747314453125 C 286.4650573730469 351.2899169921875 263.72222900390625 351.8270568847656 236.4898223876953 352.18524169921875 C 206.19235229492188 352.40032958984375 175.41510009765625 352.4241943359375 147.0412139892578 352.240966796875 C 122.9549331665039 351.7987060546875 103.57096862792969 351.06890869140625 88.71565246582031 350.01739501953125 C 78.47569274902344 348.4703674316406 72.60225677490234 346.1338195800781 70.4450454711914 342.6320495605469 C 71.38179779052734 337.434814453125 74.73060607910156 329.6800537109375 80.32252502441406 318.0302429199219 C 87.3097915649414 300.1482238769531 92.00074768066406 272.76202392578125 91.59722900390625 234.55979919433594 C 89.01433563232422 189.5820770263672 88.58796691894531 146.8647918701172 92.36759948730469 112.71530151367188 C 100.67007446289062 88.40998840332031 112.51848602294922 72.17738342285156 126.49649047851562 61.040008544921875 C 142.05010986328125 53.47939682006836 158.42440795898438 48.52024841308594 174.4583740234375 45.505977630615234 C 189.56649780273438 43.8978271484375 203.24996948242188 43.36595153808594 215.89126586914062 43.78221893310547 C 228.53607177734375 45.23948669433594 241.7177734375 48.051151275634766 255.60513305664062 52.84345245361328 C 270.8450927734375 60.58439636230469 286.6239013671875 72.37065887451172 300.2383728027344 90.15499114990234 C 308.62957763671875 116.7897720336914 311.5958557128906 155.4036407470703 310.9585876464844 204.1992950439453" stroke-width="2.0" fill="rgb(101, 80, 85)" opacity="1.0" stroke="rgb(101, 80, 85)" stroke-opacity="1.0" stroke-linecap="round" stroke-linejoin="round"/>
    <path d="M 307.0621337890625 142.04049682617188 C 308.96942138671875 172.08828735351562 307.986328125 203.92318725585938 304.47088623046875 232.3751220703125 C 299.685546875 254.841064453125 295.69818115234375 270.898681640625 293.062744140625 281.559814453125 C 289.82281494140625 288.6150207519531 284.6402587890625 293.114013671875 276.63525390625 295.9336853027344 C 265.12652587890625 297.5721435546875 249.4562530517578 298.5818786621094 229.34317016601562 299.2460632324219 C 206.1524200439453 299.5943908691406 182.1871337890625 299.6216125488281 159.66622924804688 299.2787780761719 C 140.62074279785156 298.4538269042969 126.35491943359375 297.00860595703125 116.8011474609375 294.7236022949219 C 110.68571472167969 291.3338623046875 106.84454345703125 286.4792175292969 104.36639404296875 279.63421630859375 C 102.26988983154297 270.0205993652344 99.29640197753906 257.0270690917969 95.21028137207031 240.3624725341797 C 91.26228332519531 219.6834259033203 88.96315002441406 194.8132781982422 88.91383361816406 167.23382568359375 C 91.40436553955078 140.2254638671875 96.606201171875 115.80481719970703 104.10916137695312 95.18295288085938 C 113.46177673339844 78.3301010131836 124.43135070800781 65.34398651123047 136.99591064453125 56.00202178955078 C 150.93310546875 49.633323669433594 165.45755004882812 45.46870422363281 179.23590087890625 42.91769790649414 C 191.83497619628906 41.531776428222656 203.02999877929688 41.00541687011719 212.9016876220703 41.21044921875 C 222.30996704101562 42.16397476196289 232.1365203857422 44.15253448486328 242.84078979492188 47.792877197265625 C 254.72337341308594 54.03227996826172 268.0845031738281 63.85493087768555 281.7643127441406 77.87477111816406 C 293.42559814453125 95.57177734375 301.9321594238281 116.67610168457031 307.0621337890625 142.04049682617188" stroke-width="2.0" fill="rgb(89, 50, 69)" opacity="1.0" stroke="rgb(89, 50, 69)" stroke-opacity="1.0" stroke-linecap="round" stroke-linejoin="round"/>
    <path d="M 282.21856689453125 208.63902282714844 C 281.6927490234375 218.15869140625 280.566162109375 226.56578063964844 278.8990478515625 233.85621643066406 C 276.60205078125 240.00247192382812 273.5249328613281 245.0206298828125 269.6151123046875 249.0188751220703 C 264.76300048828125 252.24398803710938 258.7994384765625 254.69419860839844 251.70571899414062 256.43988037109375 C 243.37522888183594 257.5489501953125 233.57948303222656 257.8237609863281 222.45016479492188 257.4681396484375 C 210.48538208007812 256.9830017089844 197.79273986816406 256.6426696777344 185.10073852539062 256.29547119140625 C 172.8463134765625 256.035888671875 161.334228515625 255.740234375 151.16387939453125 254.69619750976562 C 142.5856475830078 252.64512634277344 135.60394287109375 249.6901092529297 130.04342651367188 245.94985961914062 C 125.63728332519531 241.52699279785156 122.22846221923828 236.3336181640625 119.70188903808594 230.37921142578125 C 117.92302703857422 223.81365966796875 116.83645629882812 216.78561401367188 116.42949676513672 209.5876922607422 C 116.82405090332031 202.1410675048828 118.16275024414062 194.16213989257812 120.60530090332031 185.67893981933594 C 124.41942596435547 177.00393676757812 129.9854736328125 168.61888122558594 138.00131225585938 160.67628479003906 C 148.90545654296875 153.26747131347656 162.84933471679688 146.28199768066406 179.1103515625 140.06887817382812 C 196.49114990234375 135.2926483154297 213.55105590820312 132.6275634765625 228.88461303710938 132.2725372314453 C 242.2001953125 134.2432098388672 253.3931427001953 138.46441650390625 262.6053466796875 144.83644104003906 C 269.82586669921875 153.37738037109375 275.0623474121094 163.6427001953125 278.60711669921875 174.92965698242188 C 280.8092346191406 186.61624145507812 281.9724426269531 198.02008056640625 282.21856689453125 208.63902282714844" stroke-width="2.0" fill="rgb(197, 103, 74)" opacity="1.0" stroke="rgb(197, 103, 74)" stroke-opacity="1.0" stroke-linecap="round" stroke-linejoin="round"/>
    <path d="M 334.1197509765625 378.8333740234375 C 334.240234375 383.43011474609375 334.0320739746094 387.3336181640625 333.4906005859375 390.54931640625 C 332.57122802734375 393.21649169921875 331.142822265625 395.44354248046875 329.0050048828125 397.0777587890625 C 325.7980651855469 398.2268981933594 320.8806457519531 398.8400573730469 313.2547912597656 398.7835693359375 C 301.3023986816406 398.44097900390625 282.80694580078125 398.66864013671875 255.27377319335938 399.4500732421875 C 219.0479736328125 400.01025390625 178.9725799560547 399.6392822265625 142.81698608398438 399.4198303222656 C 116.00357055664062 399.4742736816406 98.17266845703125 399.43438720703125 86.90890502929688 398.2056884765625 C 79.8348388671875 395.9149169921875 75.26184844970703 393.0784606933594 72.20973205566406 389.9106140136719 C 70.18289184570312 386.4105224609375 68.8335189819336 382.5729675292969 67.96090698242188 378.14654541015625 C 67.44015502929688 373.0565185546875 67.25930786132812 367.38214111328125 67.42524719238281 361.3134460449219 C 67.97643280029297 354.8309631347656 69.01911163330078 347.76666259765625 70.79887390136719 340.04962158203125 C 73.7954330444336 331.46368408203125 78.69475555419922 322.23748779296875 86.65328979492188 313.25701904296875 C 99.46974182128906 306.063232421875 119.73075866699219 301.40924072265625 149.75738525390625 299.431640625 C 188.7635498046875 299.2454833984375 230.06817626953125 300.9150085449219 265.529541015625 304.91827392578125 C 291.0824890136719 311.5635986328125 307.7486572265625 320.4460754394531 318.1056213378906 330.6386413574219 C 324.5055236816406 341.343994140625 328.5086364746094 351.19921875 331.060546875 359.65411376953125 C 332.66522216796875 367.05133056640625 333.6293640136719 373.44476318359375 334.1197509765625 378.8333740234375" stroke-width="2.0" fill="rgb(146, 179, 233)" opacity="1.0" stroke="rgb(146, 179, 233)" stroke-opacity="1.0" stroke-linecap="round" stroke-linejoin="round"/>
    <path d="M 232.37013244628906 267.1521911621094 C 231.9779815673828 268.05865478515625 231.20208740234375 269.3075256347656 230.0457305908203 270.947998046875 C 228.50103759765625 273.08404541015625 226.6180419921875 275.8218994140625 224.358154296875 279.2222595214844 C 221.64193725585938 283.3094177246094 218.64242553710938 288.103759765625 215.513671875 293.611083984375 C 212.11312866210938 299.5896911621094 208.45193481445312 305.5548095703125 204.68643188476562 311.04217529296875 C 200.94273376464844 315.6800537109375 197.32818603515625 319.1371765136719 194.10122680664062 321.2119445800781 C 191.6426544189453 321.87371826171875 190.17672729492188 321.095703125 189.8467559814453 318.997314453125 C 190.62615966796875 315.78692626953125 192.27867126464844 311.7147521972656 194.65060424804688 307.0627136230469 C 197.68243408203125 302.0694274902344 201.242431640625 296.8614196777344 205.03839111328125 291.5863037109375 C 208.66275024414062 286.50726318359375 211.8907470703125 282.0870666503906 214.74472045898438 278.438720703125 C 217.27325439453125 275.5418701171875 219.4121856689453 273.2649230957031 221.07562255859375 271.4887390136719 C 222.29296875 270.1180419921875 223.13192749023438 269.05804443359375 223.66799926757812 268.2000732421875 C 224.07357788085938 267.50372314453125 224.455078125 266.923828125 224.95263671875 266.4012145996094 C 225.62033081054688 265.9644470214844 226.40447998046875 265.6153564453125 227.25830078125 265.3857421875 C 228.16168212890625 265.3245544433594 229.0404052734375 265.3856201171875 229.86514282226562 265.501220703125 C 230.6169891357422 265.65106201171875 231.27593994140625 265.8066711425781 231.82315063476562 265.9551086425781 C 232.21560668945312 266.16766357421875 232.40785217285156 266.54150390625 232.37013244628906 267.1521911621094" stroke-width="2.0" fill="rgb(232, 230, 212)" opacity="1.0" stroke="rgb(232, 230, 212)" stroke-opacity="1.0" stroke-linecap="round" stroke-linejoin="round"/>
    <path d="M 247.45196533203125 286.8667297363281 C 247.1863555908203 289.0222473144531 246.69859313964844 291.5392761230469 245.95497131347656 294.4620361328125 C 244.83523559570312 297.8964538574219 243.24600219726562 301.8665771484375 241.1781005859375 306.2424011230469 C 238.6623992919922 310.7586669921875 235.67616271972656 315.01861572265625 232.3188018798828 318.6937561035156 C 228.60275268554688 321.6040954589844 224.63360595703125 323.77349853515625 220.64169311523438 325.3013610839844 C 216.8403778076172 326.3102722167969 213.373779296875 326.8748474121094 210.39402770996094 327.02960205078125 C 207.92381286621094 326.8040771484375 205.9642333984375 326.2119445800781 204.55511474609375 325.2366943359375 C 203.68260192871094 323.8326721191406 203.35206604003906 321.9063720703125 203.5505828857422 319.4018859863281 C 204.22743225097656 316.242431640625 205.26588439941406 312.4774475097656 206.5817413330078 308.16986083984375 C 208.10032653808594 303.49615478515625 209.76222229003906 298.6727600097656 211.5133056640625 293.9621276855469 C 213.37472534179688 289.6717224121094 215.4506378173828 285.9720153808594 217.68878173828125 282.9737854003906 C 219.99159240722656 280.69287109375 222.28076171875 279.01885986328125 224.53134155273438 277.7665100097656 C 226.73995971679688 276.8957214355469 228.9227752685547 276.34112548828125 231.0643768310547 276.038818359375 C 233.1663818359375 275.93743896484375 235.18003845214844 276.01220703125 237.13287353515625 276.2572021484375 C 239.0711212158203 276.6802673339844 240.98666381835938 277.2970275878906 242.81576538085938 278.1593933105469 C 244.44383239746094 279.2923889160156 245.72564697265625 280.6055603027344 246.635986328125 282.00469970703125 C 247.20164489746094 283.45501708984375 247.4654541015625 285.0458068847656 247.45196533203125 286.8667297363281" stroke-width="2.0" fill="rgb(236, 233, 218)" opacity="1.0" stroke="rgb(236, 233, 218)" stroke-opacity="1.0" stroke-linecap="round" stroke-linejoin="round"/>
    <path d="M 199.45196533203125 286.8667297363281 C 199.1863555908203 289.0222473144531 198.69859313964844 291.5392761230469 197.95497131347656 294.4620361328125 C 196.83523559570312 297.8964538574219 195.24600219726562 301.8665771484375 193.1781005859375 306.2424011230469 C 190.6623992919922 310.7586669921875 187.67616271972656 315.01861572265625 184.3188018798828 318.6937561035156 C 180.60275268554688 321.6040954589844 176.63360595703125 323.77349853515625 172.64169311523438 325.3013610839844 C 168.8403778076172 326.3102722167969 165.373779296875 326.8748474121094 162.39402770996094 327.02960205078125 C 159.92381286621094 326.8040771484375 157.9642333984375 326.2119445800781 156.55511474609375 325.2366943359375 C 155.68260192871094 323.8326721191406 155.35206604003906 321.9063720703125 155.5505828857422 319.4018859863281 C 156.22743225097656 316.242431640625 157.26588439941406 312.4774475097656 158.5817413330078 308.16986083984375 C 160.10032653808594 303.49615478515625 161.76222229003906 298.6727600097656 163.5133056640625 293.9621276855469 C 165.37472534179688 289.6717224121094 167.4506378173828 285.9720153808594 169.68878173828125 282.9737854003906 C 171.99159240722656 280.69287109375 174.28076171875 279.01885986328125 176.53134155273438 277.7665100097656 C 178.73995971679688 276.8957214355469 180.9227752685547 276.34112548828125 183.0643768310547 276.038818359375 C 185.1663818359375 275.93743896484375 187.18003845214844 276.01220703125 189.13287353515625 276.2572021484375 C 191.0711212158203 276.6802673339844 192.98666381835938 277.2970275878906 194.81576538085938 278.1593933105469 C 196.44383239746094 279.2923889160156 197.72564697265625 280.6055603027344 198.635986328125 282.00469970703125 C 199.20164489746094 283.45501708984375 199.4654541015625 285.0458068847656 199.45196533203125 286.8667297363281" stroke-width="2.0" fill="rgb(236, 233, 218)" opacity="1.0" stroke="rgb(236, 233, 218)" stroke-opacity="1.0" stroke-linecap="round" stroke-linejoin="round"/>
    <path d="M 229.5674285888672 233.28884887695312 C 229.75094604492188 234.17974853515625 229.7415771484375 235.15029907226562 229.5375213623047 236.17990112304688 C 229.1108856201172 237.27516174316406 228.4268341064453 238.40133666992188 227.4183349609375 239.6084747314453 C 226.0166015625 240.97406005859375 224.1275634765625 242.5225067138672 221.65647888183594 244.2509307861328 C 218.5399932861328 246.1387939453125 214.78334045410156 248.05519104003906 210.43629455566406 249.82254028320312 C 205.50564575195312 251.13204956054688 200.09152221679688 251.57363891601562 194.3278045654297 250.8628387451172 C 188.60699462890625 249.34481811523438 183.53268432617188 247.31861877441406 179.44769287109375 245.1766357421875 C 176.33935546875 243.2565460205078 174.1092987060547 241.64602661132812 172.51153564453125 240.22113037109375 C 171.3649444580078 238.94192504882812 170.5418243408203 237.7133331298828 169.97332763671875 236.56793212890625 C 169.62078857421875 235.52423095703125 169.47354125976562 234.5595245361328 169.52317810058594 233.6936492919922 C 169.76588439941406 232.92868041992188 170.2134246826172 232.27969360351562 170.89222717285156 231.74208068847656 C 171.83963012695312 231.3179168701172 173.13168334960938 231.03009033203125 174.88612365722656 230.9806671142578 C 177.34039306640625 231.3791961669922 180.88064575195312 232.51602172851562 185.8064727783203 234.14968872070312 C 192.39378356933594 235.475830078125 200.05712890625 235.99716186523438 207.6559600830078 235.56346130371094 C 214.06005859375 234.411865234375 218.8310089111328 232.93215942382812 222.23477172851562 231.7864532470703 C 224.6556396484375 231.24334716796875 226.3887939453125 231.1624755859375 227.65573120117188 231.3839874267578 C 228.55780029296875 231.86842346191406 229.177734375 232.52304077148438 229.5674285888672 233.28884887695312" stroke-width="2.0" fill="rgb(95, 53, 61)" opacity="1.0" stroke="rgb(95, 53, 61)" stroke-opacity="1.0" stroke-linecap="round" stroke-linejoin="round"/>
    <path d="M 223.50665283203125 284.0143737792969 C 223.61045837402344 284.8018493652344 223.54635620117188 285.66107177734375 223.3056640625 286.5777587890625 C 222.869384765625 287.557861328125 222.2112579345703 288.5930480957031 221.29510498046875 289.7215881347656 C 220.06845092773438 290.9723205566406 218.48281860351562 292.3297119140625 216.48817443847656 293.76513671875 C 214.08328247070312 295.208251953125 211.31317138671875 296.5328063964844 208.25205993652344 297.6322021484375 C 204.96681213378906 298.4663391113281 201.4666290283203 298.9441223144531 197.68707275390625 298.8245544433594 C 193.62802124023438 298.0686950683594 189.58932495117188 296.80303955078125 185.97695922851562 295.1400146484375 C 183.0352325439453 293.3890686035156 180.78219604492188 291.7882385253906 179.12940979003906 290.4003601074219 C 177.93309020996094 289.1533203125 177.082763671875 288.02679443359375 176.49517822265625 286.9657897949219 C 176.12527465820312 285.992431640625 175.9606170654297 285.1094970703125 175.98643493652344 284.33660888671875 C 176.19488525390625 283.67230224609375 176.58847045898438 283.11529541015625 177.17987060546875 282.659423828125 C 177.9977569580078 282.2951965332031 179.08999633789062 282.037841796875 180.547119140625 281.91607666015625 C 182.58395385742188 282.0498046875 185.51072692871094 282.6425476074219 189.50509643554688 283.5559387207031 C 194.71707153320312 284.30975341796875 200.64891052246094 284.5916748046875 206.462646484375 284.3547058105469 C 211.39605712890625 283.58355712890625 215.1280059814453 282.62603759765625 217.80345153808594 282.0095520019531 C 219.6970977783203 281.8427734375 221.0472412109375 281.953857421875 222.03147888183594 282.2599182128906 C 222.73556518554688 282.7315673828125 223.21852111816406 283.3230895996094 223.50665283203125 284.0143737792969" stroke-width="2.0" fill="rgb(127, 72, 51)" opacity="1.0" stroke="rgb(127, 72, 51)" stroke-opacity="1.0" stroke-linecap="round" stroke-linejoin="round"/>
    <path d="M 255.12973022460938 185.94822692871094 C 255.17730712890625 187.7700958251953 254.9163818359375 189.45887756347656 254.4083709716797 190.98138427734375 C 253.731201171875 192.36769104003906 252.89102172851562 193.61630249023438 251.91091918945312 194.7310791015625 C 250.81378173828125 195.74375915527344 249.64068603515625 196.6267852783203 248.4191436767578 197.37240600585938 C 247.125244140625 197.95285034179688 245.76495361328125 198.38192749023438 244.36822509765625 198.70362854003906 C 242.92356872558594 198.8848876953125 241.4691925048828 198.87832641601562 240.0102081298828 198.6724853515625 C 238.5561065673828 198.30345153808594 237.1749267578125 197.78866577148438 235.90345764160156 197.1385955810547 C 234.7616729736328 196.34156799316406 233.7279052734375 195.41407775878906 232.7872314453125 194.3853759765625 C 231.94842529296875 193.26889038085938 231.23739624023438 192.0390167236328 230.70457458496094 190.621337890625 C 230.35791015625 189.01223754882812 230.29107666015625 187.19908142089844 230.49757385253906 185.33465576171875 C 231.0015106201172 183.54176330566406 231.77867126464844 181.81802368164062 232.77711486816406 180.1984405517578 C 233.91746520996094 178.75631713867188 235.11314392089844 177.47959899902344 236.31033325195312 176.39308166503906 C 237.5545196533203 175.5115203857422 238.8451690673828 174.82974243164062 240.11009216308594 174.3553009033203 C 241.36952209472656 174.09445190429688 242.6722869873047 174.07334899902344 244.07418823242188 174.31446838378906 C 245.56494140625 174.8057403564453 247.1181182861328 175.54510498046875 248.73146057128906 176.5414276123047 C 250.3267822265625 177.740966796875 251.82080078125 179.11337280273438 253.10409545898438 180.6566619873047 C 254.09442138671875 182.33590698242188 254.76272583007812 184.10464477539062 255.12973022460938 185.94822692871094" stroke-width="2.0" fill="rgb(40, 54, 60)" opacity="1.0" stroke="rgb(40, 54, 60)" stroke-opacity="1.0" stroke-linecap="round" stroke-linejoin="round"/>
    <path d="M 170.12973022460938 185.94822692871094 C 170.17730712890625 187.7700958251953 169.9163818359375 189.45887756347656 169.4083709716797 190.98138427734375 C 168.731201171875 192.36769104003906 167.89102172851562 193.61630249023438 166.91091918945312 194.7310791015625 C 165.81378173828125 195.74375915527344 164.64068603515625 196.6267852783203 163.4191436767578 197.37240600585938 C 162.125244140625 197.95285034179688 160.76495361328125 198.38192749023438 159.36822509765625 198.70362854003906 C 157.92356872558594 198.8848876953125 156.4691925048828 198.87832641601562 155.0102081298828 198.6724853515625 C 153.5561065673828 198.30345153808594 152.1749267578125 197.78866577148438 150.90345764160156 197.1385955810547 C 149.7616729736328 196.34156799316406 148.7279052734375 195.41407775878906 147.7872314453125 194.3853759765625 C 146.94842529296875 193.26889038085938 146.23739624023438 192.0390167236328 145.70457458496094 190.621337890625 C 145.35791015625 189.01223754882812 145.29107666015625 187.19908142089844 145.49757385253906 185.33465576171875 C 146.0015106201172 183.54176330566406 146.77867126464844 181.81802368164062 147.77711486816406 180.1984405517578 C 148.91746520996094 178.75631713867188 150.11314392089844 177.47959899902344 151.31033325195312 176.39308166503906 C 152.5545196533203 175.5115203857422 153.8451690673828 174.82974243164062 155.11009216308594 174.3553009033203 C 156.36952209472656 174.09445190429688 157.6722869873047 174.07334899902344 159.07418823242188 174.31446838378906 C 160.56494140625 174.8057403564453 162.1181182861328 175.54510498046875 163.73146057128906 176.5414276123047 C 165.3267822265625 177.740966796875 166.82080078125 179.11337280273438 168.10409545898438 180.6566619873047 C 169.09442138671875 182.33590698242188 169.76272583007812 184.10464477539062 170.12973022460938 185.94822692871094" stroke-width="2.0" fill="rgb(40, 54, 60)" opacity="1.0" stroke="rgb(40, 54, 60)" stroke-opacity="1.0" stroke-linecap="round" stroke-linejoin="round"/>
    <path d="M 180.00250244140625 169.09286499023438 C 180.76022338867188 171.2377166748047 181.26193237304688 173.15689086914062 181.55172729492188 174.7740936279297 C 181.65794372558594 176.1050567626953 181.60675048828125 177.14869689941406 181.4174346923828 177.85997009277344 C 181.09979248046875 178.18905639648438 180.6551513671875 178.08526611328125 180.04733276367188 177.55685424804688 C 179.21066284179688 176.6359405517578 178.0752716064453 175.3503875732422 176.52334594726562 173.8001251220703 C 174.45619201660156 172.11221313476562 171.77857971191406 170.40480041503906 168.36529541015625 168.86659240722656 C 164.1464080810547 167.650146484375 159.28160095214844 166.96156311035156 154.08480834960938 166.81939697265625 C 149.07516479492188 167.1184844970703 144.81077575683594 167.64013671875 141.53436279296875 168.11221313476562 C 139.2718048095703 168.396240234375 137.828857421875 168.2598114013672 136.92120361328125 167.734619140625 C 136.39788818359375 166.93557739257812 136.14488220214844 165.9381103515625 136.1116180419922 164.81700134277344 C 136.2892303466797 163.6393585205078 136.65740966796875 162.42132568359375 137.20938110351562 161.21092224121094 C 137.96971130371094 160.07476806640625 138.94129943847656 158.98703002929688 140.1587371826172 157.9730682373047 C 141.68455505371094 157.09280395507812 143.5015411376953 156.3424835205078 145.64988708496094 155.7450408935547 C 148.17906188964844 155.31423950195312 151.15870666503906 155.0463409423828 154.54873657226562 155.04266357421875 C 158.2201690673828 155.3930206298828 162.034423828125 156.1005401611328 165.83291625976562 157.1503143310547 C 169.4159698486328 158.56434631347656 172.6382293701172 160.30357360839844 175.31863403320312 162.3187713623047 C 177.37252807617188 164.5418701171875 178.9046630859375 166.84207153320312 180.00250244140625 169.09286499023438" stroke-width="2.0" fill="rgb(167, 119, 175)" opacity="1.0" stroke="rgb(167, 119, 175)" stroke-opacity="1.0" stroke-linecap="round" stroke-linejoin="round"/>
    <path d="M 261.8353576660156 164.02639770507812 C 262.0117492675781 164.82943725585938 262.0077209472656 165.57923889160156 261.829345703125 166.27444458007812 C 261.4643859863281 166.88861083984375 260.90179443359375 167.39608764648438 260.12774658203125 167.74574279785156 C 259.1071472167969 167.86087036132812 257.767578125 167.67489624023438 256.0653381347656 167.17642211914062 C 253.9665069580078 166.38397216796875 251.49490356445312 165.4502716064453 248.66587829589844 164.57098388671875 C 245.45565795898438 163.89987182617188 241.87216186523438 163.71804809570312 238.1217803955078 164.20140075683594 C 234.5575714111328 165.16934204101562 231.49533081054688 166.305419921875 229.0508575439453 167.2745819091797 C 227.1710968017578 167.81924438476562 225.79100036621094 167.8920135498047 224.7930145263672 167.6664276123047 C 224.04864501953125 167.26815795898438 223.49742126464844 166.77249145507812 223.11041259765625 166.2119140625 C 222.8730926513672 165.5785675048828 222.78965759277344 164.87921142578125 222.86526489257812 164.12185668945312 C 223.11866760253906 163.30581665039062 223.58563232421875 162.42349243164062 224.29391479492188 161.4653778076172 C 225.31468200683594 160.3697509765625 226.6669158935547 159.14857482910156 228.44468688964844 157.85287475585938 C 230.71376037597656 156.55528259277344 233.49522399902344 155.37493896484375 236.73541259765625 154.47134399414062 C 240.29440307617188 153.95840454101562 243.93572998046875 153.97215270996094 247.44210815429688 154.45225524902344 C 250.64962768554688 155.2555389404297 253.37109375 156.3306884765625 255.6117401123047 157.55589294433594 C 257.45660400390625 158.84007263183594 258.9132080078125 160.0926971435547 260.0517883300781 161.218505859375 C 260.89605712890625 162.23562622070312 261.472900390625 163.16921997070312 261.8353576660156 164.02639770507812" stroke-width="2.0" fill="rgb(30, 66, 86)" opacity="1.0" stroke="rgb(30, 66, 86)" stroke-opacity="1.0" stroke-linecap="round" stroke-linejoin="round"/>
    <path d="M 212.25152587890625 212.87518310546875 C 212.30377197265625 213.46420288085938 212.24720764160156 214.0513458251953 212.08917236328125 214.63462829589844 C 211.81483459472656 215.23594665527344 211.4290771484375 215.8560028076172 210.9204559326172 216.52957153320312 C 210.26010131835938 217.26809692382812 209.41806030273438 218.05213928222656 208.38577270507812 218.85147094726562 C 207.13922119140625 219.63877868652344 205.6986541748047 220.36618041992188 204.11410522460938 220.9706573486328 C 202.44500732421875 221.4197540283203 200.72824096679688 221.6665802001953 198.9507293701172 221.65013122558594 C 197.13858032226562 221.33309936523438 195.37245178222656 220.77935791015625 193.71209716796875 220.0305938720703 C 192.2101287841797 219.12586975097656 190.95420837402344 218.14785766601562 189.93756103515625 217.1712188720703 C 189.13304138183594 216.26832580566406 188.516845703125 215.4500732421875 188.0775146484375 214.6934814453125 C 187.80787658691406 214.00106811523438 187.6973876953125 213.36378479003906 187.7184600830078 212.78977966308594 C 187.8744354248047 212.26890563964844 188.16712951660156 211.78868103027344 188.594970703125 211.36378479003906 C 189.16563415527344 210.987060546875 189.90325927734375 210.64822387695312 190.8672637939453 210.36073303222656 C 192.1662139892578 210.19570922851562 193.8665008544922 210.19570922851562 195.955322265625 210.2579803466797 C 198.3604278564453 210.29202270507812 200.92794799804688 210.27268981933594 203.47201538085938 210.2381591796875 C 205.77191162109375 210.186279296875 207.61831665039062 210.15689086914062 209.00088500976562 210.26242065429688 C 210.02093505859375 210.5238494873047 210.781982421875 210.87289428710938 211.36692810058594 211.297119140625 C 211.79541015625 211.78363037109375 212.0830078125 212.31256103515625 212.25152587890625 212.87518310546875" stroke-width="2.0" fill="rgb(140, 108, 64)" opacity="1.0" stroke="rgb(140, 108, 64)" stroke-opacity="1.0" stroke-linecap="round" stroke-linejoin="round"/>
  </g>
</svg>
