<?xml version="1.0" ?>
<svg xmlns="http://www.w3.org/2000/svg" version="1.1" width="400" height="400">
  <defs/>
  <g>
    <path d="M 346.3064270019531 194.52500915527344 C 346.2991638183594 208.63973999023438 345.4424743652344 222.01036071777344 343.6717529296875 234.921875 C 340.85565185546875 247.6956329345703 336.6510009765625 260.1125183105469 330.6011657714844 272.2056579589844 C 322.0641174316406 284.1934814453125 310.3556213378906 296.0008239746094 295.5927429199219 307.3756408691406 C 278.6559753417969 317.4856262207031 260.8510437011719 325.5534362792969 242.54736328125 331.3109130859375 C 223.50970458984375 334.9070129394531 203.2299041748047 336.2152404785156 181.48440551757812 335.0380554199219 C 159.11892700195312 330.9284973144531 136.90777587890625 323.5720520019531 115.50296783447266 313.1829833984375 C 96.4423828125 300.5471496582031 81.18000793457031 286.7373352050781 70.10765838623047 272.3576354980469 C 62.46039581298828 257.685546875 57.43687438964844 242.5754852294922 54.33145523071289 227.75755310058594 C 52.5455322265625 213.7664337158203 51.84354019165039 200.2070770263672 52.0556640625 186.78797912597656 C 53.17951965332031 172.77854919433594 55.487815856933594 157.5780029296875 59.58355712890625 140.8419952392578 C 66.38139343261719 122.92564392089844 77.25079345703125 104.5842514038086 93.21836853027344 87.26130676269531 C 114.00059509277344 73.05886840820312 138.62184143066406 63.1931037902832 164.86599731445312 57.21363067626953 C 189.8961639404297 54.49964904785156 213.66995239257812 54.538360595703125 237.04013061523438 57.439697265625 C 260.23223876953125 63.956817626953125 283.3415222167969 74.50749206542969 304.84478759765625 88.87105560302734 C 321.4881286621094 106.43434143066406 332.4637145996094 125.56891632080078 339.134765625 144.39031982421875 C 343.1199951171875 162.4974822998047 345.3451843261719 179.414306640625 346.3064270019531 194.52500915527344" stroke-width="2.0" fill="rgb(252, 210, 48)" opacity="1.0" stroke="rgb(252, 210, 48)" stroke-opacity="1.0" stroke-linecap="round" stroke-linejoin="round"/>
    <path d="M 254.37159729003906 251.8481903076172 C 254.48440551757812 256.58746337890625 254.00143432617188 261.3335266113281 252.91563415527344 265.96533203125 C 251.1387176513672 270.311767578125 248.58534240722656 274.2198791503906 245.29295349121094 277.6331481933594 C 241.19790649414062 280.48779296875 236.22816467285156 282.735107421875 230.2345428466797 284.3070068359375 C 223.21002197265625 285.15203857421875 215.09463500976562 285.27923583984375 206.1773681640625 284.76959228515625 C 196.99163818359375 283.7618408203125 188.20391845703125 282.3575439453125 180.05870056152344 280.55877685546875 C 172.8172149658203 278.4801940917969 166.62844848632812 276.25048828125 161.4009246826172 273.97967529296875 C 157.1028594970703 271.77978515625 153.48988342285156 269.57525634765625 150.45797729492188 267.36358642578125 C 147.99392700195312 265.11346435546875 146.10789489746094 262.7936706542969 144.8001708984375 260.427978515625 C 143.99847412109375 258.0657043457031 143.6450958251953 255.7559051513672 143.76609802246094 253.5474395751953 C 144.4071044921875 251.54017639160156 145.6039276123047 249.7644500732422 147.44052124023438 248.2977752685547 C 150.03704833984375 247.12454223632812 153.5196533203125 246.20751953125 158.21673583984375 245.45449829101562 C 164.45997619628906 245.07730102539062 172.42648315429688 245.20242309570312 182.13442993164062 245.4962158203125 C 193.27410888671875 245.27064514160156 204.7289581298828 244.35040283203125 215.4314727783203 242.689208984375 C 224.68994140625 240.69781494140625 232.47064208984375 238.52606201171875 238.87295532226562 236.81521606445312 C 243.89804077148438 236.29208374023438 247.6616668701172 237.30535888671875 250.42172241210938 239.70989990234375 C 252.37521362304688 243.19149780273438 253.66558837890625 247.3380126953125 254.37159729003906 251.8481903076172" stroke-width="2.0" fill="rgb(100, 115, 80)" opacity="1.0" stroke="rgb(100, 115, 80)" stroke-opacity="1.0" stroke-linecap="round" stroke-linejoin="round"/>
    <path d="M 253.82452392578125 274.2991943359375 C 253.86428833007812 278.9166259765625 253.34463500976562 283.1686706542969 252.33502197265625 286.93658447265625 C 250.8709716796875 290.28045654296875 248.893798828125 293.15924072265625 246.32386779785156 295.497802734375 C 243.05108642578125 297.29632568359375 238.9271240234375 298.3818359375 233.71096801757812 298.37158203125 C 227.31533813476562 297.12530517578125 219.79202270507812 294.9656982421875 211.44601440429688 292.77081298828125 C 202.61224365234375 291.62384033203125 193.65817260742188 292.0545959472656 185.0836944580078 294.0037536621094 C 177.29547119140625 296.6568603515625 170.414306640625 298.94427490234375 164.4388427734375 300.0150146484375 C 159.42578125 299.7899169921875 155.32260131835938 298.4679870605469 151.97760009765625 296.2259521484375 C 149.3487091064453 293.22125244140625 147.38888549804688 289.58203125 146.0233154296875 285.4271240234375 C 145.18983459472656 281.07464599609375 144.9011993408203 276.64398193359375 145.1195831298828 272.24542236328125 C 145.81918334960938 267.9739990234375 147.0206756591797 263.8337097167969 148.76519775390625 259.85546875 C 151.10374450683594 256.0906066894531 154.19894409179688 252.59190368652344 158.19534301757812 249.5179443359375 C 163.29908752441406 246.80238342285156 169.73915100097656 244.5135955810547 177.55291748046875 242.68450927734375 C 186.57839965820312 241.35150146484375 196.65805053710938 240.5531768798828 207.3131103515625 240.49691772460938 C 217.9255828857422 241.55599975585938 227.7228546142578 243.6434783935547 235.96847534179688 246.72216796875 C 242.2200927734375 250.7471466064453 246.6735076904297 255.25704956054688 249.7947998046875 259.926513671875 C 251.88262939453125 264.67340087890625 253.18048095703125 269.505615234375 253.82452392578125 274.2991943359375" stroke-width="2.0" fill="rgb(97, 31, 38)" opacity="1.0" stroke="rgb(97, 31, 38)" stroke-opacity="1.0" stroke-linecap="round" stroke-linejoin="round"/>
    <path d="M 269.13330078125 183.30223083496094 C 269.5025329589844 187.06396484375 269.33270263671875 190.7307586669922 268.6095275878906 194.08042907714844 C 267.4559326171875 197.05404663085938 266.005126953125 199.68849182128906 264.33087158203125 201.94850158691406 C 262.5118408203125 203.81976318359375 260.6181640625 205.3162384033203 258.67303466796875 206.4947967529297 C 256.6620788574219 207.40480041503906 254.566162109375 208.103759765625 252.38848876953125 208.62022399902344 C 250.01812744140625 208.93858337402344 247.4995574951172 209.01138305664062 244.9471435546875 208.80641174316406 C 242.4151611328125 208.31509399414062 239.93408203125 207.5482940673828 237.52694702148438 206.4952392578125 C 235.21421813964844 205.12437438964844 233.0520477294922 203.40634155273438 231.13633728027344 201.4022216796875 C 229.51763916015625 199.1409454345703 228.21578979492188 196.52708435058594 227.2228546142578 193.56198120117188 C 226.61709594726562 190.3472442626953 226.47610473632812 187.09136962890625 226.75205993652344 184.03240966796875 C 227.38197326660156 181.24319458007812 228.30487060546875 178.66656494140625 229.5178680419922 176.2646484375 C 231.0227508544922 174.08494567871094 232.77053833007812 172.14215087890625 234.69451904296875 170.41981506347656 C 236.7806396484375 168.9734344482422 239.08291625976562 167.81430053710938 241.57034301757812 166.8909149169922 C 244.19528198242188 166.18540954589844 246.90203857421875 165.767333984375 249.68138122558594 165.7804718017578 C 252.4775848388672 166.23890686035156 255.2130126953125 167.02284240722656 257.8257751464844 168.15072631835938 C 260.3356628417969 169.65969848632812 262.6971130371094 171.53424072265625 264.8745422363281 173.83120727539062 C 266.7520751953125 176.56617736816406 268.2039489746094 179.75790405273438 269.13330078125 183.30223083496094" stroke-width="2.0" fill="rgb(72, 41, 39)" opacity="1.0" stroke="rgb(72, 41, 39)" stroke-opacity="1.0" stroke-linecap="round" stroke-linejoin="round"/>
    <path d="M 167.65509033203125 181.7102508544922 C 168.21900939941406 185.4267578125 168.3056182861328 189.32069396972656 167.8367462158203 193.02943420410156 C 166.8322296142578 196.35118103027344 165.4327392578125 199.24832153320312 163.74447631835938 201.7061309814453 C 161.8544464111328 203.75453186035156 159.84323120117188 205.42568969726562 157.72909545898438 206.78836059570312 C 155.50453186035156 207.83827209472656 153.22850036621094 208.60598754882812 150.95594787597656 209.11880493164062 C 148.6154022216797 209.38650512695312 146.20993041992188 209.38890075683594 143.82289123535156 209.11463928222656 C 141.46697998046875 208.57745361328125 139.16390991210938 207.8174591064453 136.935791015625 206.807373046875 C 134.79298400878906 205.47195434570312 132.77322387695312 203.78598022460938 130.93783569335938 201.74005126953125 C 129.34341430664062 199.36856079101562 128.03414916992188 196.6464080810547 127.0588607788086 193.545166015625 C 126.47838592529297 190.07205200195312 126.37317657470703 186.5070037841797 126.71173095703125 183.2347869873047 C 127.42777252197266 180.33152770996094 128.43594360351562 177.68617248535156 129.7252197265625 175.2798309326172 C 131.27540588378906 173.16650390625 133.00193786621094 171.302734375 134.84375 169.69906616210938 C 136.88465881347656 168.3662567138672 139.1511688232422 167.26565551757812 141.59844970703125 166.37155151367188 C 144.17041015625 165.72817993164062 146.82327270507812 165.4319610595703 149.47799682617188 165.55416870117188 C 152.1028594970703 166.0488739013672 154.64967346191406 166.80316162109375 157.0806121826172 167.85433959960938 C 159.40391540527344 169.23683166503906 161.55235290527344 170.943603515625 163.52407836914062 173.02932739257812 C 165.24801635742188 175.4864044189453 166.65066528320312 178.3790283203125 167.65509033203125 181.7102508544922" stroke-width="2.0" fill="rgb(89, 50, 28)" opacity="1.0" stroke="rgb(89, 50, 28)" stroke-opacity="1.0" stroke-linecap="round" stroke-linejoin="round"/>
    <path d="M 250.2744903564453 177.83865356445312 C 250.3260498046875 179.0269012451172 250.20716857910156 180.2411346435547 249.93798828125 181.38665771484375 C 249.50958251953125 182.43466186523438 248.9563446044922 183.35769653320312 248.3180694580078 184.1621856689453 C 247.6129608154297 184.85919189453125 246.83981323242188 185.43832397460938 246.01480102539062 185.8729705810547 C 245.1689910888672 186.1907196044922 244.3257293701172 186.4119110107422 243.4916534423828 186.55776977539062 C 242.6793212890625 186.64694213867188 241.91383361816406 186.666015625 241.20062255859375 186.61985778808594 C 240.51901245117188 186.5022735595703 239.87222290039062 186.30990600585938 239.25289916992188 186.04513549804688 C 238.66348266601562 185.67910766601562 238.1077880859375 185.1980743408203 237.59181213378906 184.5760498046875 C 237.1251983642578 183.8012237548828 236.7187042236328 182.8750762939453 236.4223175048828 181.7869873046875 C 236.26266479492188 180.55621337890625 236.24903869628906 179.2606658935547 236.39471435546875 178.0099639892578 C 236.72337341308594 176.88856506347656 237.20986938476562 175.88534545898438 237.8083038330078 175.01657104492188 C 238.48680114746094 174.26466369628906 239.20152282714844 173.6283721923828 239.93649291992188 173.10858154296875 C 240.70382690429688 172.69712829589844 241.53285217285156 172.38018798828125 242.41998291015625 172.1846923828125 C 243.35675048828125 172.0955352783203 244.32334899902344 172.0884246826172 245.2726287841797 172.1688232421875 C 246.1622314453125 172.34934997558594 246.9614715576172 172.6372833251953 247.6695556640625 173.04429626464844 C 248.31277465820312 173.5655059814453 248.8788604736328 174.1959228515625 249.3592071533203 174.928466796875 C 249.7650909423828 175.77487182617188 250.07554626464844 176.7458953857422 250.2744903564453 177.83865356445312" stroke-width="2.0" fill="rgb(166, 117, 22)" opacity="1.0" stroke="rgb(166, 117, 22)" stroke-opacity="1.0" stroke-linecap="round" stroke-linejoin="round"/>
    <path d="M 149.99913024902344 176.88046264648438 C 150.06622314453125 178.06350708007812 149.98614501953125 179.355224609375 149.74942016601562 180.69216918945312 C 149.3575439453125 181.99835205078125 148.81851196289062 183.18487548828125 148.1624755859375 184.21807861328125 C 147.4202423095703 185.09225463867188 146.60232543945312 185.79116821289062 145.74169921875 186.3096923828125 C 144.88999938964844 186.69557189941406 144.07479858398438 186.97314453125 143.276123046875 187.16595458984375 C 142.4907989501953 187.27615356445312 141.74038696289062 187.2926025390625 141.02978515625 187.223388671875 C 140.353759765625 187.0758819580078 139.71470642089844 186.854736328125 139.10987854003906 186.55787658691406 C 138.5341796875 186.17352294921875 138.00335693359375 185.68353271484375 137.51429748535156 185.0586700439453 C 137.0654754638672 184.28587341308594 136.6693878173828 183.37237548828125 136.36387634277344 182.27850341796875 C 136.19236755371094 180.989990234375 136.16485595703125 179.56112670898438 136.31451416015625 178.1456756591797 C 136.65501403808594 176.86993408203125 137.1667938232422 175.74049377441406 137.7836151123047 174.75869750976562 C 138.45655822753906 173.89260864257812 139.1602325439453 173.14370727539062 139.88265991210938 172.51988220214844 C 140.64181518554688 172.03195190429688 141.43736267089844 171.66607666015625 142.2803497314453 171.42994689941406 C 143.17613220214844 171.33551025390625 144.12420654296875 171.3718719482422 145.07373046875 171.5195770263672 C 145.98402404785156 171.76333618164062 146.8092803955078 172.0889434814453 147.52606201171875 172.50160217285156 C 148.14263916015625 172.98492431640625 148.66976928710938 173.5380401611328 149.11634826660156 174.18402099609375 C 149.50025939941406 174.93630981445312 149.8035125732422 175.8390655517578 149.99913024902344 176.88046264648438" stroke-width="2.0" fill="rgb(176, 128, 26)" opacity="1.0" stroke="rgb(176, 128, 26)" stroke-opacity="1.0" stroke-linecap="round" stroke-linejoin="round"/>
  </g>
</svg>
