<?xml version="1.0" ?>
<svg xmlns="http://www.w3.org/2000/svg" version="1.1" width="400" height="400">
  <defs/>
  <g>
    <path d="M 314.8017578125 196.9002685546875 C 314.92425537109375 210.25804138183594 314.18524169921875 223.19142150878906 312.5131530761719 235.82151794433594 C 309.7129821777344 248.43405151367188 305.4344787597656 260.6900329589844 299.22784423828125 272.41693115234375 C 290.41595458984375 283.7959899902344 278.60498046875 294.7576599121094 264.0001220703125 305.021240234375 C 247.6005401611328 313.72174072265625 230.28860473632812 320.19403076171875 213.0740203857422 324.48193359375 C 195.6593017578125 326.87518310546875 177.21925354003906 327.5484619140625 158.37673950195312 326.50067138671875 C 139.6431884765625 323.5500183105469 121.83897399902344 318.6800537109375 105.62183380126953 311.7682189941406 C 91.2067642211914 302.85699462890625 79.03677368164062 292.2080078125 69.420654296875 280.051513671875 C 62.386940002441406 266.66058349609375 57.57356643676758 252.16673278808594 54.50990676879883 236.97715759277344 C 52.779396057128906 222.08364868164062 52.14004898071289 207.96829223632812 52.45956039428711 194.4119415283203 C 53.726959228515625 180.75750732421875 56.19481658935547 166.40982055664062 60.516021728515625 150.6949462890625 C 67.6768798828125 133.54949951171875 78.79165649414062 115.88365173339844 94.17234802246094 99.47319030761719 C 113.36830139160156 86.69132232666016 135.17385864257812 78.2646484375 157.34854125976562 73.43318939208984 C 177.8893280029297 71.35946655273438 197.02822875976562 71.4403305053711 216.44898986816406 73.83796691894531 C 236.2318115234375 79.27559661865234 256.5269775390625 88.16925048828125 275.781005859375 100.50863647460938 C 291.03680419921875 115.84577941894531 301.2954406738281 133.01748657226562 307.64239501953125 150.22872924804688 C 311.54058837890625 166.91632080078125 313.75347900390625 182.67904663085938 314.8017578125 196.9002685546875" stroke-width="2.0" fill="rgb(252, 217, 72)" opacity="1.0" stroke="rgb(252, 217, 72)" stroke-opacity="1.0" stroke-linecap="round" stroke-linejoin="round"/>
    <path d="M 354.5882263183594 197.59909057617188 C 354.751220703125 199.36831665039062 354.6341857910156 201.1287841796875 354.22998046875 202.87240600585938 C 353.497314453125 204.65664672851562 352.3733825683594 206.4964599609375 350.744140625 208.37197875976562 C 348.4539794921875 210.27706909179688 345.34869384765625 212.18478393554688 341.26824951171875 214.004638671875 C 336.0164794921875 215.85726928710938 329.52923583984375 217.8063507080078 321.9203186035156 219.74020385742188 C 313.49969482421875 221.4475555419922 304.6260986328125 222.76878356933594 295.5416259765625 223.53692626953125 C 286.465576171875 223.7745361328125 277.9444274902344 223.63198852539062 270.7067565917969 223.07850646972656 C 264.9514465332031 222.180419921875 260.6399230957031 220.91278076171875 257.5650634765625 219.18783569335938 C 255.49490356445312 216.92947387695312 254.3172149658203 214.17523193359375 253.8919677734375 210.9635009765625 C 254.13003540039062 207.32470703125 255.0996551513672 203.34820556640625 256.89141845703125 199.02923583984375 C 259.6011962890625 194.58917236328125 263.4263000488281 190.3325958251953 268.527587890625 186.52340698242188 C 274.884521484375 183.24081420898438 282.306396484375 180.50067138671875 290.5500793457031 178.34947204589844 C 299.4271545410156 176.76609802246094 308.3641662597656 175.74794006347656 316.5659484863281 175.45907592773438 C 323.7802429199219 175.89698791503906 329.7490234375 176.93399047851562 334.6382751464844 178.5576934814453 C 338.8468017578125 180.60865783691406 342.5160217285156 182.87179565429688 345.7101745605469 185.23077392578125 C 348.4083557128906 187.68670654296875 350.5720520019531 190.00009155273438 352.2051696777344 192.076904296875 C 353.3583984375 194.02500915527344 354.1307373046875 195.85569763183594 354.5882263183594 197.59909057617188" stroke-width="2.0" fill="rgb(225, 224, 224)" opacity="1.0" stroke="rgb(225, 224, 224)" stroke-opacity="1.0" stroke-linecap="round" stroke-linejoin="round"/>
    <path d="M 166.91732788085938 239.50997924804688 C 167.1751708984375 240.5806427001953 167.1907958984375 241.62301635742188 166.97552490234375 242.63626098632812 C 166.52232360839844 243.64170837402344 165.81082153320312 244.64495849609375 164.7998809814453 245.73971557617188 C 163.39732360839844 247.00823974609375 161.47842407226562 248.4920654296875 158.87950134277344 250.20675659179688 C 155.4136505126953 252.1590576171875 150.9105224609375 254.24578857421875 145.29177856445312 256.13751220703125 C 138.5522918701172 257.54022216796875 131.0897979736328 258.11151123046875 123.32965087890625 257.5806884765625 C 116.00464630126953 256.2630310058594 109.71617126464844 254.34396362304688 104.76860809326172 252.15505981445312 C 101.0066146850586 250.1820526123047 98.23527526855469 248.42791748046875 96.21955871582031 246.96595764160156 C 94.76274108886719 245.72837829589844 93.7337875366211 244.5673370361328 93.0456314086914 243.43687438964844 C 92.65365600585938 242.3125762939453 92.53984832763672 241.18943786621094 92.70116424560547 240.07501220703125 C 93.15299987792969 238.96588134765625 93.93698120117188 237.88137817382812 95.1015396118164 236.89097595214844 C 96.68219757080078 236.1260528564453 98.73316955566406 235.7301788330078 101.38240814208984 235.75965881347656 C 105.01336669921875 236.29161071777344 110.17930603027344 237.3911590576172 117.24917602539062 238.55224609375 C 126.00636291503906 239.06414794921875 135.2600860595703 238.92630004882812 143.64862060546875 238.36282348632812 C 150.33810424804688 237.34292602539062 155.1684112548828 236.2899169921875 158.61865234375 235.7098846435547 C 161.1185760498047 235.64108276367188 163.01934814453125 235.97421264648438 164.4923095703125 236.6085205078125 C 165.60659790039062 237.47764587402344 166.4019775390625 238.45993041992188 166.91732788085938 239.50997924804688" stroke-width="2.0" fill="rgb(74, 53, 35)" opacity="1.0" stroke="rgb(74, 53, 35)" stroke-opacity="1.0" stroke-linecap="round" stroke-linejoin="round"/>
    <path d="M 341.3883972167969 252.80392456054688 C 341.782470703125 254.3191680908203 341.9230041503906 255.71412658691406 341.81658935546875 256.95770263671875 C 341.46563720703125 258.0874938964844 340.83782958984375 259.0855712890625 339.8695068359375 259.8680419921875 C 338.46929931640625 260.4581298828125 336.51849365234375 260.7708740234375 333.8827819824219 260.65472412109375 C 330.4630126953125 260.05792236328125 326.247802734375 258.96673583984375 321.2350158691406 257.5187072753906 C 315.3923034667969 256.1337890625 308.75732421875 255.10679626464844 301.2536926269531 254.65975952148438 C 292.8411865234375 254.85641479492188 283.94244384765625 255.566162109375 275.1702880859375 256.48187255859375 C 267.2227478027344 257.2060852050781 260.538330078125 257.54888916015625 255.24366760253906 257.42327880859375 C 251.2847442626953 256.8426513671875 248.51173400878906 255.86871337890625 246.73416137695312 254.47776794433594 C 245.7685546875 252.72726440429688 245.5298614501953 250.7822265625 245.99810791015625 248.70040893554688 C 247.1775360107422 246.4818572998047 249.1834259033203 244.164306640625 252.16868591308594 241.7964324951172 C 256.3130187988281 239.52978515625 261.7654113769531 237.45741271972656 268.5334777832031 235.69979858398438 C 276.52130126953125 234.33221435546875 285.2456359863281 233.25936889648438 294.13702392578125 232.62619018554688 C 302.5940856933594 232.74200439453125 310.263427734375 233.6147003173828 316.90167236328125 235.16880798339844 C 322.5151672363281 237.23731994628906 327.20892333984375 239.5948486328125 331.05718994140625 241.83493041992188 C 334.1518249511719 243.94418334960938 336.5440673828125 245.9340057373047 338.37109375 247.7824249267578 C 339.7289733886719 249.5593719482422 340.71405029296875 251.23179626464844 341.3883972167969 252.80392456054688" stroke-width="2.0" fill="rgb(201, 205, 226)" opacity="1.0" stroke="rgb(201, 205, 226)" stroke-opacity="1.0" stroke-linecap="round" stroke-linejoin="round"/>
    <path d="M 202.9503631591797 179.19802856445312 C 203.11843872070312 180.63864135742188 203.035400390625 182.2411651611328 202.7055206298828 183.92779541015625 C 202.11050415039062 185.6871337890625 201.2186279296875 187.48880004882812 199.95916748046875 189.33517456054688 C 198.25747680664062 191.23931884765625 196.02301025390625 193.17666625976562 193.16998291015625 195.07058715820312 C 189.67770385742188 196.86154174804688 185.62380981445312 198.3465118408203 181.0741424560547 199.47817993164062 C 176.1802215576172 200.25381469726562 171.1348419189453 200.32376098632812 166.00868225097656 199.51817321777344 C 160.9332733154297 197.971923828125 156.28192138671875 195.67776489257812 152.38323974609375 192.92259216308594 C 149.34909057617188 190.27700805664062 147.11459350585938 187.87245178222656 145.5106201171875 185.77398681640625 C 144.38339233398438 183.9243927001953 143.60516357421875 182.23519897460938 143.08187866210938 180.6729736328125 C 142.77151489257812 179.25247192382812 142.65940856933594 177.96844482421875 142.73764038085938 176.8333740234375 C 143.0105743408203 175.84072875976562 143.49244689941406 174.97254943847656 144.19125366210938 174.26788330078125 C 145.13348388671875 173.72653198242188 146.36630249023438 173.37049865722656 147.97776794433594 173.27198791503906 C 150.19915771484375 173.6155242919922 153.34683227539062 174.7009735107422 157.60903930664062 176.62203979492188 C 163.18392944335938 178.94381713867188 169.81167602539062 180.8497314453125 176.74163818359375 181.39535522460938 C 183.36572265625 180.4273681640625 189.0592041015625 178.6224822998047 193.55325317382812 176.9241943359375 C 196.83251953125 176.00680541992188 199.12728881835938 175.8592987060547 200.70855712890625 176.23764038085938 C 201.79737854003906 176.97837829589844 202.52252197265625 177.98622131347656 202.9503631591797 179.19802856445312" stroke-width="2.0" fill="rgb(110, 42, 54)" opacity="1.0" stroke="rgb(110, 42, 54)" stroke-opacity="1.0" stroke-linecap="round" stroke-linejoin="round"/>
    <path d="M 111.6336441040039 178.7136993408203 C 111.58883666992188 180.4309844970703 111.325927734375 182.27195739746094 110.85543823242188 184.13607788085938 C 110.16789245605469 186.05709838867188 109.21440124511719 187.9696807861328 107.93536376953125 189.82833862304688 C 106.31657409667969 191.6527557373047 104.34708404541016 193.41372680664062 102.03224182128906 195.07569885253906 C 99.39982604980469 196.56378173828125 96.4684066772461 197.78500366210938 93.22508239746094 198.70262145996094 C 89.80378723144531 199.28140258789062 86.29068756103516 199.4086456298828 82.65458679199219 198.90341186523438 C 78.91304779052734 197.73570251464844 75.12108612060547 195.9247283935547 71.55643463134766 193.56842041015625 C 68.54133605957031 191.04339599609375 66.17699432373047 188.67575073242188 64.42913055419922 186.57427978515625 C 63.16795349121094 184.75955200195312 62.2999382019043 183.1341552734375 61.71473693847656 181.62786865234375 C 61.350433349609375 180.2410430908203 61.1845588684082 178.95968627929688 61.21013259887695 177.80819702148438 C 61.42620086669922 176.77783203125 61.83943176269531 175.87391662597656 62.46456527709961 175.1144561767578 C 63.33817672729492 174.47727966308594 64.51774597167969 173.94512939453125 66.11632537841797 173.56500244140625 C 68.34088134765625 173.5772705078125 71.36117553710938 174.17098999023438 75.31416320800781 175.2444610595703 C 80.30628967285156 176.34469604492188 86.1661148071289 176.9681396484375 92.25047302246094 176.72134399414062 C 97.87574768066406 175.801025390625 102.33103942871094 174.65191650390625 105.53086853027344 173.9048309326172 C 107.75552368164062 173.78912353515625 109.26558685302734 174.16293334960938 110.31353759765625 174.89593505859375 C 111.01625061035156 175.92523193359375 111.44635772705078 177.21478271484375 111.6336441040039 178.7136993408203" stroke-width="2.0" fill="rgb(142, 58, 45)" opacity="1.0" stroke="rgb(142, 58, 45)" stroke-opacity="1.0" stroke-linecap="round" stroke-linejoin="round"/>
  </g>
</svg>
