<?xml version="1.0" ?>
<svg xmlns="http://www.w3.org/2000/svg" version="1.1" width="400" height="400">
  <defs/>
  <g>
    <path d="M 326.2086181640625 195.82290649414062 C 326.1809387207031 235.5186004638672 323.8573303222656 270.7747802734375 320.5043029785156 297.7928771972656 C 317.8883361816406 316.64617919921875 316.4378662109375 329.0494689941406 314.38079833984375 337.417236328125 C 310.62847900390625 342.91888427734375 304.1850280761719 346.4131774902344 294.47314453125 348.59295654296875 C 280.2427978515625 349.9735107421875 260.6674499511719 350.84417724609375 236.2762451171875 351.44158935546875 C 208.8877716064453 351.72503662109375 180.81600952148438 351.6668395996094 154.1349334716797 351.28302001953125 C 130.57083129882812 350.4897155761719 111.95707702636719 349.0677185058594 99.09111785888672 346.8374328613281 C 91.23646545410156 343.5963134765625 86.694091796875 339.18377685546875 83.77693176269531 333.2785949707031 C 82.00269317626953 325.20928955078125 80.68716430664062 314.054443359375 78.87359619140625 299.1867370605469 C 76.18087768554688 279.3402099609375 73.55487060546875 253.34344482421875 72.33038330078125 221.4963836669922 C 73.4439697265625 186.7191619873047 77.54273223876953 153.29934692382812 85.04161071777344 124.12860870361328 C 95.375244140625 101.10301208496094 107.95539855957031 83.45684814453125 122.35594177246094 70.32267761230469 C 138.2625732421875 61.11128234863281 155.18728637695312 54.88301467895508 171.8215789794922 50.95384979248047 C 187.14537048339844 48.729225158691406 200.91258239746094 47.81942367553711 213.27105712890625 47.99159240722656 C 225.5645751953125 49.35765838623047 238.56649780273438 52.3465576171875 252.7738800048828 57.89277648925781 C 268.72747802734375 67.10137939453125 286.16680908203125 81.17378234863281 302.5774230957031 100.80033874511719 C 315.2722473144531 126.35733032226562 322.9771423339844 158.25540161132812 326.2086181640625 195.82290649414062" stroke-width="2.0" fill="rgb(72, 59, 99)" opacity="1.0" stroke="rgb(72, 59, 99)" stroke-opacity="1.0" stroke-linecap="round" stroke-linejoin="round"/>
    <path d="M 289.1043701171875 183.97756958007812 C 289.4203186035156 199.58840942382812 288.6353759765625 216.35220336914062 286.6875 233.25152587890625 C 283.45947265625 249.04823303222656 278.7374267578125 262.83349609375 272.185791015625 274.17431640625 C 263.33404541015625 283.097900390625 251.95962524414062 289.86517333984375 238.5643310546875 294.56744384765625 C 224.05323791503906 297.67333984375 208.85870361328125 299.6148986816406 193.05624389648438 300.66278076171875 C 177.4969024658203 301.0323791503906 163.23208618164062 300.8652038574219 151.11996459960938 300.2207946777344 C 141.3932342529297 299.1091003417969 134.16090393066406 297.3161315917969 128.84474182128906 294.69158935546875 C 124.93099975585938 291.057861328125 121.95318603515625 286.209716796875 119.51197052001953 279.8046569824219 C 117.40550994873047 271.560791015625 115.62784576416016 261.273681640625 114.30940246582031 248.7548370361328 C 113.54029083251953 233.67552185058594 113.4715347290039 215.66751098632812 114.40242767333984 195.93215942382812 C 116.78993225097656 176.86216735839844 120.97799682617188 160.02830505371094 126.91181182861328 146.14315795898438 C 134.30252075195312 135.20680236816406 142.87118530273438 126.82793426513672 152.6944122314453 120.70343780517578 C 163.3460693359375 116.37528991699219 174.52798461914062 113.55899047851562 185.94210815429688 111.91282653808594 C 197.25997924804688 111.20591735839844 208.664306640625 111.33320617675781 220.69760131835938 112.34363555908203 C 233.04183959960938 114.57392883300781 245.24354553222656 118.0975570678711 256.66925048828125 123.01136779785156 C 266.7008972167969 129.27337646484375 274.8426208496094 137.13571166992188 280.87689208984375 146.52037048339844 C 285.049072265625 157.42984008789062 287.7010498046875 169.89114379882812 289.1043701171875 183.97756958007812" stroke-width="2.0" fill="rgb(243, 233, 205)" opacity="1.0" stroke="rgb(243, 233, 205)" stroke-opacity="1.0" stroke-linecap="round" stroke-linejoin="round"/>
    <path d="M 236.54489135742188 304.06866455078125 C 236.82150268554688 304.7781066894531 236.89759826660156 305.45062255859375 236.763427734375 306.078369140625 C 236.4010009765625 306.69842529296875 235.77426147460938 307.2657470703125 234.8179931640625 307.783447265625 C 233.43875122070312 308.29949951171875 231.53675842285156 308.7918701171875 228.98297119140625 309.2697448730469 C 225.64297485351562 309.7591552734375 221.4102783203125 310.2241516113281 216.1602020263672 310.7254638671875 C 209.86279296875 311.2392883300781 202.70298767089844 311.6690979003906 195.24984741210938 311.9305419921875 C 188.22552490234375 312.27679443359375 182.38995361328125 312.78857421875 177.80577087402344 313.23291015625 C 174.22369384765625 313.3721618652344 171.4735870361328 313.1296691894531 169.38980102539062 312.5253601074219 C 167.83262634277344 311.56414794921875 166.70742797851562 310.37591552734375 165.9575653076172 309.0941162109375 C 165.5395965576172 307.7803649902344 165.4187469482422 306.50390625 165.5764617919922 305.2901306152344 C 166.0098876953125 304.1580505371094 166.74073791503906 303.0601501464844 167.8185272216797 301.9462585449219 C 169.31234741210938 300.77099609375 171.35659790039062 299.6000061035156 174.2296142578125 298.4916076660156 C 178.23965454101562 297.6141357421875 183.61012268066406 296.8788146972656 190.5509490966797 296.292236328125 C 198.6252899169922 295.906982421875 206.870361328125 295.9058837890625 214.34242248535156 296.43438720703125 C 220.45901489257812 297.3436584472656 225.13238525390625 298.32220458984375 228.60003662109375 299.21661376953125 C 231.130859375 300.11138916015625 232.9771270751953 300.98876953125 234.34002685546875 301.8053894042969 C 235.33607482910156 302.61932373046875 236.05584716796875 303.3814392089844 236.54489135742188 304.06866455078125" stroke-width="2.0" fill="rgb(238, 214, 163)" opacity="1.0" stroke="rgb(238, 214, 163)" stroke-opacity="1.0" stroke-linecap="round" stroke-linejoin="round"/>
    <path d="M 161.59312438964844 220.5091552734375 C 161.89175415039062 223.55174255371094 161.75439453125 226.5175323486328 161.16946411132812 229.226806640625 C 160.23641967773438 231.6319580078125 159.06297302246094 233.76275634765625 157.70880126953125 235.5906982421875 C 156.23751831054688 237.10421752929688 154.70587158203125 238.31460571289062 153.13259887695312 239.26785278320312 C 151.50608825683594 240.00387573242188 149.8108673095703 240.5692138671875 148.0495147705078 240.9869384765625 C 146.13230895996094 241.24444580078125 144.09523010253906 241.30331420898438 142.03077697753906 241.13754272460938 C 139.98284912109375 240.7401580810547 137.97608947753906 240.1199493408203 136.02914428710938 239.26820373535156 C 134.1585693359375 238.159423828125 132.4097442626953 236.76983642578125 130.8602752685547 235.1488494873047 C 129.551025390625 233.31988525390625 128.49806213378906 231.2057342529297 127.69496154785156 228.8074951171875 C 127.20500946044922 226.20733642578125 127.09097290039062 223.5738983154297 127.31416320800781 221.09974670410156 C 127.82366180419922 218.84376525878906 128.57012939453125 216.7597198486328 129.5512237548828 214.81700134277344 C 130.76840209960938 213.0540008544922 132.1820526123047 211.4826202392578 133.7382049560547 210.0895538330078 C 135.42550659179688 208.91969299316406 137.2876434326172 207.98214721679688 139.29954528808594 207.2353057861328 C 141.4226531982422 206.6646728515625 143.6119384765625 206.32652282714844 145.8599395751953 206.33714294433594 C 148.12158203125 206.70794677734375 150.33404541015625 207.3419952392578 152.44732666015625 208.25425720214844 C 154.47738647460938 209.47476196289062 156.38735961914062 210.9909210205078 158.14852905273438 212.84877014160156 C 159.6671142578125 215.06088256835938 160.8414306640625 217.64242553710938 161.59312438964844 220.5091552734375" stroke-width="2.0" fill="rgb(72, 41, 39)" opacity="1.0" stroke="rgb(72, 41, 39)" stroke-opacity="1.0" stroke-linecap="round" stroke-linejoin="round"/>
    <path d="M 272.23876953125 221.67767333984375 C 272.3889465332031 224.73370361328125 272.05255126953125 227.62326049804688 271.2900390625 230.171142578125 C 270.23284912109375 232.41464233398438 268.9769592285156 234.3597412109375 267.59893798828125 235.9943084716797 C 266.1626892089844 237.35328674316406 264.68798828125 238.45770263671875 263.1991882324219 239.35009765625 C 261.6529846191406 240.04832458496094 260.01751708984375 240.5840301513672 258.269775390625 240.97265625 C 256.37847900390625 241.18231201171875 254.4202423095703 241.18092346191406 252.46241760253906 240.97825622558594 C 250.5226593017578 240.59727478027344 248.6527557373047 240.037353515625 246.8699493408203 239.2606964111328 C 245.15567016601562 238.22769165039062 243.5478973388672 236.9342041015625 242.08534240722656 235.41656494140625 C 240.8045654296875 233.69207763671875 239.7362823486328 231.68869018554688 238.89381408691406 229.38783264160156 C 238.33470153808594 226.87481689453125 238.1391143798828 224.28140258789062 238.29396057128906 221.79440307617188 C 238.76121520996094 219.52432250976562 239.4832000732422 217.3929901123047 240.45379638671875 215.40591430664062 C 241.65673828125 213.60415649414062 243.0521240234375 212.0054168701172 244.5792999267578 210.58128356933594 C 246.21531677246094 209.36085510253906 248.01272583007812 208.37290954589844 249.94046020507812 207.58641052246094 C 251.9617919921875 206.9954376220703 254.02720642089844 206.61837768554688 256.181396484375 206.58465576171875 C 258.4132080078125 206.95623779296875 260.68157958984375 207.66778564453125 262.90020751953125 208.6905517578125 C 265.057373046875 210.02577209472656 267.08746337890625 211.67453002929688 268.934326171875 213.66455078125 C 270.4776306152344 216.03128051757812 271.595947265625 218.7360382080078 272.23876953125 221.67767333984375" stroke-width="2.0" fill="rgb(57, 49, 60)" opacity="1.0" stroke="rgb(57, 49, 60)" stroke-opacity="1.0" stroke-linecap="round" stroke-linejoin="round"/>
    <path d="M 280.4125061035156 197.3795166015625 C 280.6482238769531 198.2416229248047 280.6925048828125 199.0756378173828 280.54742431640625 199.86456298828125 C 280.18426513671875 200.5976104736328 279.5832824707031 201.25213623046875 278.7301025390625 201.77622985839844 C 277.60186767578125 202.1034698486328 276.13043212890625 202.18972778320312 274.1678466796875 201.87295532226562 C 271.55126953125 201.01531982421875 268.1202392578125 199.73477172851562 263.88165283203125 198.39926147460938 C 258.89935302734375 197.4306640625 253.44662475585938 197.32510375976562 247.93276977539062 198.27874755859375 C 243.1289520263672 199.82154846191406 239.37615966796875 201.2785186767578 236.60977172851562 202.15576171875 C 234.6621856689453 202.37802124023438 233.23190307617188 202.18052673339844 232.10504150390625 201.7609100341797 C 231.2062225341797 201.17527770996094 230.51071166992188 200.46266174316406 230.01617431640625 199.66607666015625 C 229.70843505859375 198.81576538085938 229.58580017089844 197.96514892578125 229.65347290039062 197.13661193847656 C 229.9141387939453 196.34068298339844 230.40074157714844 195.56472778320312 231.128173828125 194.74920654296875 C 232.13235473632812 193.82176208496094 233.47293090820312 192.71112060546875 235.22329711914062 191.35821533203125 C 237.53671264648438 189.78118896484375 240.58779907226562 188.10755920410156 244.4838409423828 186.5474395751953 C 249.23757934570312 185.33541870117188 254.5540008544922 184.86798095703125 259.9457092285156 185.30506896972656 C 264.9509582519531 186.43978881835938 269.1653747558594 188.00140380859375 272.4538269042969 189.78749084472656 C 274.9958190917969 191.56112670898438 276.8953857421875 193.13778686523438 278.30072021484375 194.4320068359375 C 279.28936767578125 195.522216796875 279.9676513671875 196.48956298828125 280.4125061035156 197.3795166015625" stroke-width="2.0" fill="rgb(65, 67, 82)" opacity="1.0" stroke="rgb(65, 67, 82)" stroke-opacity="1.0" stroke-linecap="round" stroke-linejoin="round"/>
    <path d="M 169.54946899414062 197.83123779296875 C 169.78182983398438 198.6810302734375 169.82545471191406 199.5031280517578 169.6824493408203 200.28077697753906 C 169.32449340820312 201.00335693359375 168.73208618164062 201.64852905273438 167.89109802246094 202.16514587402344 C 166.77899169921875 202.48770141601562 165.32858276367188 202.57272338867188 163.39402770996094 202.26048278808594 C 160.81483459472656 201.41510009765625 157.43280029296875 200.15284729003906 153.2547607421875 198.83642578125 C 148.34365844726562 197.88165283203125 142.96881103515625 197.77760314941406 137.53372192382812 198.71762084960938 C 132.7985382080078 200.23837280273438 129.099365234375 201.67454528808594 126.37248229980469 202.53924560546875 C 124.45272064208984 202.75833129882812 123.04288482666016 202.56365966796875 121.93211364746094 202.15003967285156 C 121.04612731933594 201.57276916503906 120.36054992675781 200.87033081054688 119.87309265136719 200.08514404296875 C 119.56974792480469 199.24696350097656 119.44886016845703 198.40850830078125 119.51556396484375 197.591796875 C 119.77250671386719 196.80723571777344 120.25215148925781 196.04238891601562 120.96920776367188 195.23851013183594 C 121.95903015136719 194.32431030273438 123.28046417236328 193.2295379638672 125.00582122802734 191.89596557617188 C 127.28619384765625 190.34146118164062 130.293701171875 188.69174194335938 134.1340789794922 187.15390014648438 C 138.8199005126953 185.95919799804688 144.06036376953125 185.49844360351562 149.37506103515625 185.9292755126953 C 154.30880737304688 187.04779052734375 158.4630126953125 188.58709716796875 161.7044677734375 190.34767150878906 C 164.2101593017578 192.09596252441406 166.08258056640625 193.6501007080078 167.4678497314453 194.92584228515625 C 168.4423828125 196.00047302246094 169.1109619140625 196.95401000976562 169.54946899414062 197.83123779296875" stroke-width="2.0" fill="rgb(65, 67, 82)" opacity="1.0" stroke="rgb(65, 67, 82)" stroke-opacity="1.0" stroke-linecap="round" stroke-linejoin="round"/>
    <path d="M 216.90350341796875 259.52960205078125 C 217.17697143554688 260.1612854003906 217.29954528808594 260.8201904296875 217.28045654296875 261.527099609375 C 217.114013671875 262.33795166015625 216.787841796875 263.2144775390625 216.26675415039062 264.14208984375 C 215.500244140625 265.14263916015625 214.44178771972656 266.1358947753906 213.05673217773438 267.04803466796875 C 211.32955932617188 267.8995361328125 209.26101684570312 268.6902160644531 206.86827087402344 269.42596435546875 C 204.2071990966797 270.1088562011719 201.3700714111328 270.58477783203125 198.50743103027344 270.7280578613281 C 195.7782440185547 270.54833984375 193.26535034179688 270.12054443359375 191.05914306640625 269.5218505859375 C 189.18511962890625 268.77276611328125 187.63192749023438 267.9275817871094 186.35842895507812 267.07586669921875 C 185.34243774414062 266.1957702636719 184.5534210205078 265.30645751953125 183.96484375 264.45013427734375 C 183.5638427734375 263.6162109375 183.33627319335938 262.7981872558594 183.28311157226562 262.0079650878906 C 183.41390991210938 261.21771240234375 183.73361206054688 260.3716735839844 184.26480102539062 259.45782470703125 C 185.05087280273438 258.4954833984375 186.12229919433594 257.5723876953125 187.501708984375 256.780517578125 C 189.2412872314453 256.23455810546875 191.3842315673828 255.89666748046875 194.00534057617188 255.6822967529297 C 197.07630920410156 255.5509033203125 200.3494415283203 255.49114990234375 203.5531005859375 255.5340576171875 C 206.49644470214844 255.65374755859375 208.99447631835938 255.79776000976562 211.03587341308594 256.0391845703125 C 212.68032836914062 256.4690856933594 214.00418090820312 257.051513671875 215.0575408935547 257.6900634765625 C 215.8667449951172 258.33642578125 216.4723358154297 258.9464111328125 216.90350341796875 259.52960205078125" stroke-width="2.0" fill="rgb(230, 198, 166)" opacity="1.0" stroke="rgb(230, 198, 166)" stroke-opacity="1.0" stroke-linecap="round" stroke-linejoin="round"/>
  </g>
</svg>
