<?xml version="1.0" ?>
<svg xmlns="http://www.w3.org/2000/svg" version="1.1" width="400" height="400">
  <defs/>
  <g>
    <path d="M 332.9003601074219 155.8253173828125 C 334.409423828125 180.19798278808594 333.429443359375 207.1914520263672 329.5530090332031 234.38258361816406 C 322.068359375 260.52996826171875 311.9320068359375 284.31195068359375 300.7822570800781 303.75537109375 C 290.497314453125 318.4825744628906 280.90850830078125 328.7200012207031 270.16680908203125 335.5868225097656 C 256.4013977050781 340.15838623046875 238.8018341064453 342.9295349121094 217.75390625 344.5331726074219 C 194.77203369140625 345.33648681640625 172.6402587890625 345.42791748046875 153.29638671875 344.7259521484375 C 137.20391845703125 343.217041015625 124.42382049560547 340.8382873535156 114.73632049560547 337.359619140625 C 107.40000915527344 332.48492431640625 101.74018096923828 325.6442565917969 97.1706771850586 316.2596740722656 C 93.14968872070312 303.6169128417969 88.52670288085938 286.9335021972656 82.75979614257812 265.758544921875 C 77.08970642089844 240.50856018066406 73.82545471191406 212.19564819335938 73.88355255126953 183.5501251220703 C 77.30546569824219 156.76080322265625 84.12336730957031 131.83349609375 93.74055480957031 108.83840942382812 C 105.7022705078125 89.55642700195312 119.8533935546875 74.92982482910156 135.81600952148438 64.7364501953125 C 152.44461059570312 58.07927322387695 168.67039489746094 53.967315673828125 183.828369140625 51.630653381347656 C 197.4427490234375 50.526329040527344 209.69825744628906 50.421688079833984 221.5293426513672 51.191768646240234 C 234.57696533203125 53.00312805175781 249.478515625 56.4366455078125 265.7227478027344 62.21345520019531 C 282.49407958984375 71.03955078125 298.7919616699219 83.003662109375 312.5994567871094 97.82319641113281 C 322.487548828125 115.11864471435547 328.9867858886719 134.26535034179688 332.9003601074219 155.8253173828125" stroke-width="2.0" fill="rgb(246, 215, 163)" opacity="1.0" stroke="rgb(246, 215, 163)" stroke-opacity="1.0" stroke-linecap="round" stroke-linejoin="round"/>
    <path d="M 253.26382446289062 95.7430191040039 C 252.97853088378906 100.70860290527344 252.34527587890625 105.53826141357422 251.31011962890625 110.19376373291016 C 249.80413818359375 114.63861083984375 247.7354736328125 118.80158996582031 244.91090393066406 122.62391662597656 C 241.1603240966797 126.13957214355469 236.425537109375 129.29244995117188 230.9227294921875 132.08175659179688 C 225.04844665527344 134.5380401611328 219.20416259765625 136.5430450439453 213.6373748779297 138.0074005126953 C 208.30889892578125 138.87313842773438 202.91949462890625 139.11923217773438 197.31668090820312 138.70840454101562 C 191.39297485351562 137.5803985595703 185.09518432617188 135.75991821289062 178.5540313720703 133.32806396484375 C 172.2915496826172 130.4481964111328 166.78221130371094 127.27163696289062 162.36875915527344 123.65674591064453 C 159.01565551757812 119.65599822998047 156.637451171875 115.39075469970703 155.0309295654297 110.9385986328125 C 153.9815216064453 106.37432098388672 153.3626708984375 101.69940948486328 153.09922790527344 97.05658721923828 C 153.2082061767578 92.40312957763672 153.70895385742188 87.66410827636719 154.73739624023438 82.45343017578125 C 156.57615661621094 76.4406967163086 159.75302124023438 69.81192016601562 164.918701171875 63.014862060546875 C 172.36972045898438 56.70981979370117 181.70806884765625 51.432918548583984 191.96409606933594 47.71116638183594 C 202.0330047607422 45.798675537109375 211.24029541015625 45.64117431640625 219.71836853027344 47.14936828613281 C 227.61410522460938 50.25351333618164 235.20919799804688 54.694210052490234 241.7227325439453 60.04132843017578 C 246.48062133789062 66.08778381347656 249.58619689941406 72.51589965820312 251.51998901367188 78.96623992919922 C 252.6488037109375 85.1075439453125 253.178955078125 90.62908935546875 253.26382446289062 95.7430191040039" stroke-width="2.0" fill="rgb(240, 167, 84)" opacity="1.0" stroke="rgb(240, 167, 84)" stroke-opacity="1.0" stroke-linecap="round" stroke-linejoin="round"/>
    <path d="M 233.82423400878906 286.72955322265625 C 234.06002807617188 287.6387939453125 234.09437561035156 288.62554931640625 233.93685913085938 289.6720886230469 C 233.57211303710938 290.789794921875 232.96920776367188 291.9736633300781 232.0685577392578 293.25994873046875 C 230.75277709960938 294.7046813964844 228.91513061523438 296.346435546875 226.3873748779297 298.21136474609375 C 223.0213623046875 300.3139343261719 218.68722534179688 302.6064453125 213.36764526367188 304.8166198730469 C 207.18386840820312 306.52587890625 200.41650390625 307.20758056640625 193.4755859375 306.4503173828125 C 186.83802795410156 304.71820068359375 181.1038055419922 302.41925048828125 176.52523803710938 300.0262145996094 C 173.0568084716797 297.92620849609375 170.56149291992188 296.10137939453125 168.80213928222656 294.5304870605469 C 167.55003356933594 293.1125183105469 166.65634155273438 291.76934814453125 166.06039428710938 290.5459289550781 C 165.70960998535156 289.4344177246094 165.5850830078125 288.41650390625 165.69241333007812 287.47198486328125 C 166.03001403808594 286.6198425292969 166.621826171875 285.86639404296875 167.4951629638672 285.23980712890625 C 168.6863555908203 284.7901916503906 170.27183532714844 284.566162109375 172.39480590820312 284.6620788574219 C 175.38096618652344 285.3168029785156 179.75494384765625 286.7430725097656 185.95745849609375 288.43084716796875 C 194.12258911132812 289.52154541015625 203.19912719726562 289.6180419921875 211.6515655517578 288.81787109375 C 218.3048553466797 287.431640625 223.04293823242188 285.96051025390625 226.36557006835938 284.99249267578125 C 228.72064208984375 284.5537414550781 230.43817138671875 284.5150146484375 231.72653198242188 284.7628479003906 C 232.68431091308594 285.26629638671875 233.37130737304688 285.9371032714844 233.82423400878906 286.72955322265625" stroke-width="2.0" fill="rgb(111, 63, 52)" opacity="1.0" stroke="rgb(111, 63, 52)" stroke-opacity="1.0" stroke-linecap="round" stroke-linejoin="round"/>
    <path d="M 273.7004699707031 223.05300903320312 C 273.6376953125 225.7581024169922 273.3277587890625 228.96258544921875 272.8536682128906 232.4842529296875 C 272.24560546875 236.13876342773438 271.4960021972656 239.5914764404297 270.49456787109375 242.51956176757812 C 269.2227783203125 244.8328094482422 267.79302978515625 246.56643676757812 266.29400634765625 247.85496520996094 C 264.6918029785156 248.803955078125 262.99237060546875 249.47528076171875 261.19830322265625 249.94583129882812 C 259.2792663574219 250.26100158691406 257.1669921875 250.3733367919922 254.98825073242188 250.28514099121094 C 252.8488311767578 249.98748779296875 250.8707733154297 249.50726318359375 249.08474731445312 248.86758422851562 C 247.45477294921875 248.04148864746094 245.92367553710938 247.0107421875 244.47889709472656 245.78900146484375 C 243.1571044921875 244.36624145507812 241.97463989257812 242.72390747070312 240.98492431640625 240.81549072265625 C 240.23736572265625 238.62338256835938 239.81350708007812 236.20191955566406 239.76148986816406 233.640380859375 C 240.10879516601562 231.11203002929688 240.82359313964844 228.73223876953125 241.84950256347656 226.58827209472656 C 243.201904296875 224.65267944335938 244.89828491210938 222.95021057128906 246.872314453125 221.4510040283203 C 249.0386505126953 220.12631225585938 251.392578125 219.0115509033203 253.92483520507812 218.13870239257812 C 256.57958984375 217.46759033203125 259.2691345214844 216.9824676513672 261.8599853515625 216.64218139648438 C 264.27972412109375 216.4390411376953 266.45269775390625 216.37767028808594 268.34173583984375 216.49365234375 C 269.94329833984375 216.79608154296875 271.25750732421875 217.33287048339844 272.2820739746094 218.1517333984375 C 273.02520751953125 219.33636474609375 273.4902648925781 220.9395294189453 273.7004699707031 223.05300903320312" stroke-width="2.0" fill="rgb(157, 81, 39)" opacity="1.0" stroke="rgb(157, 81, 39)" stroke-opacity="1.0" stroke-linecap="round" stroke-linejoin="round"/>
    <path d="M 159.71414184570312 234.0548095703125 C 159.65716552734375 236.62510681152344 159.24465942382812 238.83795166015625 158.57620239257812 240.75381469726562 C 157.7531280517578 242.44293212890625 156.80755615234375 243.90798950195312 155.74281311035156 245.13209533691406 C 154.5576629638672 246.14308166503906 153.29542541503906 246.92955017089844 151.96035766601562 247.49818420410156 C 150.53282165527344 247.8826446533203 148.97315979003906 248.14979553222656 147.21908569335938 248.37242126464844 C 145.21554565429688 248.5870361328125 142.9709014892578 248.68601989746094 140.63267517089844 248.59957885742188 C 138.384765625 248.29644775390625 136.3406982421875 247.79286193847656 134.53656005859375 247.11947631835938 C 132.9082489013672 246.2523193359375 131.4275665283203 245.2348175048828 130.0692901611328 244.13267517089844 C 128.80825805664062 242.9190216064453 127.65599060058594 241.4963836669922 126.68814086914062 239.83154296875 C 125.95596313476562 237.9232940673828 125.5645523071289 235.76551818847656 125.55430603027344 233.46836853027344 C 125.92298126220703 231.20921325683594 126.6286849975586 229.07232666015625 127.59969329833984 227.10049438476562 C 128.8491973876953 225.2873077392578 130.3765106201172 223.69100952148438 132.12838745117188 222.31222534179688 C 134.01280212402344 221.091552734375 135.9698944091797 220.04310607910156 138.0627899169922 219.2052459716797 C 140.32899475097656 218.62835693359375 142.72605895996094 218.36135864257812 145.19512939453125 218.4434051513672 C 147.586181640625 218.8824920654297 149.81588745117188 219.62228393554688 151.90440368652344 220.68338012695312 C 153.8551025390625 222.09112548828125 155.65878295898438 223.83816528320312 157.25558471679688 225.9696502685547 C 158.5022430419922 228.48822021484375 159.3316650390625 231.26922607421875 159.71414184570312 234.0548095703125" stroke-width="2.0" fill="rgb(106, 70, 72)" opacity="1.0" stroke="rgb(106, 70, 72)" stroke-opacity="1.0" stroke-linecap="round" stroke-linejoin="round"/>
    <path d="M 335.5242614746094 241.97598266601562 C 335.44158935546875 247.76095581054688 334.8273010253906 253.8583526611328 333.818359375 259.529296875 C 332.33709716796875 264.426513671875 330.55499267578125 268.41796875 328.7132568359375 271.5526123046875 C 327.05010986328125 273.95391845703125 325.60198974609375 275.74493408203125 324.2881164550781 277.10443115234375 C 323.0232849121094 278.13433837890625 321.8194580078125 278.87890625 320.7036437988281 279.3826904296875 C 319.666015625 279.6735534667969 318.71868896484375 279.75006103515625 317.9079895019531 279.62939453125 C 317.2323303222656 279.32421875 316.7079162597656 278.8046875 316.35748291015625 278.04296875 C 316.1578369140625 276.9931335449219 316.1141052246094 275.6210632324219 316.293212890625 273.8900146484375 C 316.73175048828125 271.70538330078125 317.4425048828125 268.9662780761719 318.24627685546875 265.55303955078125 C 318.95806884765625 261.4364929199219 319.5262756347656 256.6534729003906 320.0091552734375 251.32476806640625 C 320.6335144042969 245.83779907226562 321.37640380859375 240.80787658691406 322.03631591796875 236.58697509765625 C 322.72314453125 233.29959106445312 323.3922119140625 230.83306884765625 323.98858642578125 228.99215698242188 C 324.5099182128906 227.61648559570312 325.0181884765625 226.570068359375 325.54583740234375 225.80050659179688 C 326.13775634765625 225.2866668701172 326.78582763671875 225.01365661621094 327.4735107421875 224.97276306152344 C 328.19940185546875 225.15969848632812 328.99163818359375 225.57940673828125 329.8442687988281 226.27024841308594 C 330.79693603515625 227.2816925048828 331.8585205078125 228.70643615722656 332.9674377441406 230.680908203125 C 334.07745361328125 233.4344024658203 335.04779052734375 237.1614990234375 335.5242614746094 241.97598266601562" stroke-width="2.0" fill="rgb(204, 176, 140)" opacity="1.0" stroke="rgb(204, 176, 140)" stroke-opacity="1.0" stroke-linecap="round" stroke-linejoin="round"/>
    <path d="M 78.73861694335938 250.9505157470703 C 79.64893341064453 257.1922607421875 80.72523498535156 262.77008056640625 81.8138656616211 267.2770690917969 C 82.73220825195312 270.6255798339844 83.39559936523438 272.97369384765625 83.82437133789062 274.5992736816406 C 84.01925659179688 275.7646789550781 84.0235595703125 276.6080322265625 83.79911041259766 277.18853759765625 C 83.35235595703125 277.5472412109375 82.734130859375 277.7073669433594 81.97177124023438 277.67236328125 C 81.06748962402344 277.4397888183594 80.05208587646484 277.0157470703125 78.96146392822266 276.38848876953125 C 77.79080200195312 275.5563659667969 76.5093765258789 274.5132141113281 75.1241455078125 273.2385559082031 C 73.60244750976562 271.7289123535156 72.00004577636719 269.91259765625 70.43113708496094 267.6986999511719 C 68.87055969238281 264.9847106933594 67.35330200195312 261.6671142578125 66.13060760498047 257.55096435546875 C 65.3193359375 252.6642303466797 65.10432434082031 247.49571228027344 65.44087219238281 242.5728302001953 C 66.20549011230469 238.3511199951172 67.17613220214844 234.90240478515625 68.16787719726562 232.14419555664062 C 69.15393829345703 230.0048828125 70.09571838378906 228.36082458496094 70.95498657226562 227.14663696289062 C 71.70114135742188 226.28033447265625 72.36600494384766 225.68667602539062 72.95191955566406 225.3236083984375 C 73.47248840332031 225.182373046875 73.94059753417969 225.2567596435547 74.33570861816406 225.5438690185547 C 74.67682647705078 226.04415893554688 75.02516174316406 226.7965545654297 75.391357421875 227.88340759277344 C 75.79296875 229.46656799316406 76.25833129882812 231.7591552734375 76.72454833984375 234.96669006347656 C 77.22724914550781 239.28211975097656 77.92817687988281 244.74453735351562 78.73861694335938 250.9505157470703" stroke-width="2.0" fill="rgb(226, 163, 149)" opacity="1.0" stroke="rgb(226, 163, 149)" stroke-opacity="1.0" stroke-linecap="round" stroke-linejoin="round"/>
    <path d="M 214.8116912841797 252.83729553222656 C 215.02992248535156 253.72010803222656 215.06773376464844 254.6017608642578 214.93136596679688 255.4548797607422 C 214.6159210205078 256.3158264160156 214.11624145507812 257.18267822265625 213.42193603515625 258.0497741699219 C 212.52330017089844 258.9398498535156 211.41629028320312 259.79461669921875 210.1018829345703 260.59014892578125 C 208.589111328125 261.34814453125 206.91107177734375 262.05487060546875 205.0753631591797 262.66839599609375 C 203.09957885742188 263.1268310546875 201.0341339111328 263.3672790527344 198.94415283203125 263.40899658203125 C 196.89608764648438 263.2503662109375 194.95602416992188 262.85919189453125 193.1217498779297 262.2716064453125 C 191.40029907226562 261.4629821777344 189.82736206054688 260.48614501953125 188.45263671875 259.449462890625 C 187.33966064453125 258.3907470703125 186.47926330566406 257.3548278808594 185.85537719726562 256.3738708496094 C 185.44961547851562 255.41436767578125 185.24217224121094 254.47708129882812 185.2341766357422 253.53469848632812 C 185.46849060058594 252.55877685546875 185.9457244873047 251.5647430419922 186.66697692871094 250.61376953125 C 187.6509552001953 249.77159118652344 188.90988159179688 249.08473205566406 190.48143005371094 248.5851593017578 C 192.3220977783203 248.304443359375 194.3346710205078 248.21047973632812 196.4744110107422 248.21038818359375 C 198.7135467529297 248.27554321289062 201.01852416992188 248.40997314453125 203.35707092285156 248.5919647216797 C 205.6224822998047 248.7552947998047 207.68727111816406 248.87442016601562 209.46231079101562 249.0316925048828 C 210.94021606445312 249.36268615722656 212.13558959960938 249.87669372558594 213.0905303955078 250.5125274658203 C 213.8424530029297 251.23614501953125 214.40969848632812 252.01611328125 214.8116912841797 252.83729553222656" stroke-width="2.0" fill="rgb(216, 168, 94)" opacity="1.0" stroke="rgb(216, 168, 94)" stroke-opacity="1.0" stroke-linecap="round" stroke-linejoin="round"/>
  </g>
</svg>
