<?xml version="1.0" ?>
<svg xmlns="http://www.w3.org/2000/svg" version="1.1" width="400" height="400">
  <defs/>
  <g>
    <path d="M 345.4510803222656 193.61241149902344 C 345.587158203125 208.44924926757812 344.7663269042969 222.814697265625 342.9090576171875 236.84327697753906 C 339.7988586425781 250.8523406982422 335.0466003417969 264.46539306640625 328.1527099609375 277.4907531738281 C 318.3651123046875 290.12982177734375 305.246337890625 302.30523681640625 289.02435302734375 313.70526123046875 C 270.80889892578125 323.3691101074219 251.580078125 330.5580749511719 232.45938110351562 335.3207702636719 C 213.1163787841797 337.97900390625 192.63453674316406 338.7268371582031 171.70565795898438 337.56304931640625 C 150.89779663085938 334.2856750488281 131.12217712402344 328.87646484375 113.109375 321.1993103027344 C 97.09817504882812 311.3013916015625 83.58064270019531 299.4732666015625 72.89974975585938 285.9707336425781 C 65.08721923828125 271.0970764160156 59.740882873535156 254.9983367919922 56.33799362182617 238.1268768310547 C 54.415870666503906 221.5842742919922 53.705726623535156 205.9059600830078 54.06061935424805 190.8485565185547 C 55.468353271484375 175.6822052001953 58.209468841552734 159.74586486816406 63.00914764404297 142.29092407226562 C 70.96290588378906 123.24700927734375 83.30838012695312 103.6250991821289 100.39212799072266 85.3975601196289 C 121.71357727050781 71.20039367675781 145.93359375 61.840660095214844 170.5635986328125 56.47423553466797 C 193.37879943847656 54.170894622802734 214.6368865966797 54.26071548461914 236.2080535888672 56.923828125 C 258.18133544921875 62.96355438232422 280.7237548828125 72.84197235107422 302.1097106933594 86.54765319824219 C 319.0546875 103.5830307006836 330.44927978515625 122.65609741210938 337.4989929199219 141.77310180664062 C 341.8288269042969 160.30844116210938 344.2867431640625 177.81651306152344 345.4510803222656 193.61241149902344" stroke-width="2.0" fill="rgb(252, 217, 72)" opacity="1.0" stroke="rgb(252, 217, 72)" stroke-opacity="1.0" stroke-linecap="round" stroke-linejoin="round"/>
    <path d="M 153.25509643554688 246.19544982910156 C 156.52243041992188 258.31927490234375 158.59109497070312 269.3729553222656 159.20660400390625 278.72674560546875 C 158.54676818847656 286.07666015625 156.82275390625 291.4632263183594 154.5861358642578 295.2708740234375 C 151.95782470703125 298.0313720703125 148.923828125 300.0762939453125 145.57620239257812 301.56744384765625 C 142.01107788085938 302.6344909667969 138.27127075195312 303.3735046386719 134.4531707763672 303.86297607421875 C 130.54458618164062 304.11328125 126.60520935058594 304.12109375 122.77745819091797 303.9010009765625 C 119.06233215332031 303.4561767578125 115.50349426269531 302.75830078125 112.205322265625 301.7549133300781 C 109.17887878417969 300.3749694824219 106.45345306396484 298.527587890625 104.02738952636719 296.1416931152344 C 101.83940124511719 293.0965576171875 100.138916015625 289.2161560058594 99.2282485961914 284.3146057128906 C 99.38726806640625 277.998779296875 100.65402221679688 270.1035461425781 103.13783264160156 260.72772216796875 C 106.31063842773438 250.28028869628906 109.60131072998047 239.42205810546875 112.41496276855469 229.4123992919922 C 114.74081420898438 221.0245819091797 116.8591079711914 214.555908203125 119.11563110351562 209.92169189453125 C 121.32699584960938 206.7260284423828 123.36845397949219 204.5653533935547 125.19004821777344 203.16729736328125 C 126.81344604492188 202.34475708007812 128.3291015625 201.96127319335938 129.80198669433594 201.95094299316406 C 131.31619262695312 202.3341522216797 132.98153686523438 203.1640625 134.90963745117188 204.61944580078125 C 137.12457275390625 207.005859375 139.73626708984375 210.7501678466797 142.71324157714844 216.35678100585938 C 146.03707885742188 224.19284057617188 149.58038330078125 234.35867309570312 153.25509643554688 246.19544982910156" stroke-width="2.0" fill="rgb(124, 174, 223)" opacity="1.0" stroke="rgb(124, 174, 223)" stroke-opacity="1.0" stroke-linecap="round" stroke-linejoin="round"/>
    <path d="M 257.1357116699219 256.0688171386719 C 257.5470886230469 257.4306335449219 257.6439208984375 258.730224609375 257.4571838378906 259.8999938964844 C 256.9728088378906 260.97125244140625 256.1567077636719 261.96295166015625 254.91348266601562 262.8223876953125 C 253.09188842773438 263.5250244140625 250.49191284179688 263.91375732421875 246.74618530273438 263.7477111816406 C 241.44825744628906 262.9120788574219 234.23410034179688 261.6432800292969 224.77394104003906 260.4108581542969 C 213.18438720703125 259.6368408203125 200.3372039794922 259.3974609375 188.13124084472656 260.0449523925781 C 178.36322021484375 261.2022705078125 171.17262268066406 262.2494201660156 166.09976196289062 262.7799377441406 C 162.4440155029297 262.7511901855469 159.70315551757812 262.2143859863281 157.6352081298828 261.30224609375 C 156.08604431152344 260.181640625 154.97232055664062 258.94830322265625 154.25723266601562 257.68414306640625 C 153.86370849609375 256.4364013671875 153.76332092285156 255.2082977294922 153.96058654785156 254.0110321044922 C 154.45285034179688 252.84703063964844 155.29025268554688 251.70481872558594 156.55166625976562 250.58718872070312 C 158.32383728027344 249.49862670898438 160.72149658203125 248.4500274658203 163.87156677246094 247.353515625 C 168.0360107421875 245.997802734375 173.69091796875 244.38677978515625 181.3934783935547 242.89768981933594 C 191.5647735595703 241.83450317382812 203.6738739013672 241.32386779785156 216.3902130126953 241.84225463867188 C 227.78387451171875 243.4015350341797 236.70138549804688 245.32125854492188 243.14981079101562 247.2937469482422 C 247.75247192382812 249.14402770996094 251.043701171875 250.7183074951172 253.45050048828125 252.0455322265625 C 255.16729736328125 253.3351593017578 256.361083984375 254.6933135986328 257.1357116699219 256.0688171386719" stroke-width="2.0" fill="rgb(135, 80, 67)" opacity="1.0" stroke="rgb(135, 80, 67)" stroke-opacity="1.0" stroke-linecap="round" stroke-linejoin="round"/>
    <path d="M 268.01190185546875 156.93869018554688 C 268.7342529296875 161.37648010253906 268.82952880859375 166.10108947753906 268.25982666015625 170.5125732421875 C 267.08489990234375 174.3121337890625 265.4676818847656 177.49476623535156 263.565185546875 180.11782836914062 C 261.493896484375 182.286865234375 259.321533203125 184.06961059570312 257.1492004394531 185.45501708984375 C 255.0051727294922 186.47535705566406 252.88705444335938 187.16958618164062 250.82435607910156 187.57492065429688 C 248.79287719726562 187.76412963867188 246.748291015625 187.75331115722656 244.6833038330078 187.5353546142578 C 242.54867553710938 187.0598602294922 240.30166625976562 186.28146362304688 237.99021911621094 185.17718505859375 C 235.6781768798828 183.67031860351562 233.46017456054688 181.7136688232422 231.44448852539062 179.35601806640625 C 229.72296142578125 176.65419006347656 228.36831665039062 173.5203399658203 227.41757202148438 169.96337890625 C 226.916015625 166.08668518066406 226.9069061279297 162.20529174804688 227.3426513671875 158.6884307861328 C 228.13497924804688 155.53369140625 229.2079620361328 152.66738891601562 230.51092529296875 150.16458129882812 C 231.99363708496094 147.99105834960938 233.5893096923828 146.1031494140625 235.3414306640625 144.52481079101562 C 237.28750610351562 143.23477172851562 239.42225646972656 142.18389892578125 241.71754455566406 141.36611938476562 C 244.0869903564453 140.7853240966797 246.4830780029297 140.46885681152344 248.9088897705078 140.44720458984375 C 251.33673095703125 140.73365783691406 253.7611083984375 141.306640625 256.1465148925781 142.2086181640625 C 258.4894714355469 143.49386596679688 260.7541809082031 145.193603515625 262.9090576171875 147.34217834472656 C 264.9332580566406 149.969482421875 266.6949157714844 153.12808227539062 268.01190185546875 156.93869018554688" stroke-width="2.0" fill="rgb(59, 33, 47)" opacity="1.0" stroke="rgb(59, 33, 47)" stroke-opacity="1.0" stroke-linecap="round" stroke-linejoin="round"/>
    <path d="M 167.65509033203125 158.7102508544922 C 168.21900939941406 162.4267578125 168.3056182861328 166.32069396972656 167.8367462158203 170.02943420410156 C 166.8322296142578 173.35118103027344 165.4327392578125 176.24832153320312 163.74447631835938 178.7061309814453 C 161.8544464111328 180.75453186035156 159.84323120117188 182.42568969726562 157.72909545898438 183.78836059570312 C 155.50453186035156 184.83827209472656 153.22850036621094 185.60598754882812 150.95594787597656 186.11880493164062 C 148.6154022216797 186.38650512695312 146.20993041992188 186.38890075683594 143.82289123535156 186.11463928222656 C 141.46697998046875 185.57745361328125 139.16390991210938 184.8174591064453 136.935791015625 183.807373046875 C 134.79298400878906 182.47195434570312 132.77322387695312 180.78598022460938 130.93783569335938 178.74005126953125 C 129.34341430664062 176.36856079101562 128.03414916992188 173.6464080810547 127.0588607788086 170.545166015625 C 126.47838592529297 167.07205200195312 126.37317657470703 163.5070037841797 126.71173095703125 160.2347869873047 C 127.42777252197266 157.33152770996094 128.43594360351562 154.68617248535156 129.7252197265625 152.2798309326172 C 131.27540588378906 150.16650390625 133.00193786621094 148.302734375 134.84375 146.69906616210938 C 136.88465881347656 145.3662567138672 139.1511688232422 144.26565551757812 141.59844970703125 143.37155151367188 C 144.17041015625 142.72817993164062 146.82327270507812 142.4319610595703 149.47799682617188 142.55416870117188 C 152.1028594970703 143.0488739013672 154.64967346191406 143.80316162109375 157.0806121826172 144.85433959960938 C 159.40391540527344 146.23683166503906 161.55235290527344 147.943603515625 163.52407836914062 150.02932739257812 C 165.24801635742188 152.4864044189453 166.65066528320312 155.3790283203125 167.65509033203125 158.7102508544922" stroke-width="2.0" fill="rgb(89, 50, 28)" opacity="1.0" stroke="rgb(89, 50, 28)" stroke-opacity="1.0" stroke-linecap="round" stroke-linejoin="round"/>
    <path d="M 150.55413818359375 257.776123046875 C 151.3926239013672 262.7606201171875 151.93719482421875 268.2697448730469 152.19491577148438 273.7397766113281 C 152.0508575439453 278.6946105957031 151.47988891601562 282.76507568359375 150.61322021484375 285.84100341796875 C 149.52886962890625 288.0093994140625 148.19296264648438 289.5355529785156 146.73886108398438 290.65191650390625 C 145.19908142089844 291.458984375 143.6236572265625 292.0317077636719 142.0334014892578 292.4104309082031 C 140.48336791992188 292.6024169921875 139.01280212402344 292.6246643066406 137.6910400390625 292.49993896484375 C 136.55548095703125 292.225830078125 135.58934020996094 291.7942810058594 134.78457641601562 291.1903076171875 C 134.0884552001953 290.3783874511719 133.4447021484375 289.3226318359375 132.8495635986328 287.9940185546875 C 132.39309692382812 286.3197326660156 132.1459197998047 284.1835021972656 132.23773193359375 281.4945068359375 C 132.70713806152344 278.05584716796875 133.4583740234375 273.7973937988281 134.14004516601562 268.8147888183594 C 134.70986938476562 263.6174621582031 135.34959411621094 258.83642578125 136.05331420898438 254.93861389160156 C 136.80010986328125 251.94589233398438 137.58389282226562 249.68008422851562 138.3134307861328 248.000732421875 C 138.976806640625 246.7677764892578 139.58221435546875 245.85768127441406 140.17640686035156 245.2156524658203 C 140.79754638671875 244.79861450195312 141.4286651611328 244.56956481933594 142.0911407470703 244.5122833251953 C 142.77113342285156 244.6354522705078 143.50509643554688 244.93075561523438 144.30471801757812 245.41798400878906 C 145.181396484375 246.14540100097656 146.13629150390625 247.1970672607422 147.1385040283203 248.70718383789062 C 148.245849609375 250.87416076660156 149.4551544189453 253.83059692382812 150.55413818359375 257.776123046875" stroke-width="2.0" fill="rgb(168, 189, 225)" opacity="1.0" stroke="rgb(168, 189, 225)" stroke-opacity="1.0" stroke-linecap="round" stroke-linejoin="round"/>
    <path d="M 150.08460998535156 154.73989868164062 C 150.12864685058594 155.72145080566406 150.03524780273438 156.706298828125 149.8132781982422 157.64056396484375 C 149.46133422851562 158.52134704589844 148.99754333496094 159.32264709472656 148.436767578125 160.0456085205078 C 147.80404663085938 160.70712280273438 147.10369873046875 161.2981414794922 146.31137084960938 161.79266357421875 C 145.44076538085938 162.17994689941406 144.53103637695312 162.46432495117188 143.57717895507812 162.64866638183594 C 142.6136474609375 162.7489471435547 141.6788330078125 162.7611083984375 140.80979919433594 162.69390869140625 C 140.0047607421875 162.54159545898438 139.26602172851562 162.30960083007812 138.59326171875 161.99880981445312 C 137.99606323242188 161.59620666503906 137.4610595703125 161.08853149414062 136.98158264160156 160.46705627441406 C 136.5592803955078 159.73048400878906 136.21798706054688 158.87533569335938 135.98519897460938 157.9118194580078 C 135.8780975341797 156.86279296875 135.8889923095703 155.7837371826172 136.03431701660156 154.7482452392578 C 136.32119750976562 153.80844116210938 136.72238159179688 152.96145629882812 137.2196044921875 152.194580078125 C 137.80615234375 151.50840759277344 138.4582977294922 150.8917236328125 139.17323303222656 150.36009216308594 C 139.97079467773438 149.92001342773438 140.8615264892578 149.56661987304688 141.82936096191406 149.3175506591797 C 142.8462371826172 149.1729278564453 143.88131713867188 149.11175537109375 144.89767456054688 149.15463256835938 C 145.85928344726562 149.33363342285156 146.73483276367188 149.64666748046875 147.51626586914062 150.0884552001953 C 148.1999053955078 150.65728759765625 148.78497314453125 151.32583618164062 149.26124572753906 152.0773162841797 C 149.63763427734375 152.89955139160156 149.91693115234375 153.79385375976562 150.08460998535156 154.73989868164062" stroke-width="2.0" fill="rgb(180, 132, 18)" opacity="1.0" stroke="rgb(180, 132, 18)" stroke-opacity="1.0" stroke-linecap="round" stroke-linejoin="round"/>
    <path d="M 249.88616943359375 154.99925231933594 C 249.91802978515625 156.06008911132812 249.80422973632812 157.08450317382812 249.55361938476562 158.03005981445312 C 249.17759704589844 158.91160583496094 248.69618225097656 159.7049560546875 248.11306762695312 160.4300079345703 C 247.4499053955078 161.0845947265625 246.7160186767578 161.6422119140625 245.9053955078125 162.0942840576172 C 245.04234313964844 162.45611572265625 244.1432647705078 162.70753479003906 243.21432495117188 162.86814880371094 C 242.28286743164062 162.94825744628906 241.3863067626953 162.947265625 240.53988647460938 162.86863708496094 C 239.75198364257812 162.71539306640625 239.0237274169922 162.48182678222656 238.36614990234375 162.15945434570312 C 237.78817749023438 161.74331665039062 237.27349853515625 161.21585083007812 236.8223114013672 160.59085083007812 C 236.4390106201172 159.88356018066406 236.13131713867188 159.0955047607422 235.91847229003906 158.21255493164062 C 235.8196563720703 157.22189331054688 235.8273468017578 156.16525268554688 235.94415283203125 155.10789489746094 C 236.19345092773438 154.13677978515625 236.55792236328125 153.26748657226562 237.01107788085938 152.48666381835938 C 237.5483856201172 151.79373168945312 238.14903259277344 151.16949462890625 238.80784606933594 150.61190795898438 C 239.53628540039062 150.11947631835938 240.36013793945312 149.69091796875 241.27899169921875 149.35577392578125 C 242.2850799560547 149.14901733398438 243.32566833496094 149.07127380371094 244.35946655273438 149.1197967529297 C 245.33984375 149.28541564941406 246.23179626464844 149.5826416015625 247.035888671875 150.01466369628906 C 247.77479553222656 150.56907653808594 248.42013549804688 151.2427520751953 248.96165466308594 152.03143310546875 C 249.39401245117188 152.9441375732422 249.7032928466797 153.94131469726562 249.88616943359375 154.99925231933594" stroke-width="2.0" fill="rgb(143, 118, 12)" opacity="1.0" stroke="rgb(143, 118, 12)" stroke-opacity="1.0" stroke-linecap="round" stroke-linejoin="round"/>
  </g>
</svg>
