<?xml version="1.0" ?>
<svg xmlns="http://www.w3.org/2000/svg" version="1.1" width="400" height="400">
  <defs/>
  <g>
    <path d="M 345.4510803222656 193.61241149902344 C 345.587158203125 208.44924926757812 344.7663269042969 222.814697265625 342.9090576171875 236.84327697753906 C 339.7988586425781 250.8523406982422 335.0466003417969 264.46539306640625 328.1527099609375 277.4907531738281 C 318.3651123046875 290.12982177734375 305.246337890625 302.30523681640625 289.02435302734375 313.70526123046875 C 270.80889892578125 323.3691101074219 251.580078125 330.5580749511719 232.45938110351562 335.3207702636719 C 213.1163787841797 337.97900390625 192.63453674316406 338.7268371582031 171.70565795898438 337.56304931640625 C 150.89779663085938 334.2856750488281 131.12217712402344 328.87646484375 113.109375 321.1993103027344 C 97.09817504882812 311.3013916015625 83.58064270019531 299.4732666015625 72.89974975585938 285.9707336425781 C 65.08721923828125 271.0970764160156 59.740882873535156 254.9983367919922 56.33799362182617 238.1268768310547 C 54.415870666503906 221.5842742919922 53.705726623535156 205.9059600830078 54.06061935424805 190.8485565185547 C 55.468353271484375 175.6822052001953 58.209468841552734 159.74586486816406 63.00914764404297 142.29092407226562 C 70.96290588378906 123.24700927734375 83.30838012695312 103.6250991821289 100.39212799072266 85.3975601196289 C 121.71357727050781 71.20039367675781 145.93359375 61.840660095214844 170.5635986328125 56.47423553466797 C 193.37879943847656 54.170894622802734 214.6368865966797 54.26071548461914 236.2080535888672 56.923828125 C 258.18133544921875 62.96355438232422 280.7237548828125 72.84197235107422 302.1097106933594 86.54765319824219 C 319.0546875 103.5830307006836 330.44927978515625 122.65609741210938 337.4989929199219 141.77310180664062 C 341.8288269042969 160.30844116210938 344.2867431640625 177.81651306152344 345.4510803222656 193.61241149902344" stroke-width="2.0" fill="rgb(252, 217, 72)" opacity="1.0" stroke="rgb(252, 217, 72)" stroke-opacity="1.0" stroke-linecap="round" stroke-linejoin="round"/>
    <path d="M 270.01190185546875 169.93869018554688 C 270.7342529296875 174.37648010253906 270.82952880859375 179.10108947753906 270.25982666015625 183.5125732421875 C 269.08489990234375 187.3121337890625 267.4676818847656 190.49476623535156 265.565185546875 193.11782836914062 C 263.493896484375 195.286865234375 261.321533203125 197.06961059570312 259.1492004394531 198.45501708984375 C 257.00518798828125 199.47535705566406 254.88705444335938 200.16958618164062 252.82435607910156 200.57492065429688 C 250.79287719726562 200.76412963867188 248.748291015625 200.75331115722656 246.6833038330078 200.5353546142578 C 244.54867553710938 200.0598602294922 242.30166625976562 199.28146362304688 239.99021911621094 198.17718505859375 C 237.6781768798828 196.67031860351562 235.46017456054688 194.7136688232422 233.44448852539062 192.35601806640625 C 231.72296142578125 189.65419006347656 230.36831665039062 186.5203399658203 229.41757202148438 182.96337890625 C 228.916015625 179.08668518066406 228.9069061279297 175.20529174804688 229.3426513671875 171.6884307861328 C 230.13497924804688 168.53369140625 231.2079620361328 165.66738891601562 232.51092529296875 163.16458129882812 C 233.99363708496094 160.99105834960938 235.5893096923828 159.1031494140625 237.3414306640625 157.52481079101562 C 239.28750610351562 156.23477172851562 241.42225646972656 155.18389892578125 243.71754455566406 154.36611938476562 C 246.0869903564453 153.7853240966797 248.4830780029297 153.46885681152344 250.9088897705078 153.44720458984375 C 253.33673095703125 153.73365783691406 255.7611083984375 154.306640625 258.1465148925781 155.2086181640625 C 260.4894714355469 156.49386596679688 262.7541809082031 158.193603515625 264.9090576171875 160.34217834472656 C 266.9332580566406 162.969482421875 268.6949157714844 166.12808227539062 270.01190185546875 169.93869018554688" stroke-width="2.0" fill="rgb(59, 33, 47)" opacity="1.0" stroke="rgb(59, 33, 47)" stroke-opacity="1.0" stroke-linecap="round" stroke-linejoin="round"/>
    <path d="M 169.65509033203125 171.7102508544922 C 170.21900939941406 175.4267578125 170.3056182861328 179.32069396972656 169.8367462158203 183.02943420410156 C 168.8322296142578 186.35118103027344 167.4327392578125 189.24832153320312 165.74447631835938 191.7061309814453 C 163.8544464111328 193.75453186035156 161.84323120117188 195.42568969726562 159.72909545898438 196.78836059570312 C 157.50453186035156 197.83827209472656 155.22850036621094 198.60598754882812 152.95594787597656 199.11880493164062 C 150.6154022216797 199.38650512695312 148.20993041992188 199.38890075683594 145.82289123535156 199.11463928222656 C 143.46697998046875 198.57745361328125 141.16390991210938 197.8174591064453 138.935791015625 196.807373046875 C 136.79298400878906 195.47195434570312 134.77322387695312 193.78598022460938 132.93783569335938 191.74005126953125 C 131.34341430664062 189.36856079101562 130.03414916992188 186.6464080810547 129.05886840820312 183.545166015625 C 128.47837829589844 180.07205200195312 128.3731689453125 176.5070037841797 128.71173095703125 173.2347869873047 C 129.42776489257812 170.33152770996094 130.43594360351562 167.68617248535156 131.7252197265625 165.2798309326172 C 133.27540588378906 163.16650390625 135.00193786621094 161.302734375 136.84375 159.69906616210938 C 138.88465881347656 158.3662567138672 141.1511688232422 157.26565551757812 143.59844970703125 156.37155151367188 C 146.17041015625 155.72817993164062 148.82327270507812 155.4319610595703 151.47799682617188 155.55416870117188 C 154.1028594970703 156.0488739013672 156.64967346191406 156.80316162109375 159.0806121826172 157.85433959960938 C 161.40391540527344 159.23683166503906 163.55235290527344 160.943603515625 165.52407836914062 163.02932739257812 C 167.24801635742188 165.4864044189453 168.65066528320312 168.3790283203125 169.65509033203125 171.7102508544922" stroke-width="2.0" fill="rgb(89, 50, 28)" opacity="1.0" stroke="rgb(89, 50, 28)" stroke-opacity="1.0" stroke-linecap="round" stroke-linejoin="round"/>
    <path d="M 151.08460998535156 167.73989868164062 C 151.12864685058594 168.72145080566406 151.03524780273438 169.706298828125 150.8132781982422 170.64056396484375 C 150.46133422851562 171.52134704589844 149.99754333496094 172.32264709472656 149.436767578125 173.0456085205078 C 148.80404663085938 173.70712280273438 148.10369873046875 174.2981414794922 147.31137084960938 174.79266357421875 C 146.44076538085938 175.17994689941406 145.53103637695312 175.46432495117188 144.57717895507812 175.64866638183594 C 143.6136474609375 175.7489471435547 142.6788330078125 175.7611083984375 141.80979919433594 175.69390869140625 C 141.0047607421875 175.54159545898438 140.26602172851562 175.30960083007812 139.59326171875 174.99880981445312 C 138.99606323242188 174.59620666503906 138.4610595703125 174.08853149414062 137.98158264160156 173.46705627441406 C 137.5592803955078 172.73048400878906 137.21798706054688 171.87533569335938 136.98519897460938 170.9118194580078 C 136.8780975341797 169.86279296875 136.8889923095703 168.7837371826172 137.03431701660156 167.7482452392578 C 137.32119750976562 166.80844116210938 137.72238159179688 165.96145629882812 138.2196044921875 165.194580078125 C 138.80615234375 164.50840759277344 139.4582977294922 163.8917236328125 140.17323303222656 163.36009216308594 C 140.97079467773438 162.92001342773438 141.8615264892578 162.56661987304688 142.82936096191406 162.3175506591797 C 143.8462371826172 162.1729278564453 144.88131713867188 162.11175537109375 145.89767456054688 162.15463256835938 C 146.85928344726562 162.33363342285156 147.73483276367188 162.64666748046875 148.51626586914062 163.0884552001953 C 149.1999053955078 163.65728759765625 149.78497314453125 164.32583618164062 150.26124572753906 165.0773162841797 C 150.63763427734375 165.89955139160156 150.91693115234375 166.79385375976562 151.08460998535156 167.73989868164062" stroke-width="2.0" fill="rgb(180, 132, 18)" opacity="1.0" stroke="rgb(180, 132, 18)" stroke-opacity="1.0" stroke-linecap="round" stroke-linejoin="round"/>
    <path d="M 250.756591796875 168.8789825439453 C 250.69601440429688 169.95370483398438 250.47616577148438 170.94921875 250.11790466308594 171.86941528320312 C 249.65011596679688 172.7073974609375 249.1031036376953 173.46188354492188 248.50869750976562 174.14230346679688 C 247.87387084960938 174.7257080078125 247.19183349609375 175.18063354492188 246.47654724121094 175.52975463867188 C 245.74557495117188 175.80157470703125 245.00125122070312 176.0043182373047 244.2437286376953 176.13803100585938 C 243.47454833984375 176.2046661376953 242.71546936035156 176.1891632080078 241.99510192871094 176.0912322998047 C 241.30934143066406 175.9171142578125 240.66921997070312 175.66851806640625 240.07220458984375 175.357666015625 C 239.51364135742188 174.95938110351562 238.99542236328125 174.45562744140625 238.5212860107422 173.83639526367188 C 238.09393310546875 173.08096313476562 237.7237091064453 172.19461059570312 237.44830322265625 171.1844940185547 C 237.30517578125 170.07394409179688 237.3020477294922 168.91407775878906 237.44285583496094 167.7739715576172 C 237.7500457763672 166.74612426757812 238.1997833251953 165.816162109375 238.74545288085938 164.98233032226562 C 239.3467254638672 164.25735473632812 239.9674835205078 163.6331787109375 240.6078338623047 163.11624145507812 C 241.29965209960938 162.70950317382812 242.04891967773438 162.3929443359375 242.85415649414062 162.18594360351562 C 243.72341918945312 162.1106414794922 244.62930297851562 162.14794921875 245.55242919921875 162.29042053222656 C 246.45587158203125 162.5653076171875 247.3135223388672 162.98110961914062 248.10997009277344 163.5184783935547 C 248.82315063476562 164.16395568847656 249.4409942626953 164.91888427734375 249.95692443847656 165.78028869628906 C 250.3621368408203 166.74710083007812 250.63768005371094 167.7958984375 250.756591796875 168.8789825439453" stroke-width="2.0" fill="rgb(163, 146, 30)" opacity="1.0" stroke="rgb(163, 146, 30)" stroke-opacity="1.0" stroke-linecap="round" stroke-linejoin="round"/>
  </g>
</svg>
