<?xml version="1.0" ?>
<svg xmlns="http://www.w3.org/2000/svg" version="1.1" width="400" height="400">
  <defs/>
  <g>
    <path d="M 346.3067932128906 194.52239990234375 C 346.29925537109375 208.6374969482422 345.442626953125 222.00808715820312 343.6717529296875 234.9182586669922 C 340.8558349609375 247.69659423828125 336.65020751953125 260.115234375 330.601318359375 272.207275390625 C 322.0646057128906 284.1932373046875 310.3562316894531 296.0023193359375 295.59307861328125 307.37762451171875 C 278.654541015625 317.48468017578125 260.8514099121094 325.5523376464844 242.547607421875 331.31005859375 C 223.50656127929688 334.9078674316406 203.2283935546875 336.2148742675781 181.4854278564453 335.0382995605469 C 159.1138916015625 330.92889404296875 136.90504455566406 323.572509765625 115.5001449584961 313.1816711425781 C 96.44154357910156 300.54705810546875 81.17897033691406 286.73809814453125 70.10868835449219 272.35797119140625 C 62.45995330810547 257.685791015625 57.436946868896484 242.57872009277344 54.331871032714844 227.75865173339844 C 52.545623779296875 213.7679443359375 51.84358215332031 200.20751953125 52.05564880371094 186.7897491455078 C 53.179725646972656 172.7787628173828 55.488121032714844 157.57577514648438 59.58393096923828 140.84402465820312 C 66.38115692138672 122.92696380615234 77.25152587890625 104.58370208740234 93.21985626220703 87.26090240478516 C 114.00250244140625 73.05868530273438 138.61892700195312 63.19309616088867 164.8624267578125 57.213623046875 C 189.8953094482422 54.49951934814453 213.67054748535156 54.538509368896484 237.04066467285156 57.44071960449219 C 260.23236083984375 63.95769500732422 283.34326171875 74.50880432128906 304.84539794921875 88.87185668945312 C 321.48785400390625 106.4344253540039 332.4640197753906 125.57061767578125 339.1351318359375 144.39065551757812 C 343.1199035644531 162.4986572265625 345.3451232910156 179.4176483154297 346.3067932128906 194.52239990234375" stroke-width="2.0" fill="rgb(252, 210, 48)" opacity="1.0" stroke="rgb(252, 210, 48)" stroke-opacity="1.0" stroke-linecap="round" stroke-linejoin="round"/>
    <path d="M 277.8788146972656 202.44708251953125 C 277.2174072265625 202.57415771484375 276.33612060546875 202.6808319091797 275.23382568359375 202.8097381591797 C 273.845458984375 203.09915161132812 272.134033203125 203.6539306640625 269.9966735839844 204.61700439453125 C 267.4067077636719 206.0001220703125 264.59027099609375 207.6606903076172 261.8706970214844 209.60317993164062 C 259.2609558105469 211.80471801757812 256.75189208984375 214.2781982421875 254.34713745117188 216.99188232421875 C 251.99887084960938 219.77308654785156 249.73544311523438 222.37266540527344 247.75631713867188 224.62255859375 C 246.2887725830078 226.2255096435547 245.41709899902344 226.84695434570312 245.38735961914062 226.45114135742188 C 246.29486083984375 225.06680297851562 247.94754028320312 222.94784545898438 250.16197204589844 220.56942749023438 C 252.7532501220703 218.04391479492188 255.5066680908203 215.417236328125 258.33544921875 212.76663208007812 C 261.136474609375 210.23165893554688 263.6934814453125 208.04205322265625 265.9256591796875 206.26559448242188 C 267.86700439453125 204.963623046875 269.569091796875 204.09188842773438 271.1004333496094 203.46177673339844 C 272.47369384765625 202.96768188476562 273.6175537109375 202.61865234375 274.54827880859375 202.37013244628906 C 275.3133544921875 202.28457641601562 275.88128662109375 202.3398895263672 276.3055419921875 202.35037231445312 C 276.6322326660156 202.28041076660156 276.83331298828125 202.041748046875 276.97662353515625 201.64877319335938 C 277.1800537109375 201.2952117919922 277.485107421875 201.0887451171875 277.897216796875 200.9997100830078 C 278.30511474609375 201.071044921875 278.5629577636719 201.27685546875 278.6501770019531 201.5244598388672 C 278.57928466796875 201.85604858398438 278.3267822265625 202.2190399169922 277.8788146972656 202.44708251953125" stroke-width="2.0" fill="rgb(237, 235, 204)" opacity="1.0" stroke="rgb(237, 235, 204)" stroke-opacity="1.0" stroke-linecap="round" stroke-linejoin="round"/>
    <path d="M 278.01837158203125 171.18499755859375 C 277.3599548339844 171.31149291992188 276.48260498046875 171.41769409179688 275.3852233886719 171.5460205078125 C 274.00311279296875 171.83412170410156 272.29937744140625 172.3864288330078 270.17156982421875 173.3451690673828 C 267.5932312011719 174.7220916748047 264.7894287109375 176.37521362304688 262.08203125 178.30899047851562 C 259.4840087890625 180.50067138671875 256.9862060546875 182.96304321289062 254.5922088623047 185.66455078125 C 252.2544708251953 188.43328857421875 250.00120544433594 191.02120971679688 248.0309600830078 193.26101684570312 C 246.5699920654297 194.85678100585938 245.7022247314453 195.47544860839844 245.67262268066406 195.0814208984375 C 246.5760498046875 193.70327758789062 248.2213134765625 191.5938262939453 250.4258270263672 189.22607421875 C 253.00547790527344 186.7118682861328 255.74655151367188 184.09698486328125 258.5626220703125 181.45826721191406 C 261.3511047363281 178.93466186523438 263.8966369628906 176.75486755371094 266.1188049316406 174.9863739013672 C 268.05145263671875 173.69024658203125 269.74591064453125 172.82241821289062 271.2703857421875 172.19512939453125 C 272.63751220703125 171.7032470703125 273.7762451171875 171.3557891845703 274.7027893066406 171.10838317871094 C 275.46441650390625 171.02320861816406 276.02978515625 171.07827758789062 276.4521484375 171.08871459960938 C 276.7773742675781 171.01907348632812 276.9775695800781 170.78147888183594 277.1202392578125 170.3902587890625 C 277.32275390625 170.0382843017578 277.6264343261719 169.83273315429688 278.03668212890625 169.74411010742188 C 278.4427795410156 169.81512451171875 278.699462890625 170.02000427246094 278.7862548828125 170.26651000976562 C 278.7156982421875 170.5966033935547 278.46435546875 170.9579620361328 278.01837158203125 171.18499755859375" stroke-width="2.0" fill="rgb(237, 235, 204)" opacity="1.0" stroke="rgb(237, 235, 204)" stroke-opacity="1.0" stroke-linecap="round" stroke-linejoin="round"/>
    <path d="M 274.4139404296875 182.5640411376953 C 273.78515625 182.68484497070312 272.94732666015625 182.7862548828125 271.8994140625 182.9088134765625 C 270.5795593261719 183.18394470214844 268.9525451660156 183.71136474609375 266.92059326171875 184.62692260742188 C 264.4583740234375 185.94180297851562 261.7808837890625 187.52047729492188 259.1954650878906 189.36715698242188 C 256.7144470214844 191.4600830078125 254.32916259765625 193.81155395507812 252.0430145263672 196.39138793945312 C 249.81057739257812 199.035400390625 247.65879821777344 201.50674438476562 245.77731323242188 203.64566040039062 C 244.3821563720703 205.16954040527344 243.553466796875 205.76034545898438 243.52520751953125 205.38406372070312 C 244.387939453125 204.0679931640625 245.95909118652344 202.05355834960938 248.06430053710938 199.79246520996094 C 250.52774047851562 197.39151000976562 253.14535522460938 194.89442443847656 255.8345947265625 192.37457275390625 C 258.4974365234375 189.96463012695312 260.9283447265625 187.88302612304688 263.0503845214844 186.19419860839844 C 264.89599609375 184.95645141601562 266.51409912109375 184.12771606445312 267.96990966796875 183.5286865234375 C 269.27545166015625 183.0589599609375 270.3628845214844 182.72714233398438 271.2477111816406 182.4908905029297 C 271.97503662109375 182.4095458984375 272.5149230957031 182.46214294433594 272.91827392578125 182.47210693359375 C 273.22882080078125 182.4055938720703 273.4200134277344 182.1787109375 273.5562744140625 181.8050994873047 C 273.7496643066406 181.468994140625 274.0396728515625 181.272705078125 274.431396484375 181.1880645751953 C 274.8192138671875 181.25587463378906 275.0643310546875 181.4515380859375 275.14727783203125 181.6869354248047 C 275.079833984375 182.00216674804688 274.8398132324219 182.3472442626953 274.4139404296875 182.5640411376953" stroke-width="2.0" fill="rgb(237, 235, 204)" opacity="1.0" stroke="rgb(237, 235, 204)" stroke-opacity="1.0" stroke-linecap="round" stroke-linejoin="round"/>
    <path d="M 242.2241973876953 293.2361755371094 C 242.39523315429688 295.7556457519531 242.31243896484375 298.0494384765625 241.9957275390625 300.0320129394531 C 241.4420166015625 301.6972961425781 240.62257385253906 302.9945983886719 239.49533081054688 303.8089904785156 C 237.9747314453125 304.1497802734375 235.8880615234375 303.953369140625 233.00503540039062 303.2280578613281 C 228.9724884033203 302.2212829589844 223.42062377929688 301.0504455566406 215.9507293701172 299.94927978515625 C 206.49212646484375 299.4174499511719 195.70803833007812 299.35400390625 184.80264282226562 299.63104248046875 C 175.42532348632812 300.4324951171875 168.21356201171875 301.45068359375 163.04957580566406 302.28466796875 C 159.4178009033203 302.78778076171875 156.85235595703125 302.6434326171875 155.01773071289062 301.795654296875 C 153.6922607421875 300.4403381347656 152.7571258544922 298.7991027832031 152.1171417236328 296.9361877441406 C 151.72938537597656 294.88427734375 151.58128356933594 292.7019348144531 151.65196228027344 290.4446716308594 C 151.9595489501953 288.193359375 152.52745056152344 285.9702453613281 153.39352416992188 283.7491455078125 C 154.6373748779297 281.5788879394531 156.4180145263672 279.4764709472656 158.94888305664062 277.4605407714844 C 162.51123046875 275.6046142578125 167.41436767578125 273.8205261230469 174.05987548828125 272.15008544921875 C 182.67654418945312 270.872314453125 192.99024963378906 270.38525390625 204.04727172851562 271.1303405761719 C 214.4803009033203 273.1624450683594 223.1538543701172 275.6326904296875 229.67599487304688 278.0807800292969 C 234.2876434326172 280.50860595703125 237.42498779296875 282.9689025878906 239.5201416015625 285.4212341308594 C 240.89691162109375 287.9830627441406 241.7498779296875 290.63018798828125 242.2241973876953 293.2361755371094" stroke-width="2.0" fill="rgb(232, 125, 106)" opacity="1.0" stroke="rgb(232, 125, 106)" stroke-opacity="1.0" stroke-linecap="round" stroke-linejoin="round"/>
    <path d="M 282.14996337890625 174.62367248535156 C 282.05718994140625 176.8496856689453 281.6666259765625 178.8490753173828 280.9967956542969 180.5867919921875 C 280.0050048828125 182.07235717773438 278.6167297363281 183.27633666992188 276.7892761230469 184.13211059570312 C 274.48443603515625 184.522216796875 271.6583557128906 184.12530517578125 268.3646545410156 182.65223693847656 C 264.73858642578125 179.90464782714844 261.0205993652344 176.24652099609375 257.43865966796875 172.57118225097656 C 254.06964111328125 170.23077392578125 250.6766357421875 170.29071044921875 246.89564514160156 172.84515380859375 C 242.71157836914062 176.9024658203125 238.33314514160156 181.0467529296875 234.23097229003906 183.93951416015625 C 230.69854736328125 185.11683654785156 227.99234008789062 185.01527404785156 225.93310546875 184.30267333984375 C 224.3201904296875 183.29852294921875 223.0756378173828 182.10040283203125 222.13536071777344 180.73489379882812 C 221.46917724609375 179.22869873046875 221.0552978515625 177.55142211914062 220.88201904296875 175.66925048828125 C 220.98037719726562 173.574951171875 221.4164276123047 171.20741271972656 222.25633239746094 168.4314422607422 C 223.63973999023438 165.21170043945312 225.72903442382812 161.60646057128906 228.56443786621094 157.93763732910156 C 232.18115234375 154.49647521972656 236.495361328125 151.51564025878906 241.27206420898438 149.19789123535156 C 246.31484985351562 147.73304748535156 251.46287536621094 147.19615173339844 256.590576171875 147.67092895507812 C 261.691650390625 149.24183654785156 266.5829162597656 151.73745727539062 271.07037353515625 154.9571533203125 C 274.797119140625 158.614501953125 277.6412353515625 162.42869567871094 279.7289123535156 166.03005981445312 C 281.110107421875 169.26800537109375 281.878173828125 172.1207275390625 282.14996337890625 174.62367248535156" stroke-width="2.0" fill="rgb(86, 36, 24)" opacity="1.0" stroke="rgb(86, 36, 24)" stroke-opacity="1.0" stroke-linecap="round" stroke-linejoin="round"/>
    <path d="M 179.14996337890625 174.62367248535156 C 179.0572052001953 176.8496856689453 178.66661071777344 178.8490753173828 177.99679565429688 180.5867919921875 C 177.00498962402344 182.07235717773438 175.61672973632812 183.27633666992188 173.78927612304688 184.13211059570312 C 171.48443603515625 184.522216796875 168.65835571289062 184.12530517578125 165.3646697998047 182.65223693847656 C 161.73858642578125 179.90464782714844 158.02061462402344 176.24652099609375 154.4386444091797 172.57118225097656 C 151.06964111328125 170.23077392578125 147.6766357421875 170.29071044921875 143.89564514160156 172.84515380859375 C 139.71157836914062 176.9024658203125 135.33314514160156 181.0467529296875 131.23097229003906 183.93951416015625 C 127.69853973388672 185.11683654785156 124.99234771728516 185.01527404785156 122.93310546875 184.30267333984375 C 121.32018280029297 183.29852294921875 120.07563781738281 182.10040283203125 119.13536071777344 180.73489379882812 C 118.46917724609375 179.22869873046875 118.0552978515625 177.55142211914062 117.88202667236328 175.66925048828125 C 117.98038482666016 173.574951171875 118.41643524169922 171.20741271972656 119.25633239746094 168.4314422607422 C 120.63973236083984 165.21170043945312 122.72903442382812 161.60646057128906 125.56443786621094 157.93763732910156 C 129.18115234375 154.49647521972656 133.495361328125 151.51564025878906 138.27206420898438 149.19789123535156 C 143.31484985351562 147.73304748535156 148.46287536621094 147.19615173339844 153.59056091308594 147.67092895507812 C 158.691650390625 149.24183654785156 163.5829315185547 151.73745727539062 168.07037353515625 154.9571533203125 C 171.797119140625 158.614501953125 174.6412353515625 162.42869567871094 176.72891235351562 166.03005981445312 C 178.110107421875 169.26800537109375 178.878173828125 172.1207275390625 179.14996337890625 174.62367248535156" stroke-width="2.0" fill="rgb(86, 36, 24)" opacity="1.0" stroke="rgb(86, 36, 24)" stroke-opacity="1.0" stroke-linecap="round" stroke-linejoin="round"/>
  </g>
</svg>
