<?xml version="1.0" ?>
<svg xmlns="http://www.w3.org/2000/svg" version="1.1" width="400" height="400">
  <defs/>
  <g>
    <path d="M 346.3064270019531 194.52500915527344 C 346.2991638183594 208.63973999023438 345.4424743652344 222.01036071777344 343.6717529296875 234.921875 C 340.85565185546875 247.6956329345703 336.6510009765625 260.1125183105469 330.6011657714844 272.2056579589844 C 322.0641174316406 284.1934814453125 310.3556213378906 296.0008239746094 295.5927429199219 307.3756408691406 C 278.6559753417969 317.4856262207031 260.8510437011719 325.5534362792969 242.54736328125 331.3109130859375 C 223.50970458984375 334.9070129394531 203.2299041748047 336.2152404785156 181.48440551757812 335.0380554199219 C 159.11892700195312 330.9284973144531 136.90777587890625 323.5720520019531 115.50296783447266 313.1829833984375 C 96.4423828125 300.5471496582031 81.18000793457031 286.7373352050781 70.10765838623047 272.3576354980469 C 62.46039581298828 257.685546875 57.43687438964844 242.5754852294922 54.33145523071289 227.75755310058594 C 52.5455322265625 213.7664337158203 51.84354019165039 200.2070770263672 52.0556640625 186.78797912597656 C 53.17951965332031 172.77854919433594 55.487815856933594 157.5780029296875 59.58355712890625 140.8419952392578 C 66.38139343261719 122.92564392089844 77.25079345703125 104.5842514038086 93.21836853027344 87.26130676269531 C 114.00059509277344 73.05886840820312 138.62184143066406 63.1931037902832 164.86599731445312 57.21363067626953 C 189.8961639404297 54.49964904785156 213.66995239257812 54.538360595703125 237.04013061523438 57.439697265625 C 260.23223876953125 63.956817626953125 283.3415222167969 74.50749206542969 304.84478759765625 88.87105560302734 C 321.4881286621094 106.43434143066406 332.4637145996094 125.56891632080078 339.134765625 144.39031982421875 C 343.1199951171875 162.4974822998047 345.3451843261719 179.414306640625 346.3064270019531 194.52500915527344" stroke-width="2.0" fill="rgb(252, 210, 48)" opacity="1.0" stroke="rgb(252, 210, 48)" stroke-opacity="1.0" stroke-linecap="round" stroke-linejoin="round"/>
    <path d="M 255.53237915039062 291.05584716796875 C 255.9320068359375 293.02642822265625 255.99716186523438 294.8236083984375 255.72256469726562 296.35809326171875 C 255.0745391845703 297.6494445800781 254.0032958984375 298.6392822265625 252.40541076660156 299.21417236328125 C 250.11648559570312 299.1709899902344 246.8824920654297 297.9543762207031 242.48565673828125 295.2530822753906 C 236.611328125 291.51031494140625 229.09938049316406 287.5992431640625 219.7302703857422 284.172607421875 C 208.55963134765625 281.8448791503906 196.10104370117188 281.40966796875 183.8451385498047 283.27587890625 C 173.38119506835938 287.0088195800781 165.2858123779297 291.5076904296875 159.486083984375 295.261474609375 C 155.49285888671875 297.54083251953125 152.73829650878906 298.62213134765625 150.7780303955078 298.8350830078125 C 149.3017578125 298.498046875 148.2015838623047 297.7273864746094 147.4437255859375 296.614013671875 C 146.99851989746094 295.25750732421875 146.85113525390625 293.72930908203125 147.0032196044922 292.1258850097656 C 147.47071838378906 290.4747619628906 148.2918701171875 288.6943054199219 149.5548858642578 286.6368713378906 C 151.38307189941406 284.05694580078125 153.97708129882812 280.7547912597656 157.59326171875 276.8005065917969 C 162.6054229736328 272.2340087890625 169.31248474121094 267.5704345703125 178.044189453125 263.391357421875 C 188.84957885742188 260.5551452636719 201.06849670410156 259.7432556152344 213.3831787109375 261.1530456542969 C 224.5723419189453 264.373291015625 233.63372802734375 268.4671630859375 240.39117431640625 272.86553955078125 C 245.41720581054688 277.0967102050781 249.07809448242188 280.768798828125 251.72055053710938 283.852783203125 C 253.54464721679688 286.5146789550781 254.76373291015625 288.90631103515625 255.53237915039062 291.05584716796875" stroke-width="2.0" fill="rgb(126, 66, 34)" opacity="1.0" stroke="rgb(126, 66, 34)" stroke-opacity="1.0" stroke-linecap="round" stroke-linejoin="round"/>
    <path d="M 269.49273681640625 195.4232177734375 C 268.123046875 198.89610290527344 266.4378356933594 203.43167114257812 264.8770751953125 209.25550842285156 C 263.7396240234375 216.2163848876953 262.9878845214844 223.66111755371094 262.431884765625 230.7109375 C 261.7357177734375 236.5372314453125 260.5508117675781 240.8043212890625 258.7431945800781 243.71768188476562 C 256.4382019042969 245.56930541992188 253.79623413085938 246.6998291015625 250.93136596679688 247.32350158691406 C 247.72525024414062 247.5386199951172 244.1950225830078 247.39752197265625 240.64735412597656 246.95460510253906 C 237.35421752929688 246.2185516357422 234.46536254882812 245.25311279296875 232.07676696777344 244.15097045898438 C 230.140380859375 242.87982177734375 228.5320587158203 241.3946533203125 227.1280059814453 239.64739990234375 C 225.82447814941406 237.6047821044922 224.53160095214844 235.28329467773438 223.24888610839844 232.74990844726562 C 222.07345581054688 229.98516845703125 221.11952209472656 226.93417358398438 220.53199768066406 223.61343383789062 C 220.5157470703125 219.92996215820312 221.18284606933594 215.96812438964844 222.62710571289062 211.99522399902344 C 224.8245391845703 208.17578125 227.6458740234375 204.6065673828125 230.98312377929688 201.35089111328125 C 234.7194366455078 198.4547119140625 238.7909393310547 195.8860626220703 243.0992431640625 193.6047821044922 C 247.46376037597656 191.67327880859375 251.64381408691406 190.11166381835938 255.50445556640625 188.93133544921875 C 259.0381164550781 188.16697692871094 262.2098693847656 187.74827575683594 264.91754150390625 187.7261962890625 C 267.1388244628906 188.04367065429688 268.7760925292969 188.66502380371094 269.8474426269531 189.61181640625 C 270.345703125 190.9593963623047 270.2599182128906 192.85061645507812 269.49273681640625 195.4232177734375" stroke-width="2.0" fill="rgb(109, 89, 48)" opacity="1.0" stroke="rgb(109, 89, 48)" stroke-opacity="1.0" stroke-linecap="round" stroke-linejoin="round"/>
    <path d="M 184.5782012939453 209.5854034423828 C 184.74661254882812 212.6568603515625 184.37286376953125 215.95684814453125 183.5172119140625 219.4508819580078 C 182.15142822265625 223.11471557617188 180.3211212158203 226.78533935546875 178.08013916015625 230.30519104003906 C 175.51223754882812 233.58126831054688 172.78103637695312 236.52037048339844 169.917724609375 239.03688049316406 C 166.9500732421875 241.1632080078125 163.94029235839844 242.90020751953125 160.95887756347656 244.26715087890625 C 157.97125244140625 245.2259521484375 155.00921630859375 245.76083374023438 152.1256103515625 245.8961181640625 C 149.32293701171875 245.607177734375 146.557373046875 244.85862731933594 143.85707092285156 243.54800415039062 C 141.203125 241.51866149902344 138.61663818359375 238.53445434570312 136.1449432373047 234.18702697753906 C 133.78726196289062 228.40199279785156 131.6923370361328 221.50868225097656 129.95591735839844 214.4249725341797 C 128.69557189941406 207.86514282226562 127.91136932373047 202.2924041748047 127.53575897216797 197.7241668701172 C 127.52275848388672 194.0138702392578 127.81107330322266 191.0724639892578 128.37940979003906 188.83010864257812 C 129.2560272216797 187.15870666503906 130.4449920654297 185.93345642089844 131.9804229736328 185.0889129638672 C 133.8662872314453 184.62863159179688 136.1970977783203 184.5288543701172 139.0350799560547 184.82015991210938 C 142.4564971923828 185.55804443359375 146.55133056640625 186.77740478515625 151.2185516357422 188.50450134277344 C 156.40121459960938 190.6771240234375 161.8596649169922 193.12139892578125 167.3130340576172 195.5746612548828 C 172.34864807128906 197.84793090820312 176.61705017089844 199.963623046875 179.9218292236328 202.0453643798828 C 182.27883911132812 204.27529907226562 183.78863525390625 206.78753662109375 184.5782012939453 209.5854034423828" stroke-width="2.0" fill="rgb(141, 42, 135)" opacity="1.0" stroke="rgb(141, 42, 135)" stroke-opacity="1.0" stroke-linecap="round" stroke-linejoin="round"/>
    <path d="M 262.6706848144531 225.58575439453125 C 262.8304138183594 228.79132080078125 262.52459716796875 231.80242919921875 261.80987548828125 234.46533203125 C 260.7928771972656 236.8053436279297 259.55145263671875 238.90603637695312 258.1414794921875 240.7222900390625 C 256.5994567871094 242.25845336914062 254.96734619140625 243.53515625 253.2459259033203 244.59490966796875 C 251.43966674804688 245.43698120117188 249.57522583007812 246.0646514892578 247.66769409179688 246.5016326904297 C 245.65548706054688 246.7459259033203 243.5915069580078 246.80072021484375 241.5210418701172 246.6474609375 C 239.44229125976562 246.29562377929688 237.3880615234375 245.72952270507812 235.3839874267578 244.91964721679688 C 233.4591522216797 243.83200073242188 231.6282958984375 242.43753051757812 229.96188354492188 240.7838897705078 C 228.5304718017578 238.91473388671875 227.3652801513672 236.74488830566406 226.48593139648438 234.24801635742188 C 225.9268341064453 231.4517364501953 225.73532104492188 228.50244140625 225.9305419921875 225.67697143554688 C 226.45413208007812 223.11143493652344 227.22396850585938 220.7954864501953 228.22314453125 218.7138671875 C 229.4478302001953 216.90740966796875 230.8800811767578 215.3618621826172 232.48507690429688 214.02044677734375 C 234.22061157226562 212.85755920410156 236.15330505371094 211.90650939941406 238.33758544921875 211.1541748046875 C 240.78305053710938 210.62344360351562 243.43136596679688 210.36021423339844 246.18426513671875 210.4273681640625 C 248.865966796875 210.83799743652344 251.39993286132812 211.53451538085938 253.720458984375 212.50482177734375 C 255.82691955566406 213.81048583984375 257.7384033203125 215.41770935058594 259.4606018066406 217.35829162597656 C 260.9314880371094 219.68869018554688 262.0278015136719 222.47702026367188 262.6706848144531 225.58575439453125" stroke-width="2.0" fill="rgb(109, 50, 57)" opacity="1.0" stroke="rgb(109, 50, 57)" stroke-opacity="1.0" stroke-linecap="round" stroke-linejoin="round"/>
    <path d="M 276.1038818359375 188.56666564941406 C 276.0667419433594 189.96163940429688 275.7875061035156 191.45684814453125 275.26385498046875 192.96592712402344 C 274.46368408203125 194.44131469726562 273.331298828125 195.8433074951172 271.8236389160156 197.12091064453125 C 269.87725830078125 198.32888793945312 267.4051818847656 199.4998779296875 264.3663024902344 200.6805419921875 C 260.7974853515625 201.9803466796875 256.6890869140625 203.58718872070312 252.121337890625 205.66635131835938 C 247.27825927734375 208.33779907226562 242.4830322265625 211.6703338623047 238.1470947265625 215.35980224609375 C 234.36526489257812 218.72967529296875 231.0329132080078 221.24917602539062 228.12965393066406 222.71302795410156 C 225.68238830566406 223.1775360107422 223.73936462402344 223.0260467529297 222.23422241210938 222.54812622070312 C 221.07357788085938 221.88894653320312 220.20555114746094 221.10671997070312 219.5950469970703 220.22349548339844 C 219.22557067871094 219.239990234375 219.07623291015625 218.15350341796875 219.1236572265625 216.96466064453125 C 219.376708984375 215.66871643066406 219.91757202148438 214.2258758544922 220.881103515625 212.5640869140625 C 222.45333862304688 210.5513458251953 224.83773803710938 207.99159240722656 228.11065673828125 204.75540161132812 C 232.22348022460938 200.97132873535156 237.2178192138672 196.9176483154297 243.08737182617188 192.86019897460938 C 249.5447998046875 189.31289672851562 255.78045654296875 186.5331268310547 261.0956726074219 184.58819580078125 C 265.2918701171875 183.48731994628906 268.40570068359375 183.1060028076172 270.71356201171875 183.1764678955078 C 272.4752197265625 183.5589599609375 273.79962158203125 184.21372985839844 274.7913818359375 185.0907745361328 C 275.4861755371094 186.12132263183594 275.91082763671875 187.28855895996094 276.1038818359375 188.56666564941406" stroke-width="2.0" fill="rgb(134, 85, 18)" opacity="1.0" stroke="rgb(134, 85, 18)" stroke-opacity="1.0" stroke-linecap="round" stroke-linejoin="round"/>
    <path d="M 184.16064453125 214.67471313476562 C 184.55149841308594 215.5565948486328 184.68325805664062 216.38259887695312 184.59600830078125 217.1199951171875 C 184.32275390625 217.80477905273438 183.873779296875 218.427978515625 183.2367401123047 218.96823120117188 C 182.39178466796875 219.43833923339844 181.31939697265625 219.8245391845703 179.96905517578125 220.0995635986328 C 178.2947235107422 220.21664428710938 176.24880981445312 220.06805419921875 173.76577758789062 219.52401733398438 C 170.72080993652344 218.45339965820312 166.93011474609375 216.69639587402344 162.24029541015625 214.1449737548828 C 156.63232421875 210.9256591796875 150.37152099609375 207.41827392578125 144.18380737304688 204.3853759765625 C 138.95135498046875 202.10671997070312 134.99615478515625 200.29788208007812 132.1616668701172 198.70462036132812 C 130.228759765625 197.09231567382812 128.92410278320312 195.5149383544922 128.04806518554688 194.01918029785156 C 127.48733520507812 192.6675567626953 127.18438720703125 191.43055725097656 127.11148834228516 190.34315490722656 C 127.2489242553711 189.39598083496094 127.59956359863281 188.55616760253906 128.18504333496094 187.85443115234375 C 129.03805541992188 187.33230590820312 130.2316131591797 187.00799560546875 131.86004638671875 186.92550659179688 C 134.0105743408203 187.21665954589844 136.7174072265625 187.91400146484375 140.09669494628906 189.076416015625 C 144.1932830810547 190.85313415527344 149.0341339111328 193.2952423095703 154.56739807128906 196.39462280273438 C 160.57957458496094 200.01336669921875 166.38912963867188 203.62347412109375 171.3625030517578 206.66436767578125 C 175.33871459960938 208.99305725097656 178.38609313964844 210.6016082763672 180.66673278808594 211.7733154296875 C 182.30999755859375 212.80393981933594 183.44070434570312 213.7730255126953 184.16064453125 214.67471313476562" stroke-width="2.0" fill="rgb(154, 59, 150)" opacity="1.0" stroke="rgb(154, 59, 150)" stroke-opacity="1.0" stroke-linecap="round" stroke-linejoin="round"/>
    <path d="M 246.814453125 216.21685791015625 C 246.8598175048828 217.2281494140625 246.76358032226562 218.2428436279297 246.53489685058594 219.20542907714844 C 246.1722869873047 220.1129150390625 245.69442749023438 220.9384765625 245.11666870117188 221.683349609375 C 244.4647674560547 222.3649139404297 243.7432098388672 222.97384643554688 242.9268798828125 223.4833526611328 C 242.02987670898438 223.8823699951172 241.0925750732422 224.1753692626953 240.1098175048828 224.36529541015625 C 239.11709594726562 224.46861267089844 238.15394592285156 224.4811553955078 237.2585906982422 224.41189575195312 C 236.42913818359375 224.25497436523438 235.6680145263672 224.01596069335938 234.97486877441406 223.69573974609375 C 234.35958862304688 223.28094482421875 233.80836486816406 222.7578887939453 233.31434631347656 222.11756896972656 C 232.87925720214844 221.3586883544922 232.52761840820312 220.4776153564453 232.28778076171875 219.4849090576172 C 232.17742919921875 218.40408325195312 232.18865966796875 217.29234313964844 232.33839416503906 216.2254638671875 C 232.6339569091797 215.25717163085938 233.04730224609375 214.38453674316406 233.55958557128906 213.59442138671875 C 234.16392517089844 212.887451171875 234.8358154296875 212.25209045410156 235.57241821289062 211.704345703125 C 236.39414978027344 211.25091552734375 237.31187438964844 210.88681030273438 238.3090362548828 210.6302032470703 C 239.35671997070312 210.481201171875 240.4231719970703 210.4181671142578 241.4703369140625 210.4623565673828 C 242.46109008789062 210.6467742919922 243.3631591796875 210.96929931640625 244.16827392578125 211.42446899414062 C 244.8726348876953 212.01052856445312 245.47543334960938 212.69935607910156 245.9661407470703 213.47360229492188 C 246.3539276123047 214.3207550048828 246.64169311523438 215.24215698242188 246.814453125 216.21685791015625" stroke-width="2.0" fill="rgb(180, 132, 18)" opacity="1.0" stroke="rgb(180, 132, 18)" stroke-opacity="1.0" stroke-linecap="round" stroke-linejoin="round"/>
    <path d="M 161.814453125 216.21685791015625 C 161.8598175048828 217.2281494140625 161.76358032226562 218.2428436279297 161.53489685058594 219.20542907714844 C 161.1722869873047 220.1129150390625 160.69442749023438 220.9384765625 160.11666870117188 221.683349609375 C 159.4647674560547 222.3649139404297 158.7432098388672 222.97384643554688 157.9268798828125 223.4833526611328 C 157.02987670898438 223.8823699951172 156.0925750732422 224.1753692626953 155.1098175048828 224.36529541015625 C 154.11709594726562 224.46861267089844 153.15394592285156 224.4811553955078 152.2585906982422 224.41189575195312 C 151.42913818359375 224.25497436523438 150.6680145263672 224.01596069335938 149.97486877441406 223.69573974609375 C 149.35958862304688 223.28094482421875 148.80836486816406 222.7578887939453 148.31434631347656 222.11756896972656 C 147.87925720214844 221.3586883544922 147.52761840820312 220.4776153564453 147.28778076171875 219.4849090576172 C 147.17742919921875 218.40408325195312 147.18865966796875 217.29234313964844 147.33839416503906 216.2254638671875 C 147.6339569091797 215.25717163085938 148.04730224609375 214.38453674316406 148.55958557128906 213.59442138671875 C 149.16392517089844 212.887451171875 149.8358154296875 212.25209045410156 150.57241821289062 211.704345703125 C 151.39414978027344 211.25091552734375 152.31187438964844 210.88681030273438 153.3090362548828 210.6302032470703 C 154.35671997070312 210.481201171875 155.4231719970703 210.4181671142578 156.4703369140625 210.4623565673828 C 157.46109008789062 210.6467742919922 158.3631591796875 210.96929931640625 159.16827392578125 211.42446899414062 C 159.8726348876953 212.01052856445312 160.47543334960938 212.69935607910156 160.9661407470703 213.47360229492188 C 161.3539276123047 214.3207550048828 161.64169311523438 215.24215698242188 161.814453125 216.21685791015625" stroke-width="2.0" fill="rgb(180, 132, 18)" opacity="1.0" stroke="rgb(180, 132, 18)" stroke-opacity="1.0" stroke-linecap="round" stroke-linejoin="round"/>
  </g>
</svg>
