<?xml version="1.0" ?>
<svg xmlns="http://www.w3.org/2000/svg" version="1.1" width="400" height="400">
  <defs/>
  <g>
    <path d="M 324.52874755859375 173.12777709960938 C 325.6665954589844 196.66552734375 323.8194885253906 221.79190063476562 318.4899597167969 247.0037841796875 C 309.7816162109375 271.3272399902344 299.072265625 293.0876770019531 288.00347900390625 310.8026123046875 C 278.30853271484375 323.87115478515625 269.434814453125 332.90374755859375 259.8228759765625 338.9343566894531 C 248.724365234375 342.9817199707031 235.63876342773438 345.59735107421875 220.3575439453125 347.1920471191406 C 202.8708953857422 347.94610595703125 184.88458251953125 347.9010925292969 168.15176391601562 347.1729736328125 C 153.51565551757812 345.7644348144531 141.2979736328125 343.55194091796875 131.4790496826172 340.2371520996094 C 123.77539825439453 335.44488525390625 117.70677947998047 328.7312927246094 112.46943664550781 319.3958435058594 C 106.45149230957031 306.7149658203125 98.59690856933594 290.1333923339844 90.30484008789062 269.69061279296875 C 83.37890625 245.94696044921875 79.219482421875 219.82196044921875 78.24417114257812 193.54336547851562 C 80.35630798339844 169.0111541748047 85.48573303222656 146.15786743164062 93.1640625 125.01522064208984 C 103.08184814453125 106.96077728271484 115.08842468261719 92.86604309082031 129.21429443359375 82.7979736328125 C 144.9186248779297 76.03971099853516 160.99404907226562 71.72712707519531 176.4809112548828 69.17810821533203 C 190.9202117919922 67.95966339111328 203.94973754882812 67.77725219726562 216.17855834960938 68.59286499023438 C 229.15774536132812 70.58233642578125 243.30245971679688 74.3667221069336 258.78106689453125 80.8476333618164 C 275.08837890625 90.60031127929688 291.2286682128906 103.2131118774414 304.72784423828125 117.92758178710938 C 314.4436950683594 134.2599334716797 320.8004150390625 152.3778839111328 324.52874755859375 173.12777709960938" stroke-width="2.0" fill="rgb(246, 198, 144)" opacity="1.0" stroke="rgb(246, 198, 144)" stroke-opacity="1.0" stroke-linecap="round" stroke-linejoin="round"/>
    <path d="M 106.863037109375 137.65806579589844 C 107.74887084960938 144.762939453125 107.66357421875 154.17807006835938 106.79314422607422 165.8450164794922 C 105.24295806884766 178.62600708007812 103.06366729736328 190.90817260742188 100.51710510253906 201.30303955078125 C 97.94064331054688 209.27212524414062 95.36274719238281 214.893798828125 92.61445617675781 218.69985961914062 C 89.50559997558594 221.18521118164062 85.90008544921875 222.72705078125 81.89202880859375 223.55239868164062 C 77.62635803222656 223.8299560546875 73.3955078125 223.693115234375 69.41824340820312 223.19448852539062 C 65.80963134765625 222.32965087890625 62.57502746582031 221.02349853515625 59.76154708862305 219.19940185546875 C 57.34538650512695 216.7542724609375 55.29502868652344 213.47360229492188 53.630794525146484 209.14044189453125 C 52.26169967651367 203.486572265625 51.39478302001953 196.1207275390625 51.04151916503906 186.9078369140625 C 50.713008880615234 176.18728637695312 50.604736328125 164.90440368652344 51.421302795410156 154.41018676757812 C 53.10013198852539 145.62564086914062 55.35753631591797 138.52310180664062 57.86731719970703 133.01144409179688 C 60.524818420410156 128.8350067138672 63.26573181152344 125.6405029296875 66.04026794433594 123.24016571044922 C 68.66668701171875 121.49968719482422 71.20519256591797 120.26119995117188 73.74327087402344 119.416259765625 C 76.36882019042969 118.92086791992188 79.06913757324219 118.729248046875 81.81143951416016 118.80592346191406 C 84.59557342529297 119.12384033203125 87.5296401977539 119.680908203125 90.63034057617188 120.49812316894531 C 93.86041259765625 121.64764404296875 97.12606048583984 123.26496887207031 100.21332550048828 125.49608612060547 C 102.9782485961914 128.46548461914062 105.25167083740234 132.37722778320312 106.863037109375 137.65806579589844" stroke-width="2.0" fill="rgb(224, 222, 229)" opacity="1.0" stroke="rgb(224, 222, 229)" stroke-opacity="1.0" stroke-linecap="round" stroke-linejoin="round"/>
    <path d="M 336.2240295410156 135.135498046875 C 337.11279296875 139.92613220214844 337.5107421875 146.38978576660156 337.380126953125 154.83619689941406 C 336.72607421875 165.14227294921875 335.5149841308594 176.6503143310547 333.62969970703125 188.12857055664062 C 331.149658203125 198.1163787841797 328.5831298828125 205.98733520507812 326.1971130371094 211.66213989257812 C 323.740966796875 215.49703979492188 321.02313232421875 217.91226196289062 318.2143249511719 219.3889617919922 C 315.5374450683594 220.16912841796875 312.9783630371094 220.3688201904297 310.65374755859375 220.09400939941406 C 308.64031982421875 219.359130859375 306.86383056640625 218.1249237060547 305.3155517578125 216.32916259765625 C 303.89874267578125 213.85931396484375 302.53558349609375 210.5735321044922 301.2684631347656 206.29031372070312 C 300.3274230957031 200.74635314941406 299.8237609863281 193.68902587890625 299.4351501464844 185.11932373046875 C 298.87872314453125 175.47669982910156 298.67877197265625 165.5479736328125 299.1607666015625 156.55316162109375 C 300.2832946777344 148.93423461914062 301.6628112792969 142.7342071533203 303.1047058105469 137.8482208251953 C 304.5282287597656 134.05734252929688 305.9671630859375 131.0358428955078 307.418701171875 128.6376495361328 C 308.93060302734375 126.7735366821289 310.5235595703125 125.36144256591797 312.20489501953125 124.3495101928711 C 313.9969177246094 123.70613098144531 315.8526611328125 123.36756134033203 317.79833984375 123.25679016113281 C 319.8621520996094 123.30682373046875 322.0621337890625 123.53427124023438 324.3524169921875 123.98489379882812 C 326.692626953125 124.68780517578125 329.03125 125.69929504394531 331.27203369140625 127.12086486816406 C 333.2562561035156 129.04629516601562 334.8921813964844 131.62294006347656 336.2240295410156 135.135498046875" stroke-width="2.0" fill="rgb(219, 217, 225)" opacity="1.0" stroke="rgb(219, 217, 225)" stroke-opacity="1.0" stroke-linecap="round" stroke-linejoin="round"/>
    <path d="M 240.2764892578125 298.3553466796875 C 240.42337036132812 299.9326171875 240.29693603515625 301.547607421875 239.88442993164062 303.1048583984375 C 239.15538024902344 304.6043395996094 238.02108764648438 306.0399169921875 236.36572265625 307.43756103515625 C 234.04440307617188 308.98699951171875 230.8679962158203 310.763427734375 226.65069580078125 312.7542724609375 C 221.29037475585938 314.8577575683594 214.8435821533203 316.8338317871094 207.45237731933594 318.4197998046875 C 199.4866943359375 319.08319091796875 191.47796630859375 318.5775146484375 184.16558837890625 317.213134765625 C 177.92752075195312 315.3104248046875 172.9686279296875 313.1710205078125 169.14451599121094 311.24627685546875 C 166.19981384277344 309.6994934082031 163.94505310058594 308.5562744140625 162.2622528076172 307.5367736816406 C 161.0039520263672 306.56036376953125 160.0559844970703 305.59881591796875 159.37908935546875 304.5517578125 C 158.92913818359375 303.37005615234375 158.68174743652344 302.0758056640625 158.64547729492188 300.7027893066406 C 158.81246948242188 299.267822265625 159.18313598632812 297.8065185546875 159.7926483154297 296.3472595214844 C 160.68124389648438 294.8712463378906 161.9428253173828 293.45281982421875 163.77474975585938 292.3493347167969 C 166.58433532714844 292.0908203125 170.90463256835938 293.1222839355469 177.28106689453125 294.9889221191406 C 186.00653076171875 297.00433349609375 196.28192138671875 298.24249267578125 206.71311950683594 298.20703125 C 216.01083374023438 297.1915283203125 223.44090270996094 295.88330078125 229.00640869140625 294.6572265625 C 233.02688598632812 293.8758544921875 235.81671142578125 293.7568359375 237.74632263183594 294.32855224609375 C 239.03233337402344 295.4512939453125 239.83767700195312 296.85430908203125 240.2764892578125 298.3553466796875" stroke-width="2.0" fill="rgb(127, 91, 89)" opacity="1.0" stroke="rgb(127, 91, 89)" stroke-opacity="1.0" stroke-linecap="round" stroke-linejoin="round"/>
    <path d="M 237.66407775878906 296.12066650390625 C 237.92967224121094 297.14483642578125 237.9683837890625 298.2563781738281 237.79095458984375 299.43524169921875 C 237.38006591796875 300.69427490234375 236.70095825195312 302.0278015136719 235.68643188476562 303.47674560546875 C 234.2042694091797 305.1041259765625 232.13427734375 306.95343017578125 229.28692626953125 309.05419921875 C 225.49533081054688 311.422607421875 220.61318969726562 314.00494384765625 214.6210174560547 316.49456787109375 C 207.65538024902344 318.41998291015625 200.03237915039062 319.1878662109375 192.2138671875 318.3348388671875 C 184.73709106445312 316.3836975097656 178.27784729003906 313.7940979003906 173.12039184570312 311.0984802246094 C 169.2134246826172 308.73297119140625 166.402587890625 306.67742919921875 164.42079162597656 304.9079284667969 C 163.01039123535156 303.3106384277344 162.0037078857422 301.79766845703125 161.33241271972656 300.4195556640625 C 160.93727111816406 299.1675109863281 160.7969970703125 298.0209045410156 160.9178924560547 296.9569396972656 C 161.2981719970703 295.9970397949219 161.96481323242188 295.1483459472656 162.9485626220703 294.4425354003906 C 164.29037475585938 293.9360656738281 166.07632446289062 293.6837463378906 168.46771240234375 293.7917785644531 C 171.8314208984375 294.5292663574219 176.75845336914062 296.1358947753906 183.7451934814453 298.03704833984375 C 192.9426727294922 299.2656555175781 203.16683959960938 299.3743591308594 212.68795776367188 298.4729919433594 C 220.18247985839844 296.9114990234375 225.51962280273438 295.2543640136719 229.26235961914062 294.1639709472656 C 231.91519165039062 293.66973876953125 233.84991455078125 293.6260986328125 235.3011474609375 293.9052734375 C 236.38003540039062 294.4723815917969 237.1538848876953 295.2279968261719 237.66407775878906 296.12066650390625" stroke-width="2.0" fill="rgb(111, 63, 52)" opacity="1.0" stroke="rgb(111, 63, 52)" stroke-opacity="1.0" stroke-linecap="round" stroke-linejoin="round"/>
    <path d="M 256.66705322265625 170.62008666992188 C 257.1743469238281 171.7823028564453 257.3720703125 172.80465698242188 257.2730712890625 173.58245849609375 C 256.85382080078125 174.1492156982422 256.0509033203125 174.4166717529297 254.76803588867188 174.29940795898438 C 252.8380126953125 173.8877716064453 249.98013305664062 173.19970703125 245.85614013671875 172.0869903564453 C 239.9420166015625 170.78134155273438 231.6317138671875 169.44439697265625 220.3729248046875 168.5216827392578 C 206.36166381835938 168.03887939453125 190.89614868164062 168.21359252929688 176.80007934570312 169.21409606933594 C 165.94972229003906 170.6642608642578 158.224853515625 172.09396362304688 153.0394287109375 173.63845825195312 C 149.59437561035156 175.03082275390625 147.19967651367188 175.82342529296875 145.4613800048828 175.98129272460938 C 144.1841278076172 175.64541625976562 143.27621459960938 175.05056762695312 142.67666625976562 174.30593872070312 C 142.34559631347656 173.45443725585938 142.26280212402344 172.53240966796875 142.4188232421875 171.55068969726562 C 142.82000732421875 170.52545166015625 143.49917602539062 169.49082946777344 144.51776123046875 168.46279907226562 C 145.962646484375 167.48580932617188 147.94155883789062 166.40399169921875 150.6278839111328 165.04312133789062 C 154.37216186523438 163.41448974609375 159.78875732421875 161.55740356445312 167.60548400878906 159.9791717529297 C 178.5781707763672 158.81268310546875 192.51683044433594 158.012451171875 207.74197387695312 158.09268188476562 C 221.63088989257812 159.41481018066406 232.68017578125 161.42958068847656 240.6128692626953 163.25872802734375 C 246.17303466796875 164.7532958984375 250.00038146972656 166.00848388671875 252.67288208007812 167.08480834960938 C 254.5355224609375 168.23287963867188 255.8145294189453 169.43551635742188 256.66705322265625 170.62008666992188" stroke-width="2.0" fill="rgb(235, 188, 144)" opacity="1.0" stroke="rgb(235, 188, 144)" stroke-opacity="1.0" stroke-linecap="round" stroke-linejoin="round"/>
    <path d="M 273.6033020019531 232.9430389404297 C 273.6558837890625 235.86630249023438 273.2984924316406 238.50674438476562 272.6084899902344 240.78805541992188 C 271.71685791015625 242.77264404296875 270.6824951171875 244.49420166015625 269.5263671875 245.9509735107422 C 268.2838439941406 247.17849731445312 266.9494934082031 248.21530151367188 265.5198059082031 249.0929718017578 C 263.96722412109375 249.80075073242188 262.2882995605469 250.35604858398438 260.49566650390625 250.77737426757812 C 258.5561828613281 251.04458618164062 256.567626953125 251.12747192382812 254.57525634765625 251.00030517578125 C 252.633056640625 250.6966552734375 250.780517578125 250.21449279785156 249.03713989257812 249.54388427734375 C 247.37664794921875 248.63992309570312 245.79327392578125 247.48556518554688 244.3184356689453 246.09140014648438 C 243.00723266601562 244.47723388671875 241.8682098388672 242.6021270751953 240.97076416015625 240.3514862060547 C 240.3617706298828 237.76756286621094 240.13265991210938 234.99526977539062 240.2834014892578 232.337890625 C 240.76864624023438 229.93809509277344 241.49005126953125 227.76171875 242.43988037109375 225.79843139648438 C 243.6055145263672 224.0738067626953 244.97181701660156 222.57717895507812 246.49868774414062 221.24374389648438 C 248.13548278808594 220.08338928222656 249.90155029296875 219.13470458984375 251.80130004882812 218.38333129882812 C 253.84317016601562 217.83119201660156 255.99630737304688 217.5425567626953 258.2136535644531 217.61050415039062 C 260.469482421875 218.04757690429688 262.6849670410156 218.7977752685547 264.8352355957031 219.8341522216797 C 266.90338134765625 221.20108032226562 268.84619140625 222.89987182617188 270.6092224121094 224.92332458496094 C 272.0607604980469 227.29916381835938 273.0704345703125 230.01914978027344 273.6033020019531 232.9430389404297" stroke-width="2.0" fill="rgb(90, 58, 84)" opacity="1.0" stroke="rgb(90, 58, 84)" stroke-opacity="1.0" stroke-linecap="round" stroke-linejoin="round"/>
    <path d="M 160.6033172607422 232.9430389404297 C 160.6558837890625 235.86630249023438 160.29849243164062 238.50674438476562 159.60848999023438 240.78805541992188 C 158.7168731689453 242.77264404296875 157.6824951171875 244.49420166015625 156.52635192871094 245.9509735107422 C 155.28382873535156 247.17849731445312 153.94949340820312 248.21530151367188 152.51980590820312 249.0929718017578 C 150.9672393798828 249.80075073242188 149.28831481933594 250.35604858398438 147.49566650390625 250.77737426757812 C 145.55618286132812 251.04458618164062 143.56764221191406 251.12747192382812 141.57525634765625 251.00030517578125 C 139.633056640625 250.6966552734375 137.780517578125 250.21449279785156 136.03713989257812 249.54388427734375 C 134.37664794921875 248.63992309570312 132.79327392578125 247.48556518554688 131.3184356689453 246.09140014648438 C 130.00723266601562 244.47723388671875 128.8682098388672 242.6021270751953 127.97077178955078 240.3514862060547 C 127.36177062988281 237.76756286621094 127.13265991210938 234.99526977539062 127.28340148925781 232.337890625 C 127.7686538696289 229.93809509277344 128.49005126953125 227.76171875 129.43988037109375 225.79843139648438 C 130.6055145263672 224.0738067626953 131.97181701660156 222.57717895507812 133.49868774414062 221.24374389648438 C 135.13548278808594 220.08338928222656 136.90155029296875 219.13470458984375 138.80130004882812 218.38333129882812 C 140.84317016601562 217.83119201660156 142.99630737304688 217.5425567626953 145.21363830566406 217.61050415039062 C 147.46949768066406 218.04757690429688 149.6849822998047 218.7977752685547 151.8352508544922 219.8341522216797 C 153.9033660888672 221.20108032226562 155.84619140625 222.89987182617188 157.60922241210938 224.92332458496094 C 159.06076049804688 227.29916381835938 160.07041931152344 230.01914978027344 160.6033172607422 232.9430389404297" stroke-width="2.0" fill="rgb(90, 58, 84)" opacity="1.0" stroke="rgb(90, 58, 84)" stroke-opacity="1.0" stroke-linecap="round" stroke-linejoin="round"/>
    <path d="M 172.14077758789062 204.66709899902344 C 172.44525146484375 205.8460235595703 172.55880737304688 206.9830322265625 172.46646118164062 208.05929565429688 C 172.14524841308594 209.03829956054688 171.5762481689453 209.82986450195312 170.7122039794922 210.38623046875 C 169.48080444335938 210.655029296875 167.78897094726562 210.5904083251953 165.4851837158203 210.13723754882812 C 162.41168212890625 209.3160858154297 158.4441375732422 208.22962951660156 153.40713500976562 207.1704559326172 C 147.39450073242188 206.5208282470703 140.75404357910156 206.65594482421875 134.26104736328125 207.6527862548828 C 128.71893310546875 209.08419799804688 124.47145080566406 210.39846801757812 121.44833374023438 211.15484619140625 C 119.37767028808594 211.31036376953125 117.99202728271484 211.04376220703125 117.01110076904297 210.5607147216797 C 116.28035736083984 209.89987182617188 115.7451400756836 209.08180236816406 115.39680480957031 208.103271484375 C 115.2352523803711 206.9793701171875 115.24258422851562 205.7779998779297 115.41829681396484 204.52383422851562 C 115.79582214355469 203.23854064941406 116.42221069335938 201.923828125 117.35838317871094 200.53872680664062 C 118.67323303222656 198.97100830078125 120.43051147460938 197.1903839111328 122.82804107666016 195.30221557617188 C 126.0959701538086 193.50379943847656 130.41543579101562 191.96710205078125 135.74510192871094 190.8382568359375 C 141.714599609375 190.23895263671875 147.83970642089844 190.3301544189453 153.51907348632812 191.20530700683594 C 158.36532592773438 192.59902954101562 162.1203155517578 194.25515747070312 164.92979431152344 195.97357177734375 C 167.06092834472656 197.67466735839844 168.693603515625 199.27139282226562 169.95101928710938 200.7545166015625 C 170.91073608398438 202.17111206054688 171.63272094726562 203.47323608398438 172.14077758789062 204.66709899902344" stroke-width="2.0" fill="rgb(185, 185, 191)" opacity="1.0" stroke="rgb(185, 185, 191)" stroke-opacity="1.0" stroke-linecap="round" stroke-linejoin="round"/>
    <path d="M 284.1407775878906 204.66709899902344 C 284.44525146484375 205.8460235595703 284.5588073730469 206.9830322265625 284.4664611816406 208.05929565429688 C 284.145263671875 209.03829956054688 283.57623291015625 209.82986450195312 282.71221923828125 210.38623046875 C 281.4808044433594 210.655029296875 279.7889709472656 210.5904083251953 277.48516845703125 210.13723754882812 C 274.41168212890625 209.3160858154297 270.4441223144531 208.22962951660156 265.4071350097656 207.1704559326172 C 259.3945007324219 206.5208282470703 252.75404357910156 206.65594482421875 246.26104736328125 207.6527862548828 C 240.71893310546875 209.08419799804688 236.47145080566406 210.39846801757812 233.44833374023438 211.15484619140625 C 231.37767028808594 211.31036376953125 229.99203491210938 211.04376220703125 229.0111083984375 210.5607147216797 C 228.2803497314453 209.89987182617188 227.74514770507812 209.08180236816406 227.3968048095703 208.103271484375 C 227.23524475097656 206.9793701171875 227.24258422851562 205.7779998779297 227.4182891845703 204.52383422851562 C 227.7958221435547 203.23854064941406 228.42221069335938 201.923828125 229.35838317871094 200.53872680664062 C 230.67323303222656 198.97100830078125 232.43051147460938 197.1903839111328 234.8280487060547 195.30221557617188 C 238.09596252441406 193.50379943847656 242.41543579101562 191.96710205078125 247.74510192871094 190.8382568359375 C 253.714599609375 190.23895263671875 259.8397216796875 190.3301544189453 265.5190734863281 191.20530700683594 C 270.3653259277344 192.59902954101562 274.12030029296875 194.25515747070312 276.9298095703125 195.97357177734375 C 279.0609436035156 197.67466735839844 280.693603515625 199.27139282226562 281.9510192871094 200.7545166015625 C 282.9107360839844 202.17111206054688 283.6327209472656 203.47323608398438 284.1407775878906 204.66709899902344" stroke-width="2.0" fill="rgb(185, 185, 191)" opacity="1.0" stroke="rgb(185, 185, 191)" stroke-opacity="1.0" stroke-linecap="round" stroke-linejoin="round"/>
    <path d="M 84.18357849121094 248.45765686035156 C 85.08206176757812 254.61834716796875 86.14439392089844 260.12371826171875 87.21887969970703 264.5721740722656 C 88.12530517578125 267.877197265625 88.78007507324219 270.1947937011719 89.20327758789062 271.7992858886719 C 89.3956298828125 272.9495544433594 89.3998794555664 273.7819519042969 89.1783447265625 274.35491943359375 C 88.73739624023438 274.7089538574219 88.127197265625 274.86700439453125 87.3747329711914 274.83245849609375 C 86.4822006225586 274.6029052734375 85.47998046875 274.18438720703125 84.40351867675781 273.5652770996094 C 83.24806213378906 272.7439270019531 81.9832763671875 271.7143249511719 80.61603546142578 270.45623779296875 C 79.11410522460938 268.9661865234375 77.53251647949219 267.1734924316406 75.98397827148438 264.98834228515625 C 74.44366455078125 262.3095703125 72.94612121582031 259.0350646972656 71.73930358886719 254.97239685058594 C 70.93856811523438 250.14910888671875 70.72634887695312 245.04771423339844 71.05852508544922 240.1887664794922 C 71.81321716308594 236.02188110351562 72.77124786376953 232.61795043945312 73.75010681152344 229.89556884765625 C 74.72337341308594 227.78402709960938 75.65292358398438 226.1613311767578 76.50102233886719 224.96292114257812 C 77.23748779296875 224.1078643798828 77.89372253417969 223.52191162109375 78.4720230102539 223.16357421875 C 78.98582458496094 223.02415466308594 79.44786071777344 223.0975799560547 79.83784484863281 223.38095092773438 C 80.17453002929688 223.874755859375 80.51834106445312 224.61737060546875 80.8797836303711 225.69012451171875 C 81.27617645263672 227.25271606445312 81.73548889160156 229.51551818847656 82.19566345214844 232.681396484375 C 82.69183349609375 236.9407958984375 83.38365936279297 242.332275390625 84.18357849121094 248.45765686035156" stroke-width="2.0" fill="rgb(226, 163, 149)" opacity="1.0" stroke="rgb(226, 163, 149)" stroke-opacity="1.0" stroke-linecap="round" stroke-linejoin="round"/>
    <path d="M 329.6056213378906 239.83766174316406 C 329.5260925292969 245.4029541015625 328.93511962890625 251.268798828125 327.9645080566406 256.724365234375 C 326.53948974609375 261.4356384277344 324.8250732421875 265.2755126953125 323.05328369140625 268.2911376953125 C 321.4532470703125 270.60125732421875 320.06011962890625 272.3242492675781 318.796142578125 273.6321105957031 C 317.579345703125 274.6228942871094 316.4212646484375 275.3392028808594 315.3478088378906 275.8238525390625 C 314.3495788574219 276.1036682128906 313.438232421875 276.17724609375 312.6583251953125 276.0611877441406 C 312.0083312988281 275.767578125 311.5038146972656 275.267822265625 311.16668701171875 274.5350036621094 C 310.9746398925781 273.5250549316406 310.93255615234375 272.205078125 311.1048583984375 270.53973388671875 C 311.5267333984375 268.4381103515625 312.21051025390625 265.8030090332031 312.9837646484375 262.51934814453125 C 313.66851806640625 258.5591735839844 314.21514892578125 253.95777893066406 314.6796875 248.83143615722656 C 315.28033447265625 243.55282592773438 315.9950256347656 238.7139129638672 316.6298828125 234.65328979492188 C 317.2906188964844 231.49075317382812 317.9342956542969 229.11788940429688 318.5080261230469 227.34689331054688 C 319.0095520019531 226.02345275878906 319.4985046386719 225.01678466796875 320.006103515625 224.27642822265625 C 320.5755615234375 223.78211975097656 321.1990051269531 223.51947021484375 321.860595703125 223.48011779785156 C 322.55889892578125 223.65997314453125 323.321044921875 224.063720703125 324.1413269042969 224.7283477783203 C 325.05780029296875 225.70138549804688 326.0791015625 227.072021484375 327.1458740234375 228.9715118408203 C 328.2137451171875 231.6204376220703 329.1472473144531 235.2060089111328 329.6056213378906 239.83766174316406" stroke-width="2.0" fill="rgb(204, 176, 140)" opacity="1.0" stroke="rgb(204, 176, 140)" stroke-opacity="1.0" stroke-linecap="round" stroke-linejoin="round"/>
    <path d="M 243.31417846679688 148.65774536132812 C 243.70297241210938 149.54847717285156 243.8544921875 150.33203125 243.77862548828125 150.92816162109375 C 243.45730590820312 151.36253356933594 242.8419189453125 151.56752014160156 241.8587188720703 151.47764587402344 C 240.37948608398438 151.1621551513672 238.18914794921875 150.6348114013672 235.02842712402344 149.78199768066406 C 230.49569702148438 148.78131103515625 224.12649536132812 147.75665283203125 215.49749755859375 147.04946899414062 C 204.75894165039062 146.67942810058594 192.90582275390625 146.81332397460938 182.1022491455078 147.58013916015625 C 173.78628540039062 148.69158935546875 167.8657684326172 149.787353515625 163.89154052734375 150.97108459472656 C 161.25115966796875 152.03823852539062 159.41580200195312 152.64569091796875 158.0835418701172 152.7666778564453 C 157.10462951660156 152.50926208496094 156.40878295898438 152.05335998535156 155.94927978515625 151.482666015625 C 155.69552612304688 150.83004760742188 155.632080078125 150.12338256835938 155.75164794921875 149.3709716796875 C 156.0591278076172 148.585205078125 156.5796661376953 147.792236328125 157.36033630371094 147.00433349609375 C 158.4677276611328 146.25555419921875 159.98440551757812 145.42642211914062 162.04327392578125 144.3834228515625 C 164.9129638671875 143.13519287109375 169.0643768310547 141.71188354492188 175.0552978515625 140.50228881835938 C 183.46502685546875 139.60826110839844 194.14793395996094 138.99493408203125 205.8168487548828 139.05642700195312 C 216.46163940429688 140.06973266601562 224.93006896972656 141.61390686035156 231.00985717773438 143.01580810546875 C 235.27130126953125 144.16128540039062 238.20468139648438 145.123291015625 240.2529296875 145.94821166992188 C 241.68051147460938 146.828125 242.6607666015625 147.74984741210938 243.31417846679688 148.65774536132812" stroke-width="2.0" fill="rgb(235, 188, 144)" opacity="1.0" stroke="rgb(235, 188, 144)" stroke-opacity="1.0" stroke-linecap="round" stroke-linejoin="round"/>
    <path d="M 214.8116912841797 271.8372802734375 C 215.02992248535156 272.7200927734375 215.06773376464844 273.60174560546875 214.93136596679688 274.4548645019531 C 214.6159210205078 275.3158264160156 214.11624145507812 276.18267822265625 213.42193603515625 277.0497741699219 C 212.52330017089844 277.9398498535156 211.41629028320312 278.79461669921875 210.1018829345703 279.59014892578125 C 208.589111328125 280.34814453125 206.91107177734375 281.05487060546875 205.0753631591797 281.66839599609375 C 203.09957885742188 282.1268310546875 201.0341339111328 282.3672790527344 198.94415283203125 282.40899658203125 C 196.89608764648438 282.2503662109375 194.95602416992188 281.85919189453125 193.1217498779297 281.2716064453125 C 191.40029907226562 280.4629821777344 189.82736206054688 279.48614501953125 188.45263671875 278.449462890625 C 187.33966064453125 277.3907470703125 186.47926330566406 276.3548278808594 185.85537719726562 275.3738708496094 C 185.44961547851562 274.41436767578125 185.24217224121094 273.4770812988281 185.2341766357422 272.5346984863281 C 185.46849060058594 271.55877685546875 185.9457244873047 270.56475830078125 186.66697692871094 269.61376953125 C 187.6509552001953 268.7716064453125 188.90988159179688 268.084716796875 190.48143005371094 267.5851745605469 C 192.3220977783203 267.304443359375 194.3346710205078 267.2104797363281 196.4744110107422 267.21038818359375 C 198.7135467529297 267.2755432128906 201.01852416992188 267.40997314453125 203.35707092285156 267.59197998046875 C 205.6224822998047 267.75531005859375 207.68727111816406 267.8744201660156 209.46231079101562 268.03167724609375 C 210.94021606445312 268.3626708984375 212.13558959960938 268.876708984375 213.0905303955078 269.51251220703125 C 213.8424530029297 270.23614501953125 214.40969848632812 271.01611328125 214.8116912841797 271.8372802734375" stroke-width="2.0" fill="rgb(216, 168, 94)" opacity="1.0" stroke="rgb(216, 168, 94)" stroke-opacity="1.0" stroke-linecap="round" stroke-linejoin="round"/>
    <path d="M 278.9895935058594 257.100830078125 C 279.1656188964844 257.69671630859375 279.22052001953125 258.3170166015625 279.15875244140625 258.9453125 C 278.9700927734375 259.60540771484375 278.6383056640625 260.30352783203125 278.1368103027344 261.0468444824219 C 277.42596435546875 261.85491943359375 276.4473571777344 262.7153015136719 275.103759765625 263.6449890136719 C 273.3031921386719 264.6738586425781 270.95257568359375 265.7743225097656 268.0069274902344 266.8262939453125 C 264.4906921386719 267.67254638671875 260.48138427734375 268.06732177734375 256.0227355957031 267.81219482421875 C 251.28732299804688 266.9556884765625 246.70556640625 265.78106689453125 242.75970458984375 264.56768798828125 C 239.6360321044922 263.4566955566406 237.35879516601562 262.4341735839844 235.8411407470703 261.5289306640625 C 234.8264923095703 260.76373291015625 234.1522216796875 260.118896484375 233.70301818847656 259.5360107421875 C 233.4315643310547 258.9920349121094 233.31378173828125 258.4769287109375 233.34268188476562 258.002685546875 C 233.5361328125 257.5661926269531 233.90908813476562 257.15386962890625 234.48809814453125 256.78021240234375 C 235.35171508789062 256.4468994140625 236.61050415039062 256.1967468261719 238.46705627441406 256.1596984863281 C 241.16458129882812 256.562255859375 244.8092803955078 257.25970458984375 249.49786376953125 257.86541748046875 C 254.87222290039062 258.10723876953125 260.2787780761719 257.89508056640625 265.0850830078125 257.3053894042969 C 268.9409484863281 256.4646301269531 271.8416442871094 255.6840057373047 273.9936218261719 255.2178192138672 C 275.5562744140625 255.12266540527344 276.71209716796875 255.27239990234375 277.57476806640625 255.59230041503906 C 278.2185363769531 256.0392761230469 278.68072509765625 256.55084228515625 278.9895935058594 257.100830078125" stroke-width="2.0" fill="rgb(222, 161, 113)" opacity="1.0" stroke="rgb(222, 161, 113)" stroke-opacity="1.0" stroke-linecap="round" stroke-linejoin="round"/>
    <path d="M 167.98959350585938 257.100830078125 C 168.16561889648438 257.69671630859375 168.2205352783203 258.3170166015625 168.1587677001953 258.9453125 C 167.9700927734375 259.60540771484375 167.63829040527344 260.30352783203125 167.13681030273438 261.0468444824219 C 166.42596435546875 261.85491943359375 165.44735717773438 262.7153015136719 164.10374450683594 263.6449890136719 C 162.3031768798828 264.6738586425781 159.9525604248047 265.7743225097656 157.00692749023438 266.8262939453125 C 153.49069213867188 267.67254638671875 149.4813690185547 268.06732177734375 145.0227508544922 267.81219482421875 C 140.28732299804688 266.9556884765625 135.70556640625 265.78106689453125 131.75970458984375 264.56768798828125 C 128.6360321044922 263.4566955566406 126.35879516601562 262.4341735839844 124.84113311767578 261.5289306640625 C 123.82649230957031 260.76373291015625 123.1522216796875 260.118896484375 122.70301818847656 259.5360107421875 C 122.43157196044922 258.9920349121094 122.31378936767578 258.4769287109375 122.3426742553711 258.002685546875 C 122.53612518310547 257.5661926269531 122.90908813476562 257.15386962890625 123.48809814453125 256.78021240234375 C 124.35171508789062 256.4468994140625 125.61050415039062 256.1967468261719 127.46704864501953 256.1596984863281 C 130.16458129882812 256.562255859375 133.8092803955078 257.25970458984375 138.49786376953125 257.86541748046875 C 143.87222290039062 258.10723876953125 149.27877807617188 257.89508056640625 154.0850830078125 257.3053894042969 C 157.94094848632812 256.4646301269531 160.84165954589844 255.6840057373047 162.99362182617188 255.2178192138672 C 164.55628967285156 255.12266540527344 165.7120819091797 255.27239990234375 166.5747833251953 255.59230041503906 C 167.21853637695312 256.0392761230469 167.68072509765625 256.55084228515625 167.98959350585938 257.100830078125" stroke-width="2.0" fill="rgb(222, 161, 113)" opacity="1.0" stroke="rgb(222, 161, 113)" stroke-opacity="1.0" stroke-linecap="round" stroke-linejoin="round"/>
  </g>
</svg>
