<?xml version="1.0" ?>
<svg xmlns="http://www.w3.org/2000/svg" version="1.1" width="400" height="400">
  <defs/>
  <g>
    <path d="M 345.430419921875 164.1369171142578 C 346.06646728515625 180.53164672851562 345.17596435546875 196.8805694580078 342.59075927734375 213.6604461669922 C 338.1428527832031 230.9473876953125 331.4215393066406 248.46168518066406 321.98333740234375 265.5110168457031 C 309.65374755859375 282.27508544921875 294.60870361328125 298.0240783691406 277.58819580078125 312.0213928222656 C 260.15264892578125 323.7288513183594 243.3077850341797 332.6760559082031 227.71788024902344 338.6211242675781 C 213.4261474609375 342.032958984375 200.30209350585938 343.1916198730469 187.0108642578125 342.387451171875 C 172.63330078125 339.592041015625 156.69903564453125 334.51556396484375 139.2989044189453 326.8948669433594 C 120.94612121582031 316.7278747558594 103.03865051269531 304.23992919921875 87.32779693603516 289.3517150878906 C 74.9220962524414 272.1014404296875 65.98885345458984 253.122802734375 59.987342834472656 232.9510498046875 C 56.34129333496094 212.67320251464844 54.642608642578125 193.30975341796875 54.52774429321289 174.67127990722656 C 55.70355987548828 156.62596130371094 58.283477783203125 138.72528076171875 62.738365173339844 121.63223266601562 C 69.88117980957031 105.84524536132812 80.59896850585938 91.86830139160156 95.63351440429688 79.79869079589844 C 114.99728393554688 69.77581787109375 138.933349609375 61.92169952392578 166.180419921875 56.474647521972656 C 193.51377868652344 53.55706024169922 219.08816528320312 53.03932189941406 241.53245544433594 54.82391357421875 C 261.09722900390625 59.22273254394531 279.2845458984375 66.62300872802734 297.0707702636719 76.6022720336914 C 313.02734375 88.63595581054688 325.44659423828125 101.9141845703125 334.1064758300781 116.33097839355469 C 339.7457275390625 131.7921905517578 343.3959655761719 147.804931640625 345.430419921875 164.1369171142578" stroke-width="2.0" fill="rgb(237, 125, 78)" opacity="1.0" stroke="rgb(237, 125, 78)" stroke-opacity="1.0" stroke-linecap="round" stroke-linejoin="round"/>
    <path d="M 349.10302734375 214.47267150878906 C 348.9656677246094 224.26153564453125 348.3395080566406 232.80157470703125 347.22930908203125 240.04660034179688 C 345.5326843261719 246.1920928955078 343.1353759765625 251.20791625976562 339.9165954589844 255.0694122314453 C 335.6460266113281 257.9183349609375 329.9424743652344 259.5831604003906 322.1003112792969 259.8018798828125 C 311.0439758300781 258.2198181152344 295.3021545410156 254.55072021484375 273.4574890136719 249.2472686767578 C 244.91734313964844 243.66575622558594 210.6070556640625 239.35720825195312 173.33578491210938 237.5578155517578 C 138.7340087890625 238.9890899658203 111.22114562988281 242.94151306152344 91.41390228271484 247.07095336914062 C 77.88410186767578 249.2003936767578 68.92517852783203 248.86505126953125 62.81934356689453 246.4326934814453 C 58.54237365722656 242.36312866210938 55.55078125 237.22450256347656 53.4571533203125 231.1366729736328 C 52.0687141418457 224.1277618408203 51.29559326171875 216.227294921875 51.148895263671875 207.4359130859375 C 51.68101501464844 197.70481872558594 53.103614807128906 186.7932586669922 55.655128479003906 174.33782958984375 C 59.86004638671875 160.3380889892578 66.55655670166016 145.7257080078125 76.97879028320312 131.78968811035156 C 92.751953125 119.3635482788086 115.83821868896484 109.02784729003906 146.79367065429688 101.08244323730469 C 184.30902099609375 96.21640014648438 224.3192138671875 95.330078125 261.52215576171875 99.35152435302734 C 291.5723571777344 107.44178771972656 312.9606628417969 118.3473892211914 327.0740966796875 131.44351196289062 C 336.1241455078125 146.4808807373047 341.8756103515625 162.0074462890625 345.42431640625 176.90431213378906 C 347.5478515625 190.9593048095703 348.6844482421875 203.53611755371094 349.10302734375 214.47267150878906" stroke-width="2.0" fill="rgb(246, 148, 72)" opacity="1.0" stroke="rgb(246, 148, 72)" stroke-opacity="1.0" stroke-linecap="round" stroke-linejoin="round"/>
    <path d="M 309.1373291015625 257.44720458984375 C 308.52996826171875 266.2030029296875 307.1956481933594 274.8863830566406 305.01177978515625 283.4027099609375 C 301.78204345703125 291.89080810546875 297.3428649902344 299.85296630859375 291.51055908203125 307.1767578125 C 283.9573059082031 314.114501953125 274.42303466796875 320.90008544921875 263.12652587890625 327.81134033203125 C 250.5287322998047 334.667724609375 237.39065551757812 340.8870849609375 224.27828979492188 345.99932861328125 C 210.92918395996094 349.6100158691406 196.87477111816406 351.0830993652344 182.42813110351562 350.30584716796875 C 168.09036254882812 347.5386962890625 154.06959533691406 343.43084716796875 140.8719024658203 338.4668884277344 C 128.95147705078125 332.8148498535156 118.75456237792969 326.59527587890625 110.54828643798828 319.8836669921875 C 104.10523223876953 312.7812805175781 99.34353637695312 305.34515380859375 95.86227416992188 297.53741455078125 C 93.341552734375 289.1397705078125 91.61468505859375 279.97576904296875 90.65141296386719 270.083251953125 C 90.54005432128906 259.42596435546875 91.45034790039062 248.30288696289062 93.5660400390625 236.40615844726562 C 97.28565216064453 223.60580444335938 103.60843658447266 210.05245971679688 113.65911865234375 195.78530883789062 C 128.24415588378906 182.0256805419922 146.58021545410156 169.95530700683594 167.40689086914062 161.07342529296875 C 189.44039916992188 156.11553955078125 211.1202392578125 155.19796752929688 231.8878631591797 158.35836791992188 C 251.14129638671875 165.56800842285156 269.1009521484375 175.76560974121094 283.8669738769531 187.53379821777344 C 294.2692565917969 200.38465881347656 301.0458984375 213.47459411621094 305.2858581542969 226.19644165039062 C 307.75775146484375 238.01242065429688 308.93084716796875 248.28054809570312 309.1373291015625 257.44720458984375" stroke-width="2.0" fill="rgb(241, 200, 176)" opacity="1.0" stroke="rgb(241, 200, 176)" stroke-opacity="1.0" stroke-linecap="round" stroke-linejoin="round"/>
    <path d="M 340.47283935546875 138.07061767578125 C 340.654541015625 152.11813354492188 340.39398193359375 168.20933532714844 339.9748840332031 184.20364379882812 C 339.80670166015625 197.99691772460938 339.66290283203125 208.4595947265625 338.8920593261719 215.76541137695312 C 337.3829040527344 220.81166076660156 335.41796875 224.3490753173828 332.9274597167969 226.87509155273438 C 329.6477355957031 228.69065856933594 325.96246337890625 229.98423767089844 322.141845703125 230.8740234375 C 318.21087646484375 231.40509033203125 314.32122802734375 231.57432556152344 310.54022216796875 231.34239196777344 C 306.8460388183594 230.63348388671875 303.3694152832031 229.37005615234375 300.294921875 227.49258422851562 C 297.70806884765625 224.89959716796875 295.8760070800781 221.41497802734375 295.06256103515625 216.67364501953125 C 294.91558837890625 210.23753356933594 294.7132263183594 201.76522827148438 294.2195129394531 190.3451385498047 C 293.52301025390625 175.76443481445312 293.0067443847656 159.83929443359375 293.177001953125 144.96498107910156 C 293.8902893066406 132.76858520507812 295.34002685546875 122.98594665527344 297.3623962402344 115.47761535644531 C 299.8548278808594 109.80249786376953 302.630859375 105.49087524414062 305.5439453125 102.31877136230469 C 308.3382568359375 100.11665344238281 311.023681640625 98.60941314697266 313.5906066894531 97.6648941040039 C 316.043212890625 97.24786376953125 318.44683837890625 97.26394653320312 320.77899169921875 97.6865463256836 C 323.0723876953125 98.53787231445312 325.4056396484375 99.84815216064453 327.7785949707031 101.70743560791016 C 330.2563781738281 104.28623962402344 332.77764892578125 107.74011993408203 335.29266357421875 112.46437072753906 C 337.64617919921875 118.80352020263672 339.45855712890625 127.13878631591797 340.47283935546875 138.07061767578125" stroke-width="2.0" fill="rgb(223, 147, 97)" opacity="1.0" stroke="rgb(223, 147, 97)" stroke-opacity="1.0" stroke-linecap="round" stroke-linejoin="round"/>
    <path d="M 271.06451416015625 80.66529846191406 C 272.01263427734375 84.68782806396484 272.341552734375 88.87822723388672 272.00958251953125 93.31723022460938 C 270.98675537109375 98.22555541992188 269.23419189453125 103.50230407714844 266.6302490234375 109.06090545654297 C 263.1204833984375 114.5337905883789 258.5712890625 119.46849822998047 252.9657745361328 123.48416137695312 C 246.4875946044922 126.4112777709961 239.41976928710938 128.3430938720703 231.9121856689453 129.5308380126953 C 224.18215942382812 130.40493774414062 216.23544311523438 130.64857482910156 208.22544860839844 129.97972106933594 C 200.31199645996094 128.26637268066406 192.5912322998047 125.59185028076172 185.23074340820312 122.06117248535156 C 178.45619201660156 117.9792251586914 172.4075927734375 113.53336334228516 166.9975128173828 109.32550811767578 C 162.08148193359375 105.52427673339844 157.46707153320312 101.87733459472656 153.06185913085938 98.07014465332031 C 149.32302856445312 93.7533950805664 146.57232666015625 88.63786315917969 145.160888671875 82.87399291992188 C 145.3407745361328 76.93456268310547 147.03411865234375 71.07112121582031 150.3868408203125 65.44107055664062 C 155.46221923828125 60.3780632019043 161.984375 55.85643768310547 169.797119140625 52.100181579589844 C 178.6895751953125 49.57376480102539 188.10279846191406 48.2026481628418 197.69883728027344 47.74858093261719 C 207.49078369140625 48.10297775268555 217.06619262695312 48.990169525146484 226.3321075439453 50.42060852050781 C 235.11354064941406 52.41473388671875 243.035888671875 54.96508026123047 249.89599609375 57.954776763916016 C 255.66192626953125 61.28974151611328 260.37158203125 64.87359619140625 264.1612548828125 68.63965606689453 C 267.18682861328125 72.65567779541016 269.467529296875 76.7227554321289 271.06451416015625 80.66529846191406" stroke-width="2.0" fill="rgb(226, 210, 164)" opacity="1.0" stroke="rgb(226, 210, 164)" stroke-opacity="1.0" stroke-linecap="round" stroke-linejoin="round"/>
    <path d="M 282.822998046875 70.65853881835938 C 283.4122314453125 73.18450164794922 283.658935546875 75.63610076904297 283.572509765625 77.99225616455078 C 283.1630554199219 80.29540252685547 282.41485595703125 82.44053649902344 281.2952880859375 84.35115051269531 C 279.7760009765625 86.10245513916016 277.800537109375 87.73490905761719 275.2616882324219 89.16155242919922 C 271.986572265625 90.40892791748047 267.7615051269531 91.30368041992188 262.37994384765625 91.5779037475586 C 255.6879425048828 91.03853607177734 247.43617248535156 89.65386962890625 237.65164184570312 87.6433334350586 C 226.58041381835938 85.47247314453125 214.93711853027344 83.56764221191406 203.73629760742188 82.38043975830078 C 194.0662384033203 81.7377700805664 186.38177490234375 81.10212707519531 180.7748565673828 79.98296356201172 C 176.93292236328125 78.43994903564453 174.32408142089844 76.53754425048828 172.55014038085938 74.47724151611328 C 171.428955078125 72.3846664428711 170.84730529785156 70.31236267089844 170.6872100830078 68.27217102050781 C 170.968017578125 66.23835754394531 171.72227478027344 64.14261627197266 172.95481872558594 61.96723175048828 C 174.80972290039062 59.65264129638672 177.44972229003906 57.11043167114258 181.12176513671875 54.467437744140625 C 186.1940155029297 51.88151550292969 192.9475860595703 49.55035400390625 201.5281524658203 47.75957489013672 C 212.10987854003906 46.64042663574219 223.8618927001953 46.281822204589844 235.8106689453125 46.766326904296875 C 246.88504028320312 48.166099548339844 256.50360107421875 50.2154541015625 264.4596252441406 52.828495025634766 C 270.56768798828125 55.85710525512695 275.0346984863281 59.05839538574219 278.1795349121094 62.226619720458984 C 280.35150146484375 65.24681854248047 281.83831787109375 68.05595397949219 282.822998046875 70.65853881835938" stroke-width="2.0" fill="rgb(228, 171, 112)" opacity="1.0" stroke="rgb(228, 171, 112)" stroke-opacity="1.0" stroke-linecap="round" stroke-linejoin="round"/>
    <path d="M 240.2764892578125 293.3553466796875 C 240.42337036132812 294.9326171875 240.29693603515625 296.547607421875 239.88442993164062 298.1048583984375 C 239.15538024902344 299.6043395996094 238.02108764648438 301.0399169921875 236.36572265625 302.43756103515625 C 234.04440307617188 303.98699951171875 230.8679962158203 305.763427734375 226.65069580078125 307.7542724609375 C 221.29037475585938 309.8577575683594 214.8435821533203 311.8338317871094 207.45237731933594 313.4197998046875 C 199.4866943359375 314.08319091796875 191.47796630859375 313.5775146484375 184.16558837890625 312.213134765625 C 177.92752075195312 310.3104248046875 172.9686279296875 308.1710205078125 169.14451599121094 306.24627685546875 C 166.19981384277344 304.6994934082031 163.94505310058594 303.5562744140625 162.2622528076172 302.5367736816406 C 161.0039520263672 301.56036376953125 160.0559844970703 300.59881591796875 159.37908935546875 299.5517578125 C 158.92913818359375 298.37005615234375 158.68174743652344 297.0758056640625 158.64547729492188 295.7027893066406 C 158.81246948242188 294.267822265625 159.18313598632812 292.8065185546875 159.7926483154297 291.3472595214844 C 160.68124389648438 289.8712463378906 161.9428253173828 288.45281982421875 163.77474975585938 287.3493347167969 C 166.58433532714844 287.0908203125 170.90463256835938 288.1222839355469 177.28106689453125 289.9889221191406 C 186.00653076171875 292.00433349609375 196.28192138671875 293.24249267578125 206.71311950683594 293.20703125 C 216.01083374023438 292.1915283203125 223.44090270996094 290.88330078125 229.00640869140625 289.6572265625 C 233.02688598632812 288.8758544921875 235.81671142578125 288.7568359375 237.74632263183594 289.32855224609375 C 239.03233337402344 290.4512939453125 239.83767700195312 291.85430908203125 240.2764892578125 293.3553466796875" stroke-width="2.0" fill="rgb(127, 91, 89)" opacity="1.0" stroke="rgb(127, 91, 89)" stroke-opacity="1.0" stroke-linecap="round" stroke-linejoin="round"/>
    <path d="M 237.66407775878906 291.12066650390625 C 237.92967224121094 292.14483642578125 237.9683837890625 293.2563781738281 237.79095458984375 294.43524169921875 C 237.38006591796875 295.69427490234375 236.70095825195312 297.0278015136719 235.68643188476562 298.47674560546875 C 234.2042694091797 300.1041259765625 232.13427734375 301.95343017578125 229.28692626953125 304.05419921875 C 225.49533081054688 306.422607421875 220.61318969726562 309.00494384765625 214.6210174560547 311.49456787109375 C 207.65538024902344 313.41998291015625 200.03237915039062 314.1878662109375 192.2138671875 313.3348388671875 C 184.73709106445312 311.3836975097656 178.27784729003906 308.7940979003906 173.12039184570312 306.0984802246094 C 169.2134246826172 303.73297119140625 166.402587890625 301.67742919921875 164.42079162597656 299.9079284667969 C 163.01039123535156 298.3106384277344 162.0037078857422 296.79766845703125 161.33241271972656 295.4195556640625 C 160.93727111816406 294.1675109863281 160.7969970703125 293.0209045410156 160.9178924560547 291.9569396972656 C 161.2981719970703 290.9970397949219 161.96481323242188 290.1483459472656 162.9485626220703 289.4425354003906 C 164.29037475585938 288.9360656738281 166.07632446289062 288.6837463378906 168.46771240234375 288.7917785644531 C 171.8314208984375 289.5292663574219 176.75845336914062 291.1358947753906 183.7451934814453 293.03704833984375 C 192.9426727294922 294.2656555175781 203.16683959960938 294.3743591308594 212.68795776367188 293.4729919433594 C 220.18247985839844 291.9114990234375 225.51962280273438 290.2543640136719 229.26235961914062 289.1639709472656 C 231.91519165039062 288.66973876953125 233.84991455078125 288.6260986328125 235.3011474609375 288.9052734375 C 236.38003540039062 289.4723815917969 237.1538848876953 290.2279968261719 237.66407775878906 291.12066650390625" stroke-width="2.0" fill="rgb(111, 63, 52)" opacity="1.0" stroke="rgb(111, 63, 52)" stroke-opacity="1.0" stroke-linecap="round" stroke-linejoin="round"/>
    <path d="M 332.0302734375 235.1416473388672 C 332.32269287109375 241.41299438476562 332.3775329589844 248.78948974609375 332.3306884765625 256.28900146484375 C 332.2640380859375 262.91485595703125 332.11865234375 268.06561279296875 331.47637939453125 271.7618408203125 C 330.3120422363281 274.3620910644531 328.81878662109375 276.20648193359375 327.140625 277.5826416015625 C 325.3034973144531 278.6434326171875 323.4537353515625 279.44287109375 321.7187805175781 280.0092468261719 C 320.0704650878906 280.3502502441406 318.5724792480469 280.4504699707031 317.255615234375 280.3291015625 C 316.0352478027344 280.0001220703125 314.94683837890625 279.4162902832031 314.0720520019531 278.5526428222656 C 313.4106750488281 277.3668212890625 313.01739501953125 275.7899169921875 312.9682312011719 273.751953125 C 313.2474365234375 271.177490234375 313.82373046875 267.92919921875 314.33251953125 263.8276672363281 C 314.5105895996094 258.73291015625 314.52056884765625 252.6402130126953 314.6424560546875 246.08956909179688 C 315.1429748535156 239.95826721191406 315.82550048828125 234.74789428710938 316.6595153808594 230.5841522216797 C 317.6874084472656 227.42001342773438 318.76715087890625 224.9701690673828 319.77471923828125 223.11062622070312 C 320.666259765625 221.74098205566406 321.52667236328125 220.75473022460938 322.33935546875 220.07916259765625 C 323.1358947753906 219.66067504882812 323.9084777832031 219.4337158203125 324.67926025390625 219.3907470703125 C 325.4712219238281 219.54632568359375 326.3000183105469 219.91600036621094 327.1368103027344 220.5193328857422 C 328.01788330078125 221.40533447265625 328.9491882324219 222.63449096679688 329.8782958984375 224.35205078125 C 330.7074279785156 226.8512420654297 331.4503479003906 230.37586975097656 332.0302734375 235.1416473388672" stroke-width="2.0" fill="rgb(221, 173, 117)" opacity="1.0" stroke="rgb(221, 173, 117)" stroke-opacity="1.0" stroke-linecap="round" stroke-linejoin="round"/>
    <path d="M 158.83978271484375 237.49710083007812 C 159.2285919189453 240.66525268554688 159.19802856445312 243.8575897216797 158.76327514648438 246.78369140625 C 157.9552764892578 249.3498992919922 156.88235473632812 251.59307861328125 155.59642028808594 253.52420043945312 C 154.1365203857422 255.15548706054688 152.57070922851562 256.4891357421875 150.9190216064453 257.599609375 C 149.21807861328125 258.4879150390625 147.470703125 259.1683349609375 145.68539428710938 259.64190673828125 C 143.81292724609375 259.9146423339844 141.89459228515625 259.9957580566406 139.99127197265625 259.8978271484375 C 138.14385986328125 259.5986328125 136.3488006591797 259.1286315917969 134.64132690429688 258.4726867675781 C 132.9710693359375 257.5665588378906 131.31668090820312 256.35687255859375 129.74012756347656 254.84002685546875 C 128.2985076904297 253.02752685546875 127.0663833618164 250.9195556640625 126.13017272949219 248.50173950195312 C 125.5241928100586 245.80575561523438 125.27562713623047 242.94393920898438 125.41383361816406 240.15988159179688 C 125.91477966308594 237.61837768554688 126.66944122314453 235.34808349609375 127.65242004394531 233.2880859375 C 128.87364196777344 231.4832305908203 130.32061767578125 229.91372680664062 131.93601989746094 228.54400634765625 C 133.68148803710938 227.38230895996094 135.61083984375 226.43125915527344 137.71786499023438 225.68209838867188 C 140.00218200683594 225.15478515625 142.37525939941406 224.90423583984375 144.76358032226562 224.9353485107422 C 147.05252075195312 225.2514190673828 149.2034912109375 225.74765014648438 151.1315460205078 226.46437072753906 C 152.85504150390625 227.44659423828125 154.3934326171875 228.70164489746094 155.76095581054688 230.27464294433594 C 157.00584411621094 232.2256317138672 158.07681274414062 234.63119506835938 158.83978271484375 237.49710083007812" stroke-width="2.0" fill="rgb(141, 68, 47)" opacity="1.0" stroke="rgb(141, 68, 47)" stroke-opacity="1.0" stroke-linecap="round" stroke-linejoin="round"/>
    <path d="M 273.6033020019531 240.9430389404297 C 273.6558837890625 243.86630249023438 273.2984924316406 246.50674438476562 272.6084899902344 248.78805541992188 C 271.71685791015625 250.77264404296875 270.6824951171875 252.49420166015625 269.5263671875 253.9509735107422 C 268.2838439941406 255.17849731445312 266.9494934082031 256.2153015136719 265.5198059082031 257.09295654296875 C 263.96722412109375 257.8007507324219 262.2882995605469 258.3560485839844 260.49566650390625 258.7773742675781 C 258.5561828613281 259.0445861816406 256.567626953125 259.1274719238281 254.57525634765625 259.00030517578125 C 252.633056640625 258.6966552734375 250.780517578125 258.2144775390625 249.03713989257812 257.54388427734375 C 247.37664794921875 256.6399230957031 245.79327392578125 255.48556518554688 244.3184356689453 254.09140014648438 C 243.00723266601562 252.47723388671875 241.8682098388672 250.6021270751953 240.97076416015625 248.3514862060547 C 240.3617706298828 245.76756286621094 240.13265991210938 242.99526977539062 240.2834014892578 240.337890625 C 240.76864624023438 237.93809509277344 241.49005126953125 235.76171875 242.43988037109375 233.79843139648438 C 243.6055145263672 232.0738067626953 244.97181701660156 230.57717895507812 246.49868774414062 229.24374389648438 C 248.13548278808594 228.08338928222656 249.90155029296875 227.13470458984375 251.80130004882812 226.38333129882812 C 253.84317016601562 225.83119201660156 255.99630737304688 225.5425567626953 258.2136535644531 225.61050415039062 C 260.469482421875 226.04757690429688 262.6849670410156 226.7977752685547 264.8352355957031 227.8341522216797 C 266.90338134765625 229.20108032226562 268.84619140625 230.89987182617188 270.6092224121094 232.92332458496094 C 272.0607604980469 235.29916381835938 273.0704345703125 238.01914978027344 273.6033020019531 240.9430389404297" stroke-width="2.0" fill="rgb(90, 58, 84)" opacity="1.0" stroke="rgb(90, 58, 84)" stroke-opacity="1.0" stroke-linecap="round" stroke-linejoin="round"/>
    <path d="M 82.19590759277344 250.94845581054688 C 82.73336791992188 257.96258544921875 83.38331604003906 264.1568603515625 84.15381622314453 269.0526123046875 C 84.77739715576172 272.6965026855469 85.24101257324219 275.234130859375 85.49333190917969 276.9485168457031 C 85.53134155273438 278.1451110839844 85.370849609375 278.9749755859375 85.01138305664062 279.5264892578125 C 84.45187377929688 279.861083984375 83.72276306152344 279.9967956542969 82.84507751464844 279.958251953125 C 81.82339477539062 279.75482177734375 80.68627166748047 279.3809509277344 79.4709701538086 278.8349609375 C 78.15684509277344 278.09478759765625 76.7391357421875 277.10400390625 75.23082733154297 275.7967529296875 C 73.67753601074219 274.1287536621094 72.19764709472656 271.97088623046875 70.85966491699219 269.1191711425781 C 69.69964599609375 265.34881591796875 68.8326644897461 260.4281311035156 68.21209716796875 254.36163330078125 C 67.86028289794922 247.86083984375 67.98249053955078 241.8728485107422 68.28208923339844 236.87332153320312 C 68.67454528808594 232.89312744140625 69.20063018798828 229.7726593017578 69.87457275390625 227.36453247070312 C 70.62632751464844 225.5272216796875 71.41930389404297 224.13658142089844 72.2275619506836 223.0960693359375 C 73.06494140625 222.3483428955078 73.9259033203125 221.86427307128906 74.75788116455078 221.63214111328125 C 75.54425811767578 221.6481475830078 76.2542953491211 221.88818359375 76.86871337890625 222.3423309326172 C 77.416748046875 223.03225708007812 77.98666381835938 223.9930877685547 78.6168212890625 225.305419921875 C 79.27043151855469 227.12356567382812 79.92866516113281 229.65403747558594 80.4848403930664 233.18215942382812 C 81.02247619628906 237.92529296875 81.6138916015625 243.99412536621094 82.19590759277344 250.94845581054688" stroke-width="2.0" fill="rgb(233, 151, 115)" opacity="1.0" stroke="rgb(233, 151, 115)" stroke-opacity="1.0" stroke-linecap="round" stroke-linejoin="round"/>
    <path d="M 281.3003234863281 212.8387451171875 C 281.5570068359375 213.98681640625 281.60321044921875 215.08424377441406 281.4506530761719 216.1292266845703 C 281.093994140625 217.120849609375 280.5127868652344 217.972900390625 279.6885681152344 218.57766723632812 C 278.576416015625 218.89085388183594 277.0759582519531 218.79147338867188 275.0306091308594 218.18467712402344 C 272.32763671875 217.1020965576172 268.82891845703125 215.613525390625 264.49261474609375 214.0806884765625 C 259.34271240234375 212.9866485595703 253.58746337890625 212.7887420654297 247.7040252685547 213.60275268554688 C 242.4657745361328 215.0623016357422 238.31417846679688 216.6072540283203 235.30294799804688 217.74375915527344 C 233.181396484375 218.215576171875 231.72071838378906 218.09579467773438 230.65843200683594 217.67120361328125 C 229.87997436523438 217.07688903808594 229.31494140625 216.41429138183594 228.9345703125 215.70455932617188 C 228.7285614013672 214.94895935058594 228.68142700195312 214.18350219726562 228.80453491210938 213.42449951171875 C 229.11082458496094 212.6645965576172 229.61911010742188 211.89599609375 230.381591796875 211.0826416015625 C 231.45945739746094 210.10073852539062 232.9498748779297 208.87261962890625 234.9746856689453 207.33975219726562 C 237.7626190185547 205.5354461669922 241.53919982910156 203.67770385742188 246.29910278320312 202.06788635253906 C 251.83274841308594 201.06224060058594 257.4070739746094 200.8727264404297 262.55194091796875 201.49241638183594 C 267.0184020996094 202.59173583984375 270.63897705078125 203.96054077148438 273.53759765625 205.3746337890625 C 275.8401794433594 206.75096130371094 277.6318054199219 208.03677368164062 279.02020263671875 209.25567626953125 C 280.0601501464844 210.47308349609375 280.807373046875 211.6750030517578 281.3003234863281 212.8387451171875" stroke-width="2.0" fill="rgb(188, 153, 78)" opacity="1.0" stroke="rgb(188, 153, 78)" stroke-opacity="1.0" stroke-linecap="round" stroke-linejoin="round"/>
    <path d="M 170.30032348632812 212.8387451171875 C 170.5570068359375 213.98681640625 170.60321044921875 215.08424377441406 170.45065307617188 216.1292266845703 C 170.09397888183594 217.120849609375 169.51278686523438 217.972900390625 168.68858337402344 218.57766723632812 C 167.576416015625 218.89085388183594 166.07595825195312 218.79147338867188 164.03060913085938 218.18467712402344 C 161.32763671875 217.1020965576172 157.82891845703125 215.613525390625 153.49261474609375 214.0806884765625 C 148.34271240234375 212.9866485595703 142.58746337890625 212.7887420654297 136.7040252685547 213.60275268554688 C 131.4657745361328 215.0623016357422 127.31417846679688 216.6072540283203 124.30294036865234 217.74375915527344 C 122.18138885498047 218.215576171875 120.72071838378906 218.09579467773438 119.65843200683594 217.67120361328125 C 118.87997436523438 217.07688903808594 118.31494903564453 216.41429138183594 117.9345703125 215.70455932617188 C 117.72856140136719 214.94895935058594 117.68142700195312 214.18350219726562 117.80453491210938 213.42449951171875 C 118.11083221435547 212.6645965576172 118.61910247802734 211.89599609375 119.38159942626953 211.0826416015625 C 120.45945739746094 210.10073852539062 121.94987487792969 208.87261962890625 123.97468566894531 207.33975219726562 C 126.76261901855469 205.5354461669922 130.53919982910156 203.67770385742188 135.29910278320312 202.06788635253906 C 140.83274841308594 201.06224060058594 146.40707397460938 200.8727264404297 151.55194091796875 201.49241638183594 C 156.01840209960938 202.59173583984375 159.63897705078125 203.96054077148438 162.53758239746094 205.3746337890625 C 164.84019470214844 206.75096130371094 166.6317901611328 208.03677368164062 168.02020263671875 209.25567626953125 C 169.06015014648438 210.47308349609375 169.80735778808594 211.6750030517578 170.30032348632812 212.8387451171875" stroke-width="2.0" fill="rgb(188, 153, 78)" opacity="1.0" stroke="rgb(188, 153, 78)" stroke-opacity="1.0" stroke-linecap="round" stroke-linejoin="round"/>
    <path d="M 320.52203369140625 286.1519470214844 C 319.83428955078125 288.962646484375 318.6566162109375 292.5377502441406 316.9957580566406 296.7525939941406 C 314.9324645996094 301.4743347167969 312.4541931152344 306.26708984375 309.6883544921875 310.6781311035156 C 306.8670959472656 314.5178527832031 304.21820068359375 317.6189880371094 301.772216796875 319.9684143066406 C 299.4056396484375 321.69476318359375 297.1478271484375 322.94189453125 295.06195068359375 323.8448181152344 C 293.1748962402344 324.47711181640625 291.5120849609375 324.8721923828125 290.0787353515625 325.0589904785156 C 288.8749084472656 325.0474853515625 287.941162109375 324.83221435546875 287.31610107421875 324.41845703125 C 286.94287109375 323.7939453125 286.779052734375 322.9178161621094 286.8453369140625 321.7263488769531 C 287.1701965332031 320.13128662109375 287.86004638671875 317.961669921875 289.0703125 314.97357177734375 C 290.9224853515625 311.0436096191406 293.23956298828125 306.13861083984375 295.38433837890625 300.4851379394531 C 297.10943603515625 294.745849609375 298.7015075683594 289.5042419433594 300.25439453125 285.21600341796875 C 301.7364807128906 282.00628662109375 303.1331787109375 279.70391845703125 304.4519958496094 278.1236877441406 C 305.69256591796875 277.05474853515625 306.89630126953125 276.35870361328125 308.1158142089844 275.9347229003906 C 309.4035339355469 275.73260498046875 310.7796936035156 275.724609375 312.24542236328125 275.9139099121094 C 313.7546691894531 276.2892761230469 315.2673034667969 276.84271240234375 316.7164306640625 277.5796203613281 C 318.0336608886719 278.5064392089844 319.1475524902344 279.57989501953125 320.0101013183594 280.8052062988281 C 320.5535888671875 282.25018310546875 320.7507629394531 283.97979736328125 320.52203369140625 286.1519470214844" stroke-width="2.0" fill="rgb(182, 195, 141)" opacity="1.0" stroke="rgb(182, 195, 141)" stroke-opacity="1.0" stroke-linecap="round" stroke-linejoin="round"/>
    <path d="M 109.63418579101562 284.2385559082031 C 110.01405334472656 287.7254638671875 109.95272827148438 292.3429870605469 109.47379302978516 298.02001953125 C 108.70649719238281 304.2391662597656 107.81842803955078 310.15142822265625 106.96212768554688 315.1463317871094 C 106.09187316894531 318.9362487792969 105.10428619384766 321.5874328613281 103.86048889160156 323.32403564453125 C 102.27145385742188 324.4388732910156 100.42276000976562 325.1334228515625 98.47663116455078 325.5594177246094 C 96.47338104248047 325.7641296386719 94.55470275878906 325.7489013671875 92.81344604492188 325.5144348144531 C 91.23200988769531 325.0311584472656 89.86853790283203 324.2604064941406 88.82723999023438 323.1816711425781 C 88.09770202636719 321.743896484375 87.66449737548828 319.8425598144531 87.41635131835938 317.37457275390625 C 86.95893096923828 314.26739501953125 86.16553497314453 310.419921875 85.28787231445312 305.86224365234375 C 84.5340347290039 301.00335693359375 84.16853332519531 296.2326354980469 84.27191162109375 291.8398132324219 C 84.85530090332031 287.9483642578125 85.84381103515625 284.54498291015625 87.03266906738281 281.6658935546875 C 88.40723419189453 279.3333435058594 89.90579223632812 277.4725036621094 91.4237060546875 276.0406494140625 C 92.8878173828125 274.99676513671875 94.29997253417969 274.2490539550781 95.5931396484375 273.7553405761719 C 96.79261779785156 273.48583984375 97.94139099121094 273.41180419921875 99.07989501953125 273.4983215332031 C 100.26957702636719 273.74188232421875 101.53800201416016 274.14501953125 102.88725280761719 274.7576904296875 C 104.23095703125 275.6090087890625 105.55719757080078 276.6980285644531 106.77793884277344 278.0157470703125 C 107.88998413085938 279.60906982421875 108.90449523925781 281.6249084472656 109.63418579101562 284.2385559082031" stroke-width="2.0" fill="rgb(242, 203, 142)" opacity="1.0" stroke="rgb(242, 203, 142)" stroke-opacity="1.0" stroke-linecap="round" stroke-linejoin="round"/>
  </g>
</svg>
